<?xml version="1.0" encoding="UTF-8" standalone="no"?>
<!DOCTYPE svg PUBLIC "-//W3C//DTD SVG 1.1//EN" "http://www.w3.org/Graphics/SVG/1.1/DTD/svg11.dtd">
<svg width="612pt" height="792pt" viewBox="0 0 612 792" overflow="visible" version="1.1" xmlns="http://www.w3.org/2000/svg">
  <path d="M374.2605,356.858 L385.1551,335.938 C383.7231,349.5306 382.4388,356.1931 380.5846,364.3626 C378.7304,372.532 376.3064,382.2083 374.9515,387.5999 L373.147,394.8261 L372.9971,396.1652 L373.4699,396.9295 C373.7294,397.253 374.092,397.7223 378.3109,400.5182" stroke="#FF0000" stroke-width="0.24" fill-opacity="0" />
  <path d="M394.1032,309.1484 L379.4289,333.5169 L365.3221,396.9313 L358.9854,397.5746 L358.5681,398.1974 L357.4177,400.172 L357.1244,400.8399 L359.2337,404.0996 C362.3041,409.7226 362.6832,410.911 363.0622,412.0993 L364.3558,416.1548 L369.5126,418.0401 C370.8434,416.3211 372.1742,414.6022 376.4922,410.2764 L380.4767,409.2901 L381.1535,408.4101 L383.0647,405.0415 L383.5482,403.9904 L378.3109,400.5182 C397.6121,345.6406 398.9279,340.7282 399.6736,337.1316 C400.4192,333.535 400.5946,331.2542 400.6239,329.2074 C400.6531,327.1606 400.5362,325.3477 400.3022,323.6517 C400.0683,321.9557 399.7174,320.3768 399.0595,318.3153 C398.4016,316.2538 397.4367,313.7099 394.1032,309.1484 z" stroke="#00FF00" stroke-width="0.24" fill-opacity="0" />
  <path d="M373.9489,406.5399 C373.5982,405.7376 374.2362,404.4952 375.0926,404.3127 C375.8949,403.962 377.1373,404.5999 377.3198,405.4563 C377.6705,406.2586 377.0325,407.501 376.1761,407.6836 C375.3738,408.0342 374.1314,407.3963 373.9489,406.5399 z" stroke="#00FF00" stroke-width="0.24" fill-opacity="0" />
  <path d="M366.7434,404.4623 C367.4532,403.9496 367.5352,402.5554 366.8904,401.963 C366.3777,401.2532 364.9835,401.1712 364.3911,401.8159 C363.6813,402.3287 363.5993,403.7229 364.244,404.3153 C364.7568,405.0251 366.151,405.1071 366.7434,404.4623 z" stroke="#00FF00" stroke-width="0.24" fill-opacity="0" />
  <path d="M385.1551,335.938 L394.1033,309.1484" stroke="#FF0000" stroke-width="0.24" fill-opacity="0" />
</svg>