<?xml version="1.0" encoding="UTF-8" standalone="no"?>
<!DOCTYPE svg PUBLIC "-//W3C//DTD SVG 1.1//EN" "http://www.w3.org/Graphics/SVG/1.1/DTD/svg11.dtd">
<svg width="612pt" height="792pt" viewBox="0 0 612 792" overflow="visible" version="1.1" xmlns="http://www.w3.org/2000/svg">
  <path d="M309.8734,366.8582 C310.2974,362.6758 305.5562,357.9346 301.3737,358.3586 C297.1913,357.9346 292.4501,362.6758 292.8741,366.8582 C292.4501,371.0406 297.1913,375.7819 301.3737,375.3579 C305.5562,375.7819 310.2974,371.0406 309.8734,366.8582 z" stroke="#000000" stroke-width="0.24" fill-opacity="0" />
  <path d="M309.8734,279.433 C310.2974,275.2505 305.5562,270.5093 301.3737,270.9333 C297.1913,270.5093 292.4501,275.2505 292.8741,279.433 C292.4501,283.6154 297.1913,288.3567 301.3737,287.9326 C305.5562,288.3567 310.2974,283.6154 309.8734,279.433 z" stroke="#000000" stroke-width="0.24" fill-opacity="0" />
  <path d="M301.3737,320.7171 C300.1788,320.596 298.8241,321.9506 298.9453,323.1456 C298.8241,324.3406 300.1788,325.6953 301.3737,325.5741 C302.5687,325.6953 303.9234,324.3406 303.8022,323.1456 C303.9234,321.9506 302.5687,320.596 301.3737,320.7171 z" stroke="#000000" stroke-width="0.24" fill-opacity="0" />
  <path d="M322.3073,334.4677 C322.4284,333.2727 321.0737,331.918 319.8788,332.0392 C318.6838,331.918 317.3291,333.2727 317.4503,334.4677 C317.3291,335.6626 318.6838,337.0173 319.8788,336.8961 C321.0737,337.0173 322.4284,335.6626 322.3073,334.4677 z" stroke="#000000" stroke-width="0.24" fill-opacity="0" />
  <path d="M322.3073,311.8228 C322.4284,310.6278 321.0737,309.2732 319.8788,309.3943 C318.6838,309.2732 317.3291,310.6278 317.4503,311.8228 C317.3291,313.0178 318.6838,314.3725 319.8788,314.2513 C321.0737,314.3725 322.4284,313.0178 322.3073,311.8228 z" stroke="#000000" stroke-width="0.24" fill-opacity="0" />
  <path d="M301.3737,433.6414 C305.5557,434.0643 310.2954,429.3236 309.8716,425.1418 C310.2954,420.9599 305.5557,416.2192 301.3737,416.6421 C297.1918,416.2192 292.4521,420.9599 292.8759,425.1418 C292.4521,429.3236 297.1918,434.0643 301.3737,433.6414 z" stroke="#000000" stroke-width="0.24" fill-opacity="0" />
  <path d="M322.3091,457.5323 C322.4302,456.3374 321.0755,454.9827 319.8806,455.1039 C318.6856,454.9827 317.3309,456.3374 317.4521,457.5323 C317.3309,458.7273 318.6856,460.082 319.8806,459.9608 C321.0755,460.082 322.4302,458.7273 322.3091,457.5323 z" stroke="#000000" stroke-width="0.24" fill-opacity="0" />
  <path d="M322.3091,480.1772 C322.4302,478.9822 321.0755,477.6275 319.8806,477.7487 C318.6856,477.6275 317.3309,478.9822 317.4521,480.1772 C317.3309,481.3722 318.6856,482.7268 319.8806,482.6057 C321.0755,482.7268 322.4302,481.3722 322.3091,480.1772 z" stroke="#000000" stroke-width="0.24" fill-opacity="0" />
  <path d="M316.7919,366.8582 L316.7925,347.786 C316.7801,346.8542 317.1917,345.8604 317.8594,345.2104 L324.9802,338.0896 C325.6479,337.4395 326.0595,336.4456 326.0471,335.5138 L326.0471,310.7767 C326.0595,309.8449 325.6479,308.851 324.9802,308.2009 L317.8609,301.0817 C317.1932,300.4315 316.7815,299.4376 316.794,298.5057 L316.7946,279.4335 C316.8474,275.4887 315.1047,271.2812 312.2782,268.5291 C309.5262,265.7024 305.3187,263.9595 301.374,264.0121 C297.4293,263.9594 293.2217,265.7021 290.4696,268.5287 C287.643,271.2808 285.9002,275.4883 285.9529,279.433 L285.9556,366.8582 L285.9511,512.5665 C285.8983,516.5116 287.6413,520.7195 290.4682,523.4717 C293.2206,526.2984 297.4287,528.0411 301.3737,527.9879 C305.3188,528.0411 309.5269,526.2984 312.2793,523.4717 C315.1062,520.7195 316.8492,516.5116 316.7964,512.5665 L316.7958,493.4943 C316.7833,492.5624 317.195,491.5685 317.8627,490.9183 L324.982,483.7991 C325.6497,483.149 326.0613,482.1551 326.0489,481.2233 L326.0489,456.4862 C326.0613,455.5544 325.6497,454.5605 324.982,453.9104 L317.8612,446.7896 C317.1935,446.1396 316.7819,445.1458 316.7943,444.214 z" stroke="#000000" stroke-width="0.24" fill-opacity="0" />
  <path d="M301.3737,471.2829 C302.5683,471.4029 303.9214,470.0488 303.8004,468.8544 C303.9214,467.6599 302.5683,466.3058 301.3737,466.4259 C300.1792,466.3058 298.8261,467.6599 298.9471,468.8544 C298.8261,470.0488 300.1792,471.4029 301.3737,471.2829 z" stroke="#000000" stroke-width="0.24" fill-opacity="0" />
  <path d="M301.3737,521.0667 C305.5557,521.4896 310.2954,516.7489 309.8716,512.567 C310.2954,508.3851 305.5557,503.6444 301.3737,504.0674 C297.1918,503.6444 292.4521,508.3851 292.8759,512.567 C292.4521,516.7489 297.1918,521.4896 301.3737,521.0667 z" stroke="#000000" stroke-width="0.24" fill-opacity="0" />
</svg>