<?xml version="1.0" encoding="UTF-8" standalone="no"?>
<!DOCTYPE svg PUBLIC "-//W3C//DTD SVG 1.1//EN" "http://www.w3.org/Graphics/SVG/1.1/DTD/svg11.dtd">
<svg width="612pt" height="792pt" viewBox="0 0 612 792" overflow="visible" version="1.1" xmlns="http://www.w3.org/2000/svg">
  <path d="M356.2464,330.3802 C355.6906,330.3239 355.0605,330.954 355.1169,331.5098 C355.0605,332.0656 355.6906,332.6957 356.2464,332.6393 C356.8022,332.6957 357.4323,332.0656 357.3759,331.5098 C357.4323,330.954 356.8022,330.3239 356.2464,330.3802 z" stroke="#000000" stroke-width="0.24" fill-opacity="0" />
  <path d="M356.246,337.5528 C355.6902,337.4965 355.0601,338.1266 355.1164,338.6824 C355.0601,339.2382 355.6902,339.8683 356.246,339.8119 C356.8018,339.8683 357.4319,339.2382 357.3755,338.6824 C357.4319,338.1266 356.8018,337.4965 356.246,337.5528 z" stroke="#000000" stroke-width="0.24" fill-opacity="0" />
  <path d="M369.1495,331.1336 C367.2042,330.9363 364.9989,333.1416 365.1961,335.0869 C364.9989,337.0323 367.2042,339.2375 369.1495,339.0403 C371.0948,339.2375 373.3001,337.0323 373.1029,335.0869 C373.3001,333.1416 371.0948,330.9363 369.1495,331.1336 z" stroke="#000000" stroke-width="0.24" fill-opacity="0" />
  <path d="M222.8235,329.1851 C222.4332,329.1718 222.001,329.4303 221.8282,329.7805 C221.6319,330.1181 221.6553,330.6212 221.8822,330.939 L221.9763,331.2512 L221.9763,338.9792 L221.8822,339.2914 C221.6553,339.6092 221.6319,340.1123 221.8282,340.4499 C222.001,340.8 222.4332,341.0586 222.8235,341.0453 L244.8495,341.0453 C245.2829,341.0659 245.7692,340.731 245.9047,340.3188 C246.0786,339.9212 245.9393,339.3474 245.6025,339.0738 L245.4143,338.6529 L245.4143,331.5775 L245.6025,331.1566 C245.9393,330.8829 246.0786,330.3091 245.9047,329.9116 C245.7692,329.4994 245.2829,329.1645 244.8495,329.1851 z" stroke="#000000" stroke-width="0.24" fill-opacity="0" />
  <path d="M215.0833,333.9715 C214.5275,333.9152 213.8974,334.5453 213.9538,335.1011 C213.8974,335.6569 214.5275,336.287 215.0833,336.2306 C215.6391,336.287 216.2692,335.6569 216.2129,335.1011 C216.2692,334.5453 215.6391,333.9152 215.0833,333.9715 z" stroke="#000000" stroke-width="0.24" fill-opacity="0" />
  <path d="M246.8167,344.4137 C247.5364,344.4182 248.2869,344.1816 248.8739,343.7651 L250.094,342.9108 C250.6809,342.4943 251.4315,342.2576 252.1512,342.2622 L365.9864,342.2693 L369.1274,342.2595 C370.9932,342.2915 372.9897,341.4555 374.2759,340.1035 C375.5997,338.7883 376.3923,336.7742 376.3199,334.9095 C376.3,333.0436 375.4088,331.0711 374.0215,329.823 C372.67,328.5363 370.6346,327.8 368.7727,327.9243 L252.158,327.9171 C251.4384,327.9216 250.688,327.685 250.1012,327.2685 L248.8802,326.4136 C248.2934,325.9971 247.543,325.7605 246.8234,325.765 L208.1909,325.7626 C203.6027,325.2972 198.4011,330.4981 198.866,335.0864 C198.4006,339.6746 203.6015,344.8762 208.1897,344.4113 z" stroke="#000000" stroke-width="0.24" fill-opacity="0" />
  <path d="M208.1903,331.1336 C206.245,330.9363 204.0397,333.1416 204.2369,335.0869 C204.0397,337.0323 206.245,339.2375 208.1903,339.0403 C210.1357,339.2375 212.3409,337.0323 212.1437,335.0869 C212.3409,333.1416 210.1357,330.9363 208.1903,331.1336 z" stroke="#000000" stroke-width="0.24" fill-opacity="0" />
  <path d="M287.0886,333.9623 C286.5327,333.9059 285.9027,334.536 285.959,335.0918 C285.9027,335.6476 286.5327,336.2777 287.0886,336.2213 C287.6444,336.2777 288.2744,335.6476 288.2181,335.0918 C288.2744,334.536 287.6444,333.9059 287.0886,333.9623 z" stroke="#000000" stroke-width="0.24" fill-opacity="0" />
</svg>