<?xml version="1.0" encoding="UTF-8" standalone="no"?>
<!DOCTYPE svg PUBLIC "-//W3C//DTD SVG 1.1//EN" "http://www.w3.org/Graphics/SVG/1.1/DTD/svg11.dtd">
<svg width="612pt" height="792pt" viewBox="0 0 612 792" overflow="visible" version="1.1" xmlns="http://www.w3.org/2000/svg">
  <path d="M237.6343,307.9394 C237.4405,307.9197 237.2208,308.1394 237.2405,308.3332 C237.2208,308.527 237.4405,308.7467 237.6343,308.7271 C237.8281,308.7467 238.0478,308.527 238.0282,308.3332 C238.0478,308.1394 237.8281,307.9197 237.6343,307.9394 z" stroke="#000000" stroke-width="0.24" fill-opacity="0" />
  <path d="M237.6342,309.9086 C237.4404,309.8889 237.2207,310.1086 237.2403,310.3024 C237.2207,310.4962 237.4404,310.7159 237.6342,310.6963 C237.828,310.7159 238.0477,310.4962 238.028,310.3024 C238.0477,310.1086 237.828,309.8889 237.6342,309.9086 z" stroke="#000000" stroke-width="0.24" fill-opacity="0" />
  <path d="M228.1819,309.9079 C227.9881,309.8882 227.7684,310.1079 227.788,310.3017 C227.7684,310.4955 227.9881,310.7152 228.1819,310.6956 C228.3757,310.7152 228.5954,310.4955 228.5757,310.3017 C228.5954,310.1079 228.3757,309.8882 228.1819,309.9079 z" stroke="#000000" stroke-width="0.24" fill-opacity="0" />
  <path d="M228.182,307.9387 C227.9882,307.919 227.7685,308.1387 227.7882,308.3325 C227.7685,308.5263 227.9882,308.746 228.182,308.7263 C228.3758,308.746 228.5955,308.5263 228.5759,308.3325 C228.5955,308.1387 228.3758,307.919 228.182,307.9387 z" stroke="#000000" stroke-width="0.24" fill-opacity="0" />
  <path d="M237.1912,308.924 L237.9789,308.924 C238.1727,308.9044 238.3924,309.1241 238.3727,309.3179 C238.3923,309.5117 238.1726,309.7314 237.9788,309.7117 L237.1911,309.7116 C237.0943,309.7018 236.9844,309.8116 236.9942,309.9085 L236.9942,310.5513 L237.0598,310.6981 C237.1772,310.7935 237.2258,310.9936 237.1651,311.1322 C237.1179,311.2759 236.9483,311.3926 236.7972,311.3855 L229.1172,311.3849 C228.9811,311.3895 228.8304,311.2993 228.7702,311.1772 C228.7017,311.0595 228.7099,310.8841 228.789,310.7733 L228.8219,310.6645 L228.8219,309.9079 C228.8317,309.811 228.7219,309.7012 228.625,309.711 L227.8373,309.7109 C227.6435,309.7306 227.4238,309.5109 227.4435,309.317 C227.4239,309.1233 227.6436,308.9036 227.8374,308.9232 L228.6251,308.9233 C228.722,308.9331 228.8318,308.8233 228.822,308.7264 L228.8221,307.9699 L228.7892,307.861 C228.7102,307.7502 228.702,307.5748 228.7705,307.4571 C228.8307,307.335 228.9814,307.2448 229.1175,307.2495 L236.7975,307.2501 C236.9486,307.2429 237.1182,307.3597 237.1654,307.5034 C237.226,307.642 237.1774,307.8421 237.06,307.9375 L236.9944,308.0843 L236.9943,308.727 C236.9845,308.8239 237.0943,308.9338 237.1912,308.924 z" stroke="#000000" stroke-width="0.24" fill-opacity="0" />
  <path d="M275.6388,310.1707 C275.445,310.151 275.2253,310.3707 275.2449,310.5645 C275.2253,310.7583 275.445,310.978 275.6388,310.9583 C275.8326,310.978 276.0523,310.7583 276.0326,310.5645 C276.0523,310.3707 275.8326,310.151 275.6388,310.1707 z" stroke="#000000" stroke-width="0.24" fill-opacity="0" />
  <path d="M275.6391,307.6697 C275.4453,307.6501 275.2256,307.8698 275.2453,308.0636 C275.2256,308.2574 275.4453,308.4771 275.6391,308.4574 C275.8329,308.4771 276.0526,308.2574 276.033,308.0636 C276.0526,307.8698 275.8329,307.6501 275.6391,307.6697 z" stroke="#000000" stroke-width="0.24" fill-opacity="0" />
  <path d="M251.5252,308.9169 C251.3314,308.8972 251.1117,309.1169 251.1313,309.3107 C251.1117,309.5045 251.3314,309.7242 251.5252,309.7046 C251.719,309.7242 251.9387,309.5045 251.919,309.3107 C251.9387,309.1169 251.719,308.8972 251.5252,308.9169 z" stroke="#000000" stroke-width="0.24" fill-opacity="0" />
  <path d="M226.4162,308.9237 C226.2224,308.9041 226.0027,309.1237 226.0223,309.3175 C226.0027,309.5113 226.2224,309.731 226.4162,309.7114 C226.61,309.731 226.8297,309.5113 226.81,309.3175 C226.8297,309.1237 226.61,308.9041 226.4162,308.9237 z" stroke="#000000" stroke-width="0.24" fill-opacity="0" />
  <path d="M237.6079,312.485 L238.3253,312.2589 L238.6433,312.0361 L239.3607,311.81 L279.035,311.8154 L280.1302,311.8121 C280.7807,311.8233 281.4769,311.5319 281.9254,311.0605 C282.387,310.602 282.6635,309.8997 282.6382,309.2495 C282.6313,308.5989 282.3206,307.9111 281.837,307.4759 C281.3658,307.0272 280.6561,306.7704 280.0069,306.8137 L239.3282,306.8081 L238.6111,306.582 L238.2923,306.3588 L237.5753,306.1327 L224.0155,306.1308 C222.4526,305.9721 220.6807,307.7436 220.8389,309.3065 C220.6803,310.8694 222.4517,312.6414 224.0146,312.4831 z" stroke="#000000" stroke-width="0.24" fill-opacity="0" />
  <path d="M280.1381,307.9327 C279.4598,307.864 278.6909,308.6329 278.7596,309.3112 C278.6909,309.9895 279.4598,310.7584 280.1381,310.6896 C280.8164,310.7584 281.5853,309.9895 281.5165,309.3112 C281.5853,308.6329 280.8164,307.864 280.1381,307.9327 z" stroke="#000000" stroke-width="0.24" fill-opacity="0" />
  <path d="M224.0151,307.9285 C223.3368,307.8597 222.5679,308.6287 222.6366,309.3069 C222.5679,309.9853 223.3368,310.7542 224.0151,310.6854 C224.6934,310.7542 225.4623,309.9853 225.3935,309.3069 C225.4623,308.6287 224.6934,307.8597 224.0151,307.9285 z" stroke="#000000" stroke-width="0.24" fill-opacity="0" />
</svg>