<?xml version="1.0" encoding="UTF-8" standalone="no"?>
<!DOCTYPE svg PUBLIC "-//W3C//DTD SVG 1.1//EN" "http://www.w3.org/Graphics/SVG/1.1/DTD/svg11.dtd">
<svg width="612pt" height="792pt" viewBox="0 0 612 792" overflow="visible" version="1.1" xmlns="http://www.w3.org/2000/svg">
  <path d="M197.3891,472.7055 C197.4466,472.139 196.8044,471.4969 196.238,471.5543 C195.6715,471.4969 195.0294,472.139 195.0868,472.7055 C195.0294,473.2719 195.6715,473.914 196.238,473.8566 C196.8044,473.914 197.4466,473.2719 197.3891,472.7055 z" stroke="#00FF00" stroke-width="0.24" fill-opacity="0" />
  <path d="M192.303,489.9597 C192.2478,489.415 192.8652,488.7975 193.4099,488.8528 C193.9545,488.7975 194.572,489.415 194.5168,489.9597 C194.572,490.5043 193.9545,491.1217 193.4099,491.0665 C192.8652,491.1217 192.2478,490.5043 192.303,489.9597 z" stroke="#00FF00" stroke-width="0.24" fill-opacity="0" />
  <path d="M249.6864,440.8708 C251.1426,440.7232 252.7934,442.374 252.6458,443.8302 C252.7934,445.2864 251.1426,446.9372 249.6864,446.7896 L191.3906,447.8071 C191.1617,447.8143 190.9155,447.7161 190.7545,447.5533 C190.589,447.3951 190.4865,447.1507 190.4896,446.9218 L190.4896,440.7386 C190.4865,440.5097 190.589,440.2652 190.7545,440.107 C190.9155,439.9443 191.1617,439.8461 191.3906,439.8532 z" stroke="#00FF00" stroke-width="0.24" fill-opacity="0" />
  <path d="M194.5559,466.1321 C194.6111,465.5875 193.9937,464.9701 193.449,465.0253 C192.9044,464.9701 192.2869,465.5875 192.3421,466.1321 C192.2869,466.6768 192.9044,467.2943 193.449,467.239 C193.9937,467.2943 194.6111,466.6768 194.5559,466.1321 z" stroke="#00FF00" stroke-width="0.24" fill-opacity="0" />
  <path d="M200.173,489.9597 C200.2282,489.415 199.6107,488.7975 199.0661,488.8528 C198.5214,488.7975 197.904,489.415 197.9592,489.9597 C197.904,490.5043 198.5214,491.1217 199.0661,491.0665 C199.6107,491.1217 200.2282,490.5043 200.173,489.9597 z" stroke="#00FF00" stroke-width="0.24" fill-opacity="0" />
  <path d="M194.5559,451.3044 C194.6111,450.7597 193.9937,450.1422 193.449,450.1974 C192.9044,450.1422 192.2869,450.7597 192.3421,451.3044 C192.2869,451.849 192.9044,452.4664 193.449,452.4112 C193.9937,452.4664 194.6111,451.849 194.5559,451.3044 z" stroke="#00FF00" stroke-width="0.24" fill-opacity="0" />
  <path d="M192.303,476.816 C192.2478,476.2714 192.8652,475.6539 193.4099,475.7091 C193.9545,475.6539 194.572,476.2714 194.5168,476.816 C194.572,477.3607 193.9545,477.9781 193.4099,477.9229 C192.8652,477.9781 192.2478,477.3607 192.303,476.816 z" stroke="#00FF00" stroke-width="0.24" fill-opacity="0" />
  <path d="M249.5284,451.3044 C249.6115,450.4852 248.6828,449.5565 247.8637,449.6396 C247.0445,449.5565 246.1159,450.4852 246.1989,451.3044 C246.1159,452.1235 247.0445,453.0521 247.8637,452.9691 C248.6828,453.0521 249.6115,452.1235 249.5284,451.3044 z" stroke="#00FF00" stroke-width="0.24" fill-opacity="0" />
  <path d="M249.6864,455.6986 C251.1426,455.551 252.7934,457.2018 252.6458,458.658 C252.7934,460.1142 251.1426,461.765 249.6864,461.6174 L191.3906,462.6349 C191.1617,462.6421 190.9155,462.5439 190.7545,462.3812 C190.589,462.223 190.4865,461.9785 190.4896,461.7496 L190.4896,455.5664 C190.4865,455.3375 190.589,455.093 190.7545,454.9348 C190.9155,454.7721 191.1617,454.6739 191.3906,454.6811 z" stroke="#00FF00" stroke-width="0.24" fill-opacity="0" />
  <path d="M197.3891,485.8491 C197.4466,485.2827 196.8044,484.6405 196.238,484.6979 C195.6715,484.6405 195.0294,485.2827 195.0868,485.8491 C195.0294,486.4156 195.6715,487.0577 196.238,487.0002 C196.8044,487.0577 197.4466,486.4156 197.3891,485.8491 z" stroke="#00FF00" stroke-width="0.24" fill-opacity="0" />
  <path d="M193.449,448.3449 C191.9928,448.1973 190.342,449.8481 190.4896,451.3044 C190.342,452.7606 191.9928,454.4113 193.449,454.2637 L251.7448,455.2813 C251.9737,455.2885 252.2199,455.1902 252.381,455.0275 C252.5464,454.8693 252.649,454.6248 252.6458,454.3959 L252.6458,448.2128 C252.649,447.9838 252.5464,447.7394 252.381,447.5812 C252.2199,447.4185 251.9737,447.3203 251.7448,447.3274 z" stroke="#00FF00" stroke-width="0.24" fill-opacity="0" />
  <path d="M197.3891,494.0702 C197.4466,494.6366 196.8044,495.2787 196.238,495.2213 C195.6715,495.2787 195.0294,494.6366 195.0868,494.0702 C195.0294,493.5037 195.6715,492.8616 196.238,492.919 C196.8044,492.8616 197.4466,493.5037 197.3891,494.0702 z" stroke="#00FF00" stroke-width="0.24" fill-opacity="0" />
  <path d="M248.5795,443.8302 C248.5243,443.2855 249.1418,442.6681 249.6864,442.7233 C250.2311,442.6681 250.8485,443.2855 250.7933,443.8302 C250.8485,444.3748 250.2311,444.9923 249.6864,444.9371 C249.1418,444.9923 248.5243,444.3748 248.5795,443.8302 z" stroke="#00FF00" stroke-width="0.24" fill-opacity="0" />
  <path d="M193.607,443.8302 C193.524,443.011 194.4526,442.0824 195.2717,442.1654 C196.0909,442.0824 197.0195,443.011 196.9365,443.8302 C197.0195,444.6494 196.0909,445.578 195.2717,445.4949 C194.4526,445.578 193.524,444.6494 193.607,443.8302 z" stroke="#00FF00" stroke-width="0.24" fill-opacity="0" />
  <path d="M197.3891,480.9265 C197.4466,481.493 196.8044,482.1351 196.238,482.0777 C195.6715,482.1351 195.0294,481.493 195.0868,480.9265 C195.0294,480.3601 195.6715,479.718 196.238,479.7754 C196.8044,479.718 197.4466,480.3601 197.3891,480.9265 z" stroke="#00FF00" stroke-width="0.24" fill-opacity="0" />
  <path d="M248.5795,458.658 C248.5243,458.1133 249.1418,457.4959 249.6864,457.5511 C250.2311,457.4959 250.8485,458.1133 250.7933,458.658 C250.8485,459.2026 250.2311,459.8201 249.6864,459.7649 C249.1418,459.8201 248.5243,459.2026 248.5795,458.658 z" stroke="#00FF00" stroke-width="0.24" fill-opacity="0" />
  <path d="M193.607,458.658 C193.524,457.8388 194.4526,456.9102 195.2717,456.9933 C196.0909,456.9102 197.0195,457.8388 196.9365,458.658 C197.0195,459.4771 196.0909,460.4058 195.2717,460.3227 C194.4526,460.4058 193.524,459.4771 193.607,458.658 z" stroke="#00FF00" stroke-width="0.24" fill-opacity="0" />
  <path d="M249.5284,466.1321 C249.6115,465.313 248.6828,464.3844 247.8637,464.4674 C247.0445,464.3844 246.1159,465.313 246.1989,466.1321 C246.1159,466.9513 247.0445,467.8799 247.8637,467.7969 C248.6828,467.8799 249.6115,466.9513 249.5284,466.1321 z" stroke="#00FF00" stroke-width="0.24" fill-opacity="0" />
  <path d="M193.449,463.1728 C191.9928,463.0251 190.342,464.6759 190.4896,466.1321 C190.342,467.5884 191.9928,469.2392 193.449,469.0915 L251.7448,470.1091 C251.9737,470.1162 252.2199,470.018 252.381,469.8553 C252.5464,469.6971 252.649,469.4526 252.6458,469.2237 L252.6458,463.0406 C252.649,462.8116 252.5464,462.5672 252.381,462.409 C252.2199,462.2463 251.9737,462.148 251.7448,462.1552 z" stroke="#00FF00" stroke-width="0.24" fill-opacity="0" />
  <path d="M200.173,476.816 C200.2282,476.2714 199.6107,475.6539 199.0661,475.7091 C198.5214,475.6539 197.904,476.2714 197.9592,476.816 C197.904,477.3607 198.5214,477.9781 199.0661,477.9229 C199.6107,477.9781 200.2282,477.3607 200.173,476.816 z" stroke="#00FF00" stroke-width="0.24" fill-opacity="0" />
  <path d="M194.15,477.9672 L243.628,477.9672 L247.17,477.9672 L250.5555,477.0601 L253.9415,477.0601" stroke="#FF0000" stroke-width="0.24" fill-opacity="0" />
  <path d="M194.15,491.1108 L243.628,491.1108 L247.17,491.1108 L250.5555,490.2037 L253.9415,490.2037" stroke="#FF0000" stroke-width="0.24" fill-opacity="0" />
  <path d="M194.15,488.8085 L243.628,488.8085 L247.17,488.8085 L250.5555,489.7156 L253.9415,489.7156" stroke="#FF0000" stroke-width="0.24" fill-opacity="0" />
  <path d="M194.15,475.6649 L243.628,475.6649 L247.17,475.6649 L250.5555,476.572 L253.9415,476.572" stroke="#FF0000" stroke-width="0.24" fill-opacity="0" />
  <path d="M189.9054,491.9136 L194.15,496.1582 L243.628,496.1582 L253.9415,490.2037 L253.9415,489.7156 L243.628,483.7611 L194.15,483.7611 L189.9054,488.0057 z" stroke="#00FF00" stroke-width="0.24" fill-opacity="0" />
  <path d="M189.9054,478.77 L194.15,483.0146 L243.628,483.0146 L253.9415,477.0601 L253.9415,476.572 L243.628,470.6175 L194.15,470.6175 L189.9054,474.8621 z" stroke="#00FF00" stroke-width="0.24" fill-opacity="0" />
  <path d="M243.628,487.5688 L194.15,487.5688" stroke="#FF0000" stroke-width="0.24" fill-opacity="0" />
  <path d="M243.628,479.2069 L194.15,479.2069" stroke="#FF0000" stroke-width="0.24" fill-opacity="0" />
  <path d="M243.628,492.3505 L194.15,492.3505" stroke="#FF0000" stroke-width="0.24" fill-opacity="0" />
  <path d="M243.628,474.4252 L194.15,474.4252" stroke="#FF0000" stroke-width="0.24" fill-opacity="0" />
  <path d="M243.628,483.0146 L243.628,470.6175" stroke="#00FF00" stroke-width="0.24" fill-opacity="0" />
  <path d="M243.628,496.1582 L243.628,483.7611" stroke="#00FF00" stroke-width="0.24" fill-opacity="0" />
</svg>