<?xml version="1.0" encoding="UTF-8" standalone="no"?>
<!DOCTYPE svg PUBLIC "-//W3C//DTD SVG 1.1//EN" "http://www.w3.org/Graphics/SVG/1.1/DTD/svg11.dtd">
<svg width="612pt" height="792pt" viewBox="0 0 612 792" overflow="visible" version="1.1" xmlns="http://www.w3.org/2000/svg">
  <path d="M286.9261,415.0432 C286.5033,415.4782 286.3792,416.2747 286.6495,416.8177 C286.8741,417.3812 287.5505,417.8197 288.1566,417.7946 C288.7626,417.8197 289.4391,417.3812 289.6636,416.8177 C289.9339,416.2747 289.8098,415.4782 289.3871,415.0432 C289.8098,414.6081 289.9339,413.8116 289.6636,413.2686 C289.4391,412.7051 288.7626,412.2666 288.1566,412.2917 C287.5505,412.2666 286.8741,412.7051 286.6495,413.2686 C286.3792,413.8116 286.5033,414.6081 286.9261,415.0432 z" stroke="#000000" stroke-width="0.24" fill-opacity="0" />
  <path d="M328.0538,359.768 L328.0538,336.3805 C328.0551,335.0446 327.8279,333.6906 327.3905,332.4283 L320.3497,340.1817 L320.3497,355.9668 L327.3905,363.7202 C327.8279,362.4579 328.0551,361.1039 328.0538,359.768 z" stroke="#000000" stroke-width="0.24" fill-opacity="0" />
  <path d="M297.9586,293.8279 C297.2801,292.9254 296.0565,292.3301 294.9276,292.3531 L294.4859,292.3531 L294.4859,296.1886 C294.4989,297.5708 293.9685,299.0282 293.0703,300.0788 L303.7094,313.6438 L309.7714,308.8893 z" stroke="#000000" stroke-width="0.24" fill-opacity="0" />
  <path d="M319.5055,335.1516 C318.9521,333.5439 318.1161,332.0095 317.0655,330.6727 L306.4263,317.1078 L312.4883,312.3532 L325.4733,328.9091 z" stroke="#000000" stroke-width="0.24" fill-opacity="0" />
  <path d="M297.9586,402.3205 C297.2801,403.2231 296.0565,403.8184 294.9276,403.7953 L294.4859,403.7953 L294.4859,399.9599 C294.4989,398.5777 293.9685,397.1203 293.0703,396.0696 L303.7094,382.5047 L309.7714,387.2592 z" stroke="#000000" stroke-width="0.24" fill-opacity="0" />
  <path d="M319.5055,360.9969 C318.9521,362.6046 318.1161,364.139 317.0655,365.4758 L306.4263,379.0407 L312.4883,383.7952 L325.4733,367.2393 z" stroke="#000000" stroke-width="0.24" fill-opacity="0" />
  <path d="M286.7818,399.9597 C286.6995,399.1474 287.6204,398.2266 288.4327,398.309 C289.245,398.2267 290.1659,399.1476 290.0835,399.9599 L290.0835,403.408 C290.0892,403.8304 289.9025,404.2809 289.5998,404.5755 C289.3051,404.8781 288.8546,405.0647 288.4322,405.0589 C288.0098,405.0644 287.5593,404.8776 287.2648,404.5748 C286.9622,404.28 286.7759,403.8294 286.7818,403.407 z" stroke="#000000" stroke-width="0.24" fill-opacity="0" />
  <path d="M316.725,424.068 C317.1477,423.6329 317.2719,422.8364 317.0016,422.2934 C316.777,421.7299 316.1006,421.2914 315.4945,421.3165 C314.8884,421.2914 314.212,421.7299 313.9875,422.2934 C313.7172,422.8364 313.8413,423.6329 314.264,424.068 C313.8413,424.503 313.7172,425.2995 313.9875,425.8425 C314.212,426.406 314.8884,426.8445 315.4945,426.8194 C316.1006,426.8445 316.777,426.406 317.0016,425.8425 C317.2719,425.2995 317.1477,424.503 316.725,424.068 z" stroke="#000000" stroke-width="0.24" fill-opacity="0" />
  <path d="M343.2852,340.1817 C343.3048,337.7831 342.435,335.2648 340.9394,333.3895 L316.3752,302.0702 C316.0364,301.6265 315.4774,301.309 314.9228,301.2452 C312.0105,301.0792 309.0822,297.9508 309.1089,295.0338 C308.7258,292.1421 311.2495,288.6791 314.1197,288.1582 L314.1197,296.1888 C314.0374,297.0011 314.9583,297.9219 315.7707,297.8395 C316.583,297.9218 317.5038,297.0009 317.4215,296.1886 L317.4215,287.9508 L322.2656,287.9508 C324.6847,287.9014 327.3066,289.1772 328.7606,291.1111 L356.2753,326.1923 C358.5186,329.0052 359.8233,332.7827 359.794,336.3805 L359.794,359.768 C359.8233,363.3658 358.5186,367.1433 356.2753,369.9562 L328.7606,405.0374 L322.9968,412.3863 C322.249,413.3239 321.8141,414.5831 321.8238,415.7824 L321.8238,425.1685 C322.1396,428.283 318.6089,431.8136 315.4945,431.4979 C312.3801,431.8136 308.8495,428.283 309.1652,425.1685 L309.1433,415.8121 L309.1108,401.9634 C308.6165,398.8274 311.7502,395.0206 314.9228,394.9032 C315.4774,394.8395 316.0364,394.522 316.3752,394.0783 L340.9394,362.7589 C342.435,360.8837 343.3048,358.3654 343.2852,355.9668 z" stroke="#000000" stroke-width="0.24" fill-opacity="0" />
  <path d="M314.264,415.0432 C313.8413,415.4782 313.7172,416.2747 313.9875,416.8177 C314.212,417.3812 314.8884,417.8197 315.4945,417.7946 C316.1006,417.8197 316.777,417.3812 317.0016,416.8177 C317.2719,416.2747 317.1477,415.4782 316.725,415.0432 C317.1477,414.6081 317.2719,413.8116 317.0016,413.2686 C316.777,412.7051 316.1006,412.2666 315.4945,412.2917 C314.8884,412.2666 314.212,412.7051 313.9875,413.2686 C313.7172,413.8116 313.8413,414.6081 314.264,415.0432 z" stroke="#000000" stroke-width="0.24" fill-opacity="0" />
  <path d="M355.3917,359.768 L355.3917,336.3805 C355.3931,335.0446 355.1658,333.6906 354.7284,332.4283 L347.6876,340.1817 L347.6876,355.9668 L354.7284,363.7202 C355.1658,362.4579 355.3931,361.1039 355.3917,359.768 z" stroke="#000000" stroke-width="0.24" fill-opacity="0" />
  <path d="M325.2966,293.8279 C324.618,292.9254 323.3945,292.3301 322.2656,292.3531 L321.8238,292.3531 L321.8238,296.1886 C321.8368,297.5708 321.3065,299.0282 320.4082,300.0788 L331.0474,313.6438 L337.1094,308.8893 z" stroke="#000000" stroke-width="0.24" fill-opacity="0" />
  <path d="M346.8434,335.1516 C346.29,333.5439 345.4541,332.0095 344.4034,330.6727 L333.7643,317.1078 L339.8262,312.3532 L352.8112,328.9091 z" stroke="#000000" stroke-width="0.24" fill-opacity="0" />
  <path d="M325.2966,402.3205 C324.618,403.2231 323.3945,403.8184 322.2656,403.7953 L321.8238,403.7953 L321.8238,399.9599 C321.8368,398.5777 321.3065,397.1203 320.4082,396.0696 L331.0474,382.5047 L337.1094,387.2592 z" stroke="#000000" stroke-width="0.24" fill-opacity="0" />
  <path d="M346.8434,360.9969 C346.29,362.6046 345.4541,364.139 344.4034,365.4758 L333.7643,379.0407 L339.8262,383.7952 L352.8112,367.2393 z" stroke="#000000" stroke-width="0.24" fill-opacity="0" />
  <path d="M314.1197,399.9597 C314.0374,399.1474 314.9583,398.2266 315.7707,398.309 C316.583,398.2267 317.5038,399.1476 317.4215,399.9599 L317.4215,403.408 C317.4271,403.8304 317.2405,404.2809 316.9378,404.5755 C316.6431,404.8781 316.1925,405.0647 315.7701,405.0589 C315.3477,405.0644 314.8973,404.8776 314.6027,404.5748 C314.3002,404.28 314.1138,403.8294 314.1197,403.407 z" stroke="#000000" stroke-width="0.24" fill-opacity="0" />
  <path d="M289.3871,424.068 C289.8098,423.6329 289.9339,422.8364 289.6636,422.2934 C289.4391,421.7299 288.7626,421.2914 288.1566,421.3165 C287.5505,421.2914 286.8741,421.7299 286.6495,422.2934 C286.3792,422.8364 286.5033,423.6329 286.9261,424.068 C286.5033,424.503 286.3792,425.2995 286.6495,425.8425 C286.8741,426.406 287.5505,426.8445 288.1566,426.8194 C288.7626,426.8445 289.4391,426.406 289.6636,425.8425 C289.9339,425.2995 289.8098,424.503 289.3871,424.068 z" stroke="#000000" stroke-width="0.24" fill-opacity="0" />
  <path d="M315.9473,340.1817 C315.9668,337.7831 315.097,335.2648 313.6014,333.3895 L289.0372,302.0702 C288.6985,301.6265 288.1394,301.309 287.5848,301.2452 C284.6725,301.0792 281.7443,297.9508 281.7709,295.0338 C281.3878,292.1421 283.9116,288.6791 286.7818,288.1582 L286.7818,296.1888 C286.6995,297.0011 287.6204,297.9219 288.4327,297.8395 C289.245,297.9218 290.1659,297.0009 290.0835,296.1886 L290.0835,287.9508 L294.9276,287.9508 C297.3467,287.9014 299.9686,289.1772 301.4226,291.1111 L328.9373,326.1923 C331.1807,329.0052 332.4854,332.7827 332.4561,336.3805 L332.4561,359.768 C332.4854,363.3658 331.1807,367.1433 328.9373,369.9562 L301.4226,405.0374 L295.6588,412.3863 C294.911,413.3239 294.4761,414.5831 294.4859,415.7824 L294.4859,425.1685 C294.8016,428.283 291.271,431.8136 288.1566,431.4979 C285.0421,431.8136 281.5115,428.283 281.8273,425.1685 L281.8054,415.8121 L281.7729,401.9634 C281.2785,398.8274 284.4122,395.0206 287.5848,394.9032 C288.1394,394.8395 288.6985,394.522 289.0372,394.0783 L313.6014,362.7589 C315.097,360.8837 315.9668,358.3654 315.9473,355.9668 z" stroke="#000000" stroke-width="0.24" fill-opacity="0" />
</svg>