<?xml version="1.0" encoding="UTF-8" standalone="no"?>
<!DOCTYPE svg PUBLIC "-//W3C//DTD SVG 1.1//EN" "http://www.w3.org/Graphics/SVG/1.1/DTD/svg11.dtd">
<svg width="612pt" height="792pt" viewBox="0 0 612 792" overflow="visible" version="1.1" xmlns="http://www.w3.org/2000/svg">
  <path d="M342.0509,444.6539 C342.1764,443.4158 340.7728,442.0124 339.5346,442.1379 C338.2965,442.0125 336.893,443.416 337.0185,444.6541 L337.0185,449.9096 C337.0099,450.5534 337.2944,451.24 337.7558,451.6891 C338.205,452.1503 338.8917,452.4346 339.5355,452.4258 C340.1792,452.4342 340.8658,452.1495 341.3147,451.688 C341.7758,451.2387 342.0599,450.5519 342.0509,449.9081 z" stroke="#00FF00" stroke-width="0.24" fill-opacity="0" />
  <path d="M292.1748,385.2684 C293.0184,387.7188 294.2924,390.0574 295.8938,392.095 L312.1096,412.77 L302.8701,420.0167 L283.0789,394.7829 z" stroke="#00FF00" stroke-width="0.24" fill-opacity="0" />
  <path d="M325.0156,448.2521 C326.0498,449.6277 327.9147,450.5351 329.6353,450.5 L330.3087,450.5 L330.3087,444.6541 C330.2889,442.5474 331.0972,440.3261 332.4662,438.7248 L316.2505,418.0497 L307.011,425.2963 z" stroke="#00FF00" stroke-width="0.24" fill-opacity="0" />
  <path d="M292.1748,345.8761 C293.0184,343.4257 294.2924,341.087 295.8938,339.0495 L312.1096,318.3744 L302.8701,311.1278 L283.0789,336.3616 z" stroke="#00FF00" stroke-width="0.24" fill-opacity="0" />
  <path d="M325.0156,282.8923 C326.0498,281.5168 327.9147,280.6093 329.6353,280.6445 L330.3087,280.6445 L330.3087,286.4903 C330.2889,288.597 331.0972,290.8183 332.4662,292.4196 L316.2505,313.0947 L307.011,305.8481 z" stroke="#00FF00" stroke-width="0.24" fill-opacity="0" />
  <path d="M279.1459,383.3953 L279.1459,347.7491 C279.1438,345.713 279.4902,343.6493 280.1569,341.7253 L290.8882,353.5427 L290.8882,377.6017 L280.1569,389.4191 C279.4902,387.4952 279.1438,385.4315 279.1459,383.3953 z" stroke="#00FF00" stroke-width="0.24" fill-opacity="0" />
  <path d="M294.8553,483.0761 L294.8553,462.1041 C294.7215,460.7834 296.2186,459.2863 297.5393,459.4201 C298.86,459.2863 300.3571,460.7834 300.2232,462.1041 L300.2232,483.0761 C300.3571,484.3968 298.86,485.894 297.5393,485.7601 C296.2186,485.894 294.7215,484.3968 294.8553,483.0761 z" stroke="#00FF00" stroke-width="0.24" fill-opacity="0" />
  <path d="M255.1818,353.5427 C255.1521,349.887 256.4778,346.0486 258.7573,343.1904 L296.197,295.4547 C296.7134,294.7785 297.5654,294.2946 298.4107,294.1974 C302.8495,293.9444 307.3126,289.1761 307.272,284.7303 C307.8559,280.3227 304.0093,275.0446 299.6347,274.2507 L299.6347,286.4905 C299.7601,287.7286 298.3565,289.1321 297.1184,289.0065 C295.8803,289.132 294.4768,287.7285 294.6023,286.4903 L294.6023,273.9346 L287.2191,273.9346 C283.5321,273.8593 279.5359,275.8037 277.3197,278.7514 L235.383,332.2206 C231.9637,336.508 229.9752,342.2654 230.0198,347.7491 L230.0198,383.3953 C229.9752,388.879 231.9637,394.6365 235.383,398.9238 L277.3197,452.3931 L286.1047,463.594 C287.2445,465.0231 287.9073,466.9422 287.8924,468.7701 L287.8924,483.0761 C287.4112,487.823 292.7924,493.2042 297.5393,492.723 C302.2862,493.2042 307.6674,487.823 307.1862,483.0761 L307.269,447.7078 C308.0226,442.928 303.2462,437.1259 298.4107,436.947 C297.5654,436.8499 296.7134,436.366 296.197,435.6897 L258.7573,387.954 C256.4778,385.0958 255.1521,381.2575 255.1818,377.6017 z" stroke="#00FF00" stroke-width="0.24" fill-opacity="0" />
  <path d="M299.6347,444.6539 C299.7601,443.4158 298.3565,442.0124 297.1184,442.1379 C295.8803,442.0125 294.4768,443.416 294.6023,444.6541 L294.6023,449.9096 C294.5937,450.5534 294.8782,451.24 295.3395,451.6891 C295.7887,452.1503 296.4755,452.4346 297.1192,452.4258 C297.763,452.4342 298.4496,452.1495 298.8985,451.688 C299.3596,451.2387 299.6437,450.5519 299.6347,449.9081 z" stroke="#00FF00" stroke-width="0.24" fill-opacity="0" />
  <path d="M249.7586,385.2684 C250.6021,387.7188 251.8762,390.0574 253.4776,392.095 L269.6934,412.77 L260.4539,420.0167 L240.6627,394.7829 z" stroke="#00FF00" stroke-width="0.24" fill-opacity="0" />
  <path d="M282.5994,448.2521 C283.6336,449.6277 285.4985,450.5351 287.2191,450.5 L287.8924,450.5 L287.8924,444.6541 C287.8727,442.5474 288.6809,440.3261 290.05,438.7248 L273.8343,418.0497 L264.5948,425.2963 z" stroke="#00FF00" stroke-width="0.24" fill-opacity="0" />
  <path d="M249.7586,345.8761 C250.6021,343.4257 251.8762,341.087 253.4776,339.0495 L269.6934,318.3744 L260.4539,311.1278 L240.6627,336.3616 z" stroke="#00FF00" stroke-width="0.24" fill-opacity="0" />
  <path d="M282.5994,282.8923 C283.6336,281.5168 285.4985,280.6093 287.2191,280.6445 L287.8924,280.6445 L287.8924,286.4903 C287.8727,288.597 288.6809,290.8183 290.05,292.4196 L273.8343,313.0947 L264.5948,305.8481 z" stroke="#00FF00" stroke-width="0.24" fill-opacity="0" />
  <path d="M236.7297,383.3953 L236.7297,347.7491 C236.7276,345.713 237.0739,343.6493 237.7406,341.7253 L248.472,353.5427 L248.472,377.6017 L237.7406,389.4191 C237.0739,387.4952 236.7276,385.4315 236.7297,383.3953 z" stroke="#00FF00" stroke-width="0.24" fill-opacity="0" />
  <path d="M337.2716,483.0761 L337.2716,462.1041 C337.1377,460.7834 338.6349,459.2863 339.9555,459.4201 C341.2762,459.2863 342.7734,460.7834 342.6395,462.1041 L342.6395,483.0761 C342.7734,484.3968 341.2762,485.894 339.9555,485.7601 C338.6349,485.894 337.1377,484.3968 337.2716,483.0761 z" stroke="#00FF00" stroke-width="0.24" fill-opacity="0" />
  <path d="M297.5981,353.5427 C297.5683,349.887 298.894,346.0486 301.1735,343.1904 L338.6133,295.4547 C339.1296,294.7785 339.9816,294.2946 340.8269,294.1974 C345.2658,293.9444 349.7289,289.1761 349.6883,284.7303 C350.2722,280.3227 346.4255,275.0446 342.0509,274.2507 L342.0509,286.4905 C342.1764,287.7286 340.7728,289.1321 339.5346,289.0065 C338.2965,289.132 336.893,287.7285 337.0185,286.4903 L337.0185,273.9346 L329.6353,273.9346 C325.9483,273.8593 321.9521,275.8037 319.7359,278.7514 L277.7992,332.2206 C274.3799,336.508 272.3914,342.2654 272.436,347.7491 L272.436,383.3953 C272.3914,388.879 274.3799,394.6365 277.7992,398.9238 L319.7359,452.3931 L328.5209,463.594 C329.6607,465.0231 330.3235,466.9422 330.3087,468.7701 L330.3087,483.0761 C329.8274,487.823 335.2086,493.2042 339.9555,492.723 C344.7025,493.2042 350.0836,487.823 349.6024,483.0761 L349.6852,447.7078 C350.4388,442.928 345.6625,437.1259 340.8269,436.947 C339.9816,436.8499 339.1296,436.366 338.6133,435.6897 L301.1735,387.954 C298.894,385.0958 297.5683,381.2575 297.5981,377.6017 z" stroke="#00FF00" stroke-width="0.24" fill-opacity="0" />
</svg>