<?xml version="1.0" encoding="UTF-8" standalone="no"?>
<!DOCTYPE svg PUBLIC "-//W3C//DTD SVG 1.1//EN" "http://www.w3.org/Graphics/SVG/1.1/DTD/svg11.dtd">
<svg width="612pt" height="792pt" viewBox="0 0 612 792" overflow="visible" version="1.1" xmlns="http://www.w3.org/2000/svg">
  <path d="M448.06,475.217 C448.2857,475.2343 448.5186,475.3973 448.6121,475.6035 L449.5461,477.5179 C449.6525,477.7663 449.9764,477.9458 450.2435,477.9044 C450.5134,477.8894 450.7929,477.6465 450.8453,477.3813 L451.3609,475.3146 C451.4095,475.0934 451.6034,474.8856 451.8206,474.8217 C452.0338,474.7457 452.3129,474.7999 452.4821,474.9503 L454.114,476.3192 C454.3123,476.5029 454.6812,476.5352 454.9084,476.3886 C455.1488,476.2652 455.3054,475.9296 455.2454,475.666 L454.8758,473.5683 C454.8302,473.3465 454.9228,473.0777 455.0953,472.9311 C455.2592,472.7749 455.5361,472.7109 455.7519,472.7794 L457.7995,473.3663 C458.0554,473.4535 458.4055,473.3329 458.5534,473.1066 C458.7229,472.896 458.7294,472.5258 458.5674,472.3094 L457.3765,470.5433 C457.2447,470.3593 457.2199,470.0761 457.3178,469.872 C457.404,469.6626 457.631,469.4915 457.856,469.4663 L459.9653,469.1696 C460.2345,469.1452 460.5053,468.8926 460.5484,468.6258 C460.6176,468.3644 460.4729,468.0236 460.2369,467.8918 L458.4307,466.7628 C458.2354,466.6483 458.0976,466.3996 458.104,466.1733 C458.0976,465.947 458.2354,465.6984 458.4307,465.5839 L460.2369,464.4548 C460.4729,464.323 460.6176,463.9822 460.5484,463.7209 C460.5053,463.454 460.2345,463.2014 459.9653,463.177 L457.856,462.8803 C457.631,462.8551 457.404,462.684 457.3178,462.4747 C457.2199,462.2705 457.2447,461.9873 457.3765,461.8033 L458.5674,460.0372 C458.7294,459.8208 458.7229,459.4506 458.5534,459.24 C458.4055,459.0138 458.0554,458.8932 457.7995,458.9803 L456.4254,459.3742" stroke="#000000" stroke-width="0.24" fill-opacity="0" />
  <path d="M417.438,416.17 L417.438,396.4744 C417.4369,395.3493 417.6282,394.2091 417.9966,393.1461 L423.926,399.6755 L423.926,412.9688 L417.9966,419.4983 C417.6282,418.4352 417.4369,417.295 417.438,416.17 z" stroke="#000000" stroke-width="0.24" fill-opacity="0" />
  <path d="M440.9195,455.3723 C441.3352,455.7012 441.6057,456.2739 441.5957,456.804" stroke="#000000" stroke-width="0.24" fill-opacity="0" />
  <path d="M456.4254,451.334 C456.6292,448.7815 454.0764,445.881 451.5186,445.7589 C451.0516,445.7052 450.5808,445.4378 450.2955,445.0642 L429.6089,418.6888 C428.3494,417.1096 427.6169,414.9887 427.6334,412.9688 L427.6334,406.3222 L427.6334,399.6755 C427.6169,397.6556 428.3494,395.5348 429.6089,393.9556 L450.2955,367.5802 C450.5808,367.2065 451.0516,366.9391 451.5186,366.8855 C453.9713,366.7456 456.4372,364.1111 456.4148,361.6546 C456.7374,359.2193 454.612,356.3029 452.1949,355.8643 L452.1949,362.6272 C452.2643,363.3113 451.4887,364.0867 450.8046,364.0173 C450.1205,364.0867 449.345,363.3112 449.4144,362.6271 L449.4144,355.6896 L445.335,355.6896 C443.2978,355.648 441.0897,356.7224 439.8652,358.351 L416.6939,387.8944 C414.8047,390.2633 413.706,393.4445 413.7306,396.4744 L413.7306,406.3222 L413.7306,416.17 C413.706,419.1999 414.8047,422.381 416.6939,424.7499 L439.8652,454.2933 L440.9195,455.3723" stroke="#000000" stroke-width="0.24" fill-opacity="0" />
  <path d="M449.4144,456.9547 L449.4144,450.0173 C449.345,449.3332 450.1205,448.5577 450.8046,448.627 C451.4887,448.5576 452.2643,449.3331 452.1949,450.0172 L452.1949,456.78" stroke="#000000" stroke-width="0.24" fill-opacity="0" />
  <path d="M449.4144,456.78 C449.3857,457.1489 449.5319,457.5551 449.7892,457.821 C450.0385,458.0945 450.4347,458.2659 450.8047,458.2604 C451.1746,458.2659 451.5709,458.0945 451.8201,457.821 C452.0774,457.5551 452.2237,457.1489 452.1949,456.78" stroke="#000000" stroke-width="0.24" fill-opacity="0" />
  <path d="M452.718,466.1733 C452.9029,464.349 450.8348,462.281 449.0105,462.4659 C447.1862,462.281 445.1182,464.349 445.3031,466.1733 C445.1182,467.9976 447.1862,470.0657 449.0105,469.8807 C450.8348,470.0657 452.9029,467.9976 452.718,466.1733 z" stroke="#000000" stroke-width="0.24" fill-opacity="0" />
  <path d="M424.6369,395.4395 C425.103,394.0855 425.8069,392.7934 426.6918,391.6676 L435.6515,380.244 L430.5464,376.24 L419.6111,390.1824 z" stroke="#000000" stroke-width="0.24" fill-opacity="0" />
  <path d="M442.7824,360.639 C443.3539,359.879 444.3842,359.3776 445.335,359.3971 L445.707,359.3971 L445.707,362.6271 C445.696,363.7911 446.1426,365.0184 446.8991,365.9032 L437.9394,377.3268 L432.8344,373.3228 z" stroke="#000000" stroke-width="0.24" fill-opacity="0" />
  <path d="M424.6369,417.2049 C425.103,418.5588 425.8069,419.851 426.6918,420.9768 L435.6515,432.4004 L430.5464,436.4044 L419.6111,422.4619 z" stroke="#000000" stroke-width="0.24" fill-opacity="0" />
  <path d="M442.7824,452.0053 C443.3539,452.7654 444.3842,453.2667 445.335,453.2473 L445.707,453.2473 L445.707,450.0173 C445.696,448.8533 446.1426,447.6259 446.8991,446.7411 L437.9394,435.3176 L432.8344,439.3215 z" stroke="#000000" stroke-width="0.24" fill-opacity="0" />
  <path d="M414.3642,466.9122 C414.2058,469.8692 416.6265,473.201 419.4877,473.9641" stroke="#000000" stroke-width="0.24" fill-opacity="0" />
  <path d="M424.4206,466.9122 C424.5523,465.6124 423.0789,464.1389 421.7791,464.2707 C420.4792,464.1389 419.0057,465.6124 419.1375,466.9122 C419.0057,468.212 420.4792,469.6855 421.7791,469.5537 C423.0789,469.6855 424.5523,468.212 424.4206,466.9122 z" stroke="#000000" stroke-width="0.24" fill-opacity="0" />
  <path d="M418.969,475.5606 C419.1862,475.6244 419.3801,475.8323 419.4286,476.0534 L419.9443,478.1201 C419.9967,478.3853 420.2762,478.6282 420.5461,478.6432 C420.8132,478.6847 421.1371,478.5052 421.2435,478.2567 L422.1775,476.3423 C422.271,476.1361 422.5038,475.9731 422.7296,475.9558 C422.954,475.9258 423.2157,476.0369 423.3499,476.2191 L424.6616,477.8974 C424.8173,478.1184 425.1714,478.2266 425.4241,478.1305 C425.685,478.0598 425.9079,477.764 425.904,477.4937 L425.9786,475.365 C425.9802,475.1386 426.1266,474.895 426.3258,474.7874 C426.5186,474.6686 426.8028,474.6637 426.9996,474.7755 L428.8805,475.7753 C429.1126,475.9138 429.4802,475.8686 429.6719,475.6781 C429.8814,475.5073 429.9648,475.1465 429.8513,474.9012 L429.0536,472.9261 C428.963,472.7187 428.9976,472.4365 429.1358,472.2572 C429.2636,472.0703 429.5213,471.9502 429.7466,471.9723 L431.8715,472.1206 C432.1399,472.1527 432.4573,471.962 432.5549,471.7099 C432.6769,471.4687 432.6063,471.1052 432.4028,470.9272 L430.8708,469.4473 C430.7036,469.2947 430.6205,469.0229 430.6738,468.8028 C430.7146,468.5801 430.9011,468.3656 431.1159,468.2942 L433.1174,467.5654 C433.3756,467.4855 433.588,467.1822 433.5747,466.9122 C433.588,466.6422 433.3756,466.3389 433.1174,466.259 L431.1159,465.5302 C430.9011,465.4588 430.7146,465.2442 430.6738,465.0215 C430.6205,464.8015 430.7036,464.5296 430.8708,464.377 L432.4028,462.8972 C432.6063,462.7192 432.6769,462.3557 432.5549,462.1144 C432.4573,461.8624 432.1399,461.6717 431.8715,461.7037 L429.7466,461.852 C429.5488,461.8696 429.3278,461.7836 429.1938,461.6369" stroke="#000000" stroke-width="0.24" fill-opacity="0" />
  <path d="M390.2065,416.9088 L390.2065,397.2133 C390.2054,396.0882 390.3968,394.948 390.7651,393.8849 L396.6945,400.4144 L396.6945,413.7077 L390.7651,420.2372 C390.3968,419.1741 390.2054,418.0339 390.2065,416.9088 z" stroke="#000000" stroke-width="0.24" fill-opacity="0" />
  <path d="M413.688,456.1111 C414.1037,456.44 414.3743,457.0128 414.3642,457.5428" stroke="#000000" stroke-width="0.24" fill-opacity="0" />
  <path d="M429.1938,452.0729 C429.3977,449.5204 426.8449,446.6198 424.2871,446.4977 C423.8201,446.4441 423.3493,446.1767 423.064,445.803 L402.3774,419.4276 C401.118,417.8484 400.3855,415.7276 400.4019,413.7077 L400.4019,407.061 L400.4019,400.4144 C400.3855,398.3944 401.118,396.2737 402.3774,394.6944 L423.064,368.319 C423.3493,367.9454 423.8201,367.678 424.2871,367.6243 C426.7397,367.4845 429.2057,364.8499 429.1833,362.3935 C429.5059,359.9582 427.3806,357.0418 424.9634,356.6032 L424.9634,363.366 C425.0327,364.0501 424.2572,364.8256 423.5731,364.7562 C422.889,364.8255 422.1136,364.05 422.1829,363.3659 L422.1829,356.4285 L418.1035,356.4285 C416.0663,356.3869 413.8582,357.4613 412.6337,359.0899 L389.4625,388.6333 C387.5732,391.0022 386.4745,394.1833 386.4991,397.2133 L386.4991,407.061 L386.4991,416.9088 C386.4745,419.9387 387.5732,423.1199 389.4625,425.4888 L412.6337,455.0322 L413.688,456.1111" stroke="#000000" stroke-width="0.24" fill-opacity="0" />
  <path d="M422.1829,457.6936 L422.1829,450.7561 C422.1136,450.0721 422.889,449.2965 423.5731,449.3659 C424.2572,449.2965 425.0327,450.0719 424.9634,450.756 L424.9634,457.5189" stroke="#000000" stroke-width="0.24" fill-opacity="0" />
  <path d="M422.1829,457.5189 C422.1542,457.8878 422.3004,458.294 422.5578,458.5599 C422.807,458.8333 423.2032,459.0048 423.5732,458.9992 C423.9431,459.0048 424.3394,458.8333 424.5886,458.5599 C424.8459,458.294 424.9922,457.8878 424.9634,457.5189" stroke="#000000" stroke-width="0.24" fill-opacity="0" />
  <path d="M397.4054,396.1783 C397.8715,394.8244 398.5754,393.5322 399.4603,392.4064 L408.42,380.9828 L403.3149,376.9789 L392.3796,390.9213 z" stroke="#000000" stroke-width="0.24" fill-opacity="0" />
  <path d="M415.5509,361.3779 C416.1223,360.6179 417.1528,360.1165 418.1035,360.1359 L418.4755,360.1359 L418.4755,363.3659 C418.4646,364.5299 418.9112,365.7573 419.6676,366.6421 L410.7079,378.0656 L405.6029,374.0617 z" stroke="#000000" stroke-width="0.24" fill-opacity="0" />
  <path d="M397.4054,417.9438 C397.8715,419.2977 398.5754,420.5898 399.4603,421.7156 L408.42,433.1393 L403.3149,437.1432 L392.3796,423.2008 z" stroke="#000000" stroke-width="0.24" fill-opacity="0" />
  <path d="M415.5509,452.7442 C416.1223,453.5042 417.1528,454.0056 418.1035,453.9861 L418.4755,453.9861 L418.4755,450.7561 C418.4646,449.5921 418.9112,448.3648 419.6676,447.48 L410.7079,436.0564 L405.6029,440.0604 z" stroke="#000000" stroke-width="0.24" fill-opacity="0" />
  <path d="M441.5957,466.1733 C441.3105,469.5905 444.8073,473.474 448.2355,473.5475" stroke="#000000" stroke-width="0.24" fill-opacity="0" />
  <path d="M456.4254,451.334 L456.4254,459.3742" stroke="#000000" stroke-width="0.24" fill-opacity="0" />
  <path d="M441.5958,466.1733 L441.5958,456.804" stroke="#000000" stroke-width="0.24" fill-opacity="0" />
  <path d="M418.969,475.5606 L419.4878,473.9641" stroke="#000000" stroke-width="0.24" fill-opacity="0" />
  <path d="M429.1939,452.0729 L429.1939,461.637" stroke="#000000" stroke-width="0.24" fill-opacity="0" />
  <path d="M414.3643,466.9122 L414.3643,457.5428" stroke="#000000" stroke-width="0.24" fill-opacity="0" />
  <path d="M448.06,475.217 L448.2355,473.5475" stroke="#000000" stroke-width="0.24" fill-opacity="0" />
</svg>