<?xml version="1.0" encoding="UTF-8" standalone="no"?>
<!DOCTYPE svg PUBLIC "-//W3C//DTD SVG 1.1//EN" "http://www.w3.org/Graphics/SVG/1.1/DTD/svg11.dtd">
<svg width="612pt" height="792pt" viewBox="0 0 612 792" overflow="visible" version="1.1" xmlns="http://www.w3.org/2000/svg">
  <path d="M452.1674,458.1252 L452.7791,458.4563 L454.1001,459.3211 L454.4908,459.6525" stroke="#FF0000" stroke-width="0.24" fill-opacity="0" />
  <path d="M448.1378,465.1785 L448.7907,466.2498 L449.3322,467.9602 L449.807,470.24 C449.9467,470.8911 450.0627,471.2907 449.9596,471.8065" stroke="#FF0000" stroke-width="0.24" fill-opacity="0" />
  <path d="M457.0527,464.6314 L457.0128,464.616 L456.366,464.3615" stroke="#FF0000" stroke-width="0.24" fill-opacity="0" />
  <path d="M456.8156,466.3069 L456.6158,466.3911 L456.0741,466.4555 L455.2717,466.0644" stroke="#FF0000" stroke-width="0.24" fill-opacity="0" />
  <path d="M444.3961,465.3758 L444.7943,465.2102 L446.1236,464.3797" stroke="#FF0000" stroke-width="0.24" fill-opacity="0" />
  <path d="M446.1454,460.2531 L446.752,459.6607 L448.1686,458.4351 L448.7271,458.0928" stroke="#FF0000" stroke-width="0.24" fill-opacity="0" />
  <path d="M454.6488,464.8471 L454.5617,464.9131 L453.9887,465.693 L453.3414,467.0778 L452.7897,468.4333 C452.6464,468.9135 452.5509,469.4705 452.7419,471.858" stroke="#FF0000" stroke-width="0.24" fill-opacity="0" />
  <path d="M445.6116,466.2299 L446.311,466.5335 C446.7107,466.6366 447.1233,466.6495 447.6389,466.2369" stroke="#FF0000" stroke-width="0.24" fill-opacity="0" />
  <path d="M450.2803,476.6063 C450.938,477.1407 451.3053,477.3038 451.5844,477.3841 L452.2961,477.443 C452.5376,477.4243 452.8298,477.3895 453.3794,477.0373" stroke="#FF0000" stroke-width="0.24" fill-opacity="0" />
  <path d="M456.8156,466.3069 L455.7473,471.1489 L455.041,473.9698 L455.0382,474.6437 L455.2779,475.2358 L455.2666,476.093 L454.8831,476.9135 L454.0344,477.9313 L453.0786,478.5996 L452.276,478.7675 L451.2321,478.5977 C450.4468,478.3613 449.5266,477.8423 448.9811,477.3569 L448.3862,476.6697 L448.0569,476.0535 L447.9244,475.3853 L448.071,474.9623 L448.428,474.7584 L448.4974,474.4513 L448.2124,473.4975 L447.5301,471.5169 L446.6755,468.9427 L445.6116,466.2299 L444.3961,465.3758 L443.2398,465.4861 L440.9557,465.0829 C440.0883,464.8547 439.1492,464.5364 437.5894,463.2313 C439.3084,463.6133 440.3589,463.7247 441.1335,463.7008 C441.9081,463.6769 442.4068,463.5178 442.8949,463.2206 L444.5449,461.8253 L446.1454,460.2531 C445.696,456.7949 445.4018,455.442 445.1444,454.4745 L444.4123,452.4293 L443.6642,451.591 L442.5394,451.1931 C442.1415,451.1347 441.7595,451.1666 441.2979,451.3814 C440.8364,451.5963 440.2952,451.9942 440.0406,453.5859 C439.5949,452.2489 439.77,451.8191 440.0591,451.3761 L441.2714,450.1002 C441.7914,449.7234 442.428,449.4264 442.9798,449.299 C443.5316,449.1717 443.9984,449.2141 444.5078,449.4264 L445.988,450.3973 L446.9483,451.522 L447.6646,452.859 L448.333,455.0608 L448.7271,458.0928 L449.5321,457.7613 C450.0255,457.618 450.556,457.5756 451.1184,457.7135 L452.1674,458.1252 L453.0955,454.1227 L454.0152,451.6582 L455.1884,449.9951 L456.4948,449.0066 L457.8313,448.6027 L458.9229,448.7402 L460.0402,449.5352 C460.3539,449.8661 460.5516,450.2271 460.7278,450.904 L461.0587,453.0119 L459.5309,451.2585 C459.0991,450.9233 458.6865,450.7686 458.3126,450.7643 C457.9388,450.76 457.6035,450.9061 457.2554,451.1855 C456.9073,451.4648 456.5464,451.8773 456.2928,452.4274 L455.6869,454.4558 L454.9907,457.045 L454.4908,459.6525 L455.3575,460.3716 L456.8696,461.1727 L458.4453,461.5812 L460.2651,461.812 C460.9548,461.8147 461.7506,461.7033 464.1381,460.7801 L463.024,463.2206 C462.7693,463.6557 462.642,463.7618 462.26,463.9528 L460.5145,464.6107 L458.3551,464.8919 L457.0527,464.6314 C457.3485,465.2912 457.3396,465.5295 457.3231,465.701 L457.1583,466.0899 z" stroke="#00FF00" stroke-width="0.24" fill-opacity="0" />
  <path d="M450.4447,474.1329 L450.8855,474.343 L451.5935,474.4275 L452.2832,474.3385 L452.8336,474.1306 L453.2356,474.1124 L453.432,474.3407 L453.3338,474.7404 L453.0323,475.0967 L452.813,475.3913 L452.7194,475.7179 L452.6029,475.976 L452.2672,476.2112 L451.7762,476.2363 L451.2989,476.1313 L450.97,475.8732 L450.7416,475.4576 L450.4607,475.1972 L450.0245,474.8706 L449.8098,474.4344 L449.8418,474.069 L450.0907,474.0027 z" stroke="#000000" stroke-width="0.24" fill-opacity="0" />
  <path d="M446.1236,464.3797 L446.5517,465.2571 L447.1018,465.4505 L448.1378,465.1785 L447.2269,464.3571 C446.9165,464.1756 446.63,464.1332 446.2215,464.3295 z" stroke="#000000" stroke-width="0.24" fill-opacity="0" />
  <path d="M454.6488,464.8471 C454.9858,465.3127 455.2574,465.4783 455.4878,465.5353 L456.0469,465.4378 L456.3284,465.0203 L456.366,464.3615 L456.2701,464.3348 L455.522,464.3878 z" stroke="#000000" stroke-width="0.24" fill-opacity="0" />
  <path d="M451.7762,476.2364 L451.6396,477.3992" stroke="#FF0000" stroke-width="0.24" fill-opacity="0" />
</svg>