<?xml version="1.0" encoding="UTF-8" standalone="no"?>
<!DOCTYPE svg PUBLIC "-//W3C//DTD SVG 1.1//EN" "http://www.w3.org/Graphics/SVG/1.1/DTD/svg11.dtd">
<svg width="612pt" height="792pt" viewBox="0 0 612 792" overflow="visible" version="1.1" xmlns="http://www.w3.org/2000/svg">
  <path d="M385.896,432.29 L385.896,426.5274 L385.6826,426.5274 L384.3878,427.0586 L384.4684,427.2246 L384.7814,427.1487 L384.9688,427.2104 L385.0755,427.4404 L385.1087,428.3439 L385.1087,432.29 L385.047,432.8355 L384.8763,433.0394 L384.4684,433.1011 L384.4684,433.2718 L386.598,433.2718 L386.598,433.1011 L386.1379,433.0323 L385.9553,432.8307 z" stroke="#00FFFF" stroke-width="0.24" fill-opacity="0" />
  <path d="M380.821,430.5636 L383.8233,430.5636 C383.8233,430.0261 383.6668,429.5968 383.3538,429.2759 C383.0407,428.955 382.6407,428.7945 382.1538,428.7945 C381.5783,428.7945 381.1001,429.0024 380.7191,429.4182 C380.3381,429.834 380.1476,430.4134 380.1476,431.1565 C380.1476,431.8426 380.3333,432.3889 380.7048,432.7952 C381.0764,433.2015 381.523,433.4046 382.0447,433.4046 C382.5254,433.4046 382.9253,433.2268 383.2447,432.8711 C383.5641,432.5153 383.7569,432.1209 383.8233,431.6877 L383.6763,431.5928 C383.534,431.9723 383.3577,432.2402 383.1475,432.3968 C382.9372,432.5533 382.6898,432.6315 382.4052,432.6315 C381.9783,432.6315 381.6068,432.4482 381.2906,432.0814 C380.9744,431.7146 380.8179,431.2086 380.821,430.5636 z" stroke="#00FFFF" stroke-width="0.24" fill-opacity="0" />
  <path d="M411.8257,432.0766 L411.8257,429.2593 L412.8407,429.2593 L412.8407,428.9273 L411.8257,428.9273 L411.8257,427.4997 L411.6786,427.4997 L411.3751,428.1589 L410.8889,428.7494 L410.3554,429.1028 L410.3554,429.2593 L411.0431,429.2593 L411.0431,432.1809 L411.1427,432.8758 L411.451,433.222 L411.8779,433.343 L412.5039,433.1082 C412.7063,432.9517 412.8628,432.7185 412.9735,432.4086 L412.7885,432.4086 L412.5609,432.6956 L412.2573,432.7928 L411.9466,432.6458 z" stroke="#00FFFF" stroke-width="0.24" fill-opacity="0" />
  <path d="M415.3533,442.6278 L415.3533,440.9725 L414.4284,441.3756 L413.8925,441.812 L413.7312,442.31 L413.9352,442.8768 L414.4047,443.1021 C414.6451,443.1021 414.9612,442.944 415.3533,442.6278 z" stroke="#00FFFF" stroke-width="0.24" fill-opacity="0" />
  <path d="M380.821,430.2885 L382.8321,430.2885 L382.7325,429.7004 L382.3791,429.283 L381.8882,429.1312 C381.6258,429.1312 381.391,429.2332 381.1839,429.4372 C380.9768,429.6411 380.8558,429.9249 380.821,430.2885 z" stroke="#00FFFF" stroke-width="0.24" fill-opacity="0" />
  <path d="M375.4699,439.3978 L374.9648,439.5472 L374.5545,440.0713 L374.398,441.0341 C374.398,441.6665 374.5237,442.212 374.7751,442.6704 C375.0264,443.1289 375.3576,443.3582 375.7687,443.3582 C376.0754,443.3582 376.3284,443.2317 376.5276,442.9787 C376.7268,442.7258 376.8264,442.291 376.8264,441.6744 C376.8264,440.9029 376.6604,440.2958 376.3284,439.8531 C376.1039,439.5496 375.8177,439.3978 375.4699,439.3978 z" stroke="#00FFFF" stroke-width="0.24" fill-opacity="0" />
  <path d="M397.5589,429.7241 L397.5589,428.7992 L397.3549,428.7992 L396.0459,429.3304 L396.117,429.5012 L396.4348,429.4301 L396.6293,429.4893 L396.7336,429.7051 L396.7763,430.63 L396.7763,432.29 L396.7147,432.8331 L396.5344,433.037 L396.117,433.1011 L396.117,433.2718 L398.2656,433.2718 L398.2656,433.1011 L397.7937,433.037 L397.6182,432.845 L397.5589,432.29 L397.5589,429.9612 L398.166,429.4917 L398.6735,429.3542 C398.9233,429.3542 399.1177,429.4554 399.2569,429.6577 L399.4134,430.4213 L399.4134,432.29 L399.3897,432.7596 L399.2023,433.0157 L398.7067,433.1011 L398.7067,433.2718 L400.9027,433.2718 L400.9027,433.1011 L400.4331,433.0276 L400.2458,432.845 L400.196,432.29 L400.196,430.2174 L400.1865,430.0134 L400.196,429.9612 L400.8102,429.4941 L401.3153,429.3684 C401.5872,429.3684 401.7849,429.4696 401.9082,429.6719 L402.0363,430.4213 L402.0363,432.29 L402.0173,432.7501 L401.8607,432.992 L401.4244,433.1011 L401.3343,433.1011 L401.3343,433.2718 L403.4781,433.2718 L403.4781,433.1011 L403.0607,433.0276 L402.8852,432.8497 L402.8236,432.29 L402.8236,430.4213 L402.7192,429.5581 L402.2947,428.9771 L401.6805,428.7992 L400.9881,428.9771 L400.1628,429.7241 C400.0964,429.4237 399.9651,429.1945 399.7691,429.0364 C399.5731,428.8783 399.3391,428.7992 399.0672,428.7992 L398.5786,428.8988 L398.1186,429.1787 z" stroke="#00FFFF" stroke-width="0.24" fill-opacity="0" />
  <path d="M371.1585,438.2737 L371.1585,440.114 L368.1705,440.114 L368.1705,438.2737 L368.2274,437.6453 L368.4314,437.4153 L368.863,437.3062 L369.0954,437.3062 L369.0954,437.1307 L366.3397,437.1307 L366.3397,437.3062 L366.5674,437.3062 L367.0037,437.42 L367.1982,437.624 L367.2599,438.2737 L367.2599,442.4238 L367.146,443.1542 C367.0259,443.3092 366.833,443.3866 366.5674,443.3866 L366.3397,443.3866 L366.3397,443.5621 L369.0954,443.5621 L369.0954,443.3866 L368.863,443.3866 L368.4314,443.2728 L368.2321,443.0688 L368.1705,442.4238 L368.1705,440.465 L371.1585,440.465 L371.1585,442.4238 L371.04,443.1542 C370.9198,443.3092 370.7285,443.3866 370.4661,443.3866 L370.2384,443.3866 L370.2384,443.5621 L372.9893,443.5621 L372.9893,443.3866 L372.7617,443.3866 L372.3253,443.2728 L372.1309,443.0688 L372.0692,442.4238 L372.0692,438.2737 L372.1237,437.6453 L372.33,437.4153 L372.7617,437.3062 L372.9893,437.3062 L372.9893,437.1307 L370.2384,437.1307 L370.2384,437.3062 L370.4661,437.3062 L370.8977,437.42 L371.0969,437.624 z" stroke="#00FFFF" stroke-width="0.24" fill-opacity="0" />
  <path d="M415.2406,429.1075 L414.7355,429.2569 L414.3252,429.781 L414.1687,430.7438 C414.1687,431.3762 414.2944,431.9217 414.5458,432.3802 C414.7971,432.8387 415.1284,433.0679 415.5394,433.0679 C415.8461,433.0679 416.0991,432.9414 416.2983,432.6884 C416.4975,432.4355 416.5971,432.0007 416.5971,431.3841 C416.5971,430.6126 416.4311,430.0055 416.0991,429.5628 C415.8746,429.2593 415.5884,429.1075 415.2406,429.1075 z" stroke="#00FFFF" stroke-width="0.24" fill-opacity="0" />
  <path d="M415.3533,442.9361 L415.4956,443.4862 L415.8656,443.6475 C416.1881,443.6475 416.5264,443.4103 416.8806,442.9361 L416.8806,442.6704 L416.4964,443.0167 L416.3636,443.0499 L416.2379,443.0025 L416.1596,442.8151 L416.1359,442.0539 L416.1359,440.5788 L416.0505,439.744 L415.6379,439.284 L414.6893,439.0895 C414.1866,439.0895 413.7961,439.2034 413.5178,439.431 C413.2395,439.6587 413.1004,439.9085 413.1004,440.1804 L413.2119,440.5172 L413.4988,440.6405 L413.7905,440.5219 L413.902,440.1852 L413.8925,439.9101 L414.0727,439.5401 L414.547,439.3788 C414.8094,439.3788 415.0095,439.4595 415.147,439.6207 C415.2845,439.782 415.3533,440.0792 415.3533,440.5124 L415.3533,440.6832 L413.7526,441.3756 L413.0767,441.9827 L412.9344,442.5329 C412.9344,442.8681 413.0316,443.1384 413.2261,443.344 C413.4206,443.5495 413.668,443.6523 413.9684,443.6523 L414.5138,443.5337 z" stroke="#00FFFF" stroke-width="0.24" fill-opacity="0" />
  <path d="M379.7112,427.0159 L379.7112,426.8404 L377.7903,426.8404 L377.7903,427.0159 L378.2599,427.0823 L378.433,427.2151 L378.5017,427.419 L378.2931,428.2348 L377.0694,431.7778 L375.8362,428.2823 L375.6228,427.438 L375.7461,427.1297 L376.135,427.0159 L376.3058,427.0159 L376.3058,426.8404 L373.8015,426.8404 L373.8015,427.0159 L374.0861,427.0443 L374.3232,427.1677 L374.475,427.3194 L374.6979,427.7368 L374.8497,428.1684 L375.0394,428.7091 L373.9722,431.7778 L372.7059,428.1684 L372.4972,427.4048 L372.63,427.1297 L373.0142,427.0159 L373.128,427.0159 L373.128,426.8404 L370.747,426.8404 L370.747,427.0159 L371.1905,427.1036 L371.449,427.3716 L371.7193,428.0783 L373.6307,433.4189 L373.8015,433.4189 L375.2576,429.3067 L376.7231,433.4189 L376.9129,433.4189 L378.7057,428.2348 L379.0045,427.4427 L379.3033,427.106 z" stroke="#00FFFF" stroke-width="0.24" fill-opacity="0" />
  <path d="M418.4647,442.3669 L418.4647,439.5496 L419.4797,439.5496 L419.4797,439.2176 L418.4647,439.2176 L418.4647,437.7899 L418.3177,437.7899 L418.0141,438.4492 L417.528,439.0397 L416.9944,439.3931 L416.9944,439.5496 L417.6821,439.5496 L417.6821,442.4713 L417.7817,443.1661 L418.09,443.5123 L418.5169,443.6333 L419.1429,443.3985 C419.3453,443.242 419.5018,443.0088 419.6125,442.6989 L419.4275,442.6989 L419.1999,442.9859 L418.8963,443.0831 L418.5856,442.9361 z" stroke="#00FFFF" stroke-width="0.24" fill-opacity="0" />
  <path d="M405.4406,442.4475 L405.4406,438.1504 L407.9259,443.5621 L408.0824,443.5621 L410.563,438.1504 L410.563,442.4475 L410.4586,443.14 C410.3479,443.3044 410.1551,443.3866 409.88,443.3866 L409.6523,443.3866 L409.6523,443.5621 L412.3842,443.5621 L412.3842,443.3866 L412.1613,443.3866 C411.9084,443.3866 411.7234,443.3202 411.6064,443.1874 L411.4736,442.4475 L411.4736,438.2453 L411.5779,437.5528 C411.6918,437.3884 411.8862,437.3062 412.1613,437.3062 L412.3842,437.3062 L412.3842,437.1307 L410.563,437.1307 L408.2674,442.163 L405.9338,437.1307 L404.1125,437.1307 L404.1125,437.3062 L404.6841,437.3987 L404.9283,437.6287 L405.0232,438.2453 L405.0232,442.4475 L404.9189,443.14 C404.805,443.3044 404.6121,443.3866 404.3402,443.3866 L404.1125,443.3866 L404.1125,443.5621 L406.3512,443.5621 L406.3512,443.3866 L406.1235,443.3866 C405.8706,443.3866 405.6856,443.3202 405.5686,443.1874 z" stroke="#00FFFF" stroke-width="0.24" fill-opacity="0" />
  <path d="M404.5547,430.5636 L407.557,430.5636 C407.557,430.0261 407.4005,429.5968 407.0875,429.2759 C406.7744,428.955 406.3745,428.7945 405.8875,428.7945 C405.312,428.7945 404.8338,429.0024 404.4528,429.4182 C404.0717,429.834 403.8813,430.4134 403.8813,431.1565 C403.8813,431.8426 404.067,432.3889 404.4385,432.7952 C404.8101,433.2015 405.2567,433.4046 405.7784,433.4046 C406.259,433.4046 406.659,433.2268 406.9784,432.8711 C407.2978,432.5153 407.4906,432.1209 407.557,431.6877 L407.41,431.5928 C407.2677,431.9723 407.0914,432.2402 406.8812,432.3968 C406.6709,432.5533 406.4235,432.6315 406.1389,432.6315 C405.712,432.6315 405.3405,432.4482 405.0243,432.0814 C404.7081,431.7146 404.5516,431.2086 404.5547,430.5636 z" stroke="#00FFFF" stroke-width="0.24" fill-opacity="0" />
  <path d="M421.1634,442.3669 L421.1634,439.5496 L422.1784,439.5496 L422.1784,439.2176 L421.1634,439.2176 L421.1634,437.7899 L421.0164,437.7899 L420.7129,438.4492 L420.2267,439.0397 L419.6931,439.3931 L419.6931,439.5496 L420.3808,439.5496 L420.3808,442.4713 L420.4804,443.1661 L420.7887,443.5123 L421.2156,443.6333 L421.8417,443.3985 C422.044,443.242 422.2006,443.0088 422.3112,442.6989 L422.1263,442.6989 L421.8986,442.9859 L421.595,443.0831 L421.2844,442.9361 z" stroke="#00FFFF" stroke-width="0.24" fill-opacity="0" />
  <path d="M390.7907,431.6213 L390.6532,431.5549 L390.1457,432.347 C389.899,432.5588 389.6208,432.6647 389.3109,432.6647 C388.8777,432.6647 388.5339,432.4663 388.2793,432.0695 C388.0248,431.6727 387.8975,431.215 387.8975,430.6964 C387.8975,430.1873 388.0256,429.7779 388.2817,429.468 C388.4746,429.234 388.7291,429.117 389.0453,429.117 L389.5054,429.2593 L389.6975,429.6862 L389.8042,430.0656 L390.2263,430.2458 L390.5512,430.1344 L390.6674,429.8427 C390.6674,429.5992 390.5298,429.3644 390.2548,429.1384 C389.9797,428.9123 389.6287,428.7992 389.2018,428.7992 C388.6327,428.7992 388.145,429.0127 387.7386,429.4395 C387.3323,429.8664 387.1292,430.4213 387.1292,431.1043 C387.1292,431.8094 387.3126,432.3691 387.6794,432.7833 C388.0461,433.1975 388.4762,433.4046 388.9694,433.4046 C389.3836,433.4046 389.7615,433.2505 390.103,432.9422 C390.4445,432.6339 390.6737,432.1936 390.7907,431.6213 z" stroke="#00FFFF" stroke-width="0.24" fill-opacity="0" />
  <path d="M385.5961,440.133 L384.491,441.1385 L384.491,436.8177 L384.2728,436.8177 L382.9827,437.3489 L383.0634,437.5149 L383.3622,437.4342 L383.5613,437.4983 L383.6704,437.7307 L383.7036,438.6532 L383.7036,442.6088 L383.6325,443.1495 L383.4807,443.3108 L382.9827,443.3914 L382.9827,443.5621 L385.1929,443.5621 L385.1929,443.3914 L384.7186,443.3297 L384.5503,443.14 L384.491,442.5851 L384.491,441.1432 L385.8237,442.8459 L386.0135,443.1969 L385.9494,443.3368 L385.7052,443.3914 L385.7052,443.5621 L387.8158,443.5621 L387.8158,443.3914 L387.4031,443.344 L387.0047,443.0546 L386.3787,442.3147 L385.2641,440.9061 L386.3787,439.8769 L386.9454,439.4879 L387.5929,439.3694 L387.5929,439.2176 L385.7052,439.2176 L385.7052,439.3694 L385.9637,439.4476 L386.0419,439.6112 L386.004,439.7251 z" stroke="#00FFFF" stroke-width="0.24" fill-opacity="0" />
  <path d="M379.5536,440.1235 L379.5536,439.1085 L379.3733,439.1085 L378.0358,439.6492 L378.0927,439.801 L378.382,439.7346 L378.6074,439.7915 L378.7283,439.9622 L378.7662,440.4982 L378.7662,444.6056 L378.7164,445.1961 L378.5765,445.3644 L378.1307,445.4641 L378.0121,445.4641 L378.0121,445.6395 L380.2887,445.6395 L380.2887,445.4641 L379.7978,445.3929 L379.6081,445.2008 L379.5536,444.634 L379.5536,443.3108 L379.9804,443.5953 L380.5875,443.6949 C381.1251,443.6949 381.5709,443.4941 381.925,443.0926 C382.3551,442.6025 382.5701,441.9827 382.5701,441.2333 C382.5701,440.563 382.3914,440.0191 382.0341,439.6018 C381.7432,439.2603 381.3796,439.0895 380.9432,439.0895 L380.2294,439.3195 L379.5536,440.1235 L379.5536,442.0254 L379.5963,442.7179 L379.9211,443.2017 L380.5733,443.4103 C380.8895,443.4103 381.1456,443.287 381.3416,443.0404 C381.5978,442.7179 381.7258,442.2641 381.7258,441.6792 C381.7258,441.0152 381.5804,440.5045 381.2895,440.1472 C381.0871,439.9006 380.8468,439.7773 380.5685,439.7773 L380.118,439.8911 L379.5536,440.4033" stroke="#00FFFF" stroke-width="0.24" fill-opacity="0" />
  <path d="M393.5369,428.7992 C393.1764,428.7992 392.8349,428.8933 392.5124,429.0815 C392.1899,429.2696 391.9298,429.5605 391.7322,429.9541 C391.5346,430.3478 391.4358,430.7438 391.4358,431.1422 C391.4358,431.6893 391.5986,432.1825 391.9243,432.622 C392.3101,433.1438 392.8302,433.4046 393.4847,433.4046 C393.8863,433.4046 394.2507,433.3034 394.578,433.1011 C394.9052,432.8987 395.1621,432.5983 395.3487,432.1999 C395.5352,431.8015 395.6285,431.4079 395.6285,431.0189 C395.6285,430.4656 395.4594,429.9755 395.121,429.5486 C394.7226,429.049 394.1946,428.7992 393.5369,428.7992 L392.8847,429.2569 L392.4745,429.781 L392.318,430.7438 C392.318,431.3762 392.4436,431.9217 392.695,432.3802 C392.9464,432.8387 393.2776,433.0679 393.6887,433.0679 C393.9954,433.0679 394.2483,432.9414 394.4475,432.6884 C394.6467,432.4355 394.7463,432.0007 394.7463,431.3841 C394.7463,430.6126 394.5803,430.0055 394.2483,429.5628 C394.0238,429.2593 393.7377,429.1075 393.3899,429.1075" stroke="#00FFFF" stroke-width="0.24" fill-opacity="0" />
  <path d="M389.5612,442.5803 L389.5612,439.0895 L389.3525,439.0895 L388.0434,439.6207 L388.1098,439.7915 L388.4324,439.7203 L388.6268,439.7796 L388.7312,439.9907 L388.7739,440.9061 L388.7739,442.5803 L388.7098,443.1258 L388.5367,443.3297 L388.1098,443.3914 L388.1098,443.5621 L390.2205,443.5621 L390.2205,443.3914 L389.796,443.325 L389.6205,443.1234 z" stroke="#00FFFF" stroke-width="0.24" fill-opacity="0" />
  <path d="M392.0275,440.0097 L392.0275,439.0895 L391.8236,439.0895 L390.5145,439.6207 L390.5857,439.7915 L390.9034,439.7203 L391.1003,439.782 L391.2094,440.0144 L391.2449,440.9677 L391.2449,442.5803 L391.1287,443.223 L390.6805,443.3914 L390.5857,443.3914 L390.5857,443.5621 L392.7342,443.5621 L392.7342,443.3914 L392.2623,443.3274 L392.0797,443.1258 L392.0275,442.5803 L392.0275,440.2895 C392.4006,439.8784 392.7753,439.6729 393.1516,439.6729 C393.3951,439.6729 393.5682,439.7622 393.6709,439.9409 L393.8251,440.8017 L393.8251,442.5803 L393.8061,443.0262 L393.6378,443.2989 L393.2133,443.3914 L393.1231,443.3914 L393.1231,443.5621 L395.2717,443.5621 L395.2717,443.3914 L394.8424,443.325 L394.6741,443.14 L394.6077,442.5803 L394.6077,440.7258 L394.5033,439.8531 L394.0954,439.2674 L393.4836,439.0895 C393.0219,439.0895 392.5366,439.3962 392.0275,440.0097 z" stroke="#00FFFF" stroke-width="0.24" fill-opacity="0" />
  <path d="M399.6162,445.1795 C400.1063,445.0182 400.4644,444.7977 400.6905,444.5178 C400.9166,444.238 401.0296,443.9352 401.0296,443.6096 C401.0296,443.3092 400.9482,443.0681 400.7854,442.8863 C400.6225,442.7044 400.4368,442.6135 400.2281,442.6135 L399.7941,442.7795 L399.6162,443.1779 L399.7538,443.5574 L400.1237,443.6949 L400.304,443.6523 L400.5316,443.5574 L400.598,443.6001 L400.6407,443.7518 C400.6407,444.0048 400.5514,444.2443 400.3727,444.4704 C400.1941,444.6965 399.9419,444.8633 399.6162,444.9708 z" stroke="#00FFFF" stroke-width="0.24" fill-opacity="0" />
  <path d="M404.5547,430.2885 L406.5658,430.2885 L406.4662,429.7004 L406.1128,429.283 L405.6219,429.1312 C405.3595,429.1312 405.1247,429.2332 404.9176,429.4372 C404.7105,429.6411 404.5895,429.9249 404.5547,430.2885 z" stroke="#00FFFF" stroke-width="0.24" fill-opacity="0" />
  <path d="M398.2692,440.5693 L398.4258,440.5693 L398.4258,439.0895 L398.2692,439.0895 L398.1696,439.2366 L398.0511,439.2697 L397.7285,439.1986 L397.1072,439.0895 C396.7183,439.0895 396.4013,439.2097 396.1563,439.45 C395.9112,439.6903 395.7887,439.9891 395.7887,440.3464 C395.7887,440.6215 395.8598,440.8492 396.0021,441.0294 L396.9033,441.646 L397.821,442.2104 C397.9744,442.359 398.0511,442.5424 398.0511,442.7606 L397.8447,443.223 L397.3112,443.4151 C397.0013,443.4151 396.7214,443.3029 396.4716,443.0783 C396.2219,442.8539 396.0527,442.5203 395.9642,442.0776 L395.8076,442.0776 L395.8076,443.6285 L395.9642,443.6285 L396.1349,443.5052 L396.391,443.5526 L397.3017,443.6949 C397.6716,443.6949 398.006,443.574 398.3048,443.3321 C398.6036,443.0902 398.753,442.7716 398.753,442.3764 C398.753,441.8641 398.4321,441.4515 397.7902,441.1385 L397.0977,440.8017 L396.5001,440.3891 L396.3483,439.9338 L396.5523,439.5449 L397.0882,439.3694 C397.3792,439.3694 397.6187,439.4532 397.8068,439.6207 C397.9949,439.7883 398.1491,440.1045 398.2692,440.5693 z" stroke="#00FFFF" stroke-width="0.24" fill-opacity="0" />
  <path d="M415.3876,428.7992 C415.0272,428.7992 414.6857,428.8933 414.3632,429.0815 C414.0406,429.2696 413.7806,429.5605 413.5829,429.9541 C413.3853,430.3478 413.2865,430.7438 413.2865,431.1422 C413.2865,431.6893 413.4493,432.1825 413.775,432.622 C414.1608,433.1438 414.6809,433.4046 415.3354,433.4046 C415.737,433.4046 416.1014,433.3034 416.4287,433.1011 C416.756,432.8987 417.0129,432.5983 417.1994,432.1999 C417.386,431.8015 417.4793,431.4079 417.4793,431.0189 C417.4793,430.4656 417.3101,429.9755 416.9718,429.5486 C416.5734,429.049 416.0453,428.7992 415.3876,428.7992 z" stroke="#00FFFF" stroke-width="0.24" fill-opacity="0" />
  <path d="M375.6169,439.0895 C375.2565,439.0895 374.915,439.1836 374.5924,439.3717 C374.2699,439.5599 374.0099,439.8508 373.8122,440.2444 C373.6146,440.6381 373.5158,441.0341 373.5158,441.4326 C373.5158,441.9796 373.6786,442.4728 374.0043,442.9124 C374.3901,443.4341 374.9102,443.6949 375.5648,443.6949 C375.9663,443.6949 376.3307,443.5938 376.658,443.3914 C376.9853,443.189 377.2422,442.8886 377.4287,442.4902 C377.6153,442.0918 377.7086,441.6982 377.7086,441.3092 C377.7086,440.7559 377.5394,440.2658 377.2011,439.8389 C376.8026,439.3393 376.2746,439.0895 375.6169,439.0895 z" stroke="#00FFFF" stroke-width="0.24" fill-opacity="0" />
  <path d="M389.1675,436.8177 L388.8236,436.9576 L388.6837,437.2967 L388.826,437.6382 L389.1675,437.7805 L389.5066,437.6382 L389.6465,437.2967 L389.5066,436.9576 z" stroke="#00FFFF" stroke-width="0.24" fill-opacity="0" />
  <path d="M383.2806,415.7349 C382.9947,416.1906 382.6659,416.5485 382.2942,416.8087 C381.8802,417.0985 381.416,417.2907 380.9014,417.3853 L378.2135,417.5273 L371.9329,417.5273 L377.4506,411.7079 C379.4141,409.5671 380.8334,407.5386 381.7087,405.6225 L382.0302,404.8513 C381.863,405.9302 381.7794,407.0862 381.7794,408.3192 C381.7794,411.1538 382.2798,413.6257 383.2806,415.7349 z" stroke="#00FF00" stroke-width="0.24" fill-opacity="0" />
  <path d="M417.8612,417.3832 L417.8495,417.3853 L415.1616,417.5273 L408.881,417.5273 L414.3987,411.7079 C415.8502,410.1253 417.0044,408.604 417.8612,407.1442 z" stroke="#00FF00" stroke-width="0.24" fill-opacity="0" />
  <path d="M398.4297,391.1308 C398.6466,388.9908 396.2207,386.5649 394.0807,386.7819 C391.9408,386.5649 389.5149,388.9908 389.7318,391.1308 C389.5149,393.2707 391.9408,395.6966 394.0807,395.4797 C396.2207,395.6966 398.6466,393.2707 398.4297,391.1308 z" stroke="#00FF00" stroke-width="0.24" fill-opacity="0" />
  <path d="M398.3396,398.3981 L398.952,398.3661 C400.2531,398.3661 401.3708,398.8569 402.3052,399.8386 C403.2396,400.8203 403.7068,402.0741 403.7068,403.5999 C403.7068,405.5988 402.8552,407.8047 401.152,410.2177 C399.8846,412.0132 397.9326,414.1952 395.2963,416.7636 L396.1326,415.0612 C396.9369,413.1096 397.3391,410.7381 397.3391,407.9467 C397.3391,404.6147 396.6985,401.8612 395.4174,399.6863 L395.7673,399.404 L395.8065,399.3754" stroke="#00FF00" stroke-width="0.24" fill-opacity="0" />
  <path d="M387.3453,396.1891 L386.3214,396.8048 C384.9493,397.7747 383.8493,399.2502 383.0214,401.2314 L382.5353,402.5932 L382.5603,401.9677 C382.5603,400.2644 381.9068,398.7859 380.5998,397.5322 C379.2928,396.2784 377.6635,395.6516 375.7119,395.6516 C373.8786,395.6516 372.3499,396.237 371.1256,397.408 L370.3827,398.258 C370.5298,396.1478 370.7795,394.6154 371.132,393.6607 C371.7369,392.0224 372.8207,390.8 374.3834,389.9934 C376.551,388.834 378.8446,388.2543 381.2643,388.2543 L384.9693,388.2543 L384.9693,385.4566 L341.0379,385.4566 L341.0379,388.2543 L344.6673,388.2543 C347.0869,388.2543 349.4058,388.8592 351.6238,390.069 C353.1864,390.9764 354.2198,392.0602 354.7239,393.3204 C355.3792,394.9839 355.7069,398.4369 355.7069,403.6795 L355.7069,469.8412 C355.7069,475.9911 355.102,479.8727 353.8922,481.4857 C351.9766,483.9558 348.9017,485.1908 344.6673,485.1908 L341.0379,485.1908 L341.0379,487.9885 L384.9693,487.9885 L384.9693,485.1908 L381.2643,485.1908 C378.8446,485.1908 376.551,484.5859 374.3834,483.3761 C372.7703,482.4687 371.7117,481.3849 371.2076,480.1247 C370.5523,478.4612 370.2247,475.0334 370.2247,469.8412 L370.2247,447.3294 L417.8612,447.3294 L417.8612,469.8412 C417.8612,475.9911 417.231,479.8727 415.9708,481.4857 C414.0553,483.9558 411.0056,485.1908 406.8216,485.1908 L403.1922,485.1908 L403.1922,487.9885 L447.048,487.9885 L447.048,485.1908 L443.4185,485.1908 C440.9989,485.1908 438.6801,484.5859 436.4621,483.3761 C434.8994,482.4687 433.866,481.3849 433.3619,480.1247 C432.7066,478.4612 432.379,475.0334 432.379,469.8412 L432.379,403.6795 C432.379,398.6385 432.6688,395.299 433.2485,393.6607 C433.8282,392.0224 434.9246,390.8 436.5377,389.9934 C438.7053,388.834 440.9989,388.2543 443.4185,388.2543 L447.048,388.2543 L447.048,385.4566 L403.1922,385.4566 L403.1922,388.2543 L406.8216,388.2543 C409.2412,388.2543 411.5349,388.8592 413.7024,390.069 C415.3155,390.9764 416.3741,392.0602 416.8782,393.3204 C417.2357,394.2278 417.4956,395.6677 417.6581,397.64 L417.5479,397.5322 C416.2409,396.2784 414.6116,395.6516 412.66,395.6516 C410.8267,395.6516 409.2979,396.237 408.0737,397.408 C407.3604,398.0903 406.8046,398.9454 406.4066,399.9731 C406.0898,399.082 405.5476,398.2683 404.7802,397.5322 C403.7599,396.5534 402.543,395.9566 401.1298,395.742" stroke="#00FF00" stroke-width="0.24" fill-opacity="0" />
  <path d="M388.2521,397.2119 L387.4568,397.9048 C386.6052,398.8865 386.0256,400.43 385.7181,402.5354 C385.4106,404.6408 385.2568,406.7166 385.2568,408.7628 C385.2568,412.0746 385.6649,414.7773 386.481,416.8708 C387.1552,418.6332 388.1606,419.5144 389.4971,419.5144 C390.1359,419.5144 390.7982,419.2276 391.4842,418.6539 C392.1703,418.0803 392.6907,417.1192 393.0455,415.7708 C393.5896,413.7365 393.8616,410.8682 393.8616,407.166 C393.8616,404.422 393.5778,402.1332 393.01,400.2999 L392.7032,399.4407" stroke="#00FF00" stroke-width="0.24" fill-opacity="0" />
  <path d="M370.2617,400.8326 C370.6297,400.2595 371.0714,399.7833 371.5869,399.404 C372.5273,398.712 373.5888,398.3661 374.7716,398.3661 C376.0727,398.3661 377.1904,398.8569 378.1248,399.8386 C379.0592,400.8203 379.5264,402.0741 379.5264,403.5999 C379.5264,405.5988 378.6748,407.8047 376.9716,410.2177 C375.5653,412.2099 373.3163,414.678 370.2247,417.6218 L370.2247,403.6795 z" stroke="#00FF00" stroke-width="0.24" fill-opacity="0" />
  <path d="M383.6878,416.5238 L383.7133,416.5692 C385.2391,419.2778 387.1493,420.6321 389.4439,420.6321 C390.3785,420.6321 391.342,420.3457 392.3343,419.7728 L392.3343,420.2063 L405.1019,420.2063 L417.8612,420.2063 L417.8612,424.301 L370.2247,424.301 L370.2247,420.2063 L382.3474,420.2063 z" stroke="#00FF00" stroke-width="0.24" fill-opacity="0" />
  <path d="M395.8065,399.3754 C396.6926,399.1908 397.5591,398.8565 398.3396,398.3981" stroke="#00FF00" stroke-width="0.24" fill-opacity="0" />
  <path d="M401.1298,395.742 C402.8284,393.3359 402.9569,389.5192 401.4241,387.0043 C400.0731,384.3871 396.7462,382.5122 393.8077,382.7119 C390.8624,382.703 387.664,384.7896 386.4854,387.4888 C385.1187,390.0977 385.4944,393.8981 387.3453,396.1891" stroke="#00FF00" stroke-width="0.24" fill-opacity="0" />
  <path d="M407.6268,417.187 L408.2133,415.5757 L407.5568,415.5757 C407.2493,416.1079 406.8885,416.519 406.4746,416.8087 C406.0606,417.0985 405.5963,417.2907 405.0818,417.3853 L402.3939,417.5273 L396.1133,417.5273 L401.631,411.7079 C403.5945,409.5671 405.0138,407.5386 405.8891,405.6225 C406.4568,404.4042 406.7407,403.1859 406.7407,401.9677 L406.7358,401.7137 C407.1752,400.7332 407.7749,399.9633 408.535,399.404 C409.4753,398.712 410.5369,398.3661 411.7197,398.3661 C413.0207,398.3661 414.1385,398.8569 415.0729,399.8386 C416.0073,400.8203 416.4745,402.0741 416.4745,403.5999 C416.4745,405.5988 415.6229,407.8047 413.9196,410.2177 C412.5831,412.1111 410.4855,414.4342 407.6268,417.187 z" stroke="#00FF00" stroke-width="0.24" fill-opacity="0" />
  <path d="M388.2521,397.2119 C389.4442,398.3682 391.0631,399.1789 392.7032,399.4407" stroke="#00FF00" stroke-width="0.24" fill-opacity="0" />
</svg>