<?xml version="1.0" encoding="UTF-8" standalone="no"?>
<!DOCTYPE svg PUBLIC "-//W3C//DTD SVG 1.1//EN" "http://www.w3.org/Graphics/SVG/1.1/DTD/svg11.dtd">
<svg width="612pt" height="792pt" viewBox="0 0 612 792" overflow="visible" version="1.1" xmlns="http://www.w3.org/2000/svg">
  <path d="M273.5259,396.5675 C273.6906,394.9429 271.849,393.1013 270.2245,393.266 C268.5999,393.1013 266.7583,394.9429 266.923,396.5675 C266.7583,398.192 268.5999,400.0336 270.2245,399.8689 C271.849,400.0336 273.6906,398.192 273.5259,396.5675 z" stroke="#00FF00" stroke-width="0.24" fill-opacity="0" />
  <path d="M273.5259,420.1453 C273.6906,421.7698 271.849,423.6115 270.2245,423.4467 C268.5999,423.6115 266.7583,421.7698 266.923,420.1453 C266.7583,418.5207 268.5999,416.6791 270.2245,416.8438 C271.849,416.6791 273.6906,418.5207 273.5259,420.1453 z" stroke="#00FF00" stroke-width="0.24" fill-opacity="0" />
  <path d="M281.5099,408.3564 C281.6682,406.7943 279.8975,405.0235 278.3354,405.1819 C276.7733,405.0235 275.0025,406.7943 275.1609,408.3564 C275.0025,409.9184 276.7733,411.6892 278.3354,411.5309 C279.8975,411.6892 281.6682,409.9184 281.5099,408.3564 z" stroke="#00FF00" stroke-width="0.24" fill-opacity="0" />
  <path d="M258.939,408.3564 C258.7807,406.7943 260.5515,405.0235 262.1135,405.1819 C263.6756,405.0235 265.4464,406.7943 265.288,408.3564 C265.4464,409.9184 263.6756,411.6892 262.1135,411.5309 C260.5515,411.6892 258.7807,409.9184 258.939,408.3564 z" stroke="#00FF00" stroke-width="0.24" fill-opacity="0" />
  <path d="M281.5099,405.0549 L406.1378,405.0549 L406.1378,401.4995 L281.5099,401.4995 z" stroke="#FF0000" stroke-width="0.24" fill-opacity="0" />
  <path d="M435.7165,409.0563 L426.0054,409.0563 L416.2961,411.6579 L416.2961,405.0549 L426.0054,407.6565 L435.7165,407.6565 L435.7165,408.7063" stroke="#FF0000" stroke-width="0.24" fill-opacity="0" />
  <path d="M281.5099,411.6579 L406.1378,411.6579 L406.1378,415.2133 L281.5099,415.2133 z" stroke="#FF0000" stroke-width="0.24" fill-opacity="0" />
  <path d="M406.1378,426.1336 L435.7165,409.0563 L435.7165,407.6565 L406.1378,390.5792 L264.2362,390.5792 L252.0629,402.7526 L252.0629,413.9602 L264.2362,426.1336 z" stroke="#00FF00" stroke-width="0.24" fill-opacity="0" />
  <path d="M281.5099,411.6579 L416.2961,411.6579 L416.2961,405.0549 L281.5099,405.0549 z" stroke="#000000" stroke-width="0.24" fill-opacity="0" />
  <path d="M406.1378,426.1336 L406.1378,390.5792" stroke="#00FF00" stroke-width="0.24" fill-opacity="0" />
</svg>