<?xml version="1.0" encoding="UTF-8" standalone="no"?>
<!DOCTYPE svg PUBLIC "-//W3C//DTD SVG 1.1//EN" "http://www.w3.org/Graphics/SVG/1.1/DTD/svg11.dtd">
<svg width="612pt" height="792pt" viewBox="0 0 612 792" overflow="visible" version="1.1" xmlns="http://www.w3.org/2000/svg">
  <path d="M308.9786,490.2926 L295.1516,490.2911 C294.0828,490.3246 292.9035,489.6435 292.3982,488.701 L285.486,476.7258 C284.9226,475.8169 284.9228,474.455 285.4864,473.5462 L292.4011,461.5725 C292.9066,460.6301 294.0861,459.9493 295.1549,459.983 L308.9818,459.9845 C310.0507,459.951 311.23,460.6321 311.7353,461.5746 L318.6475,473.5498 C319.2108,474.4587 319.2107,475.8206 318.6471,476.7294 L311.7324,488.7031 C311.2269,489.6455 310.0474,490.3263 308.9786,490.2926 z" stroke="#000000" stroke-width="0.24" fill-opacity="0" />
  <path d="M414.5438,436.291 L416.3206,433.2134 C416.826,432.271 418.0054,431.5901 419.0742,431.6237 L443.1744,431.6237 C444.2432,431.5901 445.4226,432.271 445.928,433.2134 L447.7048,436.291 C448.2683,437.1999 448.2683,438.5618 447.7048,439.4706 L440.7914,451.4451 C440.286,452.3875 439.1066,453.0685 438.0378,453.0349 L424.2108,453.0349 C423.142,453.0685 421.9626,452.3875 421.4572,451.4451 L414.5438,439.4706 C413.9803,438.5618 413.9803,437.1999 414.5438,436.291 z" stroke="#000000" stroke-width="0.24" fill-opacity="0" />
  <path d="M384.8897,499.8791 L382.2794,495.3579 C381.7159,494.449 381.7159,493.0872 382.2794,492.1783 L389.1928,480.2038 C389.6982,479.2614 390.8776,478.5805 391.9464,478.614 L405.7734,478.614 C406.8422,478.5805 408.0216,479.2614 408.527,480.2038 L415.4405,492.1783 C416.0039,493.0872 416.0039,494.449 415.4405,495.3579 L412.8301,499.8791 C412.3248,500.8216 411.1454,501.5025 410.0765,501.4689 L387.6433,501.4689 C386.5745,501.5025 385.3951,500.8216 384.8897,499.8791 z" stroke="#000000" stroke-width="0.24" fill-opacity="0" />
  <path d="M258.9857,458.5443 L280.619,458.5443 C281.6879,458.5107 282.8672,459.1917 283.3726,460.1341 C283.9361,461.043 283.9361,462.4048 283.3726,463.3137 L279.4695,470.0742 C278.9641,471.0166 277.7847,471.6976 276.7158,471.664 L262.8889,471.664 C261.82,471.6976 260.6407,471.0166 260.1353,470.0742 L256.2321,463.3137 C255.6686,462.4048 255.6686,461.043 256.2321,460.1341 C256.7375,459.1917 257.9169,458.5107 258.9857,458.5443 z" stroke="#000000" stroke-width="0.24" fill-opacity="0" />
  <path d="M218.919,463.1835 L214.9407,470.0742 C214.4353,471.0166 213.2559,471.6976 212.1871,471.664 L198.3601,471.664 C197.2913,471.6976 196.1119,471.0166 195.6065,470.0742 L188.6931,458.0997 C188.1296,457.1909 188.1296,455.829 188.6931,454.9201 L190.3456,452.0579 C190.8509,451.1154 192.0303,450.4345 193.0992,450.4681 L201.464,450.4681 C202.2773,450.4572 203.1449,450.8166 203.7123,451.3994 L205.4247,453.1118 C208.3031,456.0397 212.428,458.0193 216.5129,458.4332 C217.5259,458.5172 218.567,459.2383 219.0019,460.157 C219.4853,461.0512 219.4506,462.3172 218.919,463.1835 z" stroke="#000000" stroke-width="0.24" fill-opacity="0" />
  <path d="M91.89989,436.291 L93.67674,433.2134 C94.18211,432.271 95.3615,431.5901 96.43036,431.6237 L120.5305,431.6237 C121.5994,431.5901 122.7787,432.271 123.2841,433.2134 L125.061,436.291 C125.6245,437.1999 125.6245,438.5618 125.061,439.4706 L118.1475,451.4451 C117.6421,452.3875 116.4628,453.0685 115.3939,453.0349 L101.567,453.0349 C100.4981,453.0685 99.31873,452.3875 98.81335,451.4451 L91.89989,439.4706 C91.3364,438.5618 91.3364,437.1999 91.89989,436.291 z" stroke="#000000" stroke-width="0.24" fill-opacity="0" />
  <path d="M147.6583,471.664 L133.8314,471.664 C132.7625,471.6976 131.5831,471.0166 131.0777,470.0742 L124.1643,458.0997 C123.6008,457.1909 123.6008,455.829 124.1643,454.9201 L131.0777,442.9456 C131.5831,442.0032 132.7625,441.3223 133.8314,441.3559 L138.5643,441.3559 C139.3777,441.345 140.2452,441.7043 140.8126,442.2871 L151.6373,453.1118 C152.6664,454.1416 153.8258,455.0552 155.0676,455.8149 C156.4589,456.492 157.0601,458.8573 156.161,460.1165 L150.4119,470.0742 C149.9065,471.0166 148.7271,471.6976 147.6583,471.664 z" stroke="#000000" stroke-width="0.24" fill-opacity="0" />
  <path d="M220.9574,473.548 L227.8709,461.5735 C228.3763,460.6311 229.5557,459.9502 230.6245,459.9837 L244.4514,459.9837 C245.5203,459.9502 246.6997,460.6311 247.2051,461.5735 L254.1185,473.548 C254.682,474.4569 254.682,475.8187 254.1185,476.7276 L247.2051,488.7021 C246.6997,489.6445 245.5203,490.3254 244.4514,490.2919 L230.6245,490.2919 C229.5557,490.3254 228.3763,489.6445 227.8709,488.7021 L220.9574,476.7276 C220.394,475.8187 220.394,474.4569 220.9574,473.548 z" stroke="#000000" stroke-width="0.24" fill-opacity="0" />
  <path d="M320.3609,499.8791 L317.7506,495.3579 C317.1871,494.449 317.1871,493.0872 317.7506,492.1783 L324.6641,480.2038 C325.1694,479.2614 326.3488,478.5805 327.4177,478.614 L341.2446,478.614 C342.3134,478.5805 343.4929,479.2614 343.9982,480.2038 L350.9117,492.1783 C351.4752,493.0872 351.4752,494.449 350.9117,495.3579 L348.3014,499.8791 C347.796,500.8216 346.6166,501.5025 345.5477,501.4689 L323.1145,501.4689 C322.0457,501.5025 320.8663,500.8216 320.3609,499.8791 z" stroke="#000000" stroke-width="0.24" fill-opacity="0" />
  <path d="M401.0364,441.3571 L405.7734,441.3571 C406.8422,441.3235 408.0216,442.0045 408.527,442.9469 L415.4405,454.9214 C416.0039,455.8302 416.0039,457.1921 415.4405,458.101 L408.527,470.0754 C408.0216,471.0179 406.8422,471.6988 405.7734,471.6652 L391.9464,471.6652 C390.8776,471.6988 389.6982,471.0179 389.1928,470.0754 L383.4425,460.1155 C382.5434,458.8564 383.1445,456.4913 384.5356,455.8141 C385.777,455.0546 386.9359,454.1412 387.9647,453.1118 L398.7881,442.2884 C399.3555,441.7056 400.2231,441.3462 401.0364,441.3571 z" stroke="#000000" stroke-width="0.24" fill-opacity="0" />
  <path d="M255.8322,499.8791 L253.2218,495.3579 C252.6583,494.449 252.6583,493.0872 253.2218,492.1783 L260.1353,480.2038 C260.6407,479.2614 261.82,478.5805 262.8889,478.614 L276.7158,478.614 C277.7847,478.5805 278.9641,479.2614 279.4695,480.2038 L286.3829,492.1783 C286.9464,493.0872 286.9464,494.449 286.3829,495.3579 L283.7726,499.8791 C283.2672,500.8216 282.0878,501.5025 281.019,501.4689 L258.5858,501.4689 C257.5169,501.5025 256.3375,500.8216 255.8322,499.8791 z" stroke="#000000" stroke-width="0.24" fill-opacity="0" />
  <path d="M179.9227,490.2931 L166.0957,490.2931 C165.0269,490.3266 163.8475,489.6457 163.3421,488.7033 L156.4287,476.7288 C155.8652,475.8199 155.8652,474.4581 156.4287,473.5492 L163.3421,461.5747 C163.8475,460.6323 165.0269,459.9514 166.0957,459.985 L179.9227,459.985 C180.9915,459.9514 182.1709,460.6323 182.6763,461.5747 L189.5898,473.5492 C190.1532,474.4581 190.1532,475.8199 189.5898,476.7288 L182.6763,488.7033 C182.1709,489.6457 180.9915,490.3266 179.9227,490.2931 z" stroke="#000000" stroke-width="0.24" fill-opacity="0" />
  <path d="M178.159,438.2796 C176.5323,438.2579 174.7972,438.9766 173.6623,440.1422 L169.3112,444.4932 C168.1764,445.6589 166.4413,446.3775 164.8146,446.3558 L164.7525,446.3558 C163.1258,446.3775 161.3907,445.6589 160.2558,444.4932 L137.0603,421.2977 C135.9255,420.1321 134.1904,419.4134 132.5637,419.4352 L60.79506,419.4352 C57.6659,419.1179 54.11862,422.6652 54.43585,425.7944 L54.43585,457.1821 C54.41411,458.8087 55.1328,460.5438 56.29842,461.6787 L106.4146,511.7948 C107.5494,512.9604 109.2845,513.6791 110.9112,513.6574 L428.6907,513.6574 C430.3174,513.6791 432.0525,512.9604 433.1874,511.7948 L483.3035,461.6787 C484.4691,460.5438 485.1878,458.8087 485.1661,457.1821 L485.1661,425.7944 C485.4833,422.6652 481.936,419.1179 478.8069,419.4352 L407.0382,419.4352 C405.4115,419.4134 403.6765,420.1321 402.5416,421.2977 L379.3461,444.4932 C378.2112,445.6589 376.4762,446.3775 374.8495,446.3558 L340.3416,446.3558 C338.7149,446.3775 336.9799,445.6589 335.845,444.4932 L331.4939,440.1422 C330.359,438.9766 328.624,438.2579 326.9973,438.2796 L299.9607,438.2796 C298.334,438.2579 296.5989,438.9766 295.464,440.1422 L291.113,444.4932 C289.9781,445.6589 288.243,446.3775 286.6163,446.3558 L218.5399,446.3558 C216.9132,446.3775 215.1782,445.6589 214.0433,444.4932 L209.6922,440.1422 C208.5573,438.9766 206.8223,438.2579 205.1956,438.2796 z" stroke="#000000" stroke-width="0.24" fill-opacity="0" />
  <path d="M180.2787,444.6388 C180.3844,443.5958 179.202,442.4133 178.159,442.5191 C177.1159,442.4133 175.9335,443.5958 176.0392,444.6388 C175.9335,445.6819 177.1159,446.8643 178.159,446.7585 C179.202,446.8643 180.3844,445.6819 180.2787,444.6388 z" stroke="#000000" stroke-width="0.24" fill-opacity="0" />
  <path d="M207.3153,444.6388 C207.4211,443.5958 206.2386,442.4133 205.1956,442.5191 C204.1525,442.4133 202.9701,443.5958 203.0759,444.6388 C202.9701,445.6819 204.1525,446.8643 205.1956,446.7585 C206.2386,446.8643 207.4211,445.6819 207.3153,444.6388 z" stroke="#000000" stroke-width="0.24" fill-opacity="0" />
  <path d="M69.12297,425.7944 C69.22871,424.7513 68.04629,423.5689 67.00323,423.6746 C65.96018,423.5689 64.77776,424.7513 64.8835,425.7944 C64.77776,426.8374 65.96018,428.0198 67.00323,427.9141 C68.04629,428.0198 69.22871,426.8374 69.12297,425.7944 z" stroke="#000000" stroke-width="0.24" fill-opacity="0" />
  <path d="M128.4753,425.7944 C128.581,424.7513 127.3986,423.5689 126.3555,423.6746 C125.3125,423.5689 124.1301,424.7513 124.2358,425.7944 C124.1301,426.8374 125.3125,428.0198 126.3555,427.9141 C127.3986,428.0198 128.581,426.8374 128.4753,425.7944 z" stroke="#000000" stroke-width="0.24" fill-opacity="0" />
  <path d="M94.55979,425.7944 C94.66553,424.7513 93.48312,423.5689 92.44006,423.6746 C91.397,423.5689 90.21458,424.7513 90.32032,425.7944 C90.21458,426.8374 91.397,428.0198 92.44006,427.9141 C93.48312,428.0198 94.66553,426.8374 94.55979,425.7944 z" stroke="#000000" stroke-width="0.24" fill-opacity="0" />
  <path d="M103.0387,425.7944 C103.1445,424.7513 101.9621,423.5689 100.919,423.6746 C99.87595,423.5689 98.69352,424.7513 98.79926,425.7944 C98.69352,426.8374 99.87595,428.0198 100.919,427.9141 C101.9621,428.0198 103.1445,426.8374 103.0387,425.7944 z" stroke="#000000" stroke-width="0.24" fill-opacity="0" />
  <path d="M329.117,444.6388 C329.2228,443.5958 328.0403,442.4133 326.9973,442.5191 C325.9543,442.4133 324.7718,443.5958 324.8776,444.6388 C324.7718,445.6819 325.9543,446.8643 326.9973,446.7585 C328.0403,446.8643 329.2228,445.6819 329.117,444.6388 z" stroke="#000000" stroke-width="0.24" fill-opacity="0" />
  <path d="M433.244,475.139 C433.3498,474.0959 432.1674,472.9135 431.1243,473.0193 C430.0812,472.9135 428.8988,474.0959 429.0046,475.139 C428.8988,476.1821 430.0812,477.3645 431.1243,477.2588 C432.1674,477.3645 433.3498,476.1821 433.244,475.139 z" stroke="#000000" stroke-width="0.24" fill-opacity="0" />
  <path d="M480.9266,425.7944 C481.0324,424.7513 479.8499,423.5689 478.8069,423.6746 C477.7638,423.5689 476.5814,424.7513 476.6872,425.7944 C476.5814,426.8374 477.7638,428.0198 478.8069,427.9141 C479.8499,428.0198 481.0324,426.8374 480.9266,425.7944 z" stroke="#000000" stroke-width="0.24" fill-opacity="0" />
  <path d="M409.158,425.7944 C409.2637,424.7513 408.0813,423.5689 407.0382,423.6746 C405.9952,423.5689 404.8128,424.7513 404.9185,425.7944 C404.8128,426.8374 405.9952,428.0198 407.0382,427.9141 C408.0813,428.0198 409.2637,426.8374 409.158,425.7944 z" stroke="#000000" stroke-width="0.24" fill-opacity="0" />
  <path d="M379.4028,507.2982 C379.5085,506.2552 378.3261,505.0727 377.283,505.1785 C376.24,505.0727 375.0576,506.2552 375.1633,507.2982 C375.0576,508.3412 376.24,509.5237 377.283,509.4179 C378.3261,509.5237 379.5085,508.3412 379.4028,507.2982 z" stroke="#000000" stroke-width="0.24" fill-opacity="0" />
  <path d="M329.117,507.2982 C329.2228,506.2552 328.0403,505.0727 326.9973,505.1785 C325.9543,505.0727 324.7718,506.2552 324.8776,507.2982 C324.7718,508.3412 325.9543,509.5237 326.9973,509.4179 C328.0403,509.5237 329.2228,508.3412 329.117,507.2982 z" stroke="#000000" stroke-width="0.24" fill-opacity="0" />
  <path d="M302.0804,507.2982 C302.1862,506.2552 301.0037,505.0727 299.9607,505.1785 C298.9176,505.0727 297.7352,506.2552 297.8409,507.2982 C297.7352,508.3412 298.9176,509.5237 299.9607,509.4179 C301.0037,509.5237 302.1862,508.3412 302.0804,507.2982 z" stroke="#000000" stroke-width="0.24" fill-opacity="0" />
  <path d="M207.3153,507.2982 C207.4211,506.2552 206.2386,505.0727 205.1956,505.1785 C204.1525,505.0727 202.9701,506.2552 203.0759,507.2982 C202.9701,508.3412 204.1525,509.5237 205.1956,509.4179 C206.2386,509.5237 207.4211,508.3412 207.3153,507.2982 z" stroke="#000000" stroke-width="0.24" fill-opacity="0" />
  <path d="M180.2787,507.2982 C180.3844,506.2552 179.202,505.0727 178.159,505.1785 C177.1159,505.0727 175.9335,506.2552 176.0392,507.2982 C175.9335,508.3412 177.1159,509.5237 178.159,509.4179 C179.202,509.5237 180.3844,508.3412 180.2787,507.2982 z" stroke="#000000" stroke-width="0.24" fill-opacity="0" />
  <path d="M110.5974,475.139 C110.7031,474.0959 109.5207,472.9135 108.4776,473.0193 C107.4346,472.9135 106.2522,474.0959 106.3579,475.139 C106.2522,476.1821 107.4346,477.3645 108.4776,477.2588 C109.5207,477.3645 110.7031,476.1821 110.5974,475.139 z" stroke="#000000" stroke-width="0.24" fill-opacity="0" />
  <path d="M302.0804,444.6388 C302.1862,443.5958 301.0037,442.4133 299.9607,442.5191 C298.9176,442.4133 297.7352,443.5958 297.8409,444.6388 C297.7352,445.6819 298.9176,446.8643 299.9607,446.7585 C301.0037,446.8643 302.1862,445.6819 302.0804,444.6388 z" stroke="#000000" stroke-width="0.24" fill-opacity="0" />
  <path d="M456.4752,441.3546 L469.798,441.3546 C471.3626,441.196 473.1362,442.9697 472.9776,444.5342 L472.9776,453.4505 C472.9885,454.2638 472.6292,455.1313 472.0463,455.6988 L458.0977,469.6474 C457.4455,470.3278 456.3658,470.6942 455.4343,470.5515 C454.4976,470.4483 453.5496,469.8148 453.0957,468.9889 L446.8081,458.0985 C446.2447,457.1896 446.2447,455.8278 446.8081,454.9189 L453.7216,442.9444 C454.227,442.002 455.4064,441.3211 456.4752,441.3546 z" stroke="#000000" stroke-width="0.24" fill-opacity="0" />
  <path d="M66.62433,453.4505 L66.62433,444.5355 C66.46571,442.9709 68.23936,441.1972 69.80393,441.3559 L83.12951,441.3559 C84.19836,441.3223 85.37775,442.0032 85.88313,442.9456 L92.79659,454.9201 C93.36008,455.829 93.36008,457.1909 92.79659,458.0997 L86.50843,468.9911 C86.0546,469.817 85.10655,470.4505 84.16984,470.5537 C83.23832,470.6965 82.15863,470.33 81.50649,469.6497 L67.55562,455.6988 C66.9728,455.1313 66.61346,454.2638 66.62433,453.4505 z" stroke="#000000" stroke-width="0.24" fill-opacity="0" />
  <path d="M356.9284,488.7021 L350.015,476.7276 C349.4515,475.8187 349.4515,474.4569 350.015,473.548 L356.9284,461.5735 C357.4338,460.6311 358.6132,459.9502 359.6821,459.9837 L373.509,459.9837 C374.5779,459.9502 375.7572,460.6311 376.2626,461.5735 L383.1761,473.548 C383.7396,474.4569 383.7396,475.8187 383.1761,476.7276 L376.2626,488.7021 C375.7572,489.6445 374.5779,490.3254 373.509,490.2919 L359.6821,490.2919 C358.6132,490.3254 357.4338,489.6445 356.9284,488.7021 z" stroke="#000000" stroke-width="0.24" fill-opacity="0" />
  <path d="M341.4015,458.5443 L345.1478,458.5443 C346.2166,458.5107 347.396,459.1917 347.9014,460.1341 C348.4649,461.043 348.4649,462.4048 347.9014,463.3137 L343.9982,470.0742 C343.4929,471.0166 342.3134,471.6976 341.2446,471.664 L327.4177,471.664 C326.3488,471.6976 325.1694,471.0166 324.6641,470.0742 L317.7506,458.0997 C317.1871,457.1909 317.1871,455.829 317.7506,454.9201 L319.4031,452.0579 C319.9085,451.1154 321.0879,450.4345 322.1567,450.4681 L324.3256,450.4681 C325.1389,450.4572 326.0064,450.8166 326.5739,451.3994 L328.2863,453.1118 C331.5964,456.5115 336.657,458.6077 341.4015,458.5443 z" stroke="#000000" stroke-width="0.24" fill-opacity="0" />
  <path d="M126.7746,499.8791 L124.1643,495.3579 C123.6008,494.449 123.6008,493.0872 124.1643,492.1783 L131.0777,480.2038 C131.5831,479.2614 132.7625,478.5805 133.8314,478.614 L147.6583,478.614 C148.7271,478.5805 149.9065,479.2614 150.4119,480.2038 L157.3254,492.1783 C157.8889,493.0872 157.8889,494.449 157.3254,495.3579 L154.715,499.8791 C154.2097,500.8216 153.0303,501.5025 151.9614,501.4689 L129.5282,501.4689 C128.4594,501.5025 127.28,500.8216 126.7746,499.8791 z" stroke="#000000" stroke-width="0.24" fill-opacity="0" />
  <path d="M191.3034,499.8791 L188.6931,495.3579 C188.1296,494.449 188.1296,493.0872 188.6931,492.1783 L195.6065,480.2038 C196.1119,479.2614 197.2913,478.5805 198.3601,478.614 L212.1871,478.614 C213.2559,478.5805 214.4353,479.2614 214.9407,480.2038 L221.8541,492.1783 C222.4176,493.0872 222.4176,494.449 221.8541,495.3579 L219.2438,499.8791 C218.7384,500.8216 217.5591,501.5025 216.4902,501.4689 L194.057,501.4689 C192.9881,501.5025 191.8087,500.8216 191.3034,499.8791 z" stroke="#000000" stroke-width="0.24" fill-opacity="0" />
</svg>