<?xml version="1.0" encoding="UTF-8" standalone="no"?>
<!DOCTYPE svg PUBLIC "-//W3C//DTD SVG 1.1//EN" "http://www.w3.org/Graphics/SVG/1.1/DTD/svg11.dtd">
<svg width="612pt" height="792pt" viewBox="0 0 612 792" overflow="visible" version="1.1" xmlns="http://www.w3.org/2000/svg">
  <path d="M373.3651,406.2704 C373.0144,405.4681 373.6523,404.2257 374.5087,404.0432 C375.311,403.6925 376.5534,404.3305 376.7359,405.1868 C377.0866,405.9892 376.4486,407.2315 375.5923,407.4141 C374.7899,407.7647 373.5476,407.1268 373.3651,406.2704 z" stroke="#00FF00" stroke-width="0.24" fill-opacity="0" />
  <path d="M347.4932,507.4011 C347.4248,505.9141 349.1936,504.3301 350.6642,504.5616 C352.1512,504.4932 353.7352,506.262 353.5037,507.7325 C353.5721,509.2195 351.8033,510.8035 350.3328,510.5721 C348.8458,510.6404 347.2618,508.8716 347.4932,507.4011 z" stroke="#00FF00" stroke-width="0.24" fill-opacity="0" />
  <path d="M357.1245,511.2076 L379.2222,403.172 C375.2479,401.9959 374.2948,402.0915 373.5197,402.3294 C372.7446,402.5674 372.1476,402.9476 371.7216,403.4675 C371.2957,403.9874 371.0409,404.6471 370.7222,405.8338 L342.6589,509.5876 C342.314,511.2928 342.2133,511.7226 342.5208,512.1946 C342.8283,512.6666 343.5441,513.1807 344.5251,513.6169 C345.506,514.0531 346.7521,514.4113 348.0802,514.6651 L351.8643,515.1094 C352.9101,515.1507 353.5915,515.084 354.5059,514.7791 C355.4202,514.4742 356.5674,513.931 357.1245,511.2076 z" stroke="#00FF00" stroke-width="0.24" fill-opacity="0" />
  <path d="M371.323,441.7912 L361.5378,439.7897" stroke="#FF0000" stroke-width="0.24" fill-opacity="0" />
  <path d="M366.3918,465.8997 L355.1003,463.5901" stroke="#FF0000" stroke-width="0.24" fill-opacity="0" />
  <path d="M352.8532,505.6922 L347.5705,508.2635" stroke="#FF0000" stroke-width="0.24" fill-opacity="0" />
  <path d="M353.4266,506.8701 L348.1438,509.4415" stroke="#FF0000" stroke-width="0.24" fill-opacity="0" />
</svg>