<?xml version="1.0" encoding="UTF-8" standalone="no"?>
<!DOCTYPE svg PUBLIC "-//W3C//DTD SVG 1.1//EN" "http://www.w3.org/Graphics/SVG/1.1/DTD/svg11.dtd">
<svg width="612pt" height="792pt" viewBox="0 0 612 792" overflow="visible" version="1.1" xmlns="http://www.w3.org/2000/svg">
  <path d="M513.727,427.1227 L513.6717,426.9802 L513.5302,426.9239 L513.3898,426.9802 L513.3334,427.1227 L513.3375,427.3379 L513.0588,427.3564 L512.7697,427.3728 L512.0748,427.3236 L511.3779,427.2744 L511.1729,427.2816 L510.9679,427.2887 L510.8275,427.2764 L510.6871,427.2641 L510.5293,427.4015 L510.7117,427.7458 L510.9618,428.0594 L511.1955,428.2357 L511.3369,428.1753 L511.3984,428.0328 L511.1852,427.6823 L511.9785,427.7253 L512.7697,427.7725 L513.0588,427.7551 L513.3499,427.7376 L513.3458,427.8217 L513.3437,427.9201 C513.3437,428.1346 513.4127,428.2419 513.5507,428.2419 L513.7065,428.1374 L513.725,427.9365 L513.727,427.5306 z" stroke="#FF0000" stroke-width="0.24" fill-opacity="0" />
  <path d="M536.1693,419.1857 L535.9171,419.0627 L535.788,419.28 L535.788,419.6551 L535.7715,420.4309 L535.7551,421.2068 L535.8105,421.3503 L535.952,421.4077 C536.0708,421.4077 536.1364,421.3414 536.1487,421.2089 L536.161,420.7477 L536.1815,419.7186 L536.2245,419.7576 L537.2577,420.3848 L538.3871,420.846 L538.7869,420.9772 L538.9242,420.9147 L538.9816,420.7702 L538.8853,420.6062 L538.4323,420.4074 L537.9587,420.2352 L537.1409,419.8621 L536.3865,419.3722 z" stroke="#FF0000" stroke-width="0.24" fill-opacity="0" />
  <path d="M536.1693,416.6234 L535.9171,416.5004 L535.788,416.7177 L535.788,417.0928 L535.7715,417.8687 L535.7551,418.6445 L535.8105,418.788 L535.952,418.8454 C536.0708,418.8454 536.1364,418.7791 536.1487,418.6465 L536.161,418.1853 L536.1815,417.1563 L536.2245,417.1953 L537.2577,417.8225 L538.3871,418.2837 L538.7869,418.4149 L538.9242,418.3524 L538.9816,418.2079 L538.8853,418.0439 L538.4323,417.8451 L537.9587,417.6729 L537.1409,417.2998 L536.3865,416.8099 z" stroke="#FF0000" stroke-width="0.24" fill-opacity="0" />
  <path d="M538.8484,427.1227 L538.793,426.9802 L538.6516,426.9239 L538.5112,426.9802 L538.4548,427.1227 L538.4589,427.3379 L538.1801,427.3564 L537.8911,427.3728 L537.1962,427.3236 L536.4993,427.2744 L536.2943,427.2816 L536.0893,427.2887 L535.9489,427.2764 L535.8085,427.2641 L535.6506,427.4015 L535.8331,427.7458 L536.0831,428.0594 L536.3168,428.2357 L536.4583,428.1753 L536.5198,428.0328 L536.3066,427.6823 L537.0999,427.7253 L537.8911,427.7725 L538.1801,427.7551 L538.4712,427.7376 L538.4671,427.8217 L538.465,427.9201 C538.465,428.1346 538.5341,428.2419 538.6721,428.2419 L538.8279,428.1374 L538.8463,427.9365 L538.8484,427.5306 z" stroke="#FF0000" stroke-width="0.24" fill-opacity="0" />
  <path d="M538.8504,424.6096 L538.7879,424.4722 L538.6454,424.4169 L538.4466,424.6014 L538.3933,424.8965 L538.4179,425.5176 L538.4568,425.9399 C538.2327,425.9427 538.0421,425.8682 537.8849,425.7165 L537.518,425.2102 L537.106,424.6895 L536.7842,424.5091 L536.3988,424.4497 C536.187,424.4497 536.0134,424.5467 535.8782,424.7408 L535.6978,425.3332 L535.8392,425.8436 L536.1651,426.2597 L536.3312,426.3376 C536.4432,426.3376 536.4993,426.2672 536.4993,426.1265 L536.4296,425.985 L536.2,425.6919 L536.0913,425.3332 L536.1836,425.04 L536.4172,424.8699 L536.8785,425.0462 L537.1921,425.4377 L537.6841,426.0793 C537.8781,426.2529 538.1343,426.3396 538.4528,426.3396 L538.6987,426.315 L538.8361,426.1306 L538.8443,426.065 L538.8525,425.9994 L538.832,425.7626 L538.8115,425.5258 L538.7992,425.2102 L538.7869,424.8965 L538.8187,424.7541 z" stroke="#FF0000" stroke-width="0.24" fill-opacity="0" />
  <path d="M513.8193,422.8734 C513.8193,422.6 513.7253,422.3684 513.5374,422.1784 C513.3495,421.9885 513.121,421.8935 512.8517,421.8935 L512.3526,422.0288 L512.0523,422.4367 L512.0236,422.3568 C511.9211,422.0971 511.7093,421.9673 511.3882,421.9673 C511.1299,421.9673 510.931,422.0596 510.7916,422.244 L510.5969,422.9431 L510.7301,423.392 L511.0417,423.7056 L511.1842,423.6472 L511.2467,423.5067 L511.2036,423.3981 L511.0581,423.1665 L510.9905,422.8959 L511.1053,422.4757 L511.3963,422.3363 L511.6085,422.4101 L511.7469,422.6233 L511.8678,423.1132 L512.0523,423.2915 C512.1603,423.2915 512.2217,423.2157 512.2368,423.064 L512.4315,422.531 C512.5545,422.3793 512.7192,422.3035 512.9255,422.3035 L513.2863,422.4818 L513.4257,422.8734 L513.3755,423.1726 L513.2248,423.3715 L513.0834,423.4658 L513.0075,423.6072 L513.0618,423.7517 L513.1982,423.8142 L513.2699,423.8019 L513.6901,423.4289 z" stroke="#FF0000" stroke-width="0.24" fill-opacity="0" />
  <path d="M513.7291,424.6096 L513.6666,424.4722 L513.5241,424.4169 L513.3253,424.6014 L513.272,424.8965 L513.2966,425.5176 L513.3355,425.9399 C513.1114,425.9427 512.9207,425.8682 512.7636,425.7165 L512.3967,425.2102 L511.9846,424.6895 L511.6628,424.5091 L511.2775,424.4497 C511.0656,424.4497 510.8921,424.5467 510.7568,424.7408 L510.5764,425.3332 L510.7178,425.8436 L511.0438,426.2597 L511.2098,426.3376 C511.3219,426.3376 511.3779,426.2672 511.3779,426.1265 L511.3082,425.985 L511.0786,425.6919 L510.97,425.3332 L511.0622,425.04 L511.2959,424.8699 L511.7571,425.0462 L512.0707,425.4377 L512.5627,426.0793 C512.7568,426.2529 513.013,426.3396 513.3314,426.3396 L513.5774,426.315 L513.7147,426.1306 L513.7229,426.065 L513.7311,425.9994 L513.7106,425.7626 L513.6901,425.5258 L513.6778,425.2102 L513.6655,424.8965 L513.6973,424.7541 z" stroke="#FF0000" stroke-width="0.24" fill-opacity="0" />
  <path d="M538.8484,427.1227 L538.793,426.9802 L538.6516,426.9239 L538.5112,426.9802 L538.4548,427.1227 L538.4589,427.3379 L538.1801,427.3564 L537.8911,427.3728 L537.1962,427.3236 L536.4993,427.2744 L536.2943,427.2816 L536.0893,427.2887 L535.9489,427.2764 L535.8085,427.2641 L535.6506,427.4015 L535.8331,427.7458 L536.0831,428.0594 L536.3168,428.2357 L536.4583,428.1753 L536.5198,428.0328 L536.3066,427.6823 L537.0999,427.7253 L537.8911,427.7725 L538.1801,427.7551 L538.4712,427.7376 L538.4671,427.8217 L538.465,427.9201 C538.465,428.1346 538.5341,428.2419 538.6721,428.2419 L538.8279,428.1374 L538.8463,427.9365 L538.8484,427.5306 z" stroke="#FF0000" stroke-width="0.24" fill-opacity="0" />
  <path d="M538.9406,422.8734 C538.9406,422.6 538.8467,422.3684 538.6588,422.1784 C538.4709,421.9885 538.2423,421.8935 537.9731,421.8935 L537.4739,422.0288 L537.1736,422.4367 L537.145,422.3568 C537.0425,422.0971 536.8306,421.9673 536.5095,421.9673 C536.2512,421.9673 536.0524,422.0596 535.913,422.244 L535.7183,422.9431 L535.8515,423.392 L536.1631,423.7056 L536.3055,423.6472 L536.368,423.5067 L536.325,423.3981 L536.1794,423.1665 L536.1118,422.8959 L536.2266,422.4757 L536.5177,422.3363 L536.7299,422.4101 L536.8682,422.6233 L536.9891,423.1132 L537.1736,423.2915 C537.2816,423.2915 537.3431,423.2157 537.3582,423.064 L537.5529,422.531 C537.6758,422.3793 537.8405,422.3035 538.0469,422.3035 L538.4077,422.4818 L538.5471,422.8734 L538.4968,423.1726 L538.3461,423.3715 L538.2047,423.4658 L538.1289,423.6072 L538.1832,423.7517 L538.3195,423.8142 L538.3912,423.8019 L538.8115,423.4289 z" stroke="#FF0000" stroke-width="0.24" fill-opacity="0" />
  <path d="M538.8504,424.6096 L538.7879,424.4722 L538.6454,424.4169 L538.4466,424.6014 L538.3933,424.8965 L538.4179,425.5176 L538.4568,425.9399 C538.2327,425.9427 538.0421,425.8682 537.8849,425.7165 L537.518,425.2102 L537.106,424.6895 L536.7842,424.5091 L536.3988,424.4497 C536.187,424.4497 536.0134,424.5467 535.8782,424.7408 L535.6978,425.3332 L535.8392,425.8436 L536.1651,426.2597 L536.3312,426.3376 C536.4432,426.3376 536.4993,426.2672 536.4993,426.1265 L536.4296,425.985 L536.2,425.6919 L536.0913,425.3332 L536.1836,425.04 L536.4172,424.8699 L536.8785,425.0462 L537.1921,425.4377 L537.6841,426.0793 C537.8781,426.2529 538.1343,426.3396 538.4528,426.3396 L538.6987,426.315 L538.8361,426.1306 L538.8443,426.065 L538.8525,425.9994 L538.832,425.7626 L538.8115,425.5258 L538.7992,425.2102 L538.7869,424.8965 L538.8187,424.7541 z" stroke="#FF0000" stroke-width="0.24" fill-opacity="0" />
  <path d="M511.0479,416.6234 L510.7957,416.5004 L510.6666,416.7177 L510.6666,417.0928 L510.6502,417.8687 L510.6338,418.6445 L510.6891,418.788 L510.8306,418.8454 C510.9495,418.8454 511.0151,418.7791 511.0274,418.6465 L511.0397,418.1853 L511.0602,417.1563 L511.1032,417.1953 L512.1364,417.8225 L513.2658,418.2837 L513.6655,418.4149 L513.8029,418.3524 L513.8602,418.2079 L513.7639,418.0439 L513.3109,417.8451 L512.8374,417.6729 L512.0195,417.2998 L511.2651,416.8099 z" stroke="#FF0000" stroke-width="0.24" fill-opacity="0" />
  <path d="M536.1693,416.6234 L535.9171,416.5004 L535.788,416.7177 L535.788,417.0928 L535.7715,417.8687 L535.7551,418.6445 L535.8105,418.788 L535.952,418.8454 C536.0708,418.8454 536.1364,418.7791 536.1487,418.6465 L536.161,418.1853 L536.1815,417.1563 L536.2245,417.1953 L537.2577,417.8225 L538.3871,418.2837 L538.7869,418.4149 L538.9242,418.3524 L538.9816,418.2079 L538.8853,418.0439 L538.4323,417.8451 L537.9587,417.6729 L537.1409,417.2998 L536.3865,416.8099 z" stroke="#FF0000" stroke-width="0.24" fill-opacity="0" />
  <path d="M511.0479,419.1857 L510.7957,419.0627 L510.6666,419.28 L510.6666,419.6551 L510.6502,420.4309 L510.6338,421.2068 L510.6891,421.3503 L510.8306,421.4077 C510.9495,421.4077 511.0151,421.3414 511.0274,421.2089 L511.0397,420.7477 L511.0602,419.7186 L511.1032,419.7576 L512.1364,420.3848 L513.2658,420.846 L513.6655,420.9772 L513.8029,420.9147 L513.8602,420.7702 L513.7639,420.6062 L513.3109,420.4074 L512.8374,420.2352 L512.0195,419.8621 L511.2651,419.3722 z" stroke="#FF0000" stroke-width="0.24" fill-opacity="0" />
  <path d="M538.9406,422.8734 C538.9406,422.6 538.8467,422.3684 538.6588,422.1784 C538.4709,421.9885 538.2423,421.8935 537.9731,421.8935 L537.4739,422.0288 L537.1736,422.4367 L537.145,422.3568 C537.0425,422.0971 536.8306,421.9673 536.5095,421.9673 C536.2512,421.9673 536.0524,422.0596 535.913,422.244 L535.7183,422.9431 L535.8515,423.392 L536.1631,423.7056 L536.3055,423.6472 L536.368,423.5067 L536.325,423.3981 L536.1794,423.1665 L536.1118,422.8959 L536.2266,422.4757 L536.5177,422.3363 L536.7299,422.4101 L536.8682,422.6233 L536.9891,423.1132 L537.1736,423.2915 C537.2816,423.2915 537.3431,423.2157 537.3582,423.064 L537.5529,422.531 C537.6758,422.3793 537.8405,422.3035 538.0469,422.3035 L538.4077,422.4818 L538.5471,422.8734 L538.4968,423.1726 L538.3461,423.3715 L538.2047,423.4658 L538.1289,423.6072 L538.1832,423.7517 L538.3195,423.8142 L538.3912,423.8019 L538.8115,423.4289 z" stroke="#FF0000" stroke-width="0.24" fill-opacity="0" />
  <path d="M536.1693,419.1857 L535.9171,419.0627 L535.788,419.28 L535.788,419.6551 L535.7715,420.4309 L535.7551,421.2068 L535.8105,421.3503 L535.952,421.4077 C536.0708,421.4077 536.1364,421.3414 536.1487,421.2089 L536.161,420.7477 L536.1815,419.7186 L536.2245,419.7576 L537.2577,420.3848 L538.3871,420.846 L538.7869,420.9772 L538.9242,420.9147 L538.9816,420.7702 L538.8853,420.6062 L538.4323,420.4074 L537.9587,420.2352 L537.1409,419.8621 L536.3865,419.3722 z" stroke="#FF0000" stroke-width="0.24" fill-opacity="0" />
  <path d="M537.4255,434.1243 L541.721,434.3596 L541.721,431.2991 L537.4255,431.5343 L537.3417,431.4655 L537.3069,431.2989 L537.2722,431.4655 L537.1882,431.5343 L532.8928,431.2991 L532.8928,434.3596 L537.1882,434.1243 L537.2722,434.1931 L537.3069,434.3597 L537.3417,434.1931 z" stroke="#000000" stroke-width="0.24" fill-opacity="0" />
  <path d="M537.4255,410.6107 L541.721,410.3754 L541.721,413.4359 L537.4255,413.2007 L537.3417,413.2695 L537.3069,413.4361 L537.2722,413.2695 L537.1882,413.2007 L532.8928,413.4359 L532.8928,410.3754 L537.1882,410.6107 L537.2722,410.5418 L537.3069,410.3753 L537.3417,410.5418 z" stroke="#000000" stroke-width="0.24" fill-opacity="0" />
  <path d="M537.4252,414.4955 L541.6861,414.7289 L537.3069,414.9624 L532.9277,414.7289 L537.1885,414.4955 L537.3069,414.26 z" stroke="#000000" stroke-width="0.24" fill-opacity="0" />
  <path d="M494.3858,471.6327 L494.3858,473.0452 L493.5662,471.7651 L493.3545,471.6327 L492.8816,471.6327 L492.7054,471.712 L492.6479,471.8967 L492.8573,472.9836 C492.9116,473.7996 493.7606,474.6467 494.4419,474.5754 L500.4557,474.5754 C501.137,474.6467 501.986,473.7996 502.0403,472.9836 L502.2496,471.8967 L502.1922,471.712 L502.0159,471.6327 L501.5431,471.6327 L501.3314,471.7651 L500.5118,473.0452 L500.5118,471.6327" stroke="#000000" stroke-width="0.24" fill-opacity="0" />
  <path d="M537.4252,435.4191 L541.6861,435.6525 L537.3069,435.886 L532.9277,435.6525 L537.1885,435.4191 L537.3069,435.1837 z" stroke="#000000" stroke-width="0.24" fill-opacity="0" />
  <path d="M499.0708,360.874 C499.1517,360.0758 498.2469,359.1711 497.4488,359.252 C496.6507,359.1711 495.7459,360.0758 495.8268,360.874 C495.7459,361.6721 496.6507,362.5768 497.4488,362.4959 C498.2469,362.5768 499.1517,361.6721 499.0708,360.874 z" stroke="#000000" stroke-width="0.24" fill-opacity="0" />
  <path d="M505.2342,432.2153 C505.2095,435.2452 506.3082,438.4264 508.1975,440.7952 L531.3688,470.3386 C532.5933,471.9673 534.8013,473.0416 536.8384,473 L540.9179,473 L540.9179,466.0626 C540.8486,465.3785 541.624,464.603 542.3081,464.6723 C542.9922,464.603 543.7678,465.3784 543.6985,466.0625 L543.6985,472.8253 C546.1155,472.3867 548.2409,469.4704 547.9183,467.0351 C547.9407,464.5786 545.4747,461.944 543.0222,461.8042 C542.5551,461.7505 542.0844,461.4832 541.799,461.1095 L521.1125,434.7341 C519.853,433.1549 519.1205,431.0341 519.1369,429.0142 L519.1369,422.3675 L519.1369,415.7209 C519.1205,413.7009 519.853,411.5801 521.1125,410.0009 L541.799,383.6255 C542.0844,383.2518 542.5551,382.9844 543.0222,382.9308 C545.4747,382.791 547.9407,380.1564 547.9183,377.6999 C548.2409,375.2646 546.1155,372.3483 543.6985,371.9096 L543.6985,378.6725 C543.7678,379.3566 542.9922,380.132 542.3081,380.0627 C541.624,380.132 540.8486,379.3565 540.9179,378.6724 L540.9179,371.735 L536.8384,371.735 C534.8013,371.6934 532.5933,372.7677 531.3688,374.3964 L508.1975,403.9398 C506.3082,406.3086 505.2095,409.4898 505.2342,412.5197 L505.2342,422.3675 z" stroke="#000000" stroke-width="0.24" fill-opacity="0" />
  <path d="M512.3038,414.4955 L516.5647,414.7289 L512.1855,414.9624 L507.8063,414.7289 L512.0672,414.4955 L512.1855,414.26 z" stroke="#000000" stroke-width="0.24" fill-opacity="0" />
  <path d="M479.2391,359.1825 L479.2391,357.7699 L478.4195,359.05 L478.2078,359.1825 L477.7349,359.1825 L477.5586,359.1031 L477.5013,358.9184 L477.7106,357.8315 C477.7649,357.0155 478.6139,356.1684 479.2952,356.2397 L485.309,356.2397 C485.9903,356.1684 486.8393,357.0155 486.8936,357.8315 L487.1029,358.9184 L487.0455,359.1031 L486.8692,359.1825 L486.3964,359.1825 L486.1847,359.05 L485.3651,357.7699 L485.3651,359.1825" stroke="#000000" stroke-width="0.24" fill-opacity="0" />
  <path d="M512.3038,409.3159 L516.5647,409.0825 L512.1855,408.8489 L507.8063,409.0825 L512.0672,409.3159 L512.1855,409.5513 z" stroke="#000000" stroke-width="0.24" fill-opacity="0" />
  <path d="M537.4252,409.3159 L541.6861,409.0825 L537.3069,408.8489 L532.9277,409.0825 L537.1885,409.3159 L537.3069,409.5513 z" stroke="#000000" stroke-width="0.24" fill-opacity="0" />
  <path d="M512.3042,410.6107 L516.5997,410.3754 L516.5997,413.4359 L512.3042,413.2007 L512.2203,413.2695 L512.1855,413.4361 L512.1508,413.2695 L512.0669,413.2007 L507.7714,413.4359 L507.7714,410.3754 L512.0669,410.6107 L512.1508,410.5418 L512.1855,410.3753 L512.2203,410.5418 z" stroke="#000000" stroke-width="0.24" fill-opacity="0" />
  <path d="M534.2859,376.6844 C534.8574,375.9243 535.8878,375.4229 536.8384,375.4424 L537.2105,375.4424 L537.2105,378.6724 C537.1996,379.8364 537.6462,381.0637 538.4026,381.9485 L529.4429,393.3721 L524.3379,389.3681 z" stroke="#000000" stroke-width="0.24" fill-opacity="0" />
  <path d="M534.2859,468.0506 C534.8574,468.8107 535.8878,469.312 536.8384,469.2926 L537.2105,469.2926 L537.2105,466.0626 C537.1996,464.8986 537.6462,463.6713 538.4026,462.7865 L529.4429,451.3629 L524.3379,455.3669 z" stroke="#000000" stroke-width="0.24" fill-opacity="0" />
  <path d="M530.3555,432.2153 C530.3309,435.2452 531.4296,438.4264 533.3188,440.7952 L556.4901,470.3386 C557.7146,471.9673 559.9226,473.0416 561.9598,473 L566.0392,473 L566.0392,466.0626 C565.9699,465.3785 566.7454,464.603 567.4295,464.6723 C568.1136,464.603 568.8891,465.3784 568.8198,466.0625 L568.8198,472.8253 C571.2369,472.3867 573.3623,469.4704 573.0397,467.0351 C573.0621,464.5786 570.5961,461.944 568.1435,461.8042 C567.6765,461.7505 567.2057,461.4832 566.9204,461.1095 L546.2338,434.7341 C544.9743,433.1549 544.2418,431.0341 544.2582,429.0142 L544.2582,422.3675 L544.2582,415.7209 C544.2418,413.7009 544.9743,411.5801 546.2338,410.0009 L566.9204,383.6255 C567.2057,383.2518 567.6765,382.9844 568.1435,382.9308 C570.5961,382.791 573.0621,380.1564 573.0397,377.6999 C573.3623,375.2646 571.2369,372.3483 568.8198,371.9096 L568.8198,378.6725 C568.8891,379.3566 568.1136,380.132 567.4295,380.0627 C566.7454,380.132 565.9699,379.3565 566.0392,378.6724 L566.0392,371.735 L561.9598,371.735 C559.9226,371.6934 557.7146,372.7677 556.4901,374.3964 L533.3188,403.9398 C531.4296,406.3086 530.3309,409.4898 530.3555,412.5197 L530.3555,422.3675 z" stroke="#000000" stroke-width="0.24" fill-opacity="0" />
  <path d="M559.4073,468.0506 C559.9787,468.8107 561.0092,469.312 561.9598,469.2926 L562.3318,469.2926 L562.3318,466.0626 C562.3209,464.8986 562.7675,463.6713 563.524,462.7865 L554.5643,451.3629 L549.4592,455.3669 z" stroke="#000000" stroke-width="0.24" fill-opacity="0" />
  <path d="M559.4073,376.6844 C559.9787,375.9243 561.0092,375.4229 561.9598,375.4424 L562.3318,375.4424 L562.3318,378.6724 C562.3209,379.8364 562.7675,381.0637 563.524,381.9485 L554.5643,393.3721 L549.4592,389.3681 z" stroke="#000000" stroke-width="0.24" fill-opacity="0" />
  <path d="M537.4252,409.3159 L541.6861,409.0825 L537.3069,408.8489 L532.9277,409.0825 L537.1885,409.3159 L537.3069,409.5513 z" stroke="#000000" stroke-width="0.24" fill-opacity="0" />
  <path d="M483.9241,441.2298 C484.005,442.0279 483.1002,442.9327 482.3021,442.8518 C481.504,442.9327 480.5992,442.0279 480.6801,441.2298 C480.5992,440.4316 481.504,439.5269 482.3021,439.6078 C483.1002,439.5269 484.005,440.4316 483.9241,441.2298 z" stroke="#000000" stroke-width="0.24" fill-opacity="0" />
  <path d="M512.3042,434.1243 L516.5997,434.3596 L516.5997,431.2991 L512.3042,431.5343 L512.2203,431.4655 L512.1855,431.2989 L512.1508,431.4655 L512.0669,431.5343 L507.7714,431.2991 L507.7714,434.3596 L512.0669,434.1243 L512.1508,434.1931 L512.1855,434.3597 L512.2203,434.1931 z" stroke="#000000" stroke-width="0.24" fill-opacity="0" />
  <path d="M537.4252,430.2395 L541.6861,430.0061 L537.3069,429.7726 L532.9277,430.0061 L537.1885,430.2395 L537.3069,430.4749 z" stroke="#000000" stroke-width="0.24" fill-opacity="0" />
  <path d="M512.3038,430.2395 L516.5647,430.0061 L512.1855,429.7726 L507.8063,430.0061 L512.0672,430.2395 L512.1855,430.4749 z" stroke="#000000" stroke-width="0.24" fill-opacity="0" />
  <path d="M554.5643,393.3721 L563.524,381.9485 C562.7675,381.0637 562.3209,379.8364 562.3318,378.6724 L562.3318,375.4424 L561.9598,375.4424 C561.0092,375.4229 559.9787,375.9243 559.4073,376.6844 L549.4592,389.3681" stroke="#000000" stroke-width="0.24" fill-opacity="0" />
  <path d="M512.3038,435.4191 L516.5647,435.6525 L512.1855,435.886 L507.8063,435.6525 L512.0672,435.4191 L512.1855,435.1837 z" stroke="#000000" stroke-width="0.24" fill-opacity="0" />
  <path d="M529.4429,393.3721 L538.4026,381.9485 C537.6462,381.0637 537.1996,379.8364 537.2105,378.6724 L537.2105,375.4424 L536.8384,375.4424 C535.8878,375.4229 534.8574,375.9243 534.2859,376.6844 L524.3379,389.3681" stroke="#000000" stroke-width="0.24" fill-opacity="0" />
  <path d="M483.9241,469.9411 C484.005,470.7393 483.1002,471.644 482.3021,471.5631 C481.504,471.644 480.5992,470.7393 480.6801,469.9411 C480.5992,469.143 481.504,468.2383 482.3021,468.3192 C483.1002,468.2383 484.005,469.143 483.9241,469.9411 z" stroke="#000000" stroke-width="0.24" fill-opacity="0" />
  <path d="M554.5643,393.3721 L563.524,381.9485 C562.7675,381.0637 562.3209,379.8364 562.3318,378.6724 L562.3318,375.4424 L561.9598,375.4424 C561.0092,375.4229 559.9787,375.9243 559.4073,376.6844 L549.4592,389.3681" stroke="#000000" stroke-width="0.24" fill-opacity="0" />
  <path d="M537.4252,435.4191 L541.6861,435.6525 L537.3069,435.886 L532.9277,435.6525 L537.1885,435.4191 L537.3069,435.1837 z" stroke="#000000" stroke-width="0.24" fill-opacity="0" />
  <path d="M537.4252,430.2395 L541.6861,430.0061 L537.3069,429.7726 L532.9277,430.0061 L537.1885,430.2395 L537.3069,430.4749 z" stroke="#000000" stroke-width="0.24" fill-opacity="0" />
  <path d="M537.4255,434.1243 L541.721,434.3596 L541.721,431.2991 L537.4255,431.5343 L537.3417,431.4655 L537.3069,431.2989 L537.2722,431.4655 L537.1882,431.5343 L532.8928,431.2991 L532.8928,434.3596 L537.1882,434.1243 L537.2722,434.1931 L537.3069,434.3597 L537.3417,434.1931 z" stroke="#000000" stroke-width="0.24" fill-opacity="0" />
  <path d="M499.0708,389.5853 C499.1517,388.7872 498.2469,387.8824 497.4488,387.9633 C496.6507,387.8824 495.7459,388.7872 495.8268,389.5853 C495.7459,390.3835 496.6507,391.2882 497.4488,391.2073 C498.2469,391.2882 499.1517,390.3835 499.0708,389.5853 z" stroke="#000000" stroke-width="0.24" fill-opacity="0" />
  <path d="M537.4252,414.4955 L541.6861,414.7289 L537.3069,414.9624 L532.9277,414.7289 L537.1885,414.4955 L537.3069,414.26 z" stroke="#000000" stroke-width="0.24" fill-opacity="0" />
  <path d="M537.4255,410.6107 L541.721,410.3754 L541.721,413.4359 L537.4255,413.2007 L537.3417,413.2695 L537.3069,413.4361 L537.2722,413.2695 L537.1882,413.2007 L532.8928,413.4359 L532.8928,410.3754 L537.1882,410.6107 L537.2722,410.5418 L537.3069,410.3753 L537.3417,410.5418 z" stroke="#000000" stroke-width="0.24" fill-opacity="0" />
  <path d="M559.4073,376.6844 C559.9787,375.9243 561.0092,375.4229 561.9598,375.4424 L562.3318,375.4424 L562.3318,378.6724 C562.3209,379.8364 562.7675,381.0637 563.524,381.9485 L554.5643,393.3721 L549.4592,389.3681 z" stroke="#000000" stroke-width="0.24" fill-opacity="0" />
  <path d="M559.4073,468.0506 C559.9787,468.8107 561.0092,469.312 561.9598,469.2926 L562.3318,469.2926 L562.3318,466.0626 C562.3209,464.8986 562.7675,463.6713 563.524,462.7865 L554.5643,451.3629 L549.4592,455.3669 z" stroke="#000000" stroke-width="0.24" fill-opacity="0" />
  <path d="M530.3555,432.2153 C530.3309,435.2452 531.4296,438.4264 533.3188,440.7952 L556.4901,470.3386 C557.7146,471.9673 559.9226,473.0416 561.9598,473 L566.0392,473 L566.0392,466.0626 C565.9699,465.3785 566.7454,464.603 567.4295,464.6723 C568.1136,464.603 568.8891,465.3784 568.8198,466.0625 L568.8198,472.8253 C571.2369,472.3867 573.3623,469.4704 573.0397,467.0351 C573.0621,464.5786 570.5961,461.944 568.1435,461.8042 C567.6765,461.7505 567.2057,461.4832 566.9204,461.1095 L546.2338,434.7341 C544.9743,433.1549 544.2418,431.0341 544.2582,429.0142 L544.2582,422.3675 L544.2582,415.7209 C544.2418,413.7009 544.9743,411.5801 546.2338,410.0009 L566.9204,383.6255 C567.2057,383.2518 567.6765,382.9844 568.1435,382.9308 C570.5961,382.791 573.0621,380.1564 573.0397,377.6999 C573.3623,375.2646 571.2369,372.3483 568.8198,371.9096 L568.8198,378.6725 C568.8891,379.3566 568.1136,380.132 567.4295,380.0627 C566.7454,380.132 565.9699,379.3565 566.0392,378.6724 L566.0392,371.735 L561.9598,371.735 C559.9226,371.6934 557.7146,372.7677 556.4901,374.3964 L533.3188,403.9398 C531.4296,406.3086 530.3309,409.4898 530.3555,412.5197 L530.3555,422.3675 z" stroke="#000000" stroke-width="0.24" fill-opacity="0" />
  <path d="M511.2668,406.0338 L519.5122,406.0338 L527.155,396.2893 L522.0499,392.2853 z" stroke="#000000" stroke-width="0.24" fill-opacity="0" />
  <path d="M511.2668,438.7012 L519.5122,438.7012 L527.155,448.4457 L522.0499,452.4497 z" stroke="#000000" stroke-width="0.24" fill-opacity="0" />
  <path d="M536.3881,438.7012 L544.6336,438.7012 L552.2764,448.4457 L547.1713,452.4497 z" stroke="#000000" stroke-width="0.24" fill-opacity="0" />
  <path d="M536.3881,406.0338 L544.6336,406.0338 L552.2764,396.2893 L547.1713,392.2853 z" stroke="#000000" stroke-width="0.24" fill-opacity="0" />
  <path d="M502.0831,449.8542 L502.0831,356.2397 L492.8145,356.2397 L492.8145,449.8542" stroke="#000000" stroke-width="0.24" fill-opacity="0" />
  <path d="M486.9364,380.961 L486.9364,474.5754 L477.6679,474.5754 L477.6679,380.961" stroke="#000000" stroke-width="0.24" fill-opacity="0" />
  <path d="M536.3881,406.0338 L544.6336,406.0338 L552.2764,396.2893 L547.1713,392.2853 z" stroke="#000000" stroke-width="0.24" fill-opacity="0" />
  <path d="M536.3881,438.7012 L544.6336,438.7012 L552.2764,448.4457 L547.1713,452.4497 z" stroke="#000000" stroke-width="0.24" fill-opacity="0" />
  <path d="M537.3069,431.299 L537.3069,430.475" stroke="#000000" stroke-width="0.24" fill-opacity="0" />
  <path d="M537.3069,434.3597 L537.3069,435.1837" stroke="#000000" stroke-width="0.24" fill-opacity="0" />
  <path d="M512.1855,410.3753 L512.1855,409.5513" stroke="#000000" stroke-width="0.24" fill-opacity="0" />
  <path d="M537.3069,413.4361 L537.3069,414.2601" stroke="#000000" stroke-width="0.24" fill-opacity="0" />
  <path d="M537.3069,410.3753 L537.3069,409.5513" stroke="#000000" stroke-width="0.24" fill-opacity="0" />
  <path d="M500.5118,471.6327 L501.5432,471.6327" stroke="#000000" stroke-width="0.24" fill-opacity="0" />
  <path d="M478.2078,359.1825 L479.2391,359.1825" stroke="#000000" stroke-width="0.24" fill-opacity="0" />
  <path d="M485.3651,359.1825 L486.3964,359.1825" stroke="#000000" stroke-width="0.24" fill-opacity="0" />
  <path d="M537.3069,413.4361 L537.3069,414.2601" stroke="#000000" stroke-width="0.24" fill-opacity="0" />
  <path d="M512.1855,413.4361 L512.1855,414.2601" stroke="#000000" stroke-width="0.24" fill-opacity="0" />
  <path d="M502.0831,471.6327 L504.2994,471.6327" stroke="#000000" stroke-width="0.24" fill-opacity="0" />
  <path d="M486.8693,359.1825 z" stroke="#000000" stroke-width="0.24" fill-opacity="0" />
  <path d="M490.5982,471.6327 L492.8145,449.8542" stroke="#000000" stroke-width="0.24" fill-opacity="0" />
  <path d="M504.2994,471.6327 L502.0831,449.8542" stroke="#000000" stroke-width="0.24" fill-opacity="0" />
  <path d="M489.1528,359.1825 L486.9364,380.961" stroke="#000000" stroke-width="0.24" fill-opacity="0" />
  <path d="M512.1855,431.299 L512.1855,430.475" stroke="#000000" stroke-width="0.24" fill-opacity="0" />
  <path d="M492.8145,471.6327 L490.5982,471.6327" stroke="#000000" stroke-width="0.24" fill-opacity="0" />
  <path d="M492.8145,471.6327 z" stroke="#000000" stroke-width="0.24" fill-opacity="0" />
  <path d="M475.4515,359.1825 L477.6679,380.961" stroke="#000000" stroke-width="0.24" fill-opacity="0" />
  <path d="M477.6679,359.1825 L477.735,359.1825 L475.4515,359.1825" stroke="#000000" stroke-width="0.24" fill-opacity="0" />
  <path d="M512.1855,434.3597 L512.1855,435.1837" stroke="#000000" stroke-width="0.24" fill-opacity="0" />
  <path d="M537.3069,434.3597 L537.3069,435.1837" stroke="#000000" stroke-width="0.24" fill-opacity="0" />
  <path d="M537.3069,431.299 L537.3069,430.475" stroke="#000000" stroke-width="0.24" fill-opacity="0" />
  <path d="M537.3069,410.3753 L537.3069,409.5513" stroke="#000000" stroke-width="0.24" fill-opacity="0" />
  <path d="M502.016,471.6327 z" stroke="#000000" stroke-width="0.24" fill-opacity="0" />
  <path d="M486.9364,359.1825 L489.1528,359.1825" stroke="#000000" stroke-width="0.24" fill-opacity="0" />
  <path d="M493.3545,471.6327 L494.3858,471.6327" stroke="#000000" stroke-width="0.24" fill-opacity="0" />
</svg>