<?xml version="1.0" encoding="UTF-8" standalone="no"?>
<!DOCTYPE svg PUBLIC "-//W3C//DTD SVG 1.1//EN" "http://www.w3.org/Graphics/SVG/1.1/DTD/svg11.dtd">
<svg width="612pt" height="792pt" viewBox="0 0 612 792" overflow="visible" version="1.1" xmlns="http://www.w3.org/2000/svg">
  <path d="M316.4151,457.3456 C316.515,456.3602 315.398,455.2432 314.4126,455.3431 C313.4273,455.2432 312.3103,456.3602 312.4102,457.3456 C312.3103,458.3309 313.4273,459.4479 314.4126,459.348 C315.398,459.4479 316.515,458.3309 316.4151,457.3456 z" stroke="#000000" stroke-width="0.24" fill-opacity="0" />
  <path d="M246.9418,351.175 C247.0417,350.1896 245.9247,349.0726 244.9394,349.1725 C243.9541,349.0726 242.8371,350.1896 242.9369,351.175 C242.8371,352.1603 243.9541,353.2773 244.9394,353.1774 C245.9247,353.2773 247.0417,352.1603 246.9418,351.175 z" stroke="#000000" stroke-width="0.24" fill-opacity="0" />
  <path d="M336.2081,391.1313 C336.7835,389.4598 337.6526,387.8645 338.7449,386.4747 L349.8063,372.3715 L343.5037,367.4283 L330.0034,384.6411 z" stroke="#000000" stroke-width="0.24" fill-opacity="0" />
  <path d="M358.61,348.1678 C359.3154,347.2295 360.5875,346.6106 361.7612,346.6345 L362.2205,346.6345 L362.2205,350.6222 C362.207,352.0593 362.7584,353.5745 363.6923,354.6668 L352.631,368.77 L346.3284,363.8268 z" stroke="#000000" stroke-width="0.24" fill-opacity="0" />
  <path d="M336.2081,418.0022 C336.7835,419.6737 337.6526,421.269 338.7449,422.6589 L349.8063,436.7621 L343.5037,441.7053 L330.0034,424.4924 z" stroke="#000000" stroke-width="0.24" fill-opacity="0" />
  <path d="M358.61,460.9657 C359.3154,461.904 360.5875,462.523 361.7612,462.499 L362.2205,462.499 L362.2205,458.5114 C362.207,457.0743 362.7584,455.5591 363.6923,454.4668 L352.631,440.3636 L346.3284,445.3067 z" stroke="#000000" stroke-width="0.24" fill-opacity="0" />
  <path d="M322.7435,416.7245 C322.7131,420.4651 324.0695,424.3925 326.402,427.3171 L355.0085,463.7904 C356.5202,465.8011 359.2462,467.1274 361.7612,467.076 L366.7976,467.076 L366.7976,458.5114 C366.7119,457.6668 367.6693,456.7094 368.5139,456.795 C369.3585,456.7093 370.3159,457.6667 370.2303,458.5112 L370.2303,466.8604 C373.2144,466.3189 375.8383,462.7185 375.44,459.7119 C375.4677,456.6793 372.4233,453.4267 369.3954,453.2541 C368.8188,453.1878 368.2376,452.8577 367.8854,452.3964 L342.3464,419.8342 C340.7914,417.8845 339.8871,415.2663 339.9074,412.7725 L339.9074,404.5668 L339.9074,396.361 C339.8871,393.8673 340.7914,391.249 342.3464,389.2993 L367.8854,356.7372 C368.2376,356.2758 368.8188,355.9457 369.3954,355.8795 C372.4233,355.7068 375.4677,352.4543 375.44,349.4216 C375.8383,346.4151 373.2144,342.8147 370.2303,342.2731 L370.2303,350.6223 C370.3159,351.4669 369.3585,352.4242 368.5139,352.3386 C367.6693,352.4242 366.7119,351.4668 366.7976,350.6222 L366.7976,342.0575 L361.7612,342.0575 C359.2462,342.0061 356.5202,343.3325 355.0085,345.3432 L326.402,381.8165 C324.0695,384.741 322.7131,388.6684 322.7435,392.409 L322.7435,404.5668 z" stroke="#000000" stroke-width="0.24" fill-opacity="0" />
  <path d="M331.4716,401.3695 L336.7319,401.0814 L331.3255,400.793 L325.9191,401.0814 L331.1794,401.3695 C331.2513,401.3553 331.3328,401.5172 331.3255,401.6602 C331.3182,401.5172 331.3997,401.3553 331.4716,401.3695 z" stroke="#000000" stroke-width="0.24" fill-opacity="0" />
  <path d="M331.4716,407.764 L336.7319,408.0522 L331.3255,408.3405 L325.9191,408.0522 L331.1794,407.764 C331.2513,407.7783 331.3328,407.6163 331.3255,407.4734 C331.3182,407.6163 331.3997,407.7783 331.4716,407.764 z" stroke="#000000" stroke-width="0.24" fill-opacity="0" />
  <path d="M331.472,402.968 L336.775,402.6776 L336.775,406.456 L331.472,406.1655 L331.3684,406.2505 L331.3255,406.4561 L331.2826,406.2505 L331.179,406.1655 L325.8759,406.456 L325.8759,402.6776 L331.179,402.968 L331.2826,402.8831 L331.3255,402.6774 L331.3684,402.8831 z" stroke="#000000" stroke-width="0.24" fill-opacity="0" />
  <path d="M364.0374,391.1313 C364.6128,389.4598 365.4818,387.8645 366.5742,386.4747 L377.6356,372.3715 L371.333,367.4283 L357.8327,384.6411 z" stroke="#000000" stroke-width="0.24" fill-opacity="0" />
  <path d="M386.4392,348.1678 C387.1447,347.2295 388.4168,346.6106 389.5905,346.6345 L390.0498,346.6345 L390.0498,350.6222 C390.0363,352.0593 390.5877,353.5745 391.5216,354.6668 L380.4602,368.77 L374.1577,363.8268 z" stroke="#000000" stroke-width="0.24" fill-opacity="0" />
  <path d="M364.0374,418.0022 C364.6128,419.6737 365.4818,421.269 366.5742,422.6589 L377.6356,436.7621 L371.333,441.7053 L357.8327,424.4924 z" stroke="#000000" stroke-width="0.24" fill-opacity="0" />
  <path d="M386.4392,460.9657 C387.1447,461.904 388.4168,462.523 389.5905,462.499 L390.0498,462.499 L390.0498,458.5114 C390.0363,457.0743 390.5877,455.5591 391.5216,454.4668 L380.4602,440.3636 L374.1577,445.3067 z" stroke="#000000" stroke-width="0.24" fill-opacity="0" />
  <path d="M350.5728,416.7245 C350.5424,420.4651 351.8988,424.3925 354.2313,427.3171 L382.8378,463.7904 C384.3495,465.8011 387.0754,467.1274 389.5905,467.076 L394.6269,467.076 L394.6269,458.5114 C394.5412,457.6668 395.4986,456.7094 396.3432,456.795 C397.1877,456.7093 398.1452,457.6667 398.0596,458.5112 L398.0596,466.8604 C401.0437,466.3189 403.6676,462.7185 403.2693,459.7119 C403.297,456.6793 400.2526,453.4267 397.2247,453.2541 C396.6481,453.1878 396.0669,452.8577 395.7147,452.3964 L370.1757,419.8342 C368.6207,417.8845 367.7165,415.2663 367.7367,412.7725 L367.7367,404.5668 L367.7367,396.361 C367.7165,393.8673 368.6207,391.249 370.1757,389.2993 L395.7147,356.7372 C396.0669,356.2758 396.6481,355.9457 397.2247,355.8795 C400.2526,355.7068 403.297,352.4543 403.2693,349.4216 C403.6676,346.4151 401.0437,342.8147 398.0596,342.2731 L398.0596,350.6223 C398.1452,351.4669 397.1877,352.4242 396.3432,352.3386 C395.4986,352.4242 394.5412,351.4668 394.6269,350.6222 L394.6269,342.0575 L389.5905,342.0575 C387.0754,342.0061 384.3495,343.3325 382.8378,345.3432 L354.2313,381.8165 C351.8988,384.741 350.5424,388.6684 350.5728,392.409 L350.5728,404.5668 z" stroke="#000000" stroke-width="0.24" fill-opacity="0" />
  <path d="M359.3009,401.3695 L364.5612,401.0814 L359.1548,400.793 L353.7484,401.0814 L359.0087,401.3695 C359.0806,401.3553 359.162,401.5172 359.1548,401.6602 C359.1475,401.5172 359.2289,401.3553 359.3009,401.3695 z" stroke="#000000" stroke-width="0.24" fill-opacity="0" />
  <path d="M359.3009,407.764 L364.5612,408.0522 L359.1548,408.3405 L353.7484,408.0522 L359.0087,407.764 C359.0806,407.7783 359.162,407.6163 359.1548,407.4734 C359.1475,407.6163 359.2289,407.7783 359.3009,407.764 z" stroke="#000000" stroke-width="0.24" fill-opacity="0" />
  <path d="M359.3013,402.968 L364.6043,402.6776 L364.6043,406.456 L359.3013,406.1655 L359.1977,406.2505 L359.1548,406.4561 L359.1119,406.2505 L359.0083,406.1655 L353.7052,406.456 L353.7052,402.6776 L359.0083,402.968 L359.1119,402.8831 L359.1548,402.6774 L359.1977,402.8831 z" stroke="#000000" stroke-width="0.24" fill-opacity="0" />
  <path d="M260.5854,454.7078 C260.4854,455.6932 261.6024,456.8102 262.5878,456.7103 C263.5732,456.8102 264.6902,455.6932 264.5903,454.7078 C264.6902,453.7225 263.5732,452.6055 262.5878,452.7054 C261.6024,452.6055 260.4854,453.7225 260.5854,454.7078 z" stroke="#000000" stroke-width="0.24" fill-opacity="0" />
  <path d="M276.3189,454.7078 C276.219,455.6932 277.336,456.8102 278.3214,456.7103 C279.3067,456.8102 280.4237,455.6932 280.3238,454.7078 C280.4237,453.7225 279.3067,452.6055 278.3214,452.7054 C277.336,452.6055 276.219,453.7225 276.3189,454.7078 z" stroke="#000000" stroke-width="0.24" fill-opacity="0" />
  <path d="M248.8567,454.7078 C248.9566,455.6932 247.8396,456.8102 246.8542,456.7103 C245.8689,456.8102 244.7519,455.6932 244.8518,454.7078 C244.7519,453.7225 245.8689,452.6055 246.8542,452.7054 C247.8396,452.6055 248.9566,453.7225 248.8567,454.7078 z" stroke="#000000" stroke-width="0.24" fill-opacity="0" />
  <path d="M266.3693,348.8637 L266.3693,347.1199 C266.7066,347.4796 267.0439,348.0064 267.3811,348.7002 L267.6425,348.8637 L268.2263,348.8637 L268.4439,348.7657 L268.5147,348.5378 L268.2563,347.196 C268.1893,346.1885 267.1411,345.1426 266.3,345.2307 L258.8755,345.2307 C258.0345,345.1426 256.9863,346.1885 256.9193,347.196 L256.6609,348.5378 L256.7317,348.7657 L256.9493,348.8637 L257.5331,348.8637 L257.7945,348.7002 C258.1317,348.0064 258.469,347.4796 258.8063,347.1199 L258.8063,348.8637" stroke="#000000" stroke-width="0.24" fill-opacity="0" />
  <path d="M298.7667,353.8127 C298.8666,352.8273 297.7496,351.7103 296.7642,351.8102 C295.7789,351.7103 294.6619,352.8273 294.7618,353.8127 C294.6619,354.798 295.7789,355.915 296.7642,355.8151 C297.7496,355.915 298.8666,354.798 298.7667,353.8127 z" stroke="#000000" stroke-width="0.24" fill-opacity="0" />
  <path d="M283.0331,353.8127 C283.133,352.8273 282.016,351.7103 281.0306,351.8102 C280.0453,351.7103 278.9283,352.8273 279.0282,353.8127 C278.9283,354.798 280.0453,355.915 281.0306,355.8151 C282.016,355.915 283.133,354.798 283.0331,353.8127 z" stroke="#000000" stroke-width="0.24" fill-opacity="0" />
  <path d="M310.4954,353.8127 C310.3955,352.8273 311.5125,351.7103 312.4978,351.8102 C313.4832,351.7103 314.6002,352.8273 314.5003,353.8127 C314.6002,354.798 313.4832,355.915 312.4978,355.8151 C311.5125,355.915 310.3955,354.798 310.4954,353.8127 z" stroke="#000000" stroke-width="0.24" fill-opacity="0" />
  <path d="M292.9827,459.6568 L292.9827,461.4006 C292.6454,461.0409 292.3082,460.5141 291.9709,459.8203 L291.7095,459.6568 L291.1258,459.6568 L290.9081,459.7548 L290.8373,459.9828 L291.0957,461.3245 C291.1628,462.332 292.2109,463.3779 293.052,463.2898 L300.4765,463.2898 C301.3176,463.3779 302.3657,462.332 302.4328,461.3245 L302.6912,459.9828 L302.6203,459.7548 L302.4027,459.6568 L301.819,459.6568 L301.5576,459.8203 C301.2203,460.5141 300.883,461.0409 300.5457,461.4006 L300.5457,459.6568" stroke="#000000" stroke-width="0.24" fill-opacity="0" />
  <path d="M308.6913,451.6243 L308.6913,463.0669 L320.134,463.0669 L320.134,451.6243 L320.134,365.8047 L308.6913,365.8047 z" stroke="#000000" stroke-width="0.24" fill-opacity="0" />
  <path d="M246.9419,360.6151 L242.937,360.6151 L242.937,438.997 L246.9419,438.997 z" stroke="#000000" stroke-width="0.24" fill-opacity="0" />
  <path d="M254.0059,446.1259 L239.7026,446.1259 L239.7026,463.2898 L285.473,463.2898 L285.473,446.1259 L271.1698,446.1259 L271.1698,348.8638 L268.2263,348.8638" stroke="#000000" stroke-width="0.24" fill-opacity="0" />
  <path d="M256.9494,348.8638 L254.0059,348.8638 L254.0059,446.1259" stroke="#000000" stroke-width="0.24" fill-opacity="0" />
  <path d="M312.4102,447.9054 L316.4151,447.9054 L316.4151,369.5236 L312.4102,369.5236 z" stroke="#000000" stroke-width="0.24" fill-opacity="0" />
  <path d="M305.3462,362.3947 L319.6495,362.3947 L319.6495,345.2307 L273.8791,345.2307 L273.8791,362.3947 L288.1823,362.3947 L288.1823,459.6568 L291.1258,459.6568" stroke="#000000" stroke-width="0.24" fill-opacity="0" />
  <path d="M302.4027,459.6568 L305.3462,459.6568 L305.3462,362.3947" stroke="#000000" stroke-width="0.24" fill-opacity="0" />
  <path d="M250.6607,356.8963 L250.6607,345.4537 L239.2181,345.4537 L239.2181,356.8963 L239.2181,442.7158 L250.6607,442.7158 z" stroke="#000000" stroke-width="0.24" fill-opacity="0" />
  <path d="M331.3255,402.6774 L331.3255,401.6602" stroke="#000000" stroke-width="0.24" fill-opacity="0" />
  <path d="M331.3255,406.4562 L331.3255,407.4734" stroke="#000000" stroke-width="0.24" fill-opacity="0" />
  <path d="M359.1548,402.6774 L359.1548,401.6602" stroke="#000000" stroke-width="0.24" fill-opacity="0" />
  <path d="M359.1548,406.4562 L359.1548,407.4734" stroke="#000000" stroke-width="0.24" fill-opacity="0" />
  <path d="M267.6425,348.8638 L266.3693,348.8638" stroke="#000000" stroke-width="0.24" fill-opacity="0" />
  <path d="M258.8063,348.8638 L257.5331,348.8638" stroke="#000000" stroke-width="0.24" fill-opacity="0" />
  <path d="M291.7095,459.6568 L292.9828,459.6568" stroke="#000000" stroke-width="0.24" fill-opacity="0" />
  <path d="M300.5458,459.6568 L301.819,459.6568" stroke="#000000" stroke-width="0.24" fill-opacity="0" />
</svg>