<?xml version="1.0" encoding="UTF-8" standalone="no"?>
<!DOCTYPE svg PUBLIC "-//W3C//DTD SVG 1.1//EN" "http://www.w3.org/Graphics/SVG/1.1/DTD/svg11.dtd">
<svg width="612pt" height="792pt" viewBox="0 0 612 792" overflow="visible" version="1.1" xmlns="http://www.w3.org/2000/svg">
  <path d="M267.8289,377.8867 C267.9523,376.6703 266.5732,375.2912 265.3568,375.4146 C264.1403,375.2912 262.7613,376.6703 262.8846,377.8867 C262.7613,379.1032 264.1403,380.4822 265.3568,380.3589 C266.5732,380.4822 267.9523,379.1032 267.8289,377.8867 z" stroke="#000000" stroke-width="0.24" fill-opacity="0" />
  <path d="M267.8289,367.998 C267.9523,366.7816 266.5732,365.4026 265.3568,365.5259 C264.1403,365.4026 262.7613,366.7816 262.8846,367.998 C262.7613,369.2145 264.1403,370.5935 265.3568,370.4702 C266.5732,370.5935 267.9523,369.2145 267.8289,367.998 z" stroke="#000000" stroke-width="0.24" fill-opacity="0" />
  <path d="M267.8289,358.1094 C267.9523,356.8929 266.5732,355.5139 265.3568,355.6372 C264.1403,355.5139 262.7613,356.8929 262.8846,358.1094 C262.7613,359.3259 264.1403,360.7049 265.3568,360.5815 C266.5732,360.7049 267.9523,359.3259 267.8289,358.1094 z" stroke="#000000" stroke-width="0.24" fill-opacity="0" />
  <path d="M267.8289,348.2207 C267.9523,347.0042 266.5732,345.6252 265.3568,345.7485 C264.1403,345.6252 262.7613,347.0042 262.8846,348.2207 C262.7613,349.4372 264.1403,350.8162 265.3568,350.6929 C266.5732,350.8162 267.9523,349.4372 267.8289,348.2207 z" stroke="#000000" stroke-width="0.24" fill-opacity="0" />
  <path d="M267.8289,338.332 C267.9523,337.1156 266.5732,335.7365 265.3568,335.8599 C264.1403,335.7365 262.7613,337.1156 262.8846,338.332 C262.7613,339.5485 264.1403,340.9276 265.3568,340.8042 C266.5732,340.9276 267.9523,339.5485 267.8289,338.332 z" stroke="#000000" stroke-width="0.24" fill-opacity="0" />
  <path d="M267.8289,328.4434 C267.9523,327.2269 266.5732,325.8479 265.3568,325.9712 C264.1403,325.8479 262.7613,327.2269 262.8846,328.4434 C262.7613,329.6599 264.1403,331.0389 265.3568,330.9156 C266.5732,331.0389 267.9523,329.6599 267.8289,328.4434 z" stroke="#000000" stroke-width="0.24" fill-opacity="0" />
  <path d="M267.8289,318.5547 C267.9523,317.3382 266.5732,315.9592 265.3568,316.0826 C264.1403,315.9592 262.7613,317.3382 262.8846,318.5547 C262.7613,319.7712 264.1403,321.1502 265.3568,321.0269 C266.5732,321.1502 267.9523,319.7712 267.8289,318.5547 z" stroke="#000000" stroke-width="0.24" fill-opacity="0" />
  <path d="M267.8289,308.666 C267.9523,307.4496 266.5732,306.0705 265.3568,306.1939 C264.1403,306.0705 262.7613,307.4496 262.8846,308.666 C262.7613,309.8825 264.1403,311.2615 265.3568,311.1382 C266.5732,311.2615 267.9523,309.8825 267.8289,308.666 z" stroke="#000000" stroke-width="0.24" fill-opacity="0" />
  <path d="M267.8289,298.7774 C267.9523,297.5609 266.5732,296.1819 265.3568,296.3052 C264.1403,296.1819 262.7613,297.5609 262.8846,298.7774 C262.7613,299.9938 264.1403,301.3729 265.3568,301.2495 C266.5732,301.3729 267.9523,299.9938 267.8289,298.7774 z" stroke="#000000" stroke-width="0.24" fill-opacity="0" />
  <path d="M267.8289,288.8887 C267.9523,287.6722 266.5732,286.2932 265.3568,286.4165 C264.1403,286.2932 262.7613,287.6722 262.8846,288.8887 C262.7613,290.1052 264.1403,291.4842 265.3568,291.3609 C266.5732,291.4842 267.9523,290.1052 267.8289,288.8887 z" stroke="#000000" stroke-width="0.24" fill-opacity="0" />
  <path d="M182.4535,262.4243 C182.5768,261.2078 181.1978,259.8288 179.9813,259.9521 C178.7648,259.8288 177.3858,261.2078 177.5091,262.4243 C177.3858,263.6408 178.7648,265.0198 179.9813,264.8965 C181.1978,265.0198 182.5768,263.6408 182.4535,262.4243 z" stroke="#000000" stroke-width="0.24" fill-opacity="0" />
  <path d="M182.4535,272.313 C182.5768,271.0965 181.1978,269.7175 179.9813,269.8408 C178.7648,269.7175 177.3858,271.0965 177.5091,272.313 C177.3858,273.5294 178.7648,274.9084 179.9813,274.7851 C181.1978,274.9084 182.5768,273.5294 182.4535,272.313 z" stroke="#000000" stroke-width="0.24" fill-opacity="0" />
  <path d="M182.4535,282.2016 C182.5768,280.9852 181.1978,279.6061 179.9813,279.7295 C178.7648,279.6061 177.3858,280.9852 177.5091,282.2016 C177.3858,283.4181 178.7648,284.7971 179.9813,284.6738 C181.1978,284.7971 182.5768,283.4181 182.4535,282.2016 z" stroke="#000000" stroke-width="0.24" fill-opacity="0" />
  <path d="M182.4535,292.0903 C182.5768,290.8738 181.1978,289.4948 179.9813,289.6181 C178.7648,289.4948 177.3858,290.8738 177.5091,292.0903 C177.3858,293.3068 178.7648,294.6858 179.9813,294.5625 C181.1978,294.6858 182.5768,293.3068 182.4535,292.0903 z" stroke="#000000" stroke-width="0.24" fill-opacity="0" />
  <path d="M182.4535,301.979 C182.5768,300.7625 181.1978,299.3835 179.9813,299.5068 C178.7648,299.3835 177.3858,300.7625 177.5091,301.979 C177.3858,303.1955 178.7648,304.5745 179.9813,304.4511 C181.1978,304.5745 182.5768,303.1955 182.4535,301.979 z" stroke="#000000" stroke-width="0.24" fill-opacity="0" />
  <path d="M182.4535,311.8676 C182.5768,310.6512 181.1978,309.2722 179.9813,309.3955 C178.7648,309.2722 177.3858,310.6512 177.5091,311.8676 C177.3858,313.0841 178.7648,314.4631 179.9813,314.3398 C181.1978,314.4631 182.5768,313.0841 182.4535,311.8676 z" stroke="#000000" stroke-width="0.24" fill-opacity="0" />
  <path d="M182.4535,321.7563 C182.5768,320.5399 181.1978,319.1608 179.9813,319.2841 C178.7648,319.1608 177.3858,320.5399 177.5091,321.7563 C177.3858,322.9728 178.7648,324.3518 179.9813,324.2285 C181.1978,324.3518 182.5768,322.9728 182.4535,321.7563 z" stroke="#000000" stroke-width="0.24" fill-opacity="0" />
  <path d="M182.4535,331.645 C182.5768,330.4285 181.1978,329.0495 179.9813,329.1728 C178.7648,329.0495 177.3858,330.4285 177.5091,331.645 C177.3858,332.8615 178.7648,334.2405 179.9813,334.1172 C181.1978,334.2405 182.5768,332.8615 182.4535,331.645 z" stroke="#000000" stroke-width="0.24" fill-opacity="0" />
  <path d="M182.4535,341.5337 C182.5768,340.3172 181.1978,338.9382 179.9813,339.0615 C178.7648,338.9382 177.3858,340.3172 177.5091,341.5337 C177.3858,342.7502 178.7648,344.1292 179.9813,344.0058 C181.1978,344.1292 182.5768,342.7502 182.4535,341.5337 z" stroke="#000000" stroke-width="0.24" fill-opacity="0" />
  <path d="M182.4535,351.4223 C182.5768,350.2059 181.1978,348.8268 179.9813,348.9502 C178.7648,348.8268 177.3858,350.2059 177.5091,351.4223 C177.3858,352.6388 178.7648,354.0178 179.9813,353.8945 C181.1978,354.0178 182.5768,352.6388 182.4535,351.4223 z" stroke="#000000" stroke-width="0.24" fill-opacity="0" />
  <path d="M182.4535,248.2976 C182.5768,247.0811 181.1978,245.7021 179.9813,245.8255 C178.7648,245.7021 177.3858,247.0811 177.5091,248.2976 C177.3858,249.5141 178.7648,250.8931 179.9813,250.7698 C181.1978,250.8931 182.5768,249.5141 182.4535,248.2976 z" stroke="#000000" stroke-width="0.24" fill-opacity="0" />
  <path d="M292.6587,297.6265 C293.369,295.5629 294.442,293.5934 295.7906,291.8775 L309.4466,274.4662 L301.6656,268.3635 L284.9986,289.6139 z" stroke="#000000" stroke-width="0.24" fill-opacity="0" />
  <path d="M320.3153,244.5851 C321.1862,243.4267 322.7568,242.6626 324.2058,242.6922 L324.7728,242.6922 L324.7728,247.6152 C324.7561,249.3894 325.4368,251.26 326.5898,252.6085 L312.9338,270.0199 L305.1529,263.9172 z" stroke="#000000" stroke-width="0.24" fill-opacity="0" />
  <path d="M292.6587,330.8004 C293.369,332.864 294.442,334.8335 295.7906,336.5494 L309.4466,353.9608 L301.6656,360.0634 L284.9986,338.813 z" stroke="#000000" stroke-width="0.24" fill-opacity="0" />
  <path d="M320.3153,383.8418 C321.1862,385.0002 322.7568,385.7643 324.2058,385.7347 L324.7728,385.7347 L324.7728,380.8117 C324.7561,379.0375 325.4368,377.1669 326.5898,375.8184 L312.9338,358.407 L305.1529,364.5097 z" stroke="#000000" stroke-width="0.24" fill-opacity="0" />
  <path d="M276.0358,329.2231 C275.9982,333.8411 277.6728,338.6897 280.5524,342.3002 L315.869,387.329 C317.7354,389.8113 321.1008,391.4488 324.2058,391.3854 L330.4235,391.3854 L330.4235,380.8117 C330.3178,379.769 331.4997,378.587 332.5424,378.6927 C333.5851,378.5869 334.7671,379.7689 334.6615,380.8115 L334.6615,391.1192 C338.3455,390.4506 341.5849,386.0057 341.0932,382.2939 C341.1274,378.5498 337.3688,374.5343 333.6307,374.3212 C332.9188,374.2394 332.2013,373.8319 331.7665,373.2624 L300.2368,333.0621 C298.3172,330.6551 297.2007,327.4227 297.2258,324.344 L297.2258,314.2134 L297.2258,304.0829 C297.2007,301.0042 298.3172,297.7718 300.2368,295.3648 L331.7665,255.1645 C332.2013,254.595 332.9188,254.1875 333.6307,254.1057 C337.3688,253.8926 341.1274,249.877 341.0932,246.133 C341.5849,242.4212 338.3455,237.9763 334.6615,237.3077 L334.6615,247.6154 C334.7671,248.658 333.5851,249.8399 332.5424,249.7342 C331.4997,249.8399 330.3178,248.6579 330.4235,247.6152 L330.4235,237.0415 L324.2058,237.0415 C321.1008,236.9781 317.7354,238.6156 315.869,241.0979 L280.5524,286.1266 C277.6728,289.7372 275.9982,294.5858 276.0358,299.2039 L276.0358,314.2134 z" stroke="#000000" stroke-width="0.24" fill-opacity="0" />
  <path d="M286.8112,310.2662 L293.3054,309.9105 L286.6308,309.5545 L279.9562,309.9105 L286.4504,310.2662 C286.5392,310.2486 286.6398,310.4486 286.6308,310.625 C286.6218,310.4486 286.7224,310.2486 286.8112,310.2662 z" stroke="#000000" stroke-width="0.24" fill-opacity="0" />
  <path d="M286.8112,318.1607 L293.3054,318.5164 L286.6308,318.8724 L279.9562,318.5164 L286.4504,318.1607 C286.5392,318.1783 286.6398,317.9783 286.6308,317.8019 C286.6218,317.9783 286.7224,318.1783 286.8112,318.1607 z" stroke="#000000" stroke-width="0.24" fill-opacity="0" />
  <path d="M286.8117,312.2397 L293.3586,311.8811 L293.3586,316.5458 L286.8117,316.1872 L286.6838,316.2921 L286.6308,316.546 L286.5779,316.2921 L286.45,316.1872 L279.903,316.5458 L279.903,311.8811 L286.45,312.2397 L286.5779,312.1348 L286.6308,311.8809 L286.6838,312.1348 z" stroke="#000000" stroke-width="0.24" fill-opacity="0" />
  <path d="M327.0158,297.6265 C327.7262,295.5629 328.7991,293.5934 330.1478,291.8775 L343.8037,274.4662 L336.0228,268.3635 L319.3558,289.6139 z" stroke="#000000" stroke-width="0.24" fill-opacity="0" />
  <path d="M354.6725,244.5851 C355.5434,243.4267 357.1139,242.6626 358.5629,242.6922 L359.13,242.6922 L359.13,247.6152 C359.1133,249.3894 359.794,251.26 360.947,252.6085 L347.291,270.0199 L339.51,263.9172 z" stroke="#000000" stroke-width="0.24" fill-opacity="0" />
  <path d="M327.0158,330.8004 C327.7262,332.864 328.7991,334.8335 330.1478,336.5494 L343.8037,353.9608 L336.0228,360.0634 L319.3558,338.813 z" stroke="#000000" stroke-width="0.24" fill-opacity="0" />
  <path d="M354.6725,383.8418 C355.5434,385.0002 357.1139,385.7643 358.5629,385.7347 L359.13,385.7347 L359.13,380.8117 C359.1133,379.0375 359.794,377.1669 360.947,375.8184 L347.291,358.407 L339.51,364.5097 z" stroke="#000000" stroke-width="0.24" fill-opacity="0" />
  <path d="M310.3929,329.2231 C310.3554,333.8411 312.03,338.6897 314.9095,342.3002 L350.2262,387.329 C352.0925,389.8113 355.4579,391.4488 358.5629,391.3854 L364.7806,391.3854 L364.7806,380.8117 C364.6749,379.769 365.8569,378.587 366.8996,378.6927 C367.9422,378.5869 369.1243,379.7689 369.0186,380.8115 L369.0186,391.1192 C372.7027,390.4506 375.942,386.0057 375.4503,382.2939 C375.4845,378.5498 371.726,374.5343 367.9879,374.3212 C367.276,374.2394 366.5584,373.8319 366.1236,373.2624 L334.594,333.0621 C332.6743,330.6551 331.5579,327.4227 331.5829,324.344 L331.5829,314.2134 L331.5829,304.0829 C331.5579,301.0042 332.6743,297.7718 334.594,295.3648 L366.1236,255.1645 C366.5584,254.595 367.276,254.1875 367.9879,254.1057 C371.726,253.8926 375.4845,249.877 375.4503,246.133 C375.942,242.4212 372.7027,237.9763 369.0186,237.3077 L369.0186,247.6154 C369.1243,248.658 367.9422,249.8399 366.8996,249.7342 C365.8569,249.8399 364.6749,248.6579 364.7806,247.6152 L364.7806,237.0415 L358.5629,237.0415 C355.4579,236.9781 352.0925,238.6156 350.2262,241.0979 L314.9095,286.1266 C312.03,289.7372 310.3554,294.5858 310.3929,299.2039 L310.3929,314.2134 z" stroke="#000000" stroke-width="0.24" fill-opacity="0" />
  <path d="M321.1683,310.2662 L327.6625,309.9105 L320.9879,309.5545 L314.3134,309.9105 L320.8076,310.2662 C320.8964,310.2486 320.9969,310.4486 320.9879,310.625 C320.979,310.4486 321.0795,310.2486 321.1683,310.2662 z" stroke="#000000" stroke-width="0.24" fill-opacity="0" />
  <path d="M321.1683,318.1607 L327.6625,318.5164 L320.9879,318.8724 L314.3134,318.5164 L320.8076,318.1607 C320.8964,318.1783 320.9969,317.9783 320.9879,317.8019 C320.979,317.9783 321.0795,318.1783 321.1683,318.1607 z" stroke="#000000" stroke-width="0.24" fill-opacity="0" />
  <path d="M321.1688,312.2397 L327.7158,311.8811 L327.7158,316.5458 L321.1688,316.1872 L321.041,316.2921 L320.988,316.546 L320.935,316.2921 L320.8071,316.1872 L314.2601,316.5458 L314.2601,311.8811 L320.8071,312.2397 L320.935,312.1348 L320.988,311.8809 L321.041,312.1348 z" stroke="#000000" stroke-width="0.24" fill-opacity="0" />
  <path d="M199.2973,376.116 C199.174,377.3325 200.553,378.7115 201.7694,378.5882 C202.9859,378.7115 204.3649,377.3325 204.2416,376.116 C204.3649,374.8995 202.9859,373.5205 201.7694,373.6438 C200.553,373.5205 199.174,374.8995 199.2973,376.116 z" stroke="#000000" stroke-width="0.24" fill-opacity="0" />
  <path d="M218.7215,376.116 C218.5981,377.3325 219.9771,378.7115 221.1936,378.5882 C222.4101,378.7115 223.7891,377.3325 223.6658,376.116 C223.7891,374.8995 222.4101,373.5205 221.1936,373.6438 C219.9771,373.5205 218.5981,374.8995 218.7215,376.116 z" stroke="#000000" stroke-width="0.24" fill-opacity="0" />
  <path d="M184.8174,376.116 C184.9408,377.3325 183.5618,378.7115 182.3453,378.5882 C181.1288,378.7115 179.7498,377.3325 179.8731,376.116 C179.7498,374.8995 181.1288,373.5205 182.3453,373.6438 C183.5618,373.5205 184.9408,374.8995 184.8174,376.116 z" stroke="#000000" stroke-width="0.24" fill-opacity="0" />
  <path d="M206.438,245.4443 L206.438,243.2914 C206.8544,243.7355 207.2708,244.3858 207.6871,245.2423 L208.0099,245.4443 L208.7305,245.4443 L208.9992,245.3233 L209.0867,245.0418 L208.7676,243.3853 C208.6848,242.1415 207.3909,240.8503 206.3525,240.9591 L197.1864,240.9591 C196.148,240.8503 194.854,242.1415 194.7713,243.3853 L194.4522,245.0418 L194.5397,245.3233 L194.8084,245.4443 L195.529,245.4443 L195.8517,245.2423 C196.2681,244.3858 196.6845,243.7355 197.1009,243.2914 L197.1009,245.4443" stroke="#000000" stroke-width="0.24" fill-opacity="0" />
  <path d="M246.4347,251.5541 C246.5581,250.3376 245.179,248.9586 243.9626,249.0819 C242.7461,248.9586 241.3671,250.3376 241.4904,251.5541 C241.3671,252.7705 242.7461,254.1496 243.9626,254.0262 C245.179,254.1496 246.5581,252.7705 246.4347,251.5541 z" stroke="#000000" stroke-width="0.24" fill-opacity="0" />
  <path d="M227.0106,251.5541 C227.1339,250.3376 225.7549,248.9586 224.5384,249.0819 C223.3219,248.9586 221.9429,250.3376 222.0662,251.5541 C221.9429,252.7705 223.3219,254.1496 224.5384,254.0262 C225.7549,254.1496 227.1339,252.7705 227.0106,251.5541 z" stroke="#000000" stroke-width="0.24" fill-opacity="0" />
  <path d="M260.9146,251.5541 C260.7913,250.3376 262.1703,248.9586 263.3867,249.0819 C264.6032,248.9586 265.9822,250.3376 265.8589,251.5541 C265.9822,252.7705 264.6032,254.1496 263.3867,254.0262 C262.1703,254.1496 260.7913,252.7705 260.9146,251.5541 z" stroke="#000000" stroke-width="0.24" fill-opacity="0" />
  <path d="M239.2941,382.2258 L239.2941,384.3787 C238.8777,383.9345 238.4613,383.2842 238.0449,382.4277 L237.7222,382.2258 L237.0015,382.2258 L236.7328,382.3468 L236.6454,382.6282 L236.9644,384.2848 C237.0472,385.5286 238.3411,386.8197 239.3796,386.711 L248.5456,386.711 C249.584,386.8197 250.878,385.5286 250.9608,384.2848 L251.2798,382.6282 L251.1923,382.3468 L250.9236,382.2258 L250.203,382.2258 L249.8803,382.4277 C249.4639,383.2842 249.0475,383.9345 248.6311,384.3787 L248.6311,382.2258" stroke="#000000" stroke-width="0.24" fill-opacity="0" />
  <path d="M267.8289,274.762 C267.9523,273.5455 266.5732,272.1665 265.3568,272.2899 C264.1403,272.1665 262.7613,273.5455 262.8846,274.762 C262.7613,275.9785 264.1403,277.3575 265.3568,277.2342 C266.5732,277.3575 267.9523,275.9785 267.8289,274.762 z" stroke="#000000" stroke-width="0.24" fill-opacity="0" />
  <path d="M187.0446,255.361 L187.0446,241.2343 L172.918,241.2343 L172.918,255.361" stroke="#000000" stroke-width="0.24" fill-opacity="0" />
  <path d="M191.1745,365.521 L173.5161,365.521 L173.5161,386.711 L230.0228,386.711 L230.0228,365.521 L212.3645,365.521 L212.3645,245.4443 L208.7305,245.4443" stroke="#000000" stroke-width="0.24" fill-opacity="0" />
  <path d="M194.8084,245.4443 L191.1745,245.4443 L191.1745,365.521" stroke="#000000" stroke-width="0.24" fill-opacity="0" />
  <path d="M254.5576,262.1491 L272.2159,262.1491 L272.2159,240.9591 L215.7093,240.9591 L215.7093,262.1491 L233.3676,262.1491 L233.3676,382.2258 L237.0015,382.2258" stroke="#000000" stroke-width="0.24" fill-opacity="0" />
  <path d="M250.9237,382.2258 L254.5576,382.2258 L254.5576,262.1491" stroke="#000000" stroke-width="0.24" fill-opacity="0" />
  <path d="M272.4201,281.8254 L272.4201,267.6987 L258.2935,267.6987 L258.2935,281.8254" stroke="#000000" stroke-width="0.24" fill-opacity="0" />
  <path d="M272.4201,384.9501 L258.2935,384.9501" stroke="#000000" stroke-width="0.24" fill-opacity="0" />
  <path d="M258.2935,281.8254 L258.2935,384.9501" stroke="#000000" stroke-width="0.24" fill-opacity="0" />
  <path d="M272.4201,384.9501 L272.4201,281.8254" stroke="#000000" stroke-width="0.24" fill-opacity="0" />
  <path d="M187.0446,358.4857 L187.0446,255.361" stroke="#000000" stroke-width="0.24" fill-opacity="0" />
  <path d="M172.918,255.361 L172.918,358.4857" stroke="#000000" stroke-width="0.24" fill-opacity="0" />
  <path d="M187.0446,358.4857 L172.918,358.4857" stroke="#000000" stroke-width="0.24" fill-opacity="0" />
  <path d="M286.6308,311.8809 L286.6308,310.625" stroke="#000000" stroke-width="0.24" fill-opacity="0" />
  <path d="M286.6308,316.5461 L286.6308,317.8019" stroke="#000000" stroke-width="0.24" fill-opacity="0" />
  <path d="M320.988,311.8809 L320.988,310.625" stroke="#000000" stroke-width="0.24" fill-opacity="0" />
  <path d="M320.988,316.5461 L320.988,317.8019" stroke="#000000" stroke-width="0.24" fill-opacity="0" />
  <path d="M208.0099,245.4443 L206.438,245.4443" stroke="#000000" stroke-width="0.24" fill-opacity="0" />
  <path d="M197.101,245.4443 L195.5291,245.4443" stroke="#000000" stroke-width="0.24" fill-opacity="0" />
  <path d="M237.7222,382.2258 L239.2941,382.2258" stroke="#000000" stroke-width="0.24" fill-opacity="0" />
  <path d="M248.6311,382.2258 L250.203,382.2258" stroke="#000000" stroke-width="0.24" fill-opacity="0" />
</svg>