<?xml version="1.0" encoding="UTF-8" standalone="no"?>
<!DOCTYPE svg PUBLIC "-//W3C//DTD SVG 1.1//EN" "http://www.w3.org/Graphics/SVG/1.1/DTD/svg11.dtd">
<svg width="612pt" height="792pt" viewBox="0 0 612 792" overflow="visible" version="1.1" xmlns="http://www.w3.org/2000/svg">
  <path d="M568.3466,412.1444 C572.4764,412.1996 576.8813,410.375 579.7625,407.4157 C582.7217,404.5345 584.5463,400.1296 584.491,395.9998 C584.5461,391.8699 582.7215,387.465 579.7621,384.5839 C576.8809,381.6247 572.476,379.8003 568.3461,379.8556 L42.93024,379.8718 C39.24531,379.9485 34.9409,381.7511 31.9847,384.8428 C29.02849,387.9345 27.42049,392.3153 27.50898,396 C27.42049,399.6847 29.02849,404.0655 31.9847,407.1572 C34.9409,410.2489 39.24531,412.0515 42.93024,412.1282 z" stroke="#000000" stroke-width="0.24" fill-opacity="0" />
  <path d="M565.7243,400.3565 L565.8849,400.4492 L570.8083,400.4492 L570.9689,400.3565 L573.4306,396.0927 L573.4306,395.9073 L570.9689,391.6435 L570.8083,391.5508 L565.8849,391.5508 L565.7243,391.6435 L563.2626,395.9073 L563.2626,396.0927 z" stroke="#000000" stroke-width="0.24" fill-opacity="0" />
  <path d="M41.1917,391.5508 L46.11508,391.5508 L46.2757,391.6435 L48.7374,395.9073 L48.7374,396.0927 L46.2757,400.3565 L46.11508,400.4492 L41.1917,400.4492 L41.03107,400.3565 L38.56938,396.0927 L38.56938,395.9073 L41.03107,391.6435 z" stroke="#000000" stroke-width="0.24" fill-opacity="0" />
</svg>