<?xml version="1.0" encoding="UTF-8" standalone="no"?>
<!DOCTYPE svg PUBLIC "-//W3C//DTD SVG 1.1//EN" "http://www.w3.org/Graphics/SVG/1.1/DTD/svg11.dtd">
<svg width="612pt" height="792pt" viewBox="0 0 612 792" overflow="visible" version="1.1" xmlns="http://www.w3.org/2000/svg">
  <path d="M362.8063,466.8108 C361.9592,466.7249 360.9988,467.6852 361.0847,468.5323 C360.9988,469.3795 361.9592,470.3398 362.8063,470.254 C363.6535,470.3398 364.6138,469.3795 364.5279,468.5323 C364.6138,467.6852 363.6535,466.7249 362.8063,466.8108 z" stroke="#000000" stroke-width="0.24" fill-opacity="0" />
  <path d="M362.8078,455.8786 C361.9607,455.7928 361.0004,456.7531 361.0862,457.6003 C361.0004,458.4474 361.9607,459.4077 362.8078,459.3218 C363.655,459.4077 364.6153,458.4474 364.5294,457.6003 C364.6153,456.7531 363.655,455.7928 362.8078,455.8786 z" stroke="#000000" stroke-width="0.24" fill-opacity="0" />
  <path d="M257.4,461.3303 C256.5528,461.2444 255.5925,462.2047 255.6784,463.0518 C255.5925,463.899 256.5528,464.8593 257.4,464.7734 C258.2471,464.8593 259.2074,463.899 259.1216,463.0518 C259.2074,462.2047 258.2471,461.2444 257.4,461.3303 z" stroke="#000000" stroke-width="0.24" fill-opacity="0" />
  <path d="M381.9003,452.1368 L137.1481,452.1032 C131.7688,451.5572 125.6698,457.6544 126.2144,463.0339 C125.6684,468.4131 131.7657,474.5121 137.1451,473.9675 L377.6519,474.0005 L382.4392,473.9859 C385.283,474.035 388.326,472.761 390.2866,470.7005 C392.3045,468.6961 393.5128,465.6263 393.4026,462.7843 C393.3725,459.9402 392.0143,456.9338 389.9001,455.0313 C387.8403,453.07 384.7382,451.9476 381.9003,452.1368 z" stroke="#000000" stroke-width="0.24" fill-opacity="0" />
  <path d="M382.4738,431.5375 C379.5088,431.2369 376.1476,434.5981 376.4482,437.5631 C376.1476,440.5281 379.5088,443.8893 382.4738,443.5887 C385.4388,443.8893 388.8,440.5281 388.4994,437.5631 C388.8,434.5981 385.4388,431.2369 382.4738,431.5375 z" stroke="#000000" stroke-width="0.24" fill-opacity="0" />
  <path d="M137.1466,431.519 C134.1816,431.2184 130.8204,434.5796 131.121,437.5446 C130.8204,440.5096 134.1816,443.8708 137.1466,443.5702 C140.1116,443.8708 143.4727,440.5096 143.1721,437.5446 C143.4727,434.5796 140.1116,431.2184 137.1466,431.519 z" stroke="#000000" stroke-width="0.24" fill-opacity="0" />
  <path d="M362.8063,441.32 C361.9592,441.2341 360.9988,442.1944 361.0847,443.0416 C360.9988,443.8887 361.9592,444.8491 362.8063,444.7632 C363.6535,444.8491 364.6138,443.8887 364.5279,443.0416 C364.6138,442.1944 363.6535,441.2341 362.8063,441.32 z" stroke="#000000" stroke-width="0.24" fill-opacity="0" />
  <path d="M362.8078,430.3878 C361.9607,430.302 361.0004,431.2623 361.0862,432.1094 C361.0004,432.9566 361.9607,433.9169 362.8078,433.8311 C363.655,433.9169 364.6153,432.9566 364.5294,432.1094 C364.6153,431.2623 363.655,430.302 362.8078,430.3878 z" stroke="#000000" stroke-width="0.24" fill-opacity="0" />
  <path d="M257.4,435.8395 C256.5528,435.7536 255.5925,436.7139 255.6784,437.5611 C255.5925,438.4082 256.5528,439.3685 257.4,439.2827 C258.2471,439.3685 259.2074,438.4082 259.1216,437.5611 C259.2074,436.7139 258.2471,435.7536 257.4,435.8395 z" stroke="#000000" stroke-width="0.24" fill-opacity="0" />
  <path d="M381.9003,426.646 L137.1481,426.6125 C131.7688,426.0664 125.6698,432.1637 126.2144,437.5431 C125.6684,442.9224 131.7657,449.0213 137.1451,448.4767 L377.6519,448.5097 L382.4392,448.4951 C385.283,448.5442 388.326,447.2702 390.2866,445.2097 C392.3045,443.2053 393.5128,440.1356 393.4026,437.2935 C393.3725,434.4495 392.0143,431.4431 389.9001,429.5405 C387.8403,427.5793 384.7382,426.4568 381.9003,426.646 z" stroke="#000000" stroke-width="0.24" fill-opacity="0" />
  <path d="M322.6908,396.515 C321.5937,396.5079 320.4496,396.8685 319.5549,397.5035 L318.1645,398.4771 C317.2697,399.112 316.1256,399.4727 315.0285,399.4656 L141.6029,399.4418 L136.8155,399.4563 C133.9717,399.4073 130.9287,400.6813 128.9681,402.7418 C126.9503,404.7462 125.742,407.8159 125.8521,410.658 C125.8822,413.502 127.2404,416.5084 129.3546,418.4109 C131.4144,420.3723 134.5166,421.4947 137.3544,421.3055 L315.1709,421.3299 C316.2675,421.3231 317.411,421.6837 318.3054,422.3184 L319.6988,423.294 C320.5931,423.9287 321.7366,424.2893 322.8332,424.2826 L382.1063,424.2907 C385.3447,424.3772 389.2409,422.9081 391.9241,420.2256 C394.6074,417.5431 396.0776,413.6473 395.992,410.4088 C396.0785,407.1703 394.6093,403.2741 391.9268,400.5909 C389.2444,397.9077 385.3486,396.4374 382.1101,396.5231 z" stroke="#000000" stroke-width="0.24" fill-opacity="0" />
  <path d="M371.6124,412.0822 C372.4595,412.1682 373.4199,411.2078 373.334,410.3607 C373.4199,409.5135 372.4595,408.5532 371.6124,408.6391 C370.7653,408.5532 369.8049,409.5135 369.8908,410.3607 C369.8049,411.2078 370.7653,412.1682 371.6124,412.0822 z" stroke="#000000" stroke-width="0.24" fill-opacity="0" />
  <path d="M261.8548,412.112 C262.7019,412.1979 263.6623,411.2375 263.5764,410.3904 C263.6623,409.5433 262.7019,408.5829 261.8548,408.6688 C261.0076,408.5829 260.0473,409.5433 260.1332,410.3904 C260.0473,411.2375 261.0076,412.1979 261.8548,412.112 z" stroke="#000000" stroke-width="0.24" fill-opacity="0" />
  <path d="M156.4469,417.5636 C157.294,417.6495 158.2544,416.6892 158.1685,415.842 C158.2544,414.9949 157.294,414.0345 156.4469,414.1205 C155.5998,414.0345 154.6394,414.9949 154.7253,415.842 C154.6394,416.6892 155.5998,417.6495 156.4469,417.5636 z" stroke="#000000" stroke-width="0.24" fill-opacity="0" />
  <path d="M156.4484,406.6315 C157.2955,406.7174 158.2559,405.757 158.17,404.9099 C158.2559,404.0628 157.2955,403.1024 156.4484,403.1883 C155.6013,403.1024 154.6409,404.0628 154.7268,404.9099 C154.6409,405.757 155.6013,406.7174 156.4484,406.6315 z" stroke="#000000" stroke-width="0.24" fill-opacity="0" />
  <path d="M324.5121,412.0811 L321.0689,412.0808 C320.2217,412.1667 319.2615,411.2063 319.3474,410.3591 C319.2616,409.512 320.222,408.5517 321.0692,408.6377 L324.5123,408.6379 C324.9359,408.6809 325.4161,408.2008 325.3732,407.7772 L325.3734,404.9676 C325.3773,404.7325 325.2643,404.4799 325.0865,404.326 C324.5732,403.9089 324.3611,403.0344 324.6261,402.4284 C324.8326,401.8001 325.5739,401.2898 326.2345,401.3213 L359.8056,401.3238 C360.4004,401.3035 361.0591,401.6976 361.3224,402.2314 C361.6216,402.7459 361.5858,403.5127 361.2401,403.9972 L361.0966,404.473 L361.0963,407.7799 C361.0533,408.2035 361.5334,408.6837 361.957,408.6407 L365.4002,408.641 C366.2474,408.5552 367.2076,409.5156 367.1217,410.3627 C367.2075,411.2099 366.2471,412.1701 365.4,412.0842 L361.9568,412.0839 C361.5332,412.041 361.053,412.5211 361.0959,412.9447 L361.0956,416.2516 L361.2391,416.7274 C361.5848,417.2119 361.6205,417.9787 361.3212,418.4932 C361.0578,419.0269 360.3991,419.421 359.8042,419.4005 L326.2331,419.398 C325.5725,419.4294 324.8313,418.919 324.6249,418.2906 C324.36,417.6847 324.5723,416.8101 325.0856,416.3931 C325.2634,416.2393 325.3764,415.9867 325.3726,415.7516 L325.3728,412.942 C325.4158,412.5184 324.9357,412.0382 324.5121,412.0811 z" stroke="#000000" stroke-width="0.24" fill-opacity="0" />
  <path d="M363.8934,416.3881 C364.7405,416.4739 365.7008,415.5136 365.615,414.6665 C365.7008,413.8193 364.7405,412.859 363.8934,412.9449 C363.0462,412.859 362.0859,413.8193 362.1718,414.6665 C362.0859,415.5136 363.0462,416.4739 363.8934,416.3881 z" stroke="#000000" stroke-width="0.24" fill-opacity="0" />
  <path d="M363.894,407.7801 C364.7411,407.866 365.7015,406.9056 365.6156,406.0585 C365.7015,405.2114 364.7411,404.251 363.894,404.3369 C363.0469,404.251 362.0865,405.2114 362.1724,406.0585 C362.0865,406.9056 363.0469,407.866 363.894,407.7801 z" stroke="#000000" stroke-width="0.24" fill-opacity="0" />
  <path d="M322.5757,407.777 C323.4229,407.8629 324.3832,406.9025 324.2973,406.0554 C324.3832,405.2083 323.4229,404.2479 322.5757,404.3338 C321.7286,404.2479 320.7683,405.2083 320.8542,406.0554 C320.7683,406.9025 321.7286,407.8629 322.5757,407.777 z" stroke="#000000" stroke-width="0.24" fill-opacity="0" />
  <path d="M322.5751,416.3849 C323.4222,416.4708 324.3826,415.5105 324.2967,414.6634 C324.3826,413.8162 323.4222,412.8559 322.5751,412.9418 C321.728,412.8559 320.7676,413.8162 320.8535,414.6634 C320.7676,415.5105 321.728,416.4708 322.5751,416.3849 z" stroke="#000000" stroke-width="0.24" fill-opacity="0" />
  <path d="M382.1082,416.4325 C385.0732,416.7331 388.4343,413.3719 388.1337,410.4069 C388.4343,407.4419 385.0732,404.0807 382.1082,404.3813 C379.1432,404.0807 375.782,407.4419 376.0826,410.4069 C375.782,413.3719 379.1432,416.7331 382.1082,416.4325 z" stroke="#000000" stroke-width="0.24" fill-opacity="0" />
  <path d="M136.7809,416.414 C139.7459,416.7146 143.1071,413.3534 142.8065,410.3884 C143.1071,407.4234 139.7459,404.0622 136.7809,404.3628 C133.8159,404.0622 130.4547,407.4234 130.7553,410.3884 C130.4547,413.3534 133.8159,416.7146 136.7809,416.414 z" stroke="#000000" stroke-width="0.24" fill-opacity="0" />
  <path d="M139.7223,375.9517 C136.7573,375.6511 133.3962,379.0122 133.6967,381.9772 C133.3962,384.9422 136.7573,388.3034 139.7223,388.0028 C142.6873,388.3034 146.0485,384.9422 145.7479,381.9772 C146.0485,379.0122 142.6873,375.6511 139.7223,375.9517 z" stroke="#000000" stroke-width="0.24" fill-opacity="0" />
  <path d="M259.9757,380.2631 C259.1286,380.1772 258.1682,381.1375 258.2541,381.9846 C258.1682,382.8318 259.1286,383.7921 259.9757,383.7063 C260.8229,383.7921 261.7832,382.8318 261.6973,381.9846 C261.7832,381.1375 260.8229,380.1772 259.9757,380.2631 z" stroke="#000000" stroke-width="0.24" fill-opacity="0" />
  <path d="M365.3832,374.8035 C364.536,374.7176 363.5757,375.6779 363.6616,376.5251 C363.5757,377.3723 364.536,378.3326 365.3832,378.2467 C366.2303,378.3326 367.1906,377.3723 367.1048,376.5251 C367.1906,375.6779 366.2303,374.7176 365.3832,374.8035 z" stroke="#000000" stroke-width="0.24" fill-opacity="0" />
  <path d="M365.3825,385.7356 C364.5354,385.6497 363.575,386.6101 363.6609,387.4572 C363.575,388.3044 364.5354,389.2647 365.3825,389.1788 C366.2296,389.2647 367.19,388.3044 367.1041,387.4572 C367.19,386.6101 366.2296,385.6497 365.3825,385.7356 z" stroke="#000000" stroke-width="0.24" fill-opacity="0" />
  <path d="M385.0496,375.9517 C382.0846,375.6511 378.7234,379.0122 379.024,381.9772 C378.7234,384.9422 382.0846,388.3034 385.0496,388.0028 C388.0146,388.3034 391.3757,384.9422 391.0752,381.9772 C391.3757,379.0122 388.0146,375.6511 385.0496,375.9517 z" stroke="#000000" stroke-width="0.24" fill-opacity="0" />
  <path d="M162.0256,372.9819 C161.4307,372.9615 160.772,373.3557 160.5087,373.8894 C160.2094,374.4039 160.2452,375.1707 160.5909,375.6552 L160.7344,376.131 L160.7344,387.9096 L160.5909,388.3854 C160.2451,388.8699 160.2094,389.6367 160.5087,390.1512 C160.772,390.6849 161.4307,391.079 162.0256,391.0587 L195.5967,391.0587 C196.2573,391.0901 196.9986,390.5797 197.205,389.9514 C197.47,389.3454 197.2577,388.4709 196.7444,388.0539 C196.5666,387.9 196.4536,387.6474 196.4575,387.4123 L196.4575,376.6283 C196.4536,376.3932 196.5666,376.1406 196.7444,375.9867 C197.2577,375.5697 197.47,374.6951 197.205,374.0892 C196.9986,373.4609 196.2573,372.9505 195.5967,372.9819 z" stroke="#000000" stroke-width="0.24" fill-opacity="0" />
  <path d="M150.2284,380.2772 C149.3812,380.1913 148.4209,381.1516 148.5068,381.9987 C148.4209,382.8459 149.3812,383.8062 150.2284,383.7204 C151.0755,383.8062 152.0358,382.8459 151.95,381.9987 C152.0358,381.1516 151.0755,380.1913 150.2284,380.2772 z" stroke="#000000" stroke-width="0.24" fill-opacity="0" />
  <path d="M198.595,396.1926 C199.6919,396.1996 200.8359,395.839 201.7305,395.2041 L203.5901,393.902 C204.4847,393.2672 205.6287,392.9065 206.7256,392.9135 L380.2284,392.9242 L385.0158,392.9093 C387.8596,392.9582 390.9025,391.6839 392.863,389.6233 C394.8806,387.6187 396.0887,384.5489 395.9784,381.7068 C395.9481,378.8628 394.5896,375.8565 392.4753,373.9541 C390.4153,371.993 387.3131,370.8708 384.4752,371.0602 L206.736,371.0493 C205.6393,371.0561 204.4956,370.6955 203.6011,370.0607 L201.7401,368.7576 C200.8457,368.1229 199.702,367.7623 198.6053,367.7691 L139.7232,367.7655 C136.4082,367.6772 132.4201,369.1813 129.6737,371.9274 C126.9273,374.6734 125.4226,378.6614 125.5106,381.9764 C125.4222,385.2914 126.9264,389.2794 129.6725,392.0258 C132.4185,394.7722 136.4065,396.2769 139.7215,396.189 z" stroke="#000000" stroke-width="0.24" fill-opacity="0" />
  <path d="M382.4738,457.0283 C379.5088,456.7277 376.1476,460.0889 376.4482,463.0539 C376.1476,466.0189 379.5088,469.38 382.4738,469.0794 C385.4388,469.38 388.8,466.0189 388.4994,463.0539 C388.8,460.0889 385.4388,456.7277 382.4738,457.0283 z" stroke="#000000" stroke-width="0.24" fill-opacity="0" />
  <path d="M137.1466,457.0098 C134.1816,456.7092 130.8204,460.0704 131.121,463.0354 C130.8204,466.0004 134.1816,469.3615 137.1466,469.0609 C140.1116,469.3615 143.4727,466.0004 143.1721,463.0354 C143.4727,460.0704 140.1116,456.7092 137.1466,457.0098 z" stroke="#000000" stroke-width="0.24" fill-opacity="0" />
</svg>