<?xml version="1.0" encoding="UTF-8" standalone="no"?>
<!DOCTYPE svg PUBLIC "-//W3C//DTD SVG 1.1//EN" "http://www.w3.org/Graphics/SVG/1.1/DTD/svg11.dtd">
<svg width="612pt" height="792pt" viewBox="0 0 612 792" overflow="visible" version="1.1" xmlns="http://www.w3.org/2000/svg">
  <path d="M239.8505,429.8125 C240.0406,427.9368 237.9144,425.8105 236.0387,426.0007 L182.7792,426.0007 L182.7792,399.8258 C182.3989,396.0745 186.6515,391.8219 190.4028,392.2022 L272.625,392.2022 C276.3763,391.8219 280.6289,396.0745 280.2486,399.8258 L280.2486,426.0007 L255.2502,426.0007 C253.3745,425.8105 251.2482,427.9368 251.4384,429.8125 L251.4384,448.1091 L239.8505,448.1091 z" stroke="#00FF00" stroke-width="0.24" fill-opacity="0" />
  <path d="M239.5106,452.2868 C237.6349,452.4769 235.5087,450.3506 235.6988,448.475" stroke="#00FF00" stroke-width="0.24" fill-opacity="0" />
  <path d="M220.2991,452.2868 L167.0397,452.2868 L167.0397,478.4617 C166.6594,482.213 170.9119,486.4656 174.6633,486.0853 L256.8854,486.0853 C260.6367,486.4656 264.8893,482.213 264.509,478.4617 L264.509,452.2868 L239.5106,452.2868" stroke="#00FF00" stroke-width="0.24" fill-opacity="0" />
  <path d="M220.2991,452.2868 C222.1748,452.4769 224.3011,450.3506 224.1109,448.475" stroke="#00FF00" stroke-width="0.24" fill-opacity="0" />
  <path d="M252.32,472.3582 L252.32,459.6565 L246.9637,459.6565 L246.9637,479.0405 L251.345,479.0405 C251.9083,477.8445 252.6884,476.8391 253.6851,476.0244 C254.6818,475.2097 256.0815,474.512 257.8843,473.9312 L257.8843,469.589 C256.6622,469.9617 255.646,470.3517 254.8356,470.7591 C254.0253,471.1664 253.1867,471.6995 252.32,472.3582 z" stroke="#000000" stroke-width="0.24" fill-opacity="0" />
  <path d="M182.1814,471.6301 L181.7264,474.4903 L173.2109,474.4903 L173.2109,478.7155 L185.7826,478.7155 L187.4597,468.471 L182.9484,467.821 C182.5237,468.2976 182.1337,468.627 181.7784,468.809 C181.3017,469.0603 180.8076,469.186 180.2963,469.186 C179.4902,469.186 178.8445,468.9217 178.3592,468.393 C177.8738,467.8643 177.6311,467.0322 177.6311,465.8969 C177.6311,464.7874 177.8717,463.9532 178.3527,463.3942 C178.8337,462.8352 179.4426,462.5557 180.1793,462.5557 C180.838,462.5557 181.4057,462.7788 181.8824,463.2252 C182.3591,463.6716 182.6624,464.3238 182.7924,465.1818 L188.1487,464.5968 C187.8887,463.7041 187.5637,462.9587 187.1736,462.3607 C186.7836,461.7626 186.2744,461.2274 185.6461,460.7551 C185.0177,460.2827 184.255,459.9274 183.358,459.689 C182.4609,459.4507 181.384,459.3315 180.1273,459.3315 C178.3765,459.3315 176.94,459.6305 175.8176,460.2285 C174.6952,460.8266 173.8285,461.6933 173.2174,462.8287 C172.6064,463.9641 172.3009,465.1471 172.3009,466.3779 C172.3009,468.1286 172.8946,469.5804 174.082,470.7331 C175.2694,471.8858 176.8165,472.4622 178.7232,472.4622 L180.4328,472.2542 z" stroke="#000000" stroke-width="0.24" fill-opacity="0" />
  <path d="M190.3588,474.4253 C190.6622,475.448 191.1042,476.2974 191.6849,476.9734 C192.2656,477.6494 192.9958,478.163 193.8755,478.514 C194.7552,478.865 195.9534,479.0405 197.4702,479.0405 C200.0356,479.0405 202.0421,478.241 203.4895,476.6419 C204.9369,475.0428 205.6606,472.5229 205.6606,469.082 C205.6606,466.7332 205.3161,464.8459 204.627,463.4202 C203.938,461.9945 203.0171,460.9566 201.8644,460.3065 C200.7117,459.6565 199.1819,459.3315 197.2752,459.3315 C195.6891,459.3315 194.3695,459.598 193.3165,460.131 C192.2634,460.6641 191.44,461.4506 190.8463,462.4907 C190.2526,463.5307 189.9558,464.6791 189.9558,465.9359 C189.9558,467.7993 190.543,469.3377 191.7174,470.5511 C192.8918,471.7645 194.3284,472.3712 196.0271,472.3712 C196.9025,472.3712 197.6739,472.2173 198.3412,471.9097 C199.0086,471.602 199.6586,471.1274 200.2913,470.4861 C200.1266,472.5315 199.871,473.8662 199.5243,474.4903 C199.0476,475.357 198.3802,475.7903 197.5222,475.7903 C197.0455,475.7903 196.6446,475.6387 196.3196,475.3353 C195.9946,475.032 195.7628,474.512 195.6241,473.7752 z" stroke="#000000" stroke-width="0.24" fill-opacity="0" />
  <path d="M223.2115,463.9337 C222.8995,462.9197 222.4531,462.0746 221.8724,461.3986 C221.2917,460.7226 220.5637,460.209 219.6883,459.858 C218.8129,459.507 217.6169,459.3315 216.1001,459.3315 C213.5347,459.3315 211.5282,460.131 210.0808,461.7301 C208.6334,463.3292 207.9097,465.8492 207.9097,469.29 C207.9097,471.6301 208.2542,473.5131 208.9433,474.9388 C209.6323,476.3646 210.5532,477.4046 211.7059,478.059 C212.8586,478.7133 214.3884,479.0405 216.2952,479.0405 C217.8812,479.0405 219.1986,478.774 220.2474,478.241 C221.2961,477.7079 222.1194,476.9214 222.7175,475.8813 C223.3155,474.8413 223.6145,473.6886 223.6145,472.4232 C223.6145,470.5684 223.0273,469.0343 221.8529,467.821 C220.6785,466.6075 219.2376,466.0009 217.5302,466.0009 C216.6548,466.0009 215.8835,466.1525 215.2161,466.4559 C214.5487,466.7592 213.8987,467.2359 213.266,467.886 C213.4393,465.8405 213.6993,464.5014 214.046,463.8687 C214.5227,463.0107 215.1858,462.5817 216.0351,462.5817 C216.5118,462.5817 216.9148,462.7333 217.2442,463.0367 C217.5735,463.3401 217.8076,463.8601 217.9462,464.5968 z" stroke="#000000" stroke-width="0.24" fill-opacity="0" />
  <path d="M236.0692,473.2032 C235.9305,474.1479 235.6662,474.8088 235.2761,475.1858 C234.8861,475.5628 234.3791,475.7513 233.7551,475.7513 C233.1483,475.7513 232.6717,475.578 232.325,475.2313 C231.9783,474.8846 231.8049,474.421 231.8049,473.8402 C231.8049,473.2336 232.0368,472.7092 232.5005,472.2672 C232.9642,471.8252 233.5427,471.6041 234.2361,471.6041 L234.9251,471.6691 L235.1981,467.886 L233.482,468.198 C232.702,468.198 232.0845,467.9553 231.6294,467.4699 C231.1744,466.9846 230.9469,466.2999 230.9469,465.4158 C230.9469,464.5491 231.1831,463.8557 231.6554,463.3357 C232.1278,462.8157 232.7193,462.5557 233.43,462.5557 C234.1061,462.5557 234.6629,462.7615 235.1006,463.1732 C235.5383,463.5849 235.8612,464.3238 236.0692,465.3898 L241.3604,464.6878 C241.0138,463.5004 240.5176,462.5145 239.8719,461.7301 C239.2262,460.9458 238.4028,460.3499 237.4017,459.9425 C236.4007,459.5352 235.0334,459.3315 233.3,459.3315 C231.5233,459.3315 230.0889,459.6067 228.9968,460.157 C227.9048,460.7074 227.0684,461.4918 226.4877,462.5102 C225.907,463.5286 225.6166,464.5924 225.6166,465.7018 C225.6166,466.5859 225.7921,467.3464 226.1432,467.9835 C226.4942,468.6205 226.986,469.134 227.6187,469.524 C228.0088,469.7667 228.5721,469.9791 229.3088,470.1611 C228.3988,470.6638 227.7184,471.2488 227.2677,471.9162 C226.817,472.5835 226.5917,473.3289 226.5917,474.1523 C226.5917,475.5563 227.1464,476.7221 228.2558,477.6494 C229.3652,478.5768 231.1636,479.0405 233.651,479.0405 C235.8178,479.0405 237.4927,478.6158 238.6758,477.7664 C239.8589,476.9171 240.6584,475.695 241.0744,474.1003 z" stroke="#000000" stroke-width="0.24" fill-opacity="0" />
  <path d="M194.9682,405.9293 L194.9682,418.6309 L200.3245,418.6309 L200.3245,399.2469 L195.9433,399.2469 C195.3799,400.443 194.5999,401.4484 193.6032,402.2631 C192.6065,403.0778 191.2067,403.7755 189.404,404.3562 L189.404,408.6984 C190.626,408.3257 191.6422,407.9357 192.4526,407.5284 C193.263,407.121 194.1015,406.588 194.9682,405.9293 z" stroke="#000000" stroke-width="0.24" fill-opacity="0" />
  <path d="M211.2191,405.0842 C211.3578,404.1395 211.6221,403.4786 212.0121,403.1016 C212.4021,402.7246 212.9092,402.5361 213.5332,402.5361 C214.1399,402.5361 214.6166,402.7094 214.9633,403.0561 C215.31,403.4028 215.4833,403.8665 215.4833,404.4472 C215.4833,405.0539 215.2514,405.5782 214.7878,406.0203 C214.3241,406.4623 213.7455,406.6833 213.0522,406.6833 L212.3631,406.6183 L212.0901,410.4015 L213.8062,410.0895 C214.5863,410.0895 215.2038,410.3322 215.6588,410.8175 C216.1138,411.3029 216.3413,411.9876 216.3413,412.8716 C216.3413,413.7383 216.1052,414.4317 215.6328,414.9517 C215.1604,415.4717 214.5689,415.7318 213.8582,415.7318 C213.1822,415.7318 212.6253,415.5259 212.1876,415.1142 C211.7499,414.7025 211.4271,413.9637 211.2191,412.8976 L205.9278,413.5997 C206.2745,414.787 206.7707,415.7729 207.4164,416.5573 C208.0621,417.3417 208.8855,417.9376 209.8865,418.3449 C210.8876,418.7523 212.2548,418.9559 213.9882,418.9559 C215.765,418.9559 217.1994,418.6808 218.2914,418.1304 C219.3835,417.58 220.2199,416.7957 220.8006,415.7773 C221.3813,414.7589 221.6716,413.695 221.6716,412.5856 C221.6716,411.7016 221.4961,410.941 221.1451,410.304 C220.7941,409.667 220.3022,409.1534 219.6695,408.7634 C219.2795,408.5207 218.7161,408.3084 217.9794,408.1264 C218.8895,407.6237 219.5698,407.0387 220.0205,406.3713 C220.4712,405.7039 220.6966,404.9586 220.6966,404.1352 C220.6966,402.7311 220.1419,401.5654 219.0325,400.638 C217.9231,399.7106 216.1247,399.2469 213.6372,399.2469 C211.4704,399.2469 209.7955,399.6716 208.6124,400.521 C207.4294,401.3704 206.6298,402.5924 206.2138,404.1872 z" stroke="#000000" stroke-width="0.24" fill-opacity="0" />
  <path d="M251.6406,412.2029 L251.6533,412.1727 L251.7635,412.0843 L251.9226,411.9958 L252.0524,411.8835 L252.1038,411.7856 L252.1132,411.6742 L252.0783,411.5672 L252.001,411.4742 L251.8907,411.4149 L251.7445,411.3603 L251.6952,411.3337 L251.5991,410.9529 L251.4081,410.5274 L251.1826,410.1889 L250.9886,409.9612 L250.7263,409.7874 L250.3972,409.6685 L250.0272,409.6268 L249.6478,409.6647 L249.339,409.7705 L249.0793,409.9015 L248.8192,410.1341 L248.6106,410.4362 L248.4954,410.7522 L248.4556,410.9672 L248.4372,411.237 L248.4646,411.5436 L248.4829,411.618 L248.359,411.6637 L248.1929,411.6008 L247.9102,411.5187 L247.7342,411.4959 L247.5853,411.5433 L247.4797,411.6564 L247.3822,411.8896 L247.311,412.1991 L247.2579,412.5253 L247.2557,412.6181 L247.1548,412.8696 L247.0885,413.1675 L247.0748,413.4146 L247.1048,413.6779 L247.1719,413.9321 L247.3117,414.295 L247.5101,414.6501 L247.7737,414.991 L248.0578,415.2875 L248.3798,415.5262 L248.7156,415.6887 L249.1009,415.7963 L249.5055,415.8598 L250.0512,415.905 L250.5139,415.8491 L251.1263,415.6424 L251.5665,415.4056 L251.913,415.1377 L252.125,414.8987 L252.309,414.5662 L252.4457,414.1562 L252.4769,413.815 L252.4672,413.476 L252.3822,413.1112 L252.2453,412.8329 L252.1297,412.61 L252.015,412.4521 L251.8255,412.2935 z" stroke="#000000" stroke-width="0.24" fill-opacity="0" />
  <path d="M228.9348,404.8866 L228.9221,404.8564 L228.812,404.768 L228.6528,404.6794 L228.523,404.5673 L228.4716,404.4693 L228.4622,404.3579 L228.4971,404.2509 L228.5744,404.1579 L228.6848,404.0986 L228.8309,404.044 L228.8802,404.0174 L228.9763,403.6366 L229.1673,403.2111 L229.3929,402.8726 L229.5869,402.6448 L229.8492,402.4711 L230.1783,402.3521 L230.5482,402.3105 L230.9276,402.3484 L231.2365,402.4542 L231.4961,402.5852 L231.7562,402.8178 L231.9648,403.1199 L232.08,403.4359 L232.1198,403.6509 L232.1382,403.9207 L232.1108,404.2273 L232.0925,404.3017 L232.2164,404.3474 L232.3825,404.2845 L232.6652,404.2024 L232.8412,404.1796 L232.9901,404.2271 L233.0957,404.3401 L233.1932,404.5734 L233.2644,404.8828 L233.3175,405.209 L233.3197,405.3018 L233.4206,405.5533 L233.4869,405.8512 L233.5006,406.0983 L233.4706,406.3616 L233.4035,406.6158 L233.2637,406.9787 L233.0653,407.3339 L232.8017,407.6747 L232.5176,407.9712 L232.1956,408.2099 L231.8598,408.3724 L231.4745,408.48 L231.0699,408.5435 L230.5242,408.5887 L230.0615,408.5327 L229.4491,408.3261 L229.009,408.0894 L228.6624,407.8214 L228.4504,407.5825 L228.2664,407.2499 L228.1297,406.8399 L228.0985,406.4987 L228.1082,406.1597 L228.1932,405.7949 L228.3301,405.5166 L228.4457,405.2936 L228.5604,405.1359 L228.75,404.9771 z" stroke="#000000" stroke-width="0.24" fill-opacity="0" />
  <path d="M217.8687,473.4008 L217.8814,473.4311 L217.9915,473.5194 L218.1506,473.608 L218.2805,473.7202 L218.3319,473.8181 L218.3413,473.9296 L218.3064,474.0365 L218.229,474.1296 L218.1187,474.1889 L217.9726,474.2435 L217.9233,474.2701 L217.8272,474.6508 L217.6362,475.0763 L217.4106,475.4148 L217.2166,475.6426 L216.9543,475.8163 L216.6252,475.9353 L216.2552,475.9769 L215.8759,475.939 L215.567,475.8332 L215.3074,475.7023 L215.0473,475.4696 L214.8387,475.1675 L214.7235,474.8516 L214.6837,474.6365 L214.6653,474.3667 L214.6927,474.0602 L214.7109,473.9858 L214.5871,473.94 L214.4209,474.0029 L214.1383,474.085 L213.9623,474.1078 L213.8134,474.0604 L213.7078,473.9473 L213.6102,473.7141 L213.5391,473.4046 L213.4859,473.0784 L213.4837,472.9857 L213.3829,472.7342 L213.3166,472.4362 L213.3029,472.1891 L213.3329,471.9259 L213.4,471.6717 L213.5398,471.3087 L213.7382,470.9536 L214.0018,470.6127 L214.2859,470.3162 L214.6079,470.0775 L214.9436,469.915 L215.3289,469.8074 L215.7336,469.7439 L216.2792,469.6987 L216.742,469.7547 L217.3544,469.9613 L217.7945,470.1981 L218.1411,470.4661 L218.3531,470.705 L218.5371,471.0375 L218.6738,471.4476 L218.705,471.7887 L218.6953,472.1277 L218.6103,472.4926 L218.4733,472.7709 L218.3578,472.9938 L218.2431,473.1516 L218.0535,473.3103 z" stroke="#000000" stroke-width="0.24" fill-opacity="0" />
  <path d="M265.1069,406.6573 L265.5619,403.7971 L274.0773,403.7971 L274.0773,399.5719 L261.5057,399.5719 L259.8286,409.8165 L264.3398,410.4665 C264.7645,409.9898 265.1545,409.6605 265.5099,409.4785 C265.9866,409.2271 266.4806,409.1014 266.992,409.1014 C267.798,409.1014 268.4437,409.3658 268.929,409.8945 C269.4144,410.4232 269.6571,411.2552 269.6571,412.3906 C269.6571,413.5 269.4166,414.3342 268.9355,414.8932 C268.4545,415.4522 267.8457,415.7318 267.109,415.7318 C266.4503,415.7318 265.8826,415.5086 265.4059,415.0622 C264.9292,414.6159 264.6258,413.9637 264.4958,413.1056 L259.1396,413.6907 C259.3996,414.5834 259.7246,415.3287 260.1146,415.9268 C260.5046,416.5248 261.0138,417.06 261.6422,417.5323 C262.2705,418.0047 263.0333,418.3601 263.9303,418.5984 C264.8274,418.8368 265.9042,418.9559 267.161,418.9559 C268.9117,418.9559 270.3483,418.6569 271.4707,418.0589 C272.5931,417.4608 273.4598,416.5941 274.0708,415.4587 C274.6819,414.3234 274.9874,413.1403 274.9874,411.9096 C274.9874,410.1588 274.3937,408.7071 273.2063,407.5544 C272.0189,406.4016 270.4718,405.8253 268.565,405.8253 L266.8554,406.0333 z" stroke="#000000" stroke-width="0.24" fill-opacity="0" />
  <path d="M195.1628,466.0846 L195.1502,466.1148 L195.04,466.2031 L194.8809,466.2917 L194.7511,466.4039 L194.6997,466.5018 L194.6903,466.6133 L194.7252,466.7202 L194.8025,466.8133 L194.9128,466.8726 L195.059,466.9272 L195.1082,466.9538 L195.2044,467.3345 L195.3954,467.76 L195.6209,468.0985 L195.8149,468.3263 L196.0772,468.5 L196.4063,468.619 L196.7763,468.6606 L197.1557,468.6227 L197.4645,468.5169 L197.7242,468.386 L197.9842,468.1533 L198.1929,467.8512 L198.3081,467.5353 L198.3479,467.3203 L198.3662,467.0504 L198.3389,466.7439 L198.3206,466.6695 L198.4445,466.6237 L198.6106,466.6866 L198.8933,466.7687 L199.0693,466.7915 L199.2182,466.7441 L199.3237,466.631 L199.4213,466.3978 L199.4925,466.0883 L199.5456,465.7621 L199.5478,465.6694 L199.6487,465.4178 L199.715,465.1199 L199.7286,464.8728 L199.6987,464.6096 L199.6316,464.3554 L199.4918,463.9925 L199.2934,463.6373 L199.0298,463.2964 L198.7457,462.9999 L198.4237,462.7613 L198.0879,462.5988 L197.7026,462.4911 L197.298,462.4276 L196.7523,462.3824 L196.2896,462.4384 L195.6772,462.645 L195.237,462.8818 L194.8905,463.1498 L194.6785,463.3887 L194.4944,463.7212 L194.3578,464.1313 L194.3266,464.4724 L194.3362,464.8114 L194.4212,465.1763 L194.5582,465.4546 L194.6738,465.6775 L194.7884,465.8353 L194.978,465.994 z" stroke="#000000" stroke-width="0.24" fill-opacity="0" />
  <path d="M256.9294,403.8622 C256.6261,402.8394 256.1841,401.9901 255.6034,401.314 C255.0227,400.638 254.2925,400.1245 253.4128,399.7734 C252.5331,399.4224 251.3348,399.2469 249.8181,399.2469 C247.2526,399.2469 245.2462,400.0464 243.7988,401.6455 C242.3513,403.2446 241.6277,405.7646 241.6277,409.2054 C241.6277,411.5542 241.9722,413.4415 242.6612,414.8672 C243.3502,416.293 244.2711,417.3308 245.4238,417.9809 C246.5766,418.6309 248.1063,418.9559 250.0131,418.9559 C251.5992,418.9559 252.9187,418.6894 253.9718,418.1564 C255.0248,417.6234 255.8482,416.8368 256.4419,415.7968 C257.0356,414.7567 257.3325,413.6083 257.3325,412.3516 C257.3325,410.4882 256.7453,408.9497 255.5709,407.7364 C254.3965,406.5229 252.9599,405.9163 251.2612,405.9163 C250.3858,405.9163 249.6144,406.0701 248.947,406.3778 C248.2797,406.6855 247.6296,407.16 246.9969,407.8014 C247.1616,405.7559 247.4173,404.4212 247.764,403.7971 C248.2407,402.9305 248.908,402.4971 249.7661,402.4971 C250.2428,402.4971 250.6436,402.6488 250.9686,402.9521 C251.2937,403.2555 251.5255,403.7755 251.6642,404.5122 z" stroke="#000000" stroke-width="0.24" fill-opacity="0" />
  <path d="M224.0768,414.3537 C224.3888,415.3677 224.8351,416.2128 225.4158,416.8888 C225.9965,417.5648 226.7245,418.0784 227.5999,418.4294 C228.4753,418.7804 229.6714,418.9559 231.1881,418.9559 C233.7536,418.9559 235.76,418.1564 237.2074,416.5573 C238.6548,414.9582 239.3785,412.4383 239.3785,408.9974 C239.3785,406.6573 239.034,404.7744 238.345,403.3486 C237.6559,401.9229 236.7351,400.8828 235.5823,400.2285 C234.4296,399.5741 232.8999,399.2469 230.9931,399.2469 C229.407,399.2469 228.0896,399.5134 227.0409,400.0464 C225.9922,400.5795 225.1688,401.366 224.5708,402.4061 C223.9727,403.4461 223.6737,404.5988 223.6737,405.8643 C223.6737,407.719 224.2609,409.2531 225.4353,410.4665 C226.6097,411.6799 228.0506,412.2866 229.758,412.2866 C230.6334,412.2866 231.4048,412.1349 232.0722,411.8316 C232.7395,411.5282 233.3896,411.0515 234.0223,410.4015 C233.8489,412.4469 233.5889,413.786 233.2422,414.4187 C232.7655,415.2767 232.1025,415.7058 231.2531,415.7058 C230.7764,415.7058 230.3734,415.5541 230.0441,415.2507 C229.7147,414.9474 229.4807,414.4274 229.342,413.6907 z" stroke="#000000" stroke-width="0.24" fill-opacity="0" />
  <path d="M233.0306,431.2293 L234.1741,431.2293 L234.1741,451.1357 L233.0306,451.1357 z" stroke="#00FF00" stroke-width="0.24" fill-opacity="0" />
  <path d="M248.7701,447.0582 L249.9137,447.0582 L249.9137,427.1517 L248.7701,427.1517 z" stroke="#00FF00" stroke-width="0.24" fill-opacity="0" />
  <path d="M242.5188,447.0582 L241.3752,447.0582 L241.3752,427.1517 L242.5188,427.1517 z" stroke="#00FF00" stroke-width="0.24" fill-opacity="0" />
  <path d="M226.7792,431.2293 L225.6357,431.2293 L225.6357,451.1357 L226.7792,451.1357 z" stroke="#00FF00" stroke-width="0.24" fill-opacity="0" />
  <path d="M224.111,430.1784 L224.111,448.475" stroke="#00FF00" stroke-width="0.24" fill-opacity="0" />
  <path d="M235.6988,430.1784 L224.111,430.1784" stroke="#00FF00" stroke-width="0.24" fill-opacity="0" />
  <path d="M235.6988,448.475 L235.6988,430.1784" stroke="#00FF00" stroke-width="0.24" fill-opacity="0" />
</svg>