<?xml version="1.0" encoding="UTF-8" standalone="no"?>
<!DOCTYPE svg PUBLIC "-//W3C//DTD SVG 1.1//EN" "http://www.w3.org/Graphics/SVG/1.1/DTD/svg11.dtd">
<svg width="612pt" height="792pt" viewBox="0 0 612 792" overflow="visible" version="1.1" xmlns="http://www.w3.org/2000/svg">
  <path d="M272.6299,469.8397 C272.7357,468.7966 271.5533,467.6142 270.5102,467.7199 C269.4672,467.6142 268.2847,468.7966 268.3905,469.8397 C268.2847,470.8827 269.4672,472.0652 270.5102,471.9594 C271.5533,472.0652 272.7357,470.8827 272.6299,469.8397 z" stroke="#000000" stroke-width="0.24" fill-opacity="0" />
  <path d="M272.6299,480.4384 C272.7357,479.3953 271.5533,478.2129 270.5102,478.3186 C269.4672,478.2129 268.2847,479.3953 268.3905,480.4384 C268.2847,481.4814 269.4672,482.6638 270.5102,482.5581 C271.5533,482.6638 272.7357,481.4814 272.6299,480.4384 z" stroke="#000000" stroke-width="0.24" fill-opacity="0" />
  <path d="M140.1739,444.5355 L140.1739,468.4844 C140.3325,470.049 138.5588,471.8226 136.9942,471.664 L133.8314,471.664 C132.7625,471.6976 131.5831,471.0166 131.0777,470.0742 L124.1643,458.0997 C123.6008,457.1909 123.6008,455.829 124.1643,454.9201 L131.0777,442.9456 C131.5831,442.0032 132.7625,441.3223 133.8314,441.3559 L136.9942,441.3559 C138.5588,441.1972 140.3325,442.9709 140.1739,444.5355 z" stroke="#000000" stroke-width="0.24" fill-opacity="0" />
  <path d="M69.80393,441.3559 L83.12951,441.3559 C84.19836,441.3223 85.37775,442.0032 85.88313,442.9456 L93.71446,456.5099 L86.50843,468.9911 C86.0546,469.817 85.10655,470.4505 84.16984,470.5537 C83.23832,470.6965 82.15863,470.33 81.50649,469.6497 L67.55562,455.6988 C66.9728,455.1313 66.61346,454.2638 66.62433,453.4505 L66.62433,444.5355 C66.46571,442.9709 68.23936,441.1972 69.80393,441.3559 z" stroke="#000000" stroke-width="0.24" fill-opacity="0" />
  <path d="M472.9776,444.5342 L472.9776,453.4505 C472.9885,454.2638 472.6292,455.1313 472.0463,455.6988 L458.0977,469.6474 C457.4455,470.3278 456.3658,470.6942 455.4343,470.5515 C454.4976,470.4483 453.5496,469.8148 453.0957,468.9889 L446.8081,458.0985 C446.2447,457.1896 446.2447,455.8278 446.8081,454.9189 L453.7216,442.9444 C454.227,442.002 455.4064,441.3211 456.4752,441.3546 L469.798,441.3546 C471.3626,441.196 473.1362,442.9697 472.9776,444.5342 z" stroke="#000000" stroke-width="0.24" fill-opacity="0" />
  <path d="M384.8897,499.8791 L382.2794,495.3579 C381.7159,494.449 381.7159,493.0872 382.2794,492.1783 L389.1928,480.2038 C389.6982,479.2614 390.8776,478.5805 391.9464,478.614 L405.7734,478.614 C406.8422,478.5805 408.0216,479.2614 408.527,480.2038 L415.4405,492.1783 C416.0039,493.0872 416.0039,494.449 415.4405,495.3579 L412.8301,499.8791 C412.3248,500.8216 411.1454,501.5025 410.0765,501.4689 L387.6433,501.4689 C386.5745,501.5025 385.3951,500.8216 384.8897,499.8791 z" stroke="#000000" stroke-width="0.24" fill-opacity="0" />
  <path d="M126.7746,499.8791 L124.1643,495.3579 C123.6008,494.449 123.6008,493.0872 124.1643,492.1783 L131.0777,480.2038 C131.5831,479.2614 132.7625,478.5805 133.8314,478.614 L136.9942,478.614 C138.5588,478.4554 140.3325,480.229 140.1739,481.7936 L140.1739,498.2893 C140.3325,499.8539 138.5588,501.6275 136.9942,501.4689 L129.5282,501.4689 C128.4594,501.5025 127.28,500.8216 126.7746,499.8791 z" stroke="#000000" stroke-width="0.24" fill-opacity="0" />
  <path d="M91.89989,436.291 L93.67674,433.2134 C94.18211,432.271 95.3615,431.5901 96.43036,431.6237 L120.5305,431.6237 C121.5994,431.5901 122.7787,432.271 123.2841,433.2134 L125.061,436.291 C125.6245,437.1999 125.6245,438.5618 125.061,439.4706 L118.1475,451.4451 C117.6421,452.3875 116.4628,453.0685 115.3939,453.0349 L101.567,453.0349 C100.4981,453.0685 99.31873,452.3875 98.81335,451.4451 L91.89989,439.4706 C91.3364,438.5618 91.3364,437.1999 91.89989,436.291 z" stroke="#000000" stroke-width="0.24" fill-opacity="0" />
  <path d="M401.0364,441.3571 L405.7734,441.3571 C406.8422,441.3235 408.0216,442.0045 408.527,442.9469 L415.4405,454.9214 C416.0039,455.8302 416.0039,457.1921 415.4405,458.101 L408.527,470.0754 C408.0216,471.0179 406.8422,471.6988 405.7734,471.6652 L391.9464,471.6652 C390.8776,471.6988 389.6982,471.0179 389.1928,470.0754 L383.4425,460.1155 C382.5434,458.8564 383.1445,456.4913 384.5356,455.8141 C385.777,455.0546 386.9359,454.1412 387.9647,453.1118 L398.7881,442.2884 C399.3555,441.7056 400.2231,441.3462 401.0364,441.3571 z" stroke="#000000" stroke-width="0.24" fill-opacity="0" />
  <path d="M414.5438,436.291 L416.3206,433.2134 C416.826,432.271 418.0054,431.5901 419.0742,431.6237 L443.1744,431.6237 C444.2432,431.5901 445.4226,432.271 445.928,433.2134 L447.7048,436.291 C448.2683,437.1999 448.2683,438.5618 447.7048,439.4706 L440.7914,451.4451 C440.286,452.3875 439.1066,453.0685 438.0378,453.0349 L424.2108,453.0349 C423.142,453.0685 421.9626,452.3875 421.4572,451.4451 L414.5438,439.4706 C413.9803,438.5618 413.9803,437.1999 414.5438,436.291 z" stroke="#000000" stroke-width="0.24" fill-opacity="0" />
  <path d="M376.2626,461.5735 L383.1761,473.548 C383.7396,474.4569 383.7396,475.8187 383.1761,476.7276 L376.2626,488.7021 C375.7572,489.6445 374.5779,490.3254 373.509,490.2919 L368.0454,490.2919 C366.4808,490.4505 364.7072,488.6768 364.8658,487.1122 L364.8658,463.1633 C364.7072,461.5987 366.4808,459.8251 368.0454,459.9837 L373.509,459.9837 C374.5779,459.9502 375.7572,460.6311 376.2626,461.5735 z" stroke="#000000" stroke-width="0.24" fill-opacity="0" />
  <path d="M160.2558,444.4932 L137.0603,421.2977 C135.9255,420.1321 134.1904,419.4134 132.5637,419.4352 L60.79506,419.4352 C57.6659,419.1179 54.11862,422.6652 54.43585,425.7944 L54.43585,457.1821 C54.41411,458.8087 55.1328,460.5438 56.29842,461.6787 L106.4146,511.7948 C107.5494,512.9604 109.2845,513.6791 110.9112,513.6574 L428.6907,513.6574 C430.3174,513.6791 432.0525,512.9604 433.1874,511.7948 L483.3035,461.6787 C484.4691,460.5438 485.1878,458.8087 485.1661,457.1821 L485.1661,425.7944 C485.4833,422.6652 481.936,419.1179 478.8069,419.4352 L407.0382,419.4352 C405.4115,419.4134 403.6765,420.1321 402.5416,421.2977 L379.3461,444.4932 C378.2112,445.6589 376.4762,446.3775 374.8495,446.3558 L341.4015,446.3558 C339.7748,446.3775 338.0397,445.6589 336.9048,444.4932 L332.5538,440.1422 C331.4189,438.9766 329.6839,438.2579 328.0572,438.2796 L301.0205,438.2796 C299.3938,438.2579 297.6588,438.9766 296.5239,440.1422 L292.1728,444.4932 C291.038,445.6589 289.3029,446.3775 287.6762,446.3558 L218.5399,446.3558 C216.9132,446.3775 215.1782,445.6589 214.0433,444.4932 L209.6922,440.1422 C208.5573,438.9766 206.8223,438.2579 205.1956,438.2796 L178.159,438.2796 C176.5323,438.2579 174.7972,438.9766 173.6623,440.1422 L169.3112,444.4932 C168.1764,445.6589 166.4413,446.3775 164.8146,446.3558 L164.7525,446.3558 C163.1258,446.3775 161.3907,445.6589 160.2558,444.4932 z" stroke="#000000" stroke-width="0.24" fill-opacity="0" />
  <path d="M94.55979,425.7944 C94.66553,424.7513 93.48312,423.5689 92.44006,423.6746 C91.397,423.5689 90.21458,424.7513 90.32032,425.7944 C90.21458,426.8374 91.397,428.0198 92.44006,427.9141 C93.48312,428.0198 94.66553,426.8374 94.55979,425.7944 z" stroke="#000000" stroke-width="0.24" fill-opacity="0" />
  <path d="M103.0387,425.7944 C103.1445,424.7513 101.9621,423.5689 100.919,423.6746 C99.87595,423.5689 98.69352,424.7513 98.79926,425.7944 C98.69352,426.8374 99.87595,428.0198 100.919,427.9141 C101.9621,428.0198 103.1445,426.8374 103.0387,425.7944 z" stroke="#000000" stroke-width="0.24" fill-opacity="0" />
  <path d="M211.2848,475.139 C211.4064,470.5654 209.3308,465.0633 205.5419,461.2744 C201.753,457.4855 196.2509,455.4099 191.6773,455.5315 C187.1037,455.4099 181.6015,457.4855 177.8126,461.2744 C174.0237,465.0633 171.9481,470.5654 172.0697,475.139 C171.9481,479.7126 174.0237,485.2148 177.8126,489.0037 C181.6015,492.7925 187.1037,494.8682 191.6773,494.7466 C196.2509,494.8682 201.753,492.7925 205.5419,489.0037 C209.3308,485.2148 211.4064,479.7126 211.2848,475.139 z" stroke="#000000" stroke-width="0.24" fill-opacity="0" />
  <path d="M206.2554,507.2982 C206.3612,506.2552 205.1788,505.0727 204.1357,505.1785 C203.0927,505.0727 201.9102,506.2552 202.016,507.2982 C201.9102,508.3412 203.0927,509.5237 204.1357,509.4179 C205.1788,509.5237 206.3612,508.3412 206.2554,507.2982 z" stroke="#000000" stroke-width="0.24" fill-opacity="0" />
  <path d="M179.2188,507.2982 C179.3246,506.2552 178.1421,505.0727 177.0991,505.1785 C176.056,505.0727 174.8736,506.2552 174.9793,507.2982 C174.8736,508.3412 176.056,509.5237 177.0991,509.4179 C178.1421,509.5237 179.3246,508.3412 179.2188,507.2982 z" stroke="#000000" stroke-width="0.24" fill-opacity="0" />
  <path d="M210.7549,492.0969 C210.8606,491.0538 209.6782,489.8714 208.6351,489.9772 C207.5921,489.8714 206.4097,491.0538 206.5154,492.0969 C206.4097,493.14 207.5921,494.3224 208.6351,494.2166 C209.6782,494.3224 210.8606,493.14 210.7549,492.0969 z" stroke="#000000" stroke-width="0.24" fill-opacity="0" />
  <path d="M176.8391,492.0969 C176.9449,491.0538 175.7624,489.8714 174.7194,489.9772 C173.6763,489.8714 172.4939,491.0538 172.5996,492.0969 C172.4939,493.14 173.6763,494.3224 174.7194,494.2166 C175.7624,494.3224 176.9449,493.14 176.8391,492.0969 z" stroke="#000000" stroke-width="0.24" fill-opacity="0" />
  <path d="M176.8391,458.1811 C176.9449,457.1381 175.7624,455.9557 174.7194,456.0614 C173.6763,455.9557 172.4939,457.1381 172.5996,458.1811 C172.4939,459.2242 173.6763,460.4066 174.7194,460.3009 C175.7624,460.4066 176.9449,459.2242 176.8391,458.1811 z" stroke="#000000" stroke-width="0.24" fill-opacity="0" />
  <path d="M210.7549,458.1811 C210.8606,457.1381 209.6782,455.9557 208.6351,456.0614 C207.5921,455.9557 206.4097,457.1381 206.5154,458.1811 C206.4097,459.2242 207.5921,460.4066 208.6351,460.3009 C209.6782,460.4066 210.8606,459.2242 210.7549,458.1811 z" stroke="#000000" stroke-width="0.24" fill-opacity="0" />
  <path d="M110.5974,475.139 C110.7031,474.0959 109.5207,472.9135 108.4776,473.0193 C107.4346,472.9135 106.2522,474.0959 106.3579,475.139 C106.2522,476.1821 107.4346,477.3645 108.4776,477.2588 C109.5207,477.3645 110.7031,476.1821 110.5974,475.139 z" stroke="#000000" stroke-width="0.24" fill-opacity="0" />
  <path d="M148.6528,475.139 C148.7585,474.0959 147.5761,472.9135 146.5331,473.0193 C145.49,472.9135 144.3076,474.0959 144.4133,475.139 C144.3076,476.1821 145.49,477.3645 146.5331,477.2588 C147.5761,477.3645 148.7585,476.1821 148.6528,475.139 z" stroke="#000000" stroke-width="0.24" fill-opacity="0" />
  <path d="M148.6528,492.0969 C148.7585,491.0538 147.5761,489.8714 146.5331,489.9772 C145.49,489.8714 144.3076,491.0538 144.4133,492.0969 C144.3076,493.14 145.49,494.3224 146.5331,494.2166 C147.5761,494.3224 148.7585,493.14 148.6528,492.0969 z" stroke="#000000" stroke-width="0.24" fill-opacity="0" />
  <path d="M148.6528,458.1811 C148.7585,457.1381 147.5761,455.9557 146.5331,456.0614 C145.49,455.9557 144.3076,457.1381 144.4133,458.1811 C144.3076,459.2242 145.49,460.4066 146.5331,460.3009 C147.5761,460.4066 148.7585,459.2242 148.6528,458.1811 z" stroke="#000000" stroke-width="0.24" fill-opacity="0" />
  <path d="M360.6263,458.1811 C360.7321,457.1381 359.5497,455.9557 358.5066,456.0614 C357.4636,455.9557 356.2811,457.1381 356.3869,458.1811 C356.2811,459.2242 357.4636,460.4066 358.5066,460.3009 C359.5497,460.4066 360.7321,459.2242 360.6263,458.1811 z" stroke="#000000" stroke-width="0.24" fill-opacity="0" />
  <path d="M360.6263,492.0969 C360.7321,491.0538 359.5497,489.8714 358.5066,489.9772 C357.4636,489.8714 356.2811,491.0538 356.3869,492.0969 C356.2811,493.14 357.4636,494.3224 358.5066,494.2166 C359.5497,494.3224 360.7321,493.14 360.6263,492.0969 z" stroke="#000000" stroke-width="0.24" fill-opacity="0" />
  <path d="M360.6263,475.139 C360.7321,474.0959 359.5497,472.9135 358.5066,473.0193 C357.4636,472.9135 356.2811,474.0959 356.3869,475.139 C356.2811,476.1821 357.4636,477.3645 358.5066,477.2588 C359.5497,477.3645 360.7321,476.1821 360.6263,475.139 z" stroke="#000000" stroke-width="0.24" fill-opacity="0" />
  <path d="M433.244,475.139 C433.3498,474.0959 432.1674,472.9135 431.1243,473.0193 C430.0812,472.9135 428.8988,474.0959 429.0046,475.139 C428.8988,476.1821 430.0812,477.3645 431.1243,477.2588 C432.1674,477.3645 433.3498,476.1821 433.244,475.139 z" stroke="#000000" stroke-width="0.24" fill-opacity="0" />
  <path d="M480.9266,425.7944 C481.0324,424.7513 479.8499,423.5689 478.8069,423.6746 C477.7638,423.5689 476.5814,424.7513 476.6872,425.7944 C476.5814,426.8374 477.7638,428.0198 478.8069,427.9141 C479.8499,428.0198 481.0324,426.8374 480.9266,425.7944 z" stroke="#000000" stroke-width="0.24" fill-opacity="0" />
  <path d="M409.158,425.7944 C409.2637,424.7513 408.0813,423.5689 407.0382,423.6746 C405.9952,423.5689 404.8128,424.7513 404.9185,425.7944 C404.8128,426.8374 405.9952,428.0198 407.0382,427.9141 C408.0813,428.0198 409.2637,426.8374 409.158,425.7944 z" stroke="#000000" stroke-width="0.24" fill-opacity="0" />
  <path d="M379.4028,507.2982 C379.5085,506.2552 378.3261,505.0727 377.283,505.1785 C376.24,505.0727 375.0576,506.2552 375.1633,507.2982 C375.0576,508.3412 376.24,509.5237 377.283,509.4179 C378.3261,509.5237 379.5085,508.3412 379.4028,507.2982 z" stroke="#000000" stroke-width="0.24" fill-opacity="0" />
  <path d="M298.6408,458.1811 C298.7466,457.1381 297.5641,455.9557 296.5211,456.0614 C295.4781,455.9557 294.2956,457.1381 294.4014,458.1811 C294.2956,459.2242 295.4781,460.4066 296.5211,460.3009 C297.5641,460.4066 298.7466,459.2242 298.6408,458.1811 z" stroke="#000000" stroke-width="0.24" fill-opacity="0" />
  <path d="M332.5566,458.1811 C332.6624,457.1381 331.4799,455.9557 330.4369,456.0614 C329.3938,455.9557 328.2114,457.1381 328.3171,458.1811 C328.2114,459.2242 329.3938,460.4066 330.4369,460.3009 C331.4799,460.4066 332.6624,459.2242 332.5566,458.1811 z" stroke="#000000" stroke-width="0.24" fill-opacity="0" />
  <path d="M332.5566,492.0969 C332.6624,491.0538 331.4799,489.8714 330.4369,489.9772 C329.3938,489.8714 328.2114,491.0538 328.3171,492.0969 C328.2114,493.14 329.3938,494.3224 330.4369,494.2166 C331.4799,494.3224 332.6624,493.14 332.5566,492.0969 z" stroke="#000000" stroke-width="0.24" fill-opacity="0" />
  <path d="M298.6408,492.0969 C298.7466,491.0538 297.5641,489.8714 296.5211,489.9772 C295.4781,489.8714 294.2956,491.0538 294.4014,492.0969 C294.2956,493.14 295.4781,494.3224 296.5211,494.2166 C297.5641,494.3224 298.7466,493.14 298.6408,492.0969 z" stroke="#000000" stroke-width="0.24" fill-opacity="0" />
  <path d="M329.117,507.2982 C329.2228,506.2552 328.0403,505.0727 326.9973,505.1785 C325.9543,505.0727 324.7718,506.2552 324.8776,507.2982 C324.7718,508.3412 325.9543,509.5237 326.9973,509.4179 C328.0403,509.5237 329.2228,508.3412 329.117,507.2982 z" stroke="#000000" stroke-width="0.24" fill-opacity="0" />
  <path d="M302.0804,444.6388 C302.1862,443.5958 301.0037,442.4133 299.9607,442.5191 C298.9176,442.4133 297.7352,443.5958 297.8409,444.6388 C297.7352,445.6819 298.9176,446.8643 299.9607,446.7585 C301.0037,446.8643 302.1862,445.6819 302.0804,444.6388 z" stroke="#000000" stroke-width="0.24" fill-opacity="0" />
  <path d="M302.0804,507.2982 C302.1862,506.2552 301.0037,505.0727 299.9607,505.1785 C298.9176,505.0727 297.7352,506.2552 297.8409,507.2982 C297.7352,508.3412 298.9176,509.5237 299.9607,509.4179 C301.0037,509.5237 302.1862,508.3412 302.0804,507.2982 z" stroke="#000000" stroke-width="0.24" fill-opacity="0" />
  <path d="M329.117,444.6388 C329.2228,443.5958 328.0403,442.4133 326.9973,442.5191 C325.9543,442.4133 324.7718,443.5958 324.8776,444.6388 C324.7718,445.6819 325.9543,446.8643 326.9973,446.7585 C328.0403,446.8643 329.2228,445.6819 329.117,444.6388 z" stroke="#000000" stroke-width="0.24" fill-opacity="0" />
  <path d="M333.0865,475.139 C333.2081,470.5654 331.1325,465.0633 327.3436,461.2744 C323.5547,457.4855 318.0526,455.4099 313.479,455.5315 C308.9054,455.4099 303.4032,457.4855 299.6143,461.2744 C295.8255,465.0633 293.7498,470.5654 293.8714,475.139 C293.7498,479.7126 295.8255,485.2148 299.6143,489.0037 C303.4032,492.7925 308.9054,494.8682 313.479,494.7466 C318.0526,494.8682 323.5547,492.7925 327.3436,489.0037 C331.1325,485.2148 333.2081,479.7126 333.0865,475.139 z" stroke="#000000" stroke-width="0.24" fill-opacity="0" />
  <path d="M180.2787,444.6388 C180.3844,443.5958 179.202,442.4133 178.159,442.5191 C177.1159,442.4133 175.9335,443.5958 176.0392,444.6388 C175.9335,445.6819 177.1159,446.8643 178.159,446.7585 C179.202,446.8643 180.3844,445.6819 180.2787,444.6388 z" stroke="#000000" stroke-width="0.24" fill-opacity="0" />
  <path d="M207.3153,444.6388 C207.4211,443.5958 206.2386,442.4133 205.1956,442.5191 C204.1525,442.4133 202.9701,443.5958 203.0759,444.6388 C202.9701,445.6819 204.1525,446.8643 205.1956,446.7585 C206.2386,446.8643 207.4211,445.6819 207.3153,444.6388 z" stroke="#000000" stroke-width="0.24" fill-opacity="0" />
  <path d="M128.4753,425.7944 C128.581,424.7513 127.3986,423.5689 126.3555,423.6746 C125.3125,423.5689 124.1301,424.7513 124.2358,425.7944 C124.1301,426.8374 125.3125,428.0198 126.3555,427.9141 C127.3986,428.0198 128.581,426.8374 128.4753,425.7944 z" stroke="#000000" stroke-width="0.24" fill-opacity="0" />
  <path d="M69.12297,425.7944 C69.22871,424.7513 68.04629,423.5689 67.00323,423.6746 C65.96018,423.5689 64.77776,424.7513 64.8835,425.7944 C64.77776,426.8374 65.96018,428.0198 67.00323,427.9141 C68.04629,428.0198 69.22871,426.8374 69.12297,425.7944 z" stroke="#000000" stroke-width="0.24" fill-opacity="0" />
  <path d="M267.0656,481.778 C267.0609,482.0674 267.2,482.3785 267.4189,482.5679 C268.051,483.0814 268.3123,484.1582 267.986,484.9043 C267.7318,485.6779 266.8192,486.3063 266.0058,486.2676 L224.6709,486.2676 C223.9385,486.2927 223.1274,485.8075 222.8032,485.1503 C222.4348,484.5168 222.4788,483.5727 222.9045,482.9762 L223.0811,482.3903 L223.0811,478.3186 C223.134,477.7971 222.5428,477.2059 222.0213,477.2588 L217.7818,477.2588 C216.7388,477.3645 215.5563,476.1821 215.6621,475.139 C215.5563,474.0959 216.7388,472.9135 217.7818,473.0193 L222.0213,473.0193 C222.5428,473.0721 223.134,472.4809 223.0811,471.9594 L223.0811,467.8877 L222.9045,467.3019 C222.4788,466.7054 222.4348,465.7613 222.8032,465.1277 C223.1274,464.4706 223.9385,463.9854 224.6709,464.0104 L266.0058,464.0104 C266.8192,463.9718 267.7318,464.6001 267.986,465.3738 C268.3123,466.1198 268.051,467.1966 267.4189,467.7101 C267.2,467.8995 267.0609,468.2106 267.0656,468.5001 L267.0656,471.9594 C267.0128,472.4809 267.604,473.0721 268.1255,473.0193 L272.365,473.0193 C273.4081,472.9135 274.5905,474.0959 274.4847,475.139 C274.5905,476.1821 273.4081,477.3645 272.365,477.2588 L268.1255,477.2588 C267.604,477.2059 267.0128,477.7971 267.0656,478.3186 z" stroke="#000000" stroke-width="0.24" fill-opacity="0" />
  <path d="M221.7563,469.8397 C221.862,468.7966 220.6796,467.6142 219.6366,467.7199 C218.5935,467.6142 217.4111,468.7966 217.5168,469.8397 C217.4111,470.8827 218.5935,472.0652 219.6366,471.9594 C220.6796,472.0652 221.862,470.8827 221.7563,469.8397 z" stroke="#000000" stroke-width="0.24" fill-opacity="0" />
  <path d="M221.7563,480.4384 C221.862,479.3953 220.6796,478.2129 219.6366,478.3186 C218.5935,478.2129 217.4111,479.3953 217.5168,480.4384 C217.4111,481.4814 218.5935,482.6638 219.6366,482.5581 C220.6796,482.6638 221.862,481.4814 221.7563,480.4384 z" stroke="#000000" stroke-width="0.24" fill-opacity="0" />
</svg>