<?xml version="1.0" encoding="UTF-8" standalone="no"?>
<!DOCTYPE svg PUBLIC "-//W3C//DTD SVG 1.1//EN" "http://www.w3.org/Graphics/SVG/1.1/DTD/svg11.dtd">
<svg width="612pt" height="792pt" viewBox="0 0 612 792" overflow="visible" version="1.1" xmlns="http://www.w3.org/2000/svg">
  <path d="M125.8411,395.0285 C125.5432,392.0892 128.8752,388.7572 131.8145,389.0551 C134.7538,388.7572 138.0859,392.0892 137.7879,395.0285 C138.0859,397.9678 134.7538,401.2999 131.8145,401.0019 C128.8752,401.2999 125.5432,397.9678 125.8411,395.0285 z" stroke="#00FF00" stroke-width="0.24" fill-opacity="0" />
  <path d="M153.289,372.8456 C153.5989,369.7887 150.1335,366.3234 147.0767,366.6333 C144.0198,366.3234 140.5544,369.7887 140.8643,372.8456 C140.5544,375.9025 144.0198,379.3678 147.0767,379.0579 C150.1335,379.3678 153.5989,375.9025 153.289,372.8456 z" stroke="#00FF00" stroke-width="0.24" fill-opacity="0" />
  <path d="M168.3122,395.0285 C168.6102,392.0892 165.2781,388.7572 162.3388,389.0551 C159.3995,388.7572 156.0674,392.0892 156.3654,395.0285 C156.0674,397.9678 159.3995,401.2999 162.3388,401.0019 C165.2781,401.2999 168.6102,397.9678 168.3122,395.0285 z" stroke="#00FF00" stroke-width="0.24" fill-opacity="0" />
  <path d="M153.289,417.2114 C153.5989,420.2683 150.1335,423.7336 147.0767,423.4237 C144.0198,423.7336 140.5544,420.2683 140.8643,417.2114 C140.5544,414.1546 144.0198,410.6892 147.0767,410.9991 C150.1335,410.6892 153.5989,414.1546 153.289,417.2114 z" stroke="#00FF00" stroke-width="0.24" fill-opacity="0" />
  <path d="M135.8087,407.931 L402.8215,407.931 L402.8215,401.2408 L135.8087,401.2408 z" stroke="#FF0000" stroke-width="0.24" fill-opacity="0" />
  <path d="M458.4791,396.3455 L440.206,396.3455 L421.9363,401.2408 L421.9363,388.8162 L440.206,393.7116 L458.4791,393.7116 L458.4791,395.687" stroke="#FF0000" stroke-width="0.24" fill-opacity="0" />
  <path d="M135.8087,388.8162 L402.8215,388.8162 L402.8215,382.1261 L135.8087,382.1261 z" stroke="#FF0000" stroke-width="0.24" fill-opacity="0" />
  <path d="M112.9025,405.5732 L135.8087,428.4794 L402.8215,428.4794 L458.4791,396.3455 L458.4791,393.7116 L402.8215,361.5777 L135.8087,361.5777 L112.9025,384.4839 z" stroke="#00FF00" stroke-width="0.24" fill-opacity="0" />
  <path d="M135.8087,401.2408 L421.9363,401.2408 L421.9363,388.8162 L135.8087,388.8162 z" stroke="#000000" stroke-width="0.24" fill-opacity="0" />
  <path d="M402.8215,428.4794 L402.8215,361.5777" stroke="#00FF00" stroke-width="0.24" fill-opacity="0" />
</svg>