<?xml version="1.0" encoding="UTF-8" standalone="no"?>
<!DOCTYPE svg PUBLIC "-//W3C//DTD SVG 1.1//EN" "http://www.w3.org/Graphics/SVG/1.1/DTD/svg11.dtd">
<svg width="612pt" height="792pt" viewBox="0 0 612 792" overflow="visible" version="1.1" xmlns="http://www.w3.org/2000/svg">
  <path d="M214.9219,370.6627 C215.1536,370.9467 215.7382,370.9467 215.9699,370.6627 C216.2539,370.431 216.2539,369.8464 215.9699,369.6147 L215.7901,369.4348 C215.5584,369.1508 214.9738,369.1508 214.7421,369.4348 C214.4581,369.6666 214.4581,370.2512 214.7421,370.4829 z" stroke="#000000" stroke-width="0.24" fill-opacity="0" />
  <path d="M214.9591,373.1031 C214.9961,372.7384 214.5827,372.325 214.218,372.362 C213.8534,372.325 213.44,372.7384 213.4769,373.1031 C213.44,373.4677 213.8534,373.8811 214.218,373.8441 C214.5827,373.8811 214.9961,373.4677 214.9591,373.1031 z" stroke="#000000" stroke-width="0.24" fill-opacity="0" />
  <path d="M219.1514,368.9108 C219.1883,368.5461 218.7749,368.1328 218.4103,368.1697 C218.0456,368.1328 217.6322,368.5461 217.6692,368.9108 C217.6322,369.2755 218.0456,369.6889 218.4103,369.6519 C218.7749,369.6889 219.1883,369.2755 219.1514,368.9108 z" stroke="#000000" stroke-width="0.24" fill-opacity="0" />
  <path d="M219.1514,377.2953 C219.1883,376.9306 218.7749,376.5172 218.4103,376.5542 C218.0456,376.5172 217.6322,376.9306 217.6692,377.2953 C217.6322,377.6599 218.0456,378.0733 218.4103,378.0364 C218.7749,378.0733 219.1883,377.6599 219.1514,377.2953 z" stroke="#000000" stroke-width="0.24" fill-opacity="0" />
  <path d="M215.9699,376.5914 C216.2539,376.3597 216.2539,375.7751 215.9699,375.5434 C215.7382,375.2594 215.1536,375.2594 214.9219,375.5434 L214.7421,375.7232 C214.4581,375.9549 214.4581,376.5396 214.7421,376.7712 C214.9738,377.0553 215.5584,377.0553 215.7901,376.7712 z" stroke="#000000" stroke-width="0.24" fill-opacity="0" />
  <path d="M221.8987,375.5434 C221.6669,375.2594 221.0823,375.2594 220.8506,375.5434 C220.5666,375.7751 220.5666,376.3597 220.8506,376.5914 L221.0304,376.7712 C221.2621,377.0553 221.8468,377.0553 222.0785,376.7712 C222.3625,376.5396 222.3625,375.9549 222.0785,375.7232 z" stroke="#000000" stroke-width="0.24" fill-opacity="0" />
  <path d="M220.8506,369.6147 C220.5666,369.8464 220.5666,370.431 220.8506,370.6627 C221.0823,370.9467 221.6669,370.9467 221.8987,370.6627 L222.0785,370.4829 C222.3625,370.2512 222.3625,369.6666 222.0785,369.4348 C221.8468,369.1508 221.2621,369.1508 221.0304,369.4348 z" stroke="#000000" stroke-width="0.24" fill-opacity="0" />
  <path d="M223.3436,373.1031 C223.3806,372.7384 222.9672,372.325 222.6025,372.362 C222.2378,372.325 221.8244,372.7384 221.8614,373.1031 C221.8244,373.4677 222.2378,373.8811 222.6025,373.8441 C222.9672,373.8811 223.3806,373.4677 223.3436,373.1031 z" stroke="#000000" stroke-width="0.24" fill-opacity="0" />
  <path d="M233.7045,368.3971 L218.4103,367.1743 C215.4929,366.8786 212.1858,370.1857 212.4815,373.1031 C212.1858,376.0204 215.4929,379.3275 218.4103,379.0318 L233.7045,377.809 C236.0201,378.0437 238.6452,375.4187 238.4104,373.1031 C238.6452,370.7874 236.0201,368.1624 233.7045,368.3971 z" stroke="#000000" stroke-width="0.24" fill-opacity="0" />
  <path d="M221.0078,373.1031 C221.1374,371.8249 219.6884,370.3759 218.4103,370.5055 C217.1321,370.3759 215.6832,371.8249 215.8127,373.1031 C215.6832,374.3812 217.1321,375.8301 218.4103,375.7006 C219.6884,375.8301 221.1374,374.3812 221.0078,373.1031 z" stroke="#000000" stroke-width="0.24" fill-opacity="0" />
</svg>