<?xml version="1.0" encoding="UTF-8" standalone="no"?>
<!DOCTYPE svg PUBLIC "-//W3C//DTD SVG 1.1//EN" "http://www.w3.org/Graphics/SVG/1.1/DTD/svg11.dtd">
<svg width="612pt" height="792pt" viewBox="0 0 612 792" overflow="visible" version="1.1" xmlns="http://www.w3.org/2000/svg">
  <path d="M366.7434,404.4623 C367.4532,403.9496 367.5352,402.5554 366.8904,401.963 C366.3777,401.2532 364.9835,401.1712 364.3911,401.8159 C363.6813,402.3287 363.5993,403.7229 364.244,404.3153 C364.7568,405.0251 366.151,405.1071 366.7434,404.4623 z" stroke="#00FF00" stroke-width="0.24" fill-opacity="0" />
  <path d="M337.1071,506.8985 C338.9432,506.107 339.8163,503.0398 338.6724,501.3999 C337.8809,499.5639 334.8137,498.6907 333.1738,499.8347 C331.3377,500.6262 330.4646,503.6934 331.6085,505.3333 C332.4,507.1693 335.4673,508.0424 337.1071,506.8985 z" stroke="#00FF00" stroke-width="0.24" fill-opacity="0" />
  <path d="M327.3979,503.0904 L363.2738,398.8171 C367.2944,399.8241 368.0666,400.3908 368.6132,400.9896 C369.1597,401.5885 369.4807,402.2194 369.5833,402.8836 C369.6859,403.5479 369.5701,404.2454 369.2414,405.4294 L340.6793,509.047 C340.1097,510.6909 339.978,511.1123 339.4733,511.3624 C338.9686,511.6126 338.0908,511.6916 337.0243,511.5687 C335.9578,511.4458 334.7026,511.1211 333.4298,510.6646 L329.9451,509.1241 C329.0234,508.6282 328.4705,508.2244 327.838,507.4971 C327.2055,506.7698 326.4935,505.719 327.3979,503.0904 z" stroke="#00FF00" stroke-width="0.24" fill-opacity="0" />
  <path d="M350.4494,436.0914 L359.8938,439.3408" stroke="#FF0000" stroke-width="0.24" fill-opacity="0" />
  <path d="M334.2607,499.4209 L334.2607,507.3123" stroke="#FF0000" stroke-width="0.24" fill-opacity="0" />
  <path d="M342.4436,459.3603 L353.3419,463.1099" stroke="#FF0000" stroke-width="0.24" fill-opacity="0" />
  <path d="M336.0202,499.4209 L336.0202,507.3123" stroke="#FF0000" stroke-width="0.24" fill-opacity="0" />
</svg>