<?xml version="1.0" encoding="UTF-8" standalone="no"?>
<!DOCTYPE svg PUBLIC "-//W3C//DTD SVG 1.1//EN" "http://www.w3.org/Graphics/SVG/1.1/DTD/svg11.dtd">
<svg width="612pt" height="792pt" viewBox="0 0 612 792" overflow="visible" version="1.1" xmlns="http://www.w3.org/2000/svg">
  <path d="M364.5426,332.7073 C364.6379,325.6076 361.4956,318.0338 356.4021,313.0869 C351.4433,308.0051 343.8622,304.8805 336.7628,304.9924 C329.6628,304.9138 322.0964,308.0739 317.1615,313.1789 C312.0913,318.1495 308.9844,325.738 309.113,332.8372" stroke="#000000" stroke-width="0.24" fill-opacity="0" />
  <path d="M364.5426,373.7365 C364.7142,380.19 361.7854,387.9538 356.4392,393.3 C351.0929,398.6463 343.3292,401.575 336.8757,401.4035 C330.4222,401.575 322.6585,398.6463 317.3122,393.3 C311.966,387.9538 309.0372,380.19 309.2088,373.7365" stroke="#000000" stroke-width="0.24" fill-opacity="0" />
  <path d="M331.4969,368.9256 C329.649,370.8272 329.1064,374.3089 330.2881,376.6826 C331.2696,379.1458 334.2264,381.0626 336.8757,380.9529 C339.525,381.0626 342.4818,379.1458 343.4633,376.6826 C344.645,374.3089 344.1024,370.8272 342.2545,368.9256 C344.1024,367.024 344.645,363.5423 343.4633,361.1686 C342.4818,358.7054 339.525,356.7887 336.8757,356.8983 C334.2264,356.7887 331.2696,358.7054 330.2881,361.1686 C329.1064,363.5423 329.649,367.024 331.4969,368.9256 z" stroke="#000000" stroke-width="0.24" fill-opacity="0" />
  <path d="M331.4969,329.476 C329.649,331.3776 329.1064,334.8593 330.2881,337.233 C331.2696,339.6962 334.2264,341.6129 336.8757,341.5033 C339.525,341.6129 342.4818,339.6962 343.4633,337.233 C344.645,334.8593 344.1024,331.3776 342.2545,329.476 C344.1024,327.5744 344.645,324.0927 343.4633,321.719 C342.4818,319.2558 339.525,317.3391 336.8757,317.4487 C334.2264,317.3391 331.2696,319.2558 330.2881,321.719 C329.1064,324.0927 329.649,327.5744 331.4969,329.476 z" stroke="#000000" stroke-width="0.24" fill-opacity="0" />
  <path d="M364.5427,332.7074 L364.5427,373.7366" stroke="#000000" stroke-width="0.24" fill-opacity="0" />
  <path d="M309.2088,373.7366 L309.113,332.8372" stroke="#000000" stroke-width="0.24" fill-opacity="0" />
</svg>