<?xml version="1.0" encoding="UTF-8" standalone="yes"?>
<!-- Created with sK1/UniConvertor (http://sk1project.org/) -->
<svg xmlns="http://www.w3.org/2000/svg" xmlns:xlink="http://www.w3.org/1999/xlink"
  width="595.276pt" height="841.89pt" viewBox="0 0 595.276 841.89"
  fill-rule="evenodd">
<g>
<path style="stroke:#000000; stroke-width:0.850394; stroke-linejoin:round; stroke-linecap:round; fill:none" d="M -13.9138 831.959C -13.9138 831.915 -13.9491 831.88 -13.9926 831.88C -14.036 831.88 -14.0713 831.915 -14.0713 831.959C -14.0713 832.002 -14.036 832.038 -13.9926 832.038C -13.9491 832.038 -13.9138 832.002 -13.9138 831.959z"/>
<path style="stroke:#000000; stroke-width:0.850394; stroke-linejoin:round; stroke-linecap:round; fill:none" d="M -15.685 830.126C -15.685 830.083 -15.7203 830.047 -15.7638 830.047C -15.8072 830.047 -15.8425 830.083 -15.8425 830.126C -15.8425 830.169 -15.8072 830.205 -15.7638 830.205C -15.7203 830.205 -15.685 830.169 -15.685 830.126z"/>
<path style="stroke:#000000; stroke-width:0.850394; stroke-linejoin:round; stroke-linecap:round; fill:none" d="M -13.0191 830.126C -13.0191 830.083 -13.0544 830.047 -13.0978 830.047C -13.1413 830.047 -13.1766 830.083 -13.1766 830.126C -13.1766 830.169 -13.1413 830.205 -13.0978 830.205C -13.0544 830.205 -13.0191 830.169 -13.0191 830.126z"/>
<path style="stroke:#000000; stroke-width:0.850394; stroke-linejoin:round; stroke-linecap:round; fill:none" d="M -11.9138 833.154C -11.9138 833.11 -11.9491 833.075 -11.9926 833.075C -12.036 833.075 -12.0713 833.11 -12.0713 833.154C -12.0713 833.197 -12.036 833.232 -11.9926 833.232C -11.9491 833.232 -11.9138 833.197 -11.9138 833.154z"/>
<path style="stroke:#000000; stroke-width:0.850394; stroke-linejoin:round; stroke-linecap:round; fill:none" d="M -10.0853 833.154C -10.0853 833.11 -10.1205 833.075 -10.164 833.075C -10.2075 833.075 -10.2427 833.11 -10.2427 833.154C -10.2427 833.197 -10.2075 833.232 -10.164 833.232C -10.1205 833.232 -10.0853 833.197 -10.0853 833.154z"/>
<path style="stroke:#000000; stroke-width:0.850394; stroke-linejoin:round; stroke-linecap:round; fill:none" d="M -9.08095 830.826C -9.08095 830.783 -9.11623 830.747 -9.15969 830.747C -9.20315 830.747 -9.23843 830.783 -9.23843 830.826C -9.23843 830.869 -9.20315 830.905 -9.15969 830.905C -9.11623 830.905 -9.08095 830.869 -9.08095 830.826z"/>
<path style="stroke:#000000; stroke-width:0.850394; stroke-linejoin:round; stroke-linecap:round; fill:none" d="M -9.08095 833.154C -9.08095 833.11 -9.11623 833.075 -9.15969 833.075C -9.20315 833.075 -9.23843 833.11 -9.23843 833.154C -9.23843 833.197 -9.20315 833.232 -9.15969 833.232C -9.11623 833.232 -9.08095 833.197 -9.08095 833.154z"/>
<path style="stroke:#000000; stroke-width:0.850394; stroke-linejoin:round; stroke-linecap:round; fill:none" d="M -10.0853 830.826C -10.0853 830.783 -10.1205 830.747 -10.164 830.747C -10.2075 830.747 -10.2427 830.783 -10.2427 830.826C -10.2427 830.869 -10.2075 830.905 -10.164 830.905C -10.1205 830.905 -10.0853 830.869 -10.0853 830.826z"/>
<path style="stroke:#000000; stroke-width:0.850394; stroke-linejoin:round; stroke-linecap:round; fill:none" d="M -3.06919 829.959L -3.93081 830.821L -4.09785 830.89L -5.34031 830.89L -5.50734 830.821L -5.66897 830.659L -5.836 830.59L -6.84031 830.59L -7.00734 830.659L -7.16897 830.821L -7.336 830.89L -8.664 830.89L -8.83103 830.821L -8.99266 830.659L -9.15969 830.59L -10.164 830.59L -10.331 830.659L -10.4927 830.821L -10.6597 830.89L -11.9022 830.89L -12.0692 830.821L -12.9308 829.959L -13.0978 829.89L -15.7638 829.89L -16 830.126L -16 831.292L -15.9308 831.459L -14.0692 833.321L -13.9022 833.39L -2.09785 833.39L -1.93081 833.321L -0.0691874 831.459L -9.6161e-16 831.292L 0 830.126L -0.23622 829.89L -2.90215 829.89L -3.06919 829.959z"/>
<path style="stroke:#000000; stroke-width:0.850394; stroke-linejoin:round; stroke-linecap:round; fill:none" d="M -5.75726 830.826C -5.75726 830.783 -5.79254 830.747 -5.836 830.747C -5.87947 830.747 -5.91474 830.783 -5.91474 830.826C -5.91474 830.869 -5.87947 830.905 -5.836 830.905C -5.79254 830.905 -5.75726 830.869 -5.75726 830.826z"/>
<path style="stroke:#000000; stroke-width:0.850394; stroke-linejoin:round; stroke-linecap:round; fill:none" d="M -6.76157 833.154C -6.76157 833.11 -6.79685 833.075 -6.84031 833.075C -6.88377 833.075 -6.91905 833.11 -6.91905 833.154C -6.91905 833.197 -6.88377 833.232 -6.84031 833.232C -6.79685 833.232 -6.76157 833.197 -6.76157 833.154z"/>
<path style="stroke:#000000; stroke-width:0.850394; stroke-linejoin:round; stroke-linecap:round; fill:none" d="M -6.76157 830.826C -6.76157 830.783 -6.79685 830.747 -6.84031 830.747C -6.88377 830.747 -6.91905 830.783 -6.91905 830.826C -6.91905 830.869 -6.88377 830.905 -6.84031 830.905C -6.79685 830.905 -6.76157 830.869 -6.76157 830.826z"/>
<path style="stroke:#000000; stroke-width:0.850394; stroke-linejoin:round; stroke-linecap:round; fill:none" d="M -5.75726 833.154C -5.75726 833.11 -5.79254 833.075 -5.836 833.075C -5.87947 833.075 -5.91474 833.11 -5.91474 833.154C -5.91474 833.197 -5.87947 833.232 -5.836 833.232C -5.79254 833.232 -5.75726 833.197 -5.75726 833.154z"/>
<path style="stroke:#000000; stroke-width:0.850394; stroke-linejoin:round; stroke-linecap:round; fill:none" d="M -3.92871 833.154C -3.92871 833.11 -3.96399 833.075 -4.00745 833.075C -4.05091 833.075 -4.08619 833.11 -4.08619 833.154C -4.08619 833.197 -4.05091 833.232 -4.00745 833.232C -3.96399 833.232 -3.92871 833.197 -3.92871 833.154z"/>
<path style="stroke:#000000; stroke-width:0.850394; stroke-linejoin:round; stroke-linecap:round; fill:none" d="M -2.82341 830.126C -2.82341 830.083 -2.85869 830.047 -2.90215 830.047C -2.94562 830.047 -2.98089 830.083 -2.98089 830.126C -2.98089 830.169 -2.94562 830.205 -2.90215 830.205C -2.85869 830.205 -2.82341 830.169 -2.82341 830.126z"/>
<path style="stroke:#000000; stroke-width:0.850394; stroke-linejoin:round; stroke-linecap:round; fill:none" d="M -0.15748 830.126C -0.15748 830.083 -0.192758 830.047 -0.23622 830.047C -0.279683 830.047 -0.314961 830.083 -0.314961 830.126C -0.314961 830.169 -0.279683 830.205 -0.23622 830.205C -0.192758 830.205 -0.15748 830.169 -0.15748 830.126z"/>
<path style="stroke:#000000; stroke-width:0.850394; stroke-linejoin:round; stroke-linecap:round; fill:none" d="M -1.92871 831.959C -1.92871 831.915 -1.96399 831.88 -2.00745 831.88C -2.05091 831.88 -2.08619 831.915 -2.08619 831.959C -2.08619 832.002 -2.05091 832.038 -2.00745 832.038C -1.96399 832.038 -1.92871 832.002 -1.92871 831.959z"/>
</g>
</svg>