<?xml version="1.0" encoding="UTF-8" standalone="no"?>
<!DOCTYPE svg PUBLIC "-//W3C//DTD SVG 1.1//EN" "http://www.w3.org/Graphics/SVG/1.1/DTD/svg11.dtd">
<svg width="612pt" height="792pt" viewBox="0 0 612 792" overflow="visible" version="1.1" xmlns="http://www.w3.org/2000/svg">
  <path d="M353.3853,445.1651 L353.3853,450.1213 L319.0012,450.1213 L319.0012,445.1651 z" stroke="#FFBF00" stroke-width="0.24" fill-opacity="0" />
  <path d="M319.0012,445.1651 L319.0012,450.1213 L284.6236,455.7359 L284.6236,439.5504 z" stroke="#FF0000" stroke-width="0.24" fill-opacity="0" />
  <path d="M252.2525,435.9536 L252.2525,439.5504 L281.0268,439.5504 L281.0268,435.9536 L284.6236,435.9536 L284.6236,455.7359 L272.0348,455.7359 L272.0348,459.3327 L268.438,459.3327 L268.438,455.7359 L248.6557,455.7359 L248.6557,439.5504 L248.6557,435.9536 L252.2525,435.9536 L252.2525,439.5504" stroke="#000000" stroke-width="0.24" fill-opacity="0" />
  <path d="M248.6557,510.5869 L248.6557,384.6994" stroke="#00FF00" stroke-width="0.24" fill-opacity="0" />
  <path d="M353.3853,450.1213 L353.3853,445.1651 L248.6557,384.6994" stroke="#00FF00" stroke-width="0.24" fill-opacity="0" />
  <path d="M248.6557,510.5869 L353.3853,450.1213" stroke="#00FF00" stroke-width="0.24" fill-opacity="0" />
</svg>