<?xml version="1.0" encoding="UTF-8" standalone="yes"?>
<!-- Created with sK1/UniConvertor (http://sk1project.org/) -->
<svg xmlns="http://www.w3.org/2000/svg" xmlns:xlink="http://www.w3.org/1999/xlink"
  width="595.276pt" height="841.89pt" viewBox="0 0 595.276 841.89"
  fill-rule="evenodd">
<g>
<path style="stroke:#000000; stroke-width:0.850394; stroke-linejoin:round; stroke-linecap:round; fill:none" d="M 7.0665 831.959C 7.0665 831.557 6.74018 831.231 6.33816 831.231C 5.93613 831.231 5.60981 831.557 5.60981 831.959C 5.60981 832.361 5.93613 832.687 6.33816 832.687C 6.74018 832.687 7.0665 832.361 7.0665 831.959z"/>
<path style="stroke:#000000; stroke-width:0.850394; stroke-linejoin:round; stroke-linecap:round; fill:none" d="M 5.91474 830.826C 5.91474 830.783 5.87947 830.747 5.836 830.747C 5.79254 830.747 5.75726 830.783 5.75726 830.826C 5.75726 830.869 5.79254 830.905 5.836 830.905C 5.87947 830.905 5.91474 830.869 5.91474 830.826z"/>
<path style="stroke:#000000; stroke-width:0.850394; stroke-linejoin:round; stroke-linecap:round; fill:none" d="M 6.91905 833.154C 6.91905 833.11 6.88377 833.075 6.84031 833.075C 6.79685 833.075 6.76157 833.11 6.76157 833.154C 6.76157 833.197 6.79685 833.232 6.84031 833.232C 6.88377 833.232 6.91905 833.197 6.91905 833.154z"/>
<path style="stroke:#000000; stroke-width:0.850394; stroke-linejoin:round; stroke-linecap:round; fill:none" d="M 6.91905 830.826C 6.91905 830.783 6.88377 830.747 6.84031 830.747C 6.79685 830.747 6.76157 830.783 6.76157 830.826C 6.76157 830.869 6.79685 830.905 6.84031 830.905C 6.88377 830.905 6.91905 830.869 6.91905 830.826z"/>
<path style="stroke:#000000; stroke-width:0.850394; stroke-linejoin:round; stroke-linecap:round; fill:none" d="M 5.91474 833.154C 5.91474 833.11 5.87947 833.075 5.836 833.075C 5.79254 833.075 5.75726 833.11 5.75726 833.154C 5.75726 833.197 5.79254 833.232 5.836 833.232C 5.87947 833.232 5.91474 833.197 5.91474 833.154z"/>
<path style="stroke:#000000; stroke-width:0.850394; stroke-linejoin:round; stroke-linecap:round; fill:none" d="M 7.04682 832.589C 7.04682 832.545 7.01154 832.51 6.96808 832.51C 6.92462 832.51 6.88934 832.545 6.88934 832.589C 6.88934 832.632 6.92462 832.668 6.96808 832.668C 7.01154 832.668 7.04682 832.632 7.04682 832.589z"/>
<path style="stroke:#000000; stroke-width:0.850394; stroke-linejoin:round; stroke-linecap:round; fill:none" d="M 5.78698 832.589C 5.78698 832.545 5.7517 832.51 5.70824 832.51C 5.66477 832.51 5.6295 832.545 5.6295 832.589C 5.6295 832.632 5.66477 832.668 5.70824 832.668C 5.7517 832.668 5.78698 832.632 5.78698 832.589z"/>
<path style="stroke:#000000; stroke-width:0.850394; stroke-linejoin:round; stroke-linecap:round; fill:none" d="M 5.78698 831.329C 5.78698 831.286 5.7517 831.25 5.70824 831.25C 5.66477 831.25 5.6295 831.286 5.6295 831.329C 5.6295 831.372 5.66477 831.408 5.70824 831.408C 5.7517 831.408 5.78698 831.372 5.78698 831.329z"/>
<path style="stroke:#000000; stroke-width:0.850394; stroke-linejoin:round; stroke-linecap:round; fill:none" d="M 7.04682 831.329C 7.04682 831.286 7.01154 831.25 6.96808 831.25C 6.92462 831.25 6.88934 831.286 6.88934 831.329C 6.88934 831.372 6.92462 831.408 6.96808 831.408C 7.01154 831.408 7.04682 831.372 7.04682 831.329z"/>
<path style="stroke:#000000; stroke-width:0.850394; stroke-linejoin:round; stroke-linecap:round; fill:none" d="M 4.08619 833.154C 4.08619 833.11 4.05091 833.075 4.00745 833.075C 3.96399 833.075 3.92871 833.11 3.92871 833.154C 3.92871 833.197 3.96399 833.232 4.00745 833.232C 4.05091 833.232 4.08619 833.197 4.08619 833.154z"/>
<path style="stroke:#000000; stroke-width:0.850394; stroke-linejoin:round; stroke-linecap:round; fill:none" d="M 2.98089 830.126C 2.98089 830.083 2.94562 830.047 2.90215 830.047C 2.85869 830.047 2.82341 830.083 2.82341 830.126C 2.82341 830.169 2.85869 830.205 2.90215 830.205C 2.94562 830.205 2.98089 830.169 2.98089 830.126z"/>
<path style="stroke:#000000; stroke-width:0.850394; stroke-linejoin:round; stroke-linecap:round; fill:none" d="M 0.314961 830.126C 0.314961 830.083 0.279683 830.047 0.23622 830.047C 0.192758 830.047 0.15748 830.083 0.15748 830.126C 0.15748 830.169 0.192758 830.205 0.23622 830.205C 0.279683 830.205 0.314961 830.169 0.314961 830.126z"/>
<path style="stroke:#000000; stroke-width:0.850394; stroke-linejoin:round; stroke-linecap:round; fill:none" d="M 2.08619 831.959C 2.08619 831.915 2.05091 831.88 2.00745 831.88C 1.96399 831.88 1.92871 831.915 1.92871 831.959C 1.92871 832.002 1.96399 832.038 2.00745 832.038C 2.05091 832.038 2.08619 832.002 2.08619 831.959z"/>
<path style="stroke:#000000; stroke-width:0.850394; stroke-linejoin:round; stroke-linecap:round; fill:none" d="M 4.97402 831.959C 4.97402 831.915 4.93874 831.88 4.89528 831.88C 4.85181 831.88 4.81654 831.915 4.81654 831.959C 4.81654 832.002 4.85181 832.038 4.89528 832.038C 4.93874 832.038 4.97402 832.002 4.97402 831.959z"/>
<path style="stroke:#000000; stroke-width:0.850394; stroke-linejoin:round; stroke-linecap:round; fill:none" d="M 4.97402 832.589C 4.97402 832.545 4.93874 832.51 4.89528 832.51C 4.85181 832.51 4.81654 832.545 4.81654 832.589C 4.81654 832.632 4.85181 832.668 4.89528 832.668C 4.93874 832.668 4.97402 832.632 4.97402 832.589z"/>
<path style="stroke:#000000; stroke-width:0.850394; stroke-linejoin:round; stroke-linecap:round; fill:none" d="M 4.97402 831.329C 4.97402 831.286 4.93874 831.25 4.89528 831.25C 4.85181 831.25 4.81654 831.286 4.81654 831.329C 4.81654 831.372 4.85181 831.408 4.89528 831.408C 4.93874 831.408 4.97402 831.372 4.97402 831.329z"/>
<path style="stroke:#000000; stroke-width:0.850394; stroke-linejoin:round; stroke-linecap:round; fill:none" d="M 11.1835 831.329C 11.1835 831.286 11.1482 831.25 11.1047 831.25C 11.0613 831.25 11.026 831.286 11.026 831.329C 11.026 831.372 11.0613 831.408 11.1047 831.408C 11.1482 831.408 11.1835 831.372 11.1835 831.329z"/>
<path style="stroke:#000000; stroke-width:0.850394; stroke-linejoin:round; stroke-linecap:round; fill:none" d="M 11.1835 832.589C 11.1835 832.545 11.1482 832.51 11.1047 832.51C 11.0613 832.51 11.026 832.545 11.026 832.589C 11.026 832.632 11.0613 832.668 11.1047 832.668C 11.1482 832.668 11.1835 832.632 11.1835 832.589z"/>
<path style="stroke:#000000; stroke-width:0.850394; stroke-linejoin:round; stroke-linecap:round; fill:none" d="M 11.1835 831.959C 11.1835 831.915 11.1482 831.88 11.1047 831.88C 11.0613 831.88 11.026 831.915 11.026 831.959C 11.026 832.002 11.0613 832.038 11.1047 832.038C 11.1482 832.038 11.1835 832.002 11.1835 831.959z"/>
<path style="stroke:#000000; stroke-width:0.850394; stroke-linejoin:round; stroke-linecap:round; fill:none" d="M 14.0713 831.959C 14.0713 831.915 14.036 831.88 13.9926 831.88C 13.9491 831.88 13.9138 831.915 13.9138 831.959C 13.9138 832.002 13.9491 832.038 13.9926 832.038C 14.036 832.038 14.0713 832.002 14.0713 831.959z"/>
<path style="stroke:#000000; stroke-width:0.850394; stroke-linejoin:round; stroke-linecap:round; fill:none" d="M 15.8425 830.126C 15.8425 830.083 15.8072 830.047 15.7638 830.047C 15.7203 830.047 15.685 830.083 15.685 830.126C 15.685 830.169 15.7203 830.205 15.7638 830.205C 15.8072 830.205 15.8425 830.169 15.8425 830.126z"/>
<path style="stroke:#000000; stroke-width:0.850394; stroke-linejoin:round; stroke-linecap:round; fill:none" d="M 13.1766 830.126C 13.1766 830.083 13.1413 830.047 13.0978 830.047C 13.0544 830.047 13.0191 830.083 13.0191 830.126C 13.0191 830.169 13.0544 830.205 13.0978 830.205C 13.1413 830.205 13.1766 830.169 13.1766 830.126z"/>
<path style="stroke:#000000; stroke-width:0.850394; stroke-linejoin:round; stroke-linecap:round; fill:none" d="M 12.0713 833.154C 12.0713 833.11 12.036 833.075 11.9926 833.075C 11.9491 833.075 11.9138 833.11 11.9138 833.154C 11.9138 833.197 11.9491 833.232 11.9926 833.232C 12.036 833.232 12.0713 833.197 12.0713 833.154z"/>
<path style="stroke:#000000; stroke-width:0.850394; stroke-linejoin:round; stroke-linecap:round; fill:none" d="M 9.11066 831.329C 9.11066 831.286 9.07538 831.25 9.03192 831.25C 8.98846 831.25 8.95318 831.286 8.95318 831.329C 8.95318 831.372 8.98846 831.408 9.03192 831.408C 9.07538 831.408 9.11066 831.372 9.11066 831.329z"/>
<path style="stroke:#000000; stroke-width:0.850394; stroke-linejoin:round; stroke-linecap:round; fill:none" d="M 10.3705 831.329C 10.3705 831.286 10.3352 831.25 10.2918 831.25C 10.2483 831.25 10.213 831.286 10.213 831.329C 10.213 831.372 10.2483 831.408 10.2918 831.408C 10.3352 831.408 10.3705 831.372 10.3705 831.329z"/>
<path style="stroke:#000000; stroke-width:0.850394; stroke-linejoin:round; stroke-linecap:round; fill:none" d="M 10.3705 832.589C 10.3705 832.545 10.3352 832.51 10.2918 832.51C 10.2483 832.51 10.213 832.545 10.213 832.589C 10.213 832.632 10.2483 832.668 10.2918 832.668C 10.3352 832.668 10.3705 832.632 10.3705 832.589z"/>
<path style="stroke:#000000; stroke-width:0.850394; stroke-linejoin:round; stroke-linecap:round; fill:none" d="M 9.11066 832.589C 9.11066 832.545 9.07538 832.51 9.03192 832.51C 8.98846 832.51 8.95318 832.545 8.95318 832.589C 8.95318 832.632 8.98846 832.668 9.03192 832.668C 9.07538 832.668 9.11066 832.632 9.11066 832.589z"/>
<path style="stroke:#000000; stroke-width:0.850394; stroke-linejoin:round; stroke-linecap:round; fill:none" d="M 12.9308 829.959L 12.0692 830.821L 11.9022 830.89L 10.6597 830.89L 10.4927 830.821L 10.331 830.659L 10.164 830.59L 9.15969 830.59L 8.99266 830.659L 8.83103 830.821L 8.664 830.89L 7.336 830.89L 7.16897 830.821L 7.00734 830.659L 6.84031 830.59L 5.836 830.59L 5.66897 830.659L 5.50734 830.821L 5.34031 830.89L 4.09785 830.89L 3.93081 830.821L 3.06919 829.959L 2.90215 829.89L 0.23622 829.89L 4.37096e-16 830.126L 0 831.292L 0.0691874 831.459L 1.93081 833.321L 2.09785 833.39L 13.9022 833.39L 14.0692 833.321L 15.9308 831.459L 16 831.292L 16 830.126L 15.7638 829.89L 13.0978 829.89L 12.9308 829.959z"/>
<path style="stroke:#000000; stroke-width:0.850394; stroke-linejoin:round; stroke-linecap:round; fill:none" d="M 10.2427 833.154C 10.2427 833.11 10.2075 833.075 10.164 833.075C 10.1205 833.075 10.0853 833.11 10.0853 833.154C 10.0853 833.197 10.1205 833.232 10.164 833.232C 10.2075 833.232 10.2427 833.197 10.2427 833.154z"/>
<path style="stroke:#000000; stroke-width:0.850394; stroke-linejoin:round; stroke-linecap:round; fill:none" d="M 9.23843 830.826C 9.23843 830.783 9.20315 830.747 9.15969 830.747C 9.11623 830.747 9.08095 830.783 9.08095 830.826C 9.08095 830.869 9.11623 830.905 9.15969 830.905C 9.20315 830.905 9.23843 830.869 9.23843 830.826z"/>
<path style="stroke:#000000; stroke-width:0.850394; stroke-linejoin:round; stroke-linecap:round; fill:none" d="M 9.23843 833.154C 9.23843 833.11 9.20315 833.075 9.15969 833.075C 9.11623 833.075 9.08095 833.11 9.08095 833.154C 9.08095 833.197 9.11623 833.232 9.15969 833.232C 9.20315 833.232 9.23843 833.197 9.23843 833.154z"/>
<path style="stroke:#000000; stroke-width:0.850394; stroke-linejoin:round; stroke-linecap:round; fill:none" d="M 10.2427 830.826C 10.2427 830.783 10.2075 830.747 10.164 830.747C 10.1205 830.747 10.0853 830.783 10.0853 830.826C 10.0853 830.869 10.1205 830.905 10.164 830.905C 10.2075 830.905 10.2427 830.869 10.2427 830.826z"/>
<path style="stroke:#000000; stroke-width:0.850394; stroke-linejoin:round; stroke-linecap:round; fill:none" d="M 10.3902 831.959C 10.3902 831.557 10.0639 831.231 9.66184 831.231C 9.25982 831.231 8.9335 831.557 8.9335 831.959C 8.9335 832.361 9.25982 832.687 9.66184 832.687C 10.0639 832.687 10.3902 832.361 10.3902 831.959z"/>
</g>
</svg>