<?xml version="1.0" encoding="UTF-8" standalone="no"?>
<!DOCTYPE svg PUBLIC "-//W3C//DTD SVG 1.1//EN" "http://www.w3.org/Graphics/SVG/1.1/DTD/svg11.dtd">
<svg width="612pt" height="792pt" viewBox="0 0 612 792" overflow="visible" version="1.1" xmlns="http://www.w3.org/2000/svg">
  <path d="M403.6342,328.339 L388.1709,343.8024 C386.8162,345.4627 383.3983,345.4627 382.0437,343.8024 L379.4192,341.1779 C378.646,340.3837 377.4639,339.8941 376.3556,339.9089 L357.9354,339.9089 C356.8271,339.8941 355.645,340.3837 354.8718,341.1779 L351.9073,344.1423 C351.1342,344.9364 349.9521,345.4261 348.8438,345.4113 L301.0187,345.4113 C299.9104,345.4261 298.7283,344.9364 297.9551,344.1423 L294.9907,341.1779 C294.2175,340.3837 293.0354,339.8941 291.9271,339.9089 L273.5069,339.9089 C272.3986,339.8941 271.2165,340.3837 270.4433,341.1779 L267.4789,344.1423 C266.7057,344.9364 265.5236,345.4261 264.4153,345.4113 L241.627,345.4113 C240.5187,345.4261 239.3366,344.9364 238.5634,344.1423 L222.7601,328.339 C221.9869,327.5449 220.8048,327.0552 219.6965,327.07 L170.8001,327.07 C168.6682,326.8539 166.2514,329.2707 166.4675,331.4026 L166.4675,352.7873 C166.4527,353.8955 166.9424,355.0776 167.7365,355.8508 L201.881,389.9953 C202.6542,390.7894 203.8363,391.2791 204.9445,391.2643 L421.4498,391.2643 C422.5581,391.2791 423.7402,390.7894 424.5134,389.9953 L458.6579,355.8508 C459.452,355.0776 459.9417,353.8955 459.9268,352.7873 L459.9268,331.4026 C460.143,329.2707 457.7262,326.8539 455.5943,327.07 L406.6978,327.07 C405.5895,327.0552 404.4074,327.5449 403.6342,328.339 z" stroke="#000000" stroke-width="0.24" fill-opacity="0" />
  <path d="M359.3795,344.2415 C359.4516,343.5308 358.646,342.7252 357.9354,342.7973 C357.2247,342.7252 356.4191,343.5308 356.4911,344.2415 C356.4191,344.9521 357.2247,345.7577 357.9354,345.6856 C358.646,345.7577 359.4516,344.9521 359.3795,344.2415 z" stroke="#000000" stroke-width="0.24" fill-opacity="0" />
  <path d="M377.7998,344.2415 C377.8718,343.5308 377.0662,342.7252 376.3556,342.7973 C375.6449,342.7252 374.8394,343.5308 374.9114,344.2415 C374.8394,344.9521 375.6449,345.7577 376.3556,345.6856 C377.0662,345.7577 377.8718,344.9521 377.7998,344.2415 z" stroke="#000000" stroke-width="0.24" fill-opacity="0" />
  <path d="M282.717,351.6627 C276.1436,350.9963 268.6918,358.448 269.3582,365.0215 C268.6918,371.5948 276.1436,379.0466 282.717,378.3802 C289.2904,379.0466 296.7421,371.5948 296.0757,365.0215 C296.7421,358.448 289.2904,350.9963 282.717,351.6627 z" stroke="#000000" stroke-width="0.24" fill-opacity="0" />
  <path d="M274.951,344.2415 C275.0231,343.5308 274.2175,342.7252 273.5069,342.7973 C272.7962,342.7252 271.9906,343.5308 272.0627,344.2415 C271.9906,344.9521 272.7962,345.7577 273.5069,345.6856 C274.2175,345.7577 275.0231,344.9521 274.951,344.2415 z" stroke="#000000" stroke-width="0.24" fill-opacity="0" />
  <path d="M293.3713,386.9317 C293.4433,386.2211 292.6377,385.4155 291.9271,385.4875 C291.2165,385.4155 290.4109,386.2211 290.4829,386.9317 C290.4109,387.6423 291.2165,388.4479 291.9271,388.3759 C292.6377,388.4479 293.4433,387.6423 293.3713,386.9317 z" stroke="#000000" stroke-width="0.24" fill-opacity="0" />
  <path d="M293.3713,344.2415 C293.4433,343.5308 292.6377,342.7252 291.9271,342.7973 C291.2165,342.7252 290.4109,343.5308 290.4829,344.2415 C290.4109,344.9521 291.2165,345.7577 291.9271,345.6856 C292.6377,345.7577 293.4433,344.9521 293.3713,344.2415 z" stroke="#000000" stroke-width="0.24" fill-opacity="0" />
  <path d="M274.951,386.9317 C275.0231,386.2211 274.2175,385.4155 273.5069,385.4875 C272.7962,385.4155 271.9906,386.2211 272.0627,386.9317 C271.9906,387.6423 272.7962,388.4479 273.5069,388.3759 C274.2175,388.4479 275.0231,387.6423 274.951,386.9317 z" stroke="#000000" stroke-width="0.24" fill-opacity="0" />
  <path d="M295.7147,376.575 C295.7867,375.8643 294.9811,375.0587 294.2705,375.1308 C293.5598,375.0587 292.7543,375.8643 292.8263,376.575 C292.7543,377.2856 293.5598,378.0912 294.2705,378.0191 C294.9811,378.0912 295.7867,377.2856 295.7147,376.575 z" stroke="#000000" stroke-width="0.24" fill-opacity="0" />
  <path d="M272.6076,376.575 C272.6797,375.8643 271.8741,375.0587 271.1635,375.1308 C270.4528,375.0587 269.6472,375.8643 269.7193,376.575 C269.6472,377.2856 270.4528,378.0912 271.1635,378.0191 C271.8741,378.0912 272.6797,377.2856 272.6076,376.575 z" stroke="#000000" stroke-width="0.24" fill-opacity="0" />
  <path d="M272.6076,353.4679 C272.6797,352.7573 271.8741,351.9517 271.1635,352.0237 C270.4528,351.9517 269.6472,352.7573 269.7193,353.4679 C269.6472,354.1786 270.4528,354.9842 271.1635,354.9121 C271.8741,354.9842 272.6797,354.1786 272.6076,353.4679 z" stroke="#000000" stroke-width="0.24" fill-opacity="0" />
  <path d="M295.7147,353.4679 C295.7867,352.7573 294.9811,351.9517 294.2705,352.0237 C293.5598,351.9517 292.7543,352.7573 292.8263,353.4679 C292.7543,354.1786 293.5598,354.9842 294.2705,354.9121 C294.9811,354.9842 295.7867,354.1786 295.7147,353.4679 z" stroke="#000000" stroke-width="0.24" fill-opacity="0" />
  <path d="M241.4132,386.9317 C241.4852,386.2211 240.6796,385.4155 239.969,385.4875 C239.2583,385.4155 238.4527,386.2211 238.5248,386.9317 C238.4527,387.6423 239.2583,388.4479 239.969,388.3759 C240.6796,388.4479 241.4852,387.6423 241.4132,386.9317 z" stroke="#000000" stroke-width="0.24" fill-opacity="0" />
  <path d="M221.1407,331.4026 C221.2128,330.692 220.4072,329.8864 219.6965,329.9584 C218.9859,329.8864 218.1803,330.692 218.2523,331.4026 C218.1803,332.1133 218.9859,332.9189 219.6965,332.8468 C220.4072,332.9189 221.2128,332.1133 221.1407,331.4026 z" stroke="#000000" stroke-width="0.24" fill-opacity="0" />
  <path d="M170.8001,329.9584 C170.0895,329.8864 169.2839,330.692 169.3559,331.4026 C169.2839,332.1133 170.0895,332.9189 170.8001,332.8468 C171.5107,332.9189 172.3163,332.1133 172.2443,331.4026 C172.3163,330.692 171.5107,329.8864 170.8001,329.9584 z" stroke="#000000" stroke-width="0.24" fill-opacity="0" />
  <path d="M204.7307,365.0215 C204.8028,364.3108 203.9972,363.5052 203.2866,363.5772 C202.5759,363.5052 201.7703,364.3108 201.8424,365.0215 C201.7703,365.7321 202.5759,366.5377 203.2866,366.4656 C203.9972,366.5377 204.8028,365.7321 204.7307,365.0215 z" stroke="#000000" stroke-width="0.24" fill-opacity="0" />
  <path d="M257.697,365.0215 C257.769,364.3108 256.9634,363.5052 256.2528,363.5772 C255.5422,363.5052 254.7366,364.3108 254.8086,365.0215 C254.7366,365.7321 255.5422,366.5377 256.2528,366.4656 C256.9634,366.5377 257.769,365.7321 257.697,365.0215 z" stroke="#000000" stroke-width="0.24" fill-opacity="0" />
  <path d="M257.697,376.575 C257.769,375.8643 256.9634,375.0587 256.2528,375.1308 C255.5422,375.0587 254.7366,375.8643 254.8086,376.575 C254.7366,377.2856 255.5422,378.0912 256.2528,378.0191 C256.9634,378.0912 257.769,377.2856 257.697,376.575 z" stroke="#000000" stroke-width="0.24" fill-opacity="0" />
  <path d="M257.697,353.4679 C257.769,352.7573 256.9634,351.9517 256.2528,352.0237 C255.5422,351.9517 254.7366,352.7573 254.8086,353.4679 C254.7366,354.1786 255.5422,354.9842 256.2528,354.9121 C256.9634,354.9842 257.769,354.1786 257.697,353.4679 z" stroke="#000000" stroke-width="0.24" fill-opacity="0" />
  <path d="M395.0538,353.4679 C395.1259,352.7573 394.3203,351.9517 393.6096,352.0237 C392.899,351.9517 392.0934,352.7573 392.1655,353.4679 C392.0934,354.1786 392.899,354.9842 393.6096,354.9121 C394.3203,354.9842 395.1259,354.1786 395.0538,353.4679 z" stroke="#000000" stroke-width="0.24" fill-opacity="0" />
  <path d="M395.0538,376.575 C395.1259,375.8643 394.3203,375.0587 393.6096,375.1308 C392.899,375.0587 392.0934,375.8643 392.1655,376.575 C392.0934,377.2856 392.899,378.0912 393.6096,378.0191 C394.3203,378.0912 395.1259,377.2856 395.0538,376.575 z" stroke="#000000" stroke-width="0.24" fill-opacity="0" />
  <path d="M395.0538,365.0215 C395.1259,364.3108 394.3203,363.5052 393.6096,363.5772 C392.899,363.5052 392.0934,364.3108 392.1655,365.0215 C392.0934,365.7321 392.899,366.5377 393.6096,366.4656 C394.3203,366.5377 395.1259,365.7321 395.0538,365.0215 z" stroke="#000000" stroke-width="0.24" fill-opacity="0" />
  <path d="M424.552,365.0215 C424.6241,364.3108 423.8185,363.5052 423.1078,363.5772 C422.3972,363.5052 421.5916,364.3108 421.6636,365.0215 C421.5916,365.7321 422.3972,366.5377 423.1078,366.4656 C423.8185,366.5377 424.6241,365.7321 424.552,365.0215 z" stroke="#000000" stroke-width="0.24" fill-opacity="0" />
  <path d="M357.0361,353.4679 C357.1082,352.7573 356.3026,351.9517 355.5919,352.0237 C354.8813,351.9517 354.0757,352.7573 354.1478,353.4679 C354.0757,354.1786 354.8813,354.9842 355.5919,354.9121 C356.3026,354.9842 357.1082,354.1786 357.0361,353.4679 z" stroke="#000000" stroke-width="0.24" fill-opacity="0" />
  <path d="M380.1432,353.4679 C380.2152,352.7573 379.4096,351.9517 378.699,352.0237 C377.9883,351.9517 377.1827,352.7573 377.2548,353.4679 C377.1827,354.1786 377.9883,354.9842 378.699,354.9121 C379.4096,354.9842 380.2152,354.1786 380.1432,353.4679 z" stroke="#000000" stroke-width="0.24" fill-opacity="0" />
  <path d="M380.1432,376.575 C380.2152,375.8643 379.4096,375.0587 378.699,375.1308 C377.9883,375.0587 377.1827,375.8643 377.2548,376.575 C377.1827,377.2856 377.9883,378.0912 378.699,378.0191 C379.4096,378.0912 380.2152,377.2856 380.1432,376.575 z" stroke="#000000" stroke-width="0.24" fill-opacity="0" />
  <path d="M357.0361,376.575 C357.1082,375.8643 356.3026,375.0587 355.5919,375.1308 C354.8813,375.0587 354.0757,375.8643 354.1478,376.575 C354.0757,377.2856 354.8813,378.0912 355.5919,378.0191 C356.3026,378.0912 357.1082,377.2856 357.0361,376.575 z" stroke="#000000" stroke-width="0.24" fill-opacity="0" />
  <path d="M377.7998,386.9317 C377.8718,386.2211 377.0662,385.4155 376.3556,385.4875 C375.6449,385.4155 374.8394,386.2211 374.9114,386.9317 C374.8394,387.6423 375.6449,388.4479 376.3556,388.3759 C377.0662,388.4479 377.8718,387.6423 377.7998,386.9317 z" stroke="#000000" stroke-width="0.24" fill-opacity="0" />
  <path d="M359.3795,386.9317 C359.4516,386.2211 358.646,385.4155 357.9354,385.4875 C357.2247,385.4155 356.4191,386.2211 356.4911,386.9317 C356.4191,387.6423 357.2247,388.4479 357.9354,388.3759 C358.646,388.4479 359.4516,387.6423 359.3795,386.9317 z" stroke="#000000" stroke-width="0.24" fill-opacity="0" />
  <path d="M367.1455,351.6627 C360.5721,350.9963 353.1203,358.448 353.7867,365.0215 C353.1203,371.5948 360.5721,379.0466 367.1455,378.3802 C373.7189,379.0466 381.1706,371.5948 380.5042,365.0215 C381.1706,358.448 373.7189,350.9963 367.1455,351.6627 z" stroke="#000000" stroke-width="0.24" fill-opacity="0" />
  <path d="M429.7018,331.4026 C429.7738,330.692 428.9682,329.8864 428.2576,329.9584 C427.5469,329.8864 426.7413,330.692 426.8134,331.4026 C426.7413,332.1133 427.5469,332.9189 428.2576,332.8468 C428.9682,332.9189 429.7738,332.1133 429.7018,331.4026 z" stroke="#000000" stroke-width="0.24" fill-opacity="0" />
  <path d="M435.4785,331.4026 C435.5506,330.692 434.745,329.8864 434.0343,329.9584 C433.3237,329.8864 432.5181,330.692 432.5901,331.4026 C432.5181,332.1133 433.3237,332.9189 434.0343,332.8468 C434.745,332.9189 435.5506,332.1133 435.4785,331.4026 z" stroke="#000000" stroke-width="0.24" fill-opacity="0" />
  <path d="M451.3646,329.9584 C450.654,329.8864 449.8484,330.692 449.9204,331.4026 C449.8484,332.1133 450.654,332.9189 451.3646,332.8468 C452.0752,332.9189 452.8808,332.1133 452.8088,331.4026 C452.8808,330.692 452.0752,329.8864 451.3646,329.9584 z" stroke="#000000" stroke-width="0.24" fill-opacity="0" />
  <path d="M412.3717,331.4026 C412.4437,330.692 411.6381,329.8864 410.9275,329.9584 C410.2169,329.8864 409.4113,330.692 409.4833,331.4026 C409.4113,332.1133 410.2169,332.9189 410.9275,332.8468 C411.6381,332.9189 412.4437,332.1133 412.3717,331.4026 z" stroke="#000000" stroke-width="0.24" fill-opacity="0" />
</svg>