<?xml version="1.0" encoding="UTF-8" standalone="no"?>
<!DOCTYPE svg PUBLIC "-//W3C//DTD SVG 1.1//EN" "http://www.w3.org/Graphics/SVG/1.1/DTD/svg11.dtd">
<svg width="612pt" height="792pt" viewBox="0 0 612 792" overflow="visible" version="1.1" xmlns="http://www.w3.org/2000/svg">
  <path d="M553.4698,388.5754 L561.6783,388.5749 L561.9461,388.7295 L566.0508,395.838 L566.0508,396.1472 L561.947,403.2561 L561.6792,403.4107 L553.4708,403.4113 L553.203,403.2567 L549.0983,396.1482 L549.0983,395.839 L553.2021,388.73 z" stroke="#000000" stroke-width="0.24" fill-opacity="0" />
  <path d="M540.6182,374.8 C538.5325,374.5886 536.168,376.9531 536.3795,379.0388 C536.168,381.1246 538.5325,383.4891 540.6182,383.2777 C542.704,383.4891 545.0685,381.1246 544.8571,379.0388 C545.0685,376.9531 542.704,374.5886 540.6182,374.8 z" stroke="#000000" stroke-width="0.24" fill-opacity="0" />
  <path d="M540.6204,408.7106 C538.5345,408.4991 536.17,410.8636 536.3815,412.9494 C536.17,415.0352 538.5345,417.3997 540.6204,417.1882 C542.7061,417.3997 545.0706,415.0352 544.8591,412.9494 C545.0706,410.8636 542.7061,408.4991 540.6204,408.7106 z" stroke="#000000" stroke-width="0.24" fill-opacity="0" />
  <path d="M527.9018,379.0399 C528.1133,376.9541 525.7488,374.5896 523.663,374.8011 C521.5772,374.5896 519.2127,376.9541 519.4242,379.0399 C519.2127,381.1257 521.5772,383.4902 523.663,383.2787 C525.7488,383.4902 528.1133,381.1257 527.9018,379.0399 z" stroke="#000000" stroke-width="0.24" fill-opacity="0" />
  <path d="M527.9039,412.9504 C528.1154,410.8646 525.7509,408.5002 523.6651,408.7116 C521.5793,408.5002 519.2148,410.8646 519.4263,412.9504 C519.2148,415.0362 521.5793,417.4007 523.6651,417.1892 C525.7509,417.4007 528.1154,415.0362 527.9039,412.9504 z" stroke="#000000" stroke-width="0.24" fill-opacity="0" />
  <path d="M58.53012,403.4303 L50.3217,403.4308 L50.0539,403.2762 L45.94925,396.1678 L45.94923,395.8586 L50.053,388.7496 L50.32078,388.595 L58.52921,388.5945 L58.79701,388.7491 L62.90166,395.8575 L62.90168,396.1667 L58.7979,403.2757 z" stroke="#000000" stroke-width="0.24" fill-opacity="0" />
  <path d="M557.5729,369.0766 L53.21814,369.1233 C47.07451,369.2514 39.89825,372.2573 34.96989,377.4122 C30.04153,382.5671 27.36107,389.8711 27.50898,396.0143 C27.36183,402.1575 30.04319,409.4612 34.97219,414.6155 C39.90118,419.7698 47.07782,422.7748 53.22145,422.9022 L108.2475,422.9005 L108.2475,422.9234 L557.5754,422.9095 C564.4608,423.0013 571.8047,419.9591 576.6081,415.0251 C581.5417,410.2213 584.5834,402.8772 584.491,395.9918 C584.5827,389.1065 581.5403,381.7626 576.6063,376.9592 C571.8024,372.0257 564.4583,368.9842 557.5729,369.0766 z" stroke="#000000" stroke-width="0.24" fill-opacity="0" />
</svg>