<?xml version="1.0" encoding="UTF-8" standalone="no"?>
<!DOCTYPE svg PUBLIC "-//W3C//DTD SVG 1.1//EN" "http://www.w3.org/Graphics/SVG/1.1/DTD/svg11.dtd">
<svg width="612pt" height="792pt" viewBox="0 0 612 792" overflow="visible" version="1.1" xmlns="http://www.w3.org/2000/svg">
  <path d="M290.2496,229.0074 L289.9649,228.3359 C289.4274,227.3568 290.0955,225.7054 291.1625,225.3753 C292.1416,224.8378 293.7931,225.5059 294.1231,226.5729 L294.4078,227.2444 C294.9453,228.2235 294.2773,229.875 293.2102,230.205 C292.2311,230.7425 290.5797,230.0744 290.2496,229.0074 z" stroke="#000000" stroke-width="0.24" fill-opacity="0" />
  <path d="M299.9207,251.8177 L299.636,251.1462 C299.0986,250.1671 299.7666,248.5156 300.8336,248.1856 C301.8127,247.6481 303.4642,248.3162 303.7943,249.3832 L304.079,250.0547 C304.6165,251.0338 303.9484,252.6852 302.8813,253.0153 C301.9023,253.5528 300.2508,252.8847 299.9207,251.8177 z" stroke="#000000" stroke-width="0.24" fill-opacity="0" />
  <path d="M284.3996,242.0941 L285.071,241.8094 C286.0501,241.2719 287.7016,241.94 288.0316,243.007 C288.5691,243.9861 287.9011,245.6376 286.834,245.9676 L286.1626,246.2523 C285.1835,246.7898 283.532,246.1217 283.202,245.0547 C282.6645,244.0756 283.3325,242.4241 284.3996,242.0941 z" stroke="#000000" stroke-width="0.24" fill-opacity="0" />
  <path d="M308.1678,241.5254 C307.0958,241.4167 305.8806,242.6319 305.9892,243.7039 C305.8806,244.7759 307.0958,245.9912 308.1678,245.8825 C309.2398,245.9912 310.455,244.7759 310.3463,243.7039 C310.455,242.6319 309.2398,241.4167 308.1678,241.5254 z" stroke="#000000" stroke-width="0.24" fill-opacity="0" />
  <path d="M292.5133,248.1626 C291.4413,248.0539 290.2261,249.2691 290.3347,250.3412 C290.2261,251.4132 291.4413,252.6284 292.5133,252.5197 C293.5853,252.6284 294.8005,251.4132 294.6919,250.3412 C294.8005,249.2691 293.5853,248.0539 292.5133,248.1626 z" stroke="#000000" stroke-width="0.24" fill-opacity="0" />
  <path d="M285.8761,232.5081 C284.8041,232.3994 283.5888,233.6147 283.6975,234.6867 C283.5888,235.7587 284.8041,236.9739 285.8761,236.8652 C286.9481,236.9739 288.1633,235.7587 288.0547,234.6867 C288.1633,233.6147 286.9481,232.3994 285.8761,232.5081 z" stroke="#000000" stroke-width="0.24" fill-opacity="0" />
  <path d="M301.5306,225.8709 C300.4586,225.7622 299.2433,226.9774 299.352,228.0495 C299.2433,229.1214 300.4586,230.3367 301.5306,230.228 C302.6026,230.3367 303.8178,229.1214 303.7091,228.0495 C303.8178,226.9774 302.6026,225.7622 301.5306,225.8709 z" stroke="#000000" stroke-width="0.24" fill-opacity="0" />
  <path d="M297.0219,222.3513 C293.093,222.2469 288.3663,224.0299 285.1115,227.2848 C281.8566,230.5397 280.0735,235.2663 280.1779,239.1953 C280.0735,243.1243 281.8566,247.8509 285.1115,251.1058 C288.3663,254.3607 293.093,256.1437 297.0219,256.0393 C300.9509,256.1437 305.6776,254.3607 308.9324,251.1058 C312.1873,247.8509 313.9704,243.1243 313.8659,239.1953 C313.9704,235.2663 312.1873,230.5397 308.9324,227.2848 C305.6776,224.0299 300.9509,222.2469 297.0219,222.3513 z" stroke="#000000" stroke-width="0.24" fill-opacity="0" />
  <path d="M297.0219,230.5608 C292.7732,230.13 287.9567,234.9465 288.3874,239.1953 C287.9567,243.4441 292.7732,248.2606 297.0219,247.8298 C301.2707,248.2606 306.0872,243.4441 305.6565,239.1953 C306.0872,234.9465 301.2707,230.13 297.0219,230.5608 z" stroke="#000000" stroke-width="0.24" fill-opacity="0" />
  <path d="M307.2098,232.423 L307.8813,232.1383 C308.8604,231.6008 310.5119,232.2688 310.8419,233.3359 C311.3794,234.315 310.7114,235.9665 309.6443,236.2965 L308.9728,236.5812 C307.9937,237.1187 306.3423,236.4506 306.0122,235.3836 C305.4748,234.4045 306.1428,232.753 307.2098,232.423 z" stroke="#000000" stroke-width="0.24" fill-opacity="0" />
</svg>