<?xml version="1.0" encoding="UTF-8" standalone="no"?>
<!DOCTYPE svg PUBLIC "-//W3C//DTD SVG 1.1//EN" "http://www.w3.org/Graphics/SVG/1.1/DTD/svg11.dtd">
<svg width="612pt" height="792pt" viewBox="0 0 612 792" overflow="visible" version="1.1" xmlns="http://www.w3.org/2000/svg">
  <path d="M185.1174,491.9355 C185.418,488.9705 182.0568,485.6093 179.0918,485.9099 C176.1268,485.6093 172.7656,488.9705 173.0662,491.9355 C172.7656,494.9005 176.1268,498.2617 179.0918,497.9611 C182.0568,498.2617 185.418,494.9005 185.1174,491.9355 z" stroke="#000000" stroke-width="0.24" fill-opacity="0" />
  <path d="M172.2059,388.5327 C171.3587,388.4467 170.3984,389.4071 170.4843,390.2542 C170.3984,391.1014 171.3587,392.0617 172.2059,391.9758 C173.053,392.0617 174.0133,391.1014 173.9275,390.2542 C174.0133,389.4071 173.053,388.4467 172.2059,388.5327 z" stroke="#000000" stroke-width="0.24" fill-opacity="0" />
  <path d="M187.7002,390.2542 C187.7861,389.4071 186.8258,388.4467 185.9786,388.5327 C185.1315,388.4467 184.1711,389.4071 184.257,390.2542 C184.1711,391.1014 185.1315,392.0617 185.9786,391.9758 C186.8258,392.0617 187.7861,391.1014 187.7002,390.2542 z" stroke="#000000" stroke-width="0.24" fill-opacity="0" />
  <path d="M185.9786,402.3054 C185.1315,402.2195 184.1711,403.1798 184.257,404.027 C184.1711,404.8741 185.1315,405.8345 185.9786,405.7486 C186.8258,405.8345 187.7861,404.8741 187.7002,404.027 C187.7861,403.1798 186.8258,402.2195 185.9786,402.3054 z" stroke="#000000" stroke-width="0.24" fill-opacity="0" />
  <path d="M173.9275,404.027 C174.0133,403.1798 173.053,402.2195 172.2059,402.3054 C171.3587,402.2195 170.3984,403.1798 170.4843,404.027 C170.3984,404.8741 171.3587,405.8345 172.2059,405.7486 C173.053,405.8345 174.0133,404.8741 173.9275,404.027 z" stroke="#000000" stroke-width="0.24" fill-opacity="0" />
  <path d="M174.788,460.9362 C174.8739,460.0891 173.9136,459.1287 173.0665,459.2146 C172.2193,459.1287 171.259,460.0891 171.3448,460.9362 C171.259,461.7833 172.2193,462.7437 173.0665,462.6578 C173.9136,462.7437 174.8739,461.7833 174.788,460.9362 z" stroke="#000000" stroke-width="0.24" fill-opacity="0" />
  <path d="M186.839,460.9845 C186.9249,460.1373 185.9646,459.177 185.1174,459.2628 C184.2703,459.177 183.3099,460.1373 183.3958,460.9845 C183.3099,461.8316 184.2703,462.7919 185.1174,462.7061 C185.9646,462.7919 186.9249,461.8316 186.839,460.9845 z" stroke="#000000" stroke-width="0.24" fill-opacity="0" />
  <path d="M180.7592,400.1534 L177.4253,400.1534 L177.3166,400.0906 L175.6496,397.2034 L175.6496,397.0778 L177.3166,394.1906 L177.4253,394.1278 L180.7592,394.1278 L180.8679,394.1906 L182.5349,397.0778 L182.5349,397.2034 L180.8679,400.0906 z" stroke="#000000" stroke-width="0.24" fill-opacity="0" />
  <path d="M168.1601,410.6297 L168.1601,491.8391 C168.0976,494.6426 169.3142,497.6451 171.3107,499.6143 C173.2533,501.6367 176.2395,502.8929 179.0436,502.8675 C181.8474,502.9177 184.8445,501.6878 186.8049,499.6827 C188.8187,497.7311 190.0617,494.7395 190.0239,491.9355 L190.0239,430.0334 L190.0239,429.8405 L190.0239,410.6304 C190.0146,408.6402 190.5993,406.579 191.6523,404.8901 C194.4314,400.6988 194.5726,394.2581 191.9799,389.9491 C189.6742,385.4799 184.1187,382.218 179.0925,382.3822 C174.0663,382.2178 168.5107,385.4795 166.2048,389.9486 C163.612,394.2576 163.753,400.6983 166.5319,404.8897 C167.5848,406.5785 168.1694,408.6396 168.1601,410.6297 z" stroke="#000000" stroke-width="0.24" fill-opacity="0" />
  <path d="M179.0922,423.9114 C176.1272,423.6108 172.7661,426.972 173.0667,429.937 C172.7661,432.902 176.1272,436.2632 179.0922,435.9626 C182.0572,436.2632 185.4184,432.902 185.1178,429.937 C185.4184,426.972 182.0572,423.6108 179.0922,423.9114 z" stroke="#000000" stroke-width="0.24" fill-opacity="0" />
</svg>