<?xml version="1.0" encoding="UTF-8" standalone="no"?>
<!DOCTYPE svg PUBLIC "-//W3C//DTD SVG 1.1//EN" "http://www.w3.org/Graphics/SVG/1.1/DTD/svg11.dtd">
<svg width="612pt" height="792pt" viewBox="0 0 612 792" overflow="visible" version="1.1" xmlns="http://www.w3.org/2000/svg">
  <path d="M409.0094,376.765 C407.9636,376.659 406.778,377.8446 406.884,378.8905 C406.778,379.9363 407.9636,381.1219 409.0094,381.0159 C410.0553,381.1219 411.2409,379.9363 411.1349,378.8905 C411.2409,377.8446 410.0553,376.659 409.0094,376.765 z" stroke="#000000" stroke-width="0.24" fill-opacity="0" />
  <path d="M409.0086,390.2615 C407.9627,390.1555 406.7772,391.3411 406.8832,392.3869 C406.7772,393.4328 407.9627,394.6184 409.0086,394.5124 C410.0544,394.6184 411.2401,393.4328 411.134,392.3869 C411.2401,391.3411 410.0544,390.1555 409.0086,390.2615 z" stroke="#000000" stroke-width="0.24" fill-opacity="0" />
  <path d="M223.1162,383.5506 L227.3671,383.5506 C228.4129,383.4445 229.5985,384.6301 229.4925,385.676 C229.5985,386.7218 228.4129,387.9074 227.3671,387.8014 L223.1162,387.8014 C222.5933,387.7484 222.0005,388.3412 222.0535,388.8641 L222.0535,392.3328 C222.0488,392.623 222.1882,392.9349 222.4078,393.1248 C223.0415,393.6397 223.3035,394.7194 222.9763,395.4674 C222.7215,396.2432 221.8064,396.8732 220.9908,396.8345 L179.545,396.8345 C178.8106,396.8596 177.9974,396.3731 177.6722,395.7141 C177.3028,395.0789 177.3469,394.1323 177.7738,393.5342 L177.9509,392.9467 L177.9509,388.8641 C178.004,388.3412 177.4111,387.7484 176.8882,387.8014 L172.6374,387.8014 C171.5915,387.9074 170.4059,386.7218 170.5119,385.676 C170.4059,384.6301 171.5915,383.4445 172.6374,383.5506 L176.8882,383.5506 C177.4111,383.6036 178.004,383.0108 177.9509,382.4879 L177.9509,378.4052 L177.7738,377.8178 C177.3469,377.2197 177.3028,376.2731 177.6722,375.6379 C177.9974,374.9789 178.8106,374.4924 179.545,374.5175 L220.9908,374.5175 C221.8064,374.4788 222.7215,375.1088 222.9763,375.8845 C223.3035,376.6326 223.0415,377.7123 222.4078,378.2271 C222.1882,378.4171 222.0488,378.729 222.0535,379.0192 L222.0535,382.4879 C222.0005,383.0108 222.5933,383.6036 223.1162,383.5506 z" stroke="#000000" stroke-width="0.24" fill-opacity="0" />
  <path d="M174.4971,378.237 C173.4513,378.131 172.2657,379.3166 172.3717,380.3624 C172.2657,381.4083 173.4513,382.5939 174.4971,382.4879 C175.543,382.5939 176.7286,381.4083 176.6225,380.3624 C176.7286,379.3166 175.543,378.131 174.4971,378.237 z" stroke="#000000" stroke-width="0.24" fill-opacity="0" />
  <path d="M174.4971,388.8641 C173.4513,388.7581 172.2657,389.9437 172.3717,390.9896 C172.2657,392.0354 173.4513,393.221 174.4971,393.115 C175.543,393.221 176.7286,392.0354 176.6225,390.9896 C176.7286,389.9437 175.543,388.7581 174.4971,388.8641 z" stroke="#000000" stroke-width="0.24" fill-opacity="0" />
  <path d="M225.5073,388.8641 C224.4615,388.7581 223.2759,389.9437 223.3819,390.9896 C223.2759,392.0354 224.4615,393.221 225.5073,393.115 C226.5532,393.221 227.7388,392.0354 227.6328,390.9896 C227.7388,389.9437 226.5532,388.7581 225.5073,388.8641 z" stroke="#000000" stroke-width="0.24" fill-opacity="0" />
  <path d="M225.5073,378.237 C224.4615,378.131 223.2759,379.3166 223.3819,380.3624 C223.2759,381.4083 224.4615,382.5939 225.5073,382.4879 C226.5532,382.5939 227.7388,381.4083 227.6328,380.3624 C227.7388,379.3166 226.5532,378.131 225.5073,378.237 z" stroke="#000000" stroke-width="0.24" fill-opacity="0" />
  <path d="M152.0101,378.1839 C148.3496,377.8128 144.2,381.9624 144.5711,385.6229 C144.2,389.2834 148.3496,393.433 152.0101,393.0619 C155.6706,393.433 159.8202,389.2834 159.4491,385.6229 C159.8202,381.9624 155.6706,377.8128 152.0101,378.1839 z" stroke="#000000" stroke-width="0.24" fill-opacity="0" />
  <path d="M454.8832,378.1839 C451.2228,377.8128 447.0732,381.9624 447.4443,385.6229 C447.0732,389.2834 451.2228,393.433 454.8832,393.0619 C458.5437,393.433 462.6933,389.2834 462.3222,385.6229 C462.6933,381.9624 458.5437,377.8128 454.8832,378.1839 z" stroke="#000000" stroke-width="0.24" fill-opacity="0" />
  <path d="M448.9312,399.1376 L454.8416,399.1192 C458.3524,399.1795 462.1091,397.6064 464.5294,395.0624 C467.0204,392.5876 468.5118,388.7977 468.3756,385.289 C468.3382,381.7779 466.6611,378.0664 464.0508,375.7178 C461.5077,373.2966 457.6777,371.9112 454.1742,372.1451 L152.011,372.1264 C145.3698,371.4527 137.8408,378.9808 138.5137,385.622 C137.84,392.2632 145.3681,399.7922 152.0093,399.1193 z" stroke="#000000" stroke-width="0.24" fill-opacity="0" />
  <path d="M300.4711,383.5066 C299.4252,383.4006 298.2396,384.5862 298.3457,385.632 C298.2396,386.6779 299.4252,387.8635 300.4711,387.7574 C301.5169,387.8635 302.7025,386.6779 302.5965,385.632 C302.7025,384.5862 301.5169,383.4006 300.4711,383.5066 z" stroke="#000000" stroke-width="0.24" fill-opacity="0" />
</svg>