<?xml version="1.0" encoding="UTF-8" standalone="no"?>
<!DOCTYPE svg PUBLIC "-//W3C//DTD SVG 1.1//EN" "http://www.w3.org/Graphics/SVG/1.1/DTD/svg11.dtd">
<svg width="612pt" height="792pt" viewBox="0 0 612 792" overflow="visible" version="1.1" xmlns="http://www.w3.org/2000/svg">
  <path d="M387.2617,389.9658 C386.4146,389.8799 385.4542,390.8403 385.5401,391.6874 C385.4542,392.5345 386.4146,393.4949 387.2617,393.409 C388.1088,393.4949 389.0692,392.5345 388.9833,391.6874 C389.0692,390.8403 388.1088,389.8799 387.2617,389.9658 z" stroke="#000000" stroke-width="0.24" fill-opacity="0" />
  <path d="M387.261,400.8979 C386.4139,400.812 385.4536,401.7724 385.5394,402.6195 C385.4536,403.4667 386.4139,404.427 387.261,404.3411 C388.1082,404.427 389.0685,403.4667 388.9826,402.6195 C389.0685,401.7724 388.1082,400.812 387.261,400.8979 z" stroke="#000000" stroke-width="0.24" fill-opacity="0" />
  <path d="M234.9666,406.222 C235.6272,406.2534 236.3685,405.7431 236.5749,405.1147 C236.8399,404.5088 236.6277,403.6343 236.1143,403.2173 C235.9365,403.0634 235.8235,402.8108 235.8274,402.5757 L235.8274,391.7917 C235.8235,391.5566 235.9365,391.304 236.1143,391.1501 C236.6277,390.7331 236.8399,389.8585 236.5749,389.2526 C236.3685,388.6242 235.6272,388.1139 234.9666,388.1453 L201.3955,388.1453 C200.8007,388.1249 200.1419,388.519 199.8786,389.0528 C199.5793,389.5673 199.6151,390.3341 199.9608,390.8185 L200.1043,391.2944 L200.1043,394.6013 C200.1472,395.0248 199.6671,395.505 199.2435,395.4621 L195.8003,395.4621 C194.9532,395.3762 193.9928,396.3365 194.0787,397.1837 C193.9928,398.0308 194.9532,398.9911 195.8003,398.9053 L199.2435,398.9053 C199.6671,398.8623 200.1472,399.3425 200.1043,399.7661 L200.1043,403.073 L199.9608,403.5488 C199.6151,404.0333 199.5793,404.8 199.8786,405.3145 C200.1419,405.8483 200.8007,406.2424 201.3955,406.222 z" stroke="#000000" stroke-width="0.24" fill-opacity="0" />
  <path d="M179.0922,391.1151 C176.1272,390.8145 172.7661,394.1756 173.0667,397.1406 C172.7661,400.1056 176.1272,403.4668 179.0922,403.1662 C182.0572,403.4668 185.4184,400.1056 185.1178,397.1406 C185.4184,394.1756 182.0572,390.8145 179.0922,391.1151 z" stroke="#000000" stroke-width="0.24" fill-opacity="0" />
  <path d="M424.4195,391.1151 C421.4545,390.8145 418.0933,394.1756 418.3939,397.1406 C418.0933,400.1056 421.4545,403.4668 424.4195,403.1662 C427.3845,403.4668 430.7457,400.1056 430.4451,397.1406 C430.7457,394.1756 427.3845,390.8145 424.4195,391.1151 z" stroke="#000000" stroke-width="0.24" fill-opacity="0" />
  <path d="M419.5984,408.0876 L424.3857,408.0727 C427.2295,408.1216 430.2724,406.8473 432.2329,404.7867 C434.2506,402.7821 435.4586,399.7123 435.3483,396.8702 C435.318,394.0262 433.9596,391.0199 431.8452,389.1175 C429.7852,387.1564 426.683,386.0342 423.8451,386.2236 L179.0929,386.2085 C173.7136,385.6628 167.6151,391.7606 168.1601,397.14 C167.6144,402.5193 173.7122,408.6178 179.0916,408.0728 z" stroke="#000000" stroke-width="0.24" fill-opacity="0" />
  <path d="M299.3456,395.4265 C298.4985,395.3406 297.5381,396.3009 297.624,397.148 C297.5381,397.9952 298.4985,398.9555 299.3456,398.8696 C300.1928,398.9555 301.1531,397.9952 301.0672,397.148 C301.1531,396.3009 300.1928,395.3406 299.3456,395.4265 z" stroke="#000000" stroke-width="0.24" fill-opacity="0" />
</svg>