<?xml version="1.0" encoding="UTF-8" standalone="no"?>
<!DOCTYPE svg PUBLIC "-//W3C//DTD SVG 1.1//EN" "http://www.w3.org/Graphics/SVG/1.1/DTD/svg11.dtd">
<svg width="612pt" height="792pt" viewBox="0 0 612 792" overflow="visible" version="1.1" xmlns="http://www.w3.org/2000/svg">
  <path d="M205.1508,352.8002 L205.1508,354.9337 L190.3496,354.9337 L190.3496,352.8002 z" stroke="#FFBF00" stroke-width="0.24" fill-opacity="0" />
  <path d="M156.4707,352.8002 L156.4707,354.9337 L141.6695,354.9337 L141.6695,352.8002 z" stroke="#FFBF00" stroke-width="0.24" fill-opacity="0" />
  <path d="M141.6695,352.8002 L141.6695,354.9337 L126.871,357.3506 L126.871,350.3833 z" stroke="#FF0000" stroke-width="0.24" fill-opacity="0" />
  <path d="M190.3496,352.8002 L190.3496,354.9337 L175.5512,357.3506 L175.5512,350.3833 z" stroke="#FF0000" stroke-width="0.24" fill-opacity="0" />
  <path d="M168.5838,358.8989 L168.5838,357.3506 L160.0682,357.3506 L160.0682,348.835 L168.5838,348.835 L168.5838,350.3833 L175.5512,350.3833 L175.5512,358.8989 z" stroke="#000000" stroke-width="0.24" fill-opacity="0" />
  <path d="M119.9037,348.835 L119.9037,350.3833 L111.3881,350.3833 L111.3881,358.8989 L119.9037,358.8989 L119.9037,357.3506 L126.871,357.3506 L126.871,348.835 z" stroke="#000000" stroke-width="0.24" fill-opacity="0" />
  <path d="M156.4707,354.9337 L156.4707,352.8002" stroke="#00FF00" stroke-width="0.24" fill-opacity="0" />
  <path d="M111.3881,380.9622 L156.4707,354.9337" stroke="#00FF00" stroke-width="0.24" fill-opacity="0" />
  <path d="M111.3881,380.9622 L111.3881,326.7717" stroke="#00FF00" stroke-width="0.24" fill-opacity="0" />
  <path d="M205.1508,352.8002 L160.0682,326.7717" stroke="#00FF00" stroke-width="0.24" fill-opacity="0" />
  <path d="M205.1508,354.9337 L205.1508,352.8002" stroke="#00FF00" stroke-width="0.24" fill-opacity="0" />
  <path d="M156.4707,352.8002 L111.3881,326.7717" stroke="#00FF00" stroke-width="0.24" fill-opacity="0" />
  <path d="M160.0682,380.9622 L205.1508,354.9337" stroke="#00FF00" stroke-width="0.24" fill-opacity="0" />
  <path d="M160.0682,380.9622 L160.0682,326.7717" stroke="#00FF00" stroke-width="0.24" fill-opacity="0" />
</svg>