<?xml version="1.0" encoding="UTF-8" standalone="no"?>
<!DOCTYPE svg PUBLIC "-//W3C//DTD SVG 1.1//EN" "http://www.w3.org/Graphics/SVG/1.1/DTD/svg11.dtd">
<svg width="612pt" height="792pt" viewBox="0 0 612 792" overflow="visible" version="1.1" xmlns="http://www.w3.org/2000/svg">
  <path d="M488.4098,385.0399 C488.9736,386.4023 489.7331,387.3968 490.2382,388.0089 L491.5106,389.2473 C492.0274,389.6441 492.8104,390.2079 494.0476,390.7873 L492.9647,391.1715 C492.5717,391.2152 492.0939,391.1998 490.4807,390.8094 C491.2433,392.938 491.7365,393.8319 492.079,394.4031 L492.882,395.5387 L494.1501,396.7923 C494.8034,397.3463 495.7641,398.0707 497.3875,398.903 L495.967,399.3242 C495.5638,399.3705 495.1065,399.3551 493.2878,398.8516 C494.346,401.5234 494.8953,402.4431 495.2977,403.0687 L496.4101,404.5028 L498.2353,406.1377 C498.9518,406.6731 499.7311,407.1216 501.1535,407.762 L500.0249,408.199 L498.9182,408.2906 C498.4738,408.2709 497.8907,408.2069 496.6368,407.7755 C497.323,409.5978 497.8573,410.5585 498.2872,411.2289 L499.4448,412.6837 L500.8948,413.9275 L502.7705,415.0666 L505.0817,415.9277 C504.2774,416.4965 503.5543,416.8136 502.8419,417.1159 L500.7171,417.9595 L498.4612,418.6382 L495.7699,419.1699 L492.2519,419.376 L492.2234,423.1125 L488.4098,423.1125 L484.5962,423.1125 L484.5677,419.376 L481.0497,419.1699 L478.3583,418.6382 L476.1025,417.9595 L473.9778,417.1159 C473.2653,416.8136 472.5422,416.4965 471.7379,415.9277 L474.0491,415.0666 L475.9247,413.9275 L477.3748,412.6837 L478.5324,411.2289 C478.9623,410.5585 479.4966,409.5978 480.1828,407.7755 C478.9289,408.2069 478.3458,408.2709 477.9014,408.2906 L476.7947,408.199 L475.6661,407.762 C477.0885,407.1216 477.8678,406.6731 478.5844,406.1377 L480.4095,404.5028 L481.5219,403.0687 C481.9243,402.4431 482.4736,401.5234 483.5317,398.8516 C481.7131,399.3551 481.2558,399.3705 480.8525,399.3242 L479.432,398.903 C481.0555,398.0707 482.0162,397.3463 482.6695,396.7923 L483.9376,395.5387 L484.7406,394.4031 C485.0831,393.8319 485.5763,392.938 486.3389,390.8094 C484.7257,391.1998 484.2479,391.2152 483.8549,391.1715 L482.772,390.7873 C484.0092,390.2079 484.7922,389.6441 485.309,389.2473 L486.5814,388.0089 C487.0865,387.3968 487.846,386.4023 488.4098,385.0399 z" stroke="#00FF00" stroke-width="0.24" fill-opacity="0" />
</svg>