<?xml version="1.0" encoding="UTF-8" standalone="no"?>
<!DOCTYPE svg PUBLIC "-//W3C//DTD SVG 1.1//EN" "http://www.w3.org/Graphics/SVG/1.1/DTD/svg11.dtd">
<svg width="612pt" height="792pt" viewBox="0 0 612 792" overflow="visible" version="1.1" xmlns="http://www.w3.org/2000/svg">
  <path d="M453.3306,418.3502 L450.6259,420.332 L449.4116,420.9475 L447.9317,421.4043 L446.504,421.5818 L444.7578,421.5191 L443.0299,421.0728 L440.639,419.9974 L440.639,424.0403 L436.9767,424.0403 L433.3144,424.0403 L433.3144,419.9974 L430.9235,421.0728 L429.1956,421.5191 L427.4495,421.5818 L426.0218,421.4043 L424.5418,420.9475 L423.3276,420.332 L420.6228,418.3502 L425.5978,411.9582 L423.6248,410.4967 L428.7239,404.0739 L426.6689,402.5897 L431.641,396.173 L429.7415,394.7102 L436.9767,385.4078 L444.2119,394.7102 L442.3125,396.173 L447.2845,402.5897 L445.2295,404.0739 L450.3286,410.4967 L448.3556,411.9582 z" stroke="#00FF00" stroke-width="0.24" fill-opacity="0" />
</svg>