<?xml version="1.0" encoding="UTF-8" standalone="no"?>
<!DOCTYPE svg PUBLIC "-//W3C//DTD SVG 1.1//EN" "http://www.w3.org/Graphics/SVG/1.1/DTD/svg11.dtd">
<svg width="612pt" height="792pt" viewBox="0 0 612 792" overflow="visible" version="1.1" xmlns="http://www.w3.org/2000/svg">
  <path d="M282.9941,428.7096 C283.1781,426.894 281.12,424.8359 279.3045,425.02 C277.489,424.8359 275.4308,426.894 275.6149,428.7096 C275.4308,430.5251 277.489,432.5832 279.3045,432.3991 C281.12,432.5832 283.1781,430.5251 282.9941,428.7096 z" stroke="#00FF00" stroke-width="0.24" fill-opacity="0" />
  <path d="M341.7593,456.714 C342.1254,442.944 335.8762,426.3784 324.4688,414.971 C313.0614,403.5636 296.4958,397.3144 282.7258,397.6805 C268.9559,397.3144 252.3902,403.5636 240.9828,414.971 C229.5754,426.3784 223.3263,442.944 223.6923,456.714 C223.3263,470.4839 229.5754,487.0495 240.9828,498.4569 C252.3902,509.8643 268.9559,516.1135 282.7258,515.7474 C296.4958,516.1135 313.0614,509.8643 324.4688,498.4569 C335.8762,487.0495 342.1254,470.4839 341.7593,456.714 z" stroke="#000000" stroke-width="0.24" fill-opacity="0" />
  <path d="M279.3045,407.0465 L252.1469,487.0207 L269.8529,487.0207 L269.8529,501.0466 L279.3045,501.0466 L288.7561,501.0466 L288.7561,487.0207 L306.4621,487.0207 z" stroke="#00FF00" stroke-width="0.24" fill-opacity="0" />
</svg>