<?xml version="1.0" encoding="UTF-8" standalone="no"?>
<!DOCTYPE svg PUBLIC "-//W3C//DTD SVG 1.1//EN" "http://www.w3.org/Graphics/SVG/1.1/DTD/svg11.dtd">
<svg width="612pt" height="792pt" viewBox="0 0 612 792" overflow="visible" version="1.1" xmlns="http://www.w3.org/2000/svg">
  <path d="M115.7728,335.6031 C115.1957,335.9893 114.2031,335.795 113.3129,335.5813 L110.9163,334.8293 L109.0881,333.8806 L108.0976,333.4755 C107.8396,333.4922 107.5955,333.6808 107.4457,333.9083 L107.3042,334.6976 C107.368,334.993 107.5511,335.3176 120.8554,355.3367 C120.2058,355.5737 119.5067,355.5571 118.9241,355.4933 L117.2707,355.116 L115.2982,354.3059 L113.8362,353.4653 C113.5032,353.2711 113.3423,353.2156 113.1232,353.2933 L112.4768,353.8259 C112.327,354.0701 112.3048,354.3475 112.5434,354.8524 L125.9631,375.0801 C124.9537,375.3011 124.3585,375.2793 123.817,375.2283 L122.218,374.9098 L120.3468,374.087 L118.6085,373.2061 C118.1681,373.0514 117.9351,373.1278 117.744,373.2843 L117.3617,373.9341 C117.3199,374.1908 117.3854,374.4675 117.6639,374.9908 L130.9548,394.7101 C129.786,395.0021 128.7688,394.8275 127.7841,394.586 L125.1828,393.7109 L123.7991,392.8787 C123.4566,392.7143 123.1484,392.728 122.8982,392.8762 L122.3792,393.5796 C122.3022,393.8521 122.3405,394.1142 136.047,414.4334 C133.7403,415.0584 131.3285,415.262 129.4127,415.3742 L124.5057,415.4343 L119.4264,414.8861 C117.6411,414.5782 115.7932,414.1292 113.4284,413.3723 L107.1135,411.0493 L107.1135,425.9501 L102.9349,425.9501 L98.75633,425.9501 L98.75633,411.0493 L92.44143,413.3723 C90.07668,414.1292 88.22872,414.5782 86.44341,414.8861 L81.36414,415.4343 L76.45714,415.3742 C74.54132,415.262 72.12959,415.0584 69.82288,414.4334 C83.52937,394.1142 83.5676,393.8521 83.49069,393.5796 L82.97161,392.8762 C82.72147,392.728 82.41322,392.7143 82.07072,392.8787 L80.68703,393.7109 L78.08575,394.586 C77.10107,394.8275 76.08385,395.0021 74.91501,394.7101 L88.20597,374.9908 C88.48446,374.4675 88.54999,374.1908 88.50813,373.9341 L88.12589,373.2843 C87.93477,373.1278 87.70178,373.0514 87.2613,373.2061 L85.52303,374.087 L83.65189,374.9098 L82.05287,375.2283 C81.51137,375.2793 80.91617,375.3011 79.90677,375.0801 L93.32649,354.8524 C93.56508,354.3475 93.54288,354.0701 93.39307,353.8259 L92.74668,353.2933 C92.52751,353.2156 92.36661,353.2711 92.0337,353.4653 L90.57168,354.3059 L88.5992,355.116 L86.94576,355.4933 C86.36317,355.5571 85.66405,355.5737 85.01447,355.3367 C98.31873,335.3176 98.50182,334.993 98.56563,334.6976 L98.42415,333.9083 C98.27434,333.6808 98.0302,333.4922 97.7722,333.4755 L96.7818,333.8806 L94.95358,334.8293 L92.55693,335.5813 C91.6667,335.795 90.67411,335.9893 90.09707,335.6031 L102.9349,316.4236 z" stroke="#00FF00" stroke-width="0.24" fill-opacity="0" />
  <path d="M106.6245,327.4206 C106.8086,325.6051 104.7505,323.547 102.9349,323.731 C101.1194,323.547 99.06127,325.6051 99.24533,327.4206 C99.06127,329.2361 101.1194,331.2943 102.9349,331.1102 C104.7505,331.2943 106.8086,329.2361 106.6245,327.4206 z" stroke="#00FF00" stroke-width="0.24" fill-opacity="0" />
  <path d="M159.9989,372.1141 C160.365,358.3441 154.1158,341.7785 142.7084,330.3711 C131.301,318.9637 114.7354,312.7146 100.9654,313.0806 C87.19547,312.7146 70.62985,318.9637 59.22245,330.3711 C47.81505,341.7785 41.56588,358.3441 41.93194,372.1141 C41.56588,385.8841 47.81505,402.4497 59.22245,413.8571 C70.62985,425.2645 87.19547,431.5136 100.9654,431.1476 C114.7354,431.5136 131.301,425.2645 142.7084,413.8571 C154.1158,402.4497 160.365,385.8841 159.9989,372.1141 z" stroke="#000000" stroke-width="0.24" fill-opacity="0" />
</svg>