<?xml version="1.0" encoding="UTF-8" standalone="no"?>
<!DOCTYPE svg PUBLIC "-//W3C//DTD SVG 1.1//EN" "http://www.w3.org/Graphics/SVG/1.1/DTD/svg11.dtd">
<svg width="612pt" height="792pt" viewBox="0 0 612 792" overflow="visible" version="1.1" xmlns="http://www.w3.org/2000/svg">
  <path d="M296.6001,306.4729 C296.7842,304.6573 294.726,302.5992 292.9105,302.7833 C291.095,302.5992 289.0369,304.6573 289.2209,306.4729 C289.0369,308.2884 291.095,310.3465 292.9105,310.1624 C294.726,310.3465 296.7842,308.2884 296.6001,306.4729 z" stroke="#00FF00" stroke-width="0.24" fill-opacity="0" />
  <path d="M333.2905,377.1147 C329.2843,380.2328 327.7606,381.2874 326.6121,382.008 C325.4636,382.7287 324.6902,383.1153 323.614,383.5278 L319.9598,384.6556 C318.7611,384.9327 317.7428,385.0488 316.4346,385.0939 C315.1263,385.139 313.528,385.1132 312.123,384.9392 C310.7181,384.7652 309.5065,384.443 307.8567,383.8372 C306.2068,383.2314 304.1187,382.342 301.9533,381.1819 L301.9533,391.1643 L292.9105,391.1643 L283.8677,391.1643 L283.8677,381.1819 C281.7023,382.342 279.6142,383.2314 277.9644,383.8372 C276.3145,384.443 275.1029,384.7652 273.698,384.9392 C272.2931,385.1132 270.6948,385.139 269.3865,385.0939 C268.0782,385.0488 267.0599,384.9327 265.8612,384.6556 L262.2071,383.5278 C261.1308,383.1153 260.3575,382.7287 259.209,382.008 C258.0604,381.2874 256.5368,380.2328 252.5305,377.1147 L264.8145,361.332 L259.943,357.7234 L272.5333,341.8646 L267.4593,338.2 L279.7358,322.3562 L275.0458,318.7444 L292.9105,295.7755 L310.7752,318.7444 L306.0852,322.3562 L318.3618,338.2 L313.2878,341.8646 L325.8781,357.7234 L321.0065,361.332 z" stroke="#00FF00" stroke-width="0.24" fill-opacity="0" />
</svg>