<?xml version="1.0" encoding="UTF-8" standalone="no"?>
<!DOCTYPE svg PUBLIC "-//W3C//DTD SVG 1.1//EN" "http://www.w3.org/Graphics/SVG/1.1/DTD/svg11.dtd">
<svg width="612pt" height="792pt" viewBox="0 0 612 792" overflow="visible" version="1.1" xmlns="http://www.w3.org/2000/svg">
  <path d="M299.7599,264.9494 C299.944,263.1339 297.8859,261.0758 296.0703,261.2598 C294.2548,261.0758 292.1967,263.1339 292.3808,264.9494 C292.1967,266.765 294.2548,268.8231 296.0703,268.639 C297.8859,268.8231 299.944,266.765 299.7599,264.9494 z" stroke="#00FF00" stroke-width="0.24" fill-opacity="0" />
  <path d="M296.0703,253.5201 C297.4624,256.8843 299.3378,259.3397 300.5849,260.851 C301.8319,262.3623 302.4506,262.9294 303.7267,263.909 C305.0027,264.8886 306.9361,266.2806 309.9909,267.7114 C309.0486,268.2986 308.2874,268.5523 307.317,268.6601 C306.3466,268.7679 305.1669,268.7299 301.1838,267.7658 C303.0667,273.0217 304.2845,275.2289 305.1301,276.6392 C305.9757,278.0495 306.4491,278.663 307.1129,279.4433 C307.7767,280.2235 308.6308,281.1707 310.2439,282.5386 C311.8571,283.9065 314.2292,285.6951 318.2377,287.7501 C316.5886,288.4097 315.726,288.6761 314.7302,288.7902 C313.7344,288.9044 312.6055,288.8663 308.1149,287.6232 C310.7277,294.2202 312.084,296.491 313.0775,298.0357 C314.0709,299.5804 314.7015,300.399 315.8242,301.5768 C316.9468,302.7546 318.5614,304.2915 320.3307,305.6136 C322.1001,306.9356 324.0242,308.0428 327.5363,309.6241 C326.6375,310.1235 325.6304,310.4897 324.7496,310.7033 C323.8688,310.9169 323.1142,310.978 322.017,310.9294 C320.9198,310.8809 319.48,310.7227 316.3839,309.6574 C318.0783,314.157 319.3976,316.5291 320.4589,318.1845 C321.5202,319.84 322.3236,320.7787 323.3173,321.7766 C324.3109,322.7744 325.4949,323.8315 326.8976,324.8476 C328.3003,325.8637 329.9218,326.8387 331.5289,327.6601 C333.1359,328.4816 334.7285,329.1494 337.2356,329.7865 C335.2496,331.1909 333.4643,331.9739 331.705,332.7204 L326.4587,334.8033 L320.8888,336.4789 L314.2434,337.7918 C311.9465,338.1285 309.6601,338.3321 305.557,338.3008 L305.4866,347.5267 L296.0703,347.5267 L286.6541,347.5267 L286.5837,338.3008 C282.4806,338.3321 280.1942,338.1285 277.8973,337.7918 L271.252,336.4789 L265.682,334.8033 L260.4357,332.7204 C258.6765,331.9739 256.8911,331.1909 254.9051,329.7865 C257.4122,329.1494 259.0048,328.4816 260.6118,327.6601 C262.2189,326.8387 263.8404,325.8637 265.2431,324.8476 C266.6458,323.8315 267.8297,322.7744 268.8234,321.7766 C269.8171,320.7787 270.6205,319.84 271.6818,318.1845 C272.7431,316.5291 274.0624,314.157 275.7568,309.6574 C272.6607,310.7227 271.2209,310.8809 270.1237,310.9294 C269.0265,310.978 268.2719,310.9169 267.3911,310.7033 C266.5103,310.4897 265.5032,310.1235 264.6044,309.6241 C268.1165,308.0428 270.0406,306.9356 271.81,305.6136 C273.5793,304.2915 275.1939,302.7546 276.3166,301.5768 C277.4392,300.399 278.0698,299.5804 279.0633,298.0357 C280.0567,296.491 281.413,294.2202 284.0258,287.6232 C279.5352,288.8663 278.4063,288.9044 277.4105,288.7902 C276.4147,288.6761 275.5521,288.4097 273.903,287.7501 C277.9115,285.6951 280.2837,283.9065 281.8968,282.5386 C283.5099,281.1707 284.364,280.2235 285.0278,279.4433 C285.6916,278.663 286.165,278.0495 287.0107,276.6392 C287.8562,275.2289 289.074,273.0217 290.9569,267.7658 C286.9738,268.7299 285.7941,268.7679 284.8237,268.6601 C283.8533,268.5523 283.0922,268.2986 282.1498,267.7114 C285.2046,266.2806 287.138,264.8886 288.414,263.909 C289.6901,262.9294 290.3088,262.3623 291.5558,260.851 C292.8029,259.3397 294.6783,256.8843 296.0703,253.5201 z" stroke="#00FF00" stroke-width="0.24" fill-opacity="0" />
  <path d="M354.32,305.1858 C354.686,291.4159 348.4369,274.8502 337.0295,263.4428 C325.6221,252.0354 309.0565,245.7863 295.2865,246.1523 C281.5165,245.7863 264.9509,252.0354 253.5435,263.4428 C242.1361,274.8502 235.8869,291.4159 236.253,305.1858 C235.8869,318.9557 242.1361,335.5214 253.5435,346.9288 C264.9509,358.3362 281.5165,364.5854 295.2865,364.2193 C309.0565,364.5854 325.6221,358.3362 337.0295,346.9288 C348.4369,335.5214 354.686,318.9557 354.32,305.1858 z" stroke="#000000" stroke-width="0.24" fill-opacity="0" />
</svg>