<?xml version="1.0" encoding="UTF-8" standalone="no"?>
<!DOCTYPE svg PUBLIC "-//W3C//DTD SVG 1.1//EN" "http://www.w3.org/Graphics/SVG/1.1/DTD/svg11.dtd">
<svg width="612pt" height="792pt" viewBox="0 0 612 792" overflow="visible" version="1.1" xmlns="http://www.w3.org/2000/svg">
  <path d="M361.9038,335.1789 C362.0879,333.3634 360.0297,331.3052 358.2142,331.4893 C356.3987,331.3052 354.3405,333.3634 354.5246,335.1789 C354.3405,336.9944 356.3987,339.0526 358.2142,338.8685 C360.0297,339.0526 362.0879,336.9944 361.9038,335.1789 z" stroke="#00FF00" stroke-width="0.24" fill-opacity="0" />
  <path d="M420.8177,371.3141 C421.1837,357.5441 414.9346,340.9785 403.5272,329.5711 C392.1198,318.1637 375.5541,311.9145 361.7842,312.2806 C348.0143,311.9145 331.4486,318.1637 320.0412,329.5711 C308.6338,340.9785 302.3846,357.5441 302.7507,371.3141 C302.3846,385.084 308.6338,401.6497 320.0412,413.057 C331.4486,424.4644 348.0143,430.7136 361.7842,430.3476 C375.5541,430.7136 392.1198,424.4644 403.5272,413.057 C414.9346,401.6497 421.1837,385.084 420.8177,371.3141 z" stroke="#000000" stroke-width="0.24" fill-opacity="0" />
  <path d="M358.2142,322.4149 L343.675,342.2131 L351.9886,342.2131 L335.8434,364.4701 L344.3628,364.4701 L327.9085,386.6707 L336.56,386.6707 L320.2396,408.8291 L350.1511,408.8291 L350.1511,417.5652 L358.2142,417.5652 L366.2773,417.5652 L366.2773,408.8291 L396.1888,408.8291 L379.8684,386.6707 L388.5199,386.6707 L372.0657,364.4701 L380.5851,364.4701 L364.4398,342.2131 L372.7535,342.2131 z" stroke="#00FF00" stroke-width="0.24" fill-opacity="0" />
</svg>