<?xml version="1.0" encoding="UTF-8" standalone="no"?>
<!DOCTYPE svg PUBLIC "-//W3C//DTD SVG 1.1//EN" "http://www.w3.org/Graphics/SVG/1.1/DTD/svg11.dtd">
<svg width="612pt" height="792pt" viewBox="0 0 612 792" overflow="visible" version="1.1" xmlns="http://www.w3.org/2000/svg">
  <path d="M225.2457,406.787 L225.9698,407.0118 L227.4623,407.2217 L229.4182,407.2432 L231.4019,407.0324 L233.1141,406.5275 L234.4896,405.673 C234.9722,405.3179 235.5381,404.8851 236.154,403.9696 C237.4523,405.6508 238.218,406.2167 238.9088,406.5608 L240.6047,407.0718" stroke="#FF0000" stroke-width="0.24" fill-opacity="0" />
  <path d="M209.1872,387.8652 L210.4619,387.9714 L212.3787,387.695 L214.3471,386.7579 C214.9718,386.331 215.5381,385.7917 215.8347,384.9827 C216.2797,386.277 216.6707,386.8096 217.1336,387.2489 L218.6104,388.2606 L220.0321,388.6779 L221.7695,388.7739 L223.5201,388.3357 L225.0942,387.4379 C225.5784,387.0346 226.0166,386.502 226.1649,386.0301 C227.0413,387.5806 227.4822,388.0692 228.0466,388.419 C228.6111,388.7687 229.2991,388.9795 230.0176,389.1071 L232.0983,389.2264 L233.6075,388.8492 L234.7338,388.1695 L235.709,386.9951 C236.0044,386.5366 236.2624,386.0301 236.379,385.4119 C237.2408,386.442 237.8138,386.6982 238.334,386.8915 L239.9216,387.2443 L241.8474,387.0667 L243.3148,386.487 L244.4328,385.5522 L245.1013,384.2309 C245.9507,385.3365 246.5057,385.6721 247.0371,385.8556 L248.6674,386.0481 L250.4584,385.7897 L251.7359,385.074 C252.11,384.7605 252.4808,384.3763 252.7774,383.6617 C253.8291,384.9695 254.2605,385.2729 254.9369,385.4695 L256.4935,385.7271" stroke="#FF0000" stroke-width="0.24" fill-opacity="0" />
  <path d="M224.4743,346.4725 L224.9566,346.9949 L225.6835,347.5168 L226.6787,347.8073 L227.996,347.7181 C228.4965,347.6259 229.0671,347.48 229.7217,346.7723 C230.061,347.4221 230.3297,347.6872 230.6109,347.8568 L231.5239,348.153 L232.6297,348.2174 L233.861,347.9314 C234.3172,347.7338 234.8402,347.4077 235.4063,346.6124 C236.4438,347.4357 237.0842,347.611 237.6584,347.6694 C238.2325,347.7279 238.7404,347.6694 239.219,347.4964 C239.6976,347.3234 240.1471,347.0357 240.601,346.5785 L241.5403,345.2785 L241.9781,345.7068" stroke="#FF0000" stroke-width="0.24" fill-opacity="0" />
  <path d="M217.8,364.8802 C218.3679,365.7343 218.7762,366.0448 219.1521,366.2425 L220.4235,366.5983 L221.765,366.6584 L222.9681,366.4946 C223.3249,366.3654 223.6307,366.136 224.1112,365.2841 C224.4279,366.1032 224.8702,366.6766 225.2788,367.0397 L226.395,367.6648 L227.4013,367.8828 L228.7307,367.8952 L230.107,367.4772 C230.5508,367.2435 230.9755,366.9065 231.1913,366.4076 C231.8384,367.7019 232.2092,367.9716 232.6283,368.1918 L234.1593,368.6828 L236.2858,368.7542 L237.8867,368.3429 C238.3278,368.1335 238.7107,367.8588 239.2451,366.0511 C239.8604,367.45 241.069,367.632 242.0434,367.6053 L243.3774,367.4245 L244.5746,366.9931 L245.6012,366.2095 C245.9215,365.8609 246.2273,365.4077 246.5331,364.4685 C248.1094,365.7021 248.6713,365.9687 249.1531,366.0649" stroke="#FF0000" stroke-width="0.24" fill-opacity="0" />
  <path d="M236.8983,340.0835 C237.0824,338.2679 235.0243,336.2098 233.2087,336.3939 C231.3932,336.2098 229.3351,338.2679 229.5191,340.0835 C229.3351,341.899 231.3932,343.9571 233.2087,343.7731 C235.0243,343.9571 237.0824,341.899 236.8983,340.0835 z" stroke="#00FF00" stroke-width="0.24" fill-opacity="0" />
  <path d="M256.4935,385.7271 L257.2133,385.756 L258.7683,385.52 L260.0214,384.9671 L261.0288,384.1936 L262.0187,382.9052 C262.2516,382.4957 262.3099,382.1935 262.2753,381.9387 L261.9586,381.2961 L261.356,380.8051 L260.0005,379.9984 L257.1404,377.8687 L254.6881,375.4952 L253.2634,373.7587 L251.9202,371.8948 L250.6131,369.5963 C250.0578,368.5053 249.284,366.907 249.1531,366.0649 L249.3772,366.1006 L251.2249,366.0757 L253.0697,365.421 C253.6107,365.1019 254.038,364.6913 254.3847,364.2364 L255.0999,362.9232 C255.202,362.5644 255.1399,362.3462 255.0394,362.1511 L254.5589,361.6175 L253.4463,360.9697 L251.4894,359.6629 L249.2102,357.8499 L246.5464,354.945 C245.6542,353.8288 244.8085,352.611 243.9377,351.0137 C243.0668,349.4165 242.1708,347.4398 241.9781,345.7068 L242.9358,346.1998 L244.2009,346.3908 L245.7424,346.1234 L247.0345,345.2875 L247.777,344.3583 L248.0192,343.4504 L247.9156,342.6975 L247.3215,342.1204 L245.4733,341.0162 L242.7259,338.91 L240.9951,337.3699 L238.5353,334.5999 L237.8439,329.873 L242.1528,325.4609 L236.0734,324.4241 L233.2087,318.9626 L230.3441,324.4241 L224.2647,325.4609 L228.5736,329.873 L227.889,334.5531 C227.197,335.5623 226.5373,336.2853 225.8101,337.0147 L223.6113,339.0591 L221.7635,340.4841 L219.958,341.6342 L218.8079,342.3319 C218.5626,342.5391 218.4527,342.7674 218.4442,343.131 L218.6452,344.3849 L219.1237,345.3413 L220.0309,346.0793 L221.3332,346.3753 L222.6863,346.3288 L223.8922,345.6842 L224.4743,346.4725 L223.4622,349.1896 L222.5481,350.9984 L221.2926,353.0402 L219.5918,355.2121 L216.9477,357.8965 L214.6287,359.8162 L213.1146,360.826 L211.8473,361.5761 C211.5459,361.7576 211.4432,361.833 211.3952,362.0864 L211.4021,363.1002 L211.7857,363.9565 L212.7173,364.8709 L213.3886,365.2854 L214.3197,365.4653 L215.5758,365.4503 L216.5871,365.2032 L217.4881,364.3823 L217.8,364.8802 C217.2975,366.7926 216.7245,368.0196 216.1303,369.1795 L214.369,372.2729 L212.7797,374.3285 L211.0624,376.2039 L209.2862,377.8831 L206.8737,379.6925 L205.075,380.7805 L204.4193,381.2713 L204.1948,381.7406 L204.1672,382.5911 L204.4297,384.1555 C204.5663,384.6613 204.7491,385.0447 205.1575,385.5032 L206.8193,386.8976 L208.6449,387.7394 L209.1872,387.8652 C208.7739,389.2071 208.4954,389.6877 208.1541,390.2246 L206.9883,391.9556 L205.6042,393.7886 L203.7944,395.698 L201.6691,397.5573 L199.4506,399.0519 L197.7381,400.1682 C197.3745,400.4684 197.2899,400.6883 197.2392,400.9336 L197.2857,401.7581 L198.0891,402.8236 L199.8819,404.0964 L201.9876,404.9632 L203.7847,405.1408 L206.1039,404.7856 C206.8841,404.5869 207.5818,404.3078 208.8249,403.2676 C209.4338,404.4093 209.9792,405.0182 210.493,405.4579 L212.0258,406.3797 L213.9201,406.8068 L216.395,406.7183 L218.3032,406.1153 C218.8377,405.8667 219.3037,405.5974 219.7523,405.1514 L220.9163,403.6243 C222.9436,405.5568 223.8065,406.0826 224.4514,406.4197 L225.2457,406.787 C225.3184,408.2202 225.2169,409.2603 225.1323,410.0638 L224.8448,412.0553 L224.3078,413.9158 L223.8173,415.3027 L223.7497,416.3513 L223.9484,417.4676 L224.4651,418.178 L225.6752,418.6987 C226.3078,418.8516 227.2415,418.9797 229.1308,418.9797 L238.2311,418.9797 C240.4989,418.9797 240.9115,418.7999 241.2136,418.6586 L241.9063,418.2125 L242.4337,417.4487 L242.6324,416.7089 L242.6392,415.7705 L242.259,414.4005 L241.622,412.5956 L241.0226,410.3539 C240.8103,409.3829 240.5637,408.078 240.6047,407.0718 L240.9063,407.1128 L242.9919,407.2167 L244.6812,406.8176 L246.4873,405.6556 C247.0829,405.1389 247.6314,404.4975 247.9941,403.5598 C248.7283,404.8425 249.321,405.329 249.9288,405.716 L251.8258,406.5923 C252.4923,406.7944 253.2024,406.9112 254.0698,406.9067 L256.7686,406.5584 C257.5753,406.3405 258.164,406.0304 258.7455,405.6249 C259.327,405.2195 259.9012,404.7187 260.6023,403.5457 C261.6405,404.449 262.2,404.6512 262.7202,404.7838 L264.3033,404.9636 L266.2314,404.6108 C266.8943,404.3681 267.537,403.9771 268.0336,403.5501 C268.5302,403.1232 268.8807,402.6603 269.081,402.219 L269.3451,401.0759 L269.2675,400.5665 L268.4935,400.1087 L265.9966,398.4969 L263.7201,396.7231 L261.2244,394.1604 L259.3496,391.8182 L257.9591,389.5645 L256.899,387.3931 C256.6404,386.7663 256.5069,386.2937 256.4935,385.7271 z" stroke="#00FF00" stroke-width="0.24" fill-opacity="0" />
  <path d="M291.5166,372.1141 C291.8827,358.3441 285.6335,341.7785 274.2261,330.3711 C262.8187,318.9637 246.2531,312.7146 232.4831,313.0806 C218.7132,312.7146 202.1475,318.9637 190.7401,330.3711 C179.3327,341.7785 173.0836,358.3441 173.4496,372.1141 C173.0836,385.8841 179.3327,402.4497 190.7401,413.8571 C202.1475,425.2645 218.7132,431.5136 232.4831,431.1476 C246.2531,431.5136 262.8187,425.2645 274.2261,413.8571 C285.6335,402.4497 291.8827,385.8841 291.5166,372.1141 z" stroke="#000000" stroke-width="0.24" fill-opacity="0" />
  <path d="M227.8891,334.5531 L227.681,335.9752 L233.2088,333.2406 L238.7365,335.9752 L238.5353,334.5999" stroke="#FF0000" stroke-width="0.24" fill-opacity="0" />
</svg>