<?xml version="1.0" encoding="UTF-8" standalone="no"?>
<!DOCTYPE svg PUBLIC "-//W3C//DTD SVG 1.1//EN" "http://www.w3.org/Graphics/SVG/1.1/DTD/svg11.dtd">
<svg width="612pt" height="792pt" viewBox="0 0 612 792" overflow="visible" version="1.1" xmlns="http://www.w3.org/2000/svg">
  <path d="M172.7647,265.126 C172.9487,263.3105 170.8906,261.2524 169.0751,261.4365 C167.2596,261.2524 165.2014,263.3105 165.3855,265.126 C165.2014,266.9416 167.2596,268.9997 169.0751,268.8156 C170.8906,268.9997 172.9487,266.9416 172.7647,265.126 z" stroke="#00FF00" stroke-width="0.24" fill-opacity="0" />
  <path d="M209.4551,335.7678 C205.4489,338.886 203.9252,339.9406 202.7767,340.6612 C201.6282,341.3818 200.8548,341.7685 199.7785,342.181 L196.1244,343.3088 C194.9257,343.5859 193.9074,343.7019 192.5991,343.747 C191.2909,343.7922 189.6926,343.7664 188.2876,343.5924 C186.8827,343.4184 185.6711,343.0961 184.0212,342.4903 C182.3714,341.8845 180.2833,340.9951 178.1179,339.8351 L178.1179,349.8175 L169.0751,349.8175 L160.0323,349.8175 L160.0323,339.8351 C157.8669,340.9951 155.7788,341.8845 154.129,342.4903 C152.4791,343.0961 151.2675,343.4184 149.8626,343.5924 C148.4576,343.7664 146.8593,343.7922 145.5511,343.747 C144.2428,343.7019 143.2245,343.5859 142.0258,343.3088 L138.3717,342.181 C137.2954,341.7685 136.522,341.3818 135.3735,340.6612 C134.225,339.9406 132.7013,338.886 128.6951,335.7678 L140.9791,319.9852 L136.1075,316.3766 L148.6979,300.5177 L143.6238,296.8531 L155.9004,281.0094 L151.2104,277.3976 L169.0751,254.4286 L186.9398,277.3976 L182.2498,281.0094 L194.5264,296.8531 L189.4523,300.5177 L202.0427,316.3766 L197.1711,319.9852 z" stroke="#00FF00" stroke-width="0.24" fill-opacity="0" />
  <path d="M227.6682,305.1858 C228.0343,291.4159 221.7851,274.8502 210.3777,263.4428 C198.9703,252.0354 182.4046,245.7863 168.6347,246.1523 C154.8648,245.7863 138.2991,252.0354 126.8917,263.4428 C115.4843,274.8502 109.2352,291.4159 109.6012,305.1858 C109.2352,318.9557 115.4843,335.5214 126.8917,346.9288 C138.2991,358.3362 154.8648,364.5854 168.6347,364.2193 C182.4046,364.5854 198.9703,358.3362 210.3777,346.9288 C221.7851,335.5214 228.0343,318.9557 227.6682,305.1858 z" stroke="#000000" stroke-width="0.24" fill-opacity="0" />
</svg>