<?xml version="1.0" encoding="UTF-8" standalone="no"?>
<!DOCTYPE svg PUBLIC "-//W3C//DTD SVG 1.1//EN" "http://www.w3.org/Graphics/SVG/1.1/DTD/svg11.dtd">
<svg width="612pt" height="792pt" viewBox="0 0 612 792" overflow="visible" version="1.1" xmlns="http://www.w3.org/2000/svg">
  <path d="M177.4401,414.7342 C177.6241,412.9186 175.566,410.8605 173.7505,411.0446 C171.935,410.8605 169.8768,412.9186 170.0609,414.7342 C169.8768,416.5497 171.935,418.6078 173.7505,418.4238 C175.566,418.6078 177.6241,416.5497 177.4401,414.7342 z" stroke="#00FF00" stroke-width="0.24" fill-opacity="0" />
  <path d="M173.7505,403.0096 C174.6098,403.0573 175.0872,403.5824 176.0897,405.1976 L180.2853,412.263 L184.7278,419.3019 L185.8966,421.2629 L185.8555,421.8863 L185.376,422.698 L183.9409,424.2426 C183.5437,424.7153 183.4204,425.0098 183.3484,425.3592 L183.276,426.5832 C183.2961,427.0538 183.3568,427.5908 183.6166,428.1195 C183.8764,428.6483 184.3354,429.1689 186.3398,431.1378 L193.8162,438.3555 L196.2576,440.6876 L196.7059,441.4403 L196.6973,442.106 L196.4032,442.7246 L195.4267,443.6152 L192.7967,445.4564 C192.1142,446.0325 191.9976,446.408 191.9178,446.8334 L191.7867,448.2153 C191.7784,448.6966 191.8046,449.1838 192,449.6357 C192.1954,450.0876 192.56,450.5042 194.6473,452.5301 L202.5357,460.1143 L204.8291,462.4452 L205.0871,463.0056 L205.0927,463.5437 L204.929,464.1263 C204.8208,464.3455 204.6377,464.6007 203.9857,465.0918 L201.5611,466.7535 L200.5651,467.6246 L200.1999,468.7633 L200.1619,470.3608 L200.3149,471.3963 L200.7972,472.1007 L203.2853,474.4379 L211.0224,481.729 L213.2823,484.004 L213.5047,484.6804 L213.4351,485.4287 L213.1385,486.0062 L212.3121,486.6713 L209.9875,488.097 L206.2704,489.8329 L203.0855,490.7983 L199.9506,491.367 L197.2007,491.471 L194.1993,491.1349 L191.4474,490.7927 C190.6767,490.7613 190.1059,490.8601 189.6452,491.0264 L188.4902,491.7612 C188.1464,492.0961 187.8093,492.532 187.6476,493.0376 L187.4806,494.7927 L187.3358,496.7794 L187.0136,497.8984 C186.8666,498.1731 186.6724,498.4172 186.284,498.6391 C185.8956,498.8611 185.313,499.0608 184.2841,499.0608 L173.7505,499.0608 L163.2168,499.0608 C162.188,499.0608 161.6054,498.8611 161.217,498.6391 C160.8286,498.4172 160.6344,498.1731 160.4874,497.8984 L160.1651,496.7794 L160.0204,494.7927 L159.8534,493.0376 C159.6916,492.532 159.3546,492.0961 159.0107,491.7612 L157.8557,491.0264 C157.3951,490.8601 156.8243,490.7613 156.0535,490.7927 L153.3016,491.1349 L150.3002,491.471 L147.5503,491.367 L144.4154,490.7983 L141.2306,489.8329 L137.5135,488.097 L135.1889,486.6713 L134.3625,486.0062 L134.0659,485.4287 L133.9962,484.6804 L134.2187,484.004 L136.4786,481.729 L144.2157,474.4379 L146.7037,472.1007 L147.1861,471.3963 L147.3391,470.3608 L147.3011,468.7633 L146.9359,467.6246 L145.9399,466.7535 L143.5152,465.0918 C142.8633,464.6007 142.6802,464.3455 142.572,464.1263 L142.4083,463.5437 L142.4139,463.0056 L142.6719,462.4452 L144.9653,460.1143 L152.8537,452.5301 C154.941,450.5042 155.3055,450.0876 155.5009,449.6357 C155.6963,449.1838 155.7226,448.6966 155.7142,448.2153 L155.5831,446.8334 C155.5033,446.408 155.3868,446.0325 154.7043,445.4564 L152.0743,443.6152 L151.0978,442.7246 L150.8037,442.106 L150.795,441.4403 L151.2434,440.6876 L153.6847,438.3555 L161.1612,431.1378 C163.1656,429.1689 163.6245,428.6483 163.8843,428.1195 C164.1441,427.5908 164.2048,427.0538 164.2249,426.5832 L164.1525,425.3592 C164.0806,425.0098 163.9573,424.7153 163.56,424.2426 L162.1249,422.698 L161.6454,421.8863 L161.6043,421.2629 L162.7732,419.3019 L167.2157,412.263 L171.4113,405.1976 C172.4138,403.5824 172.8912,403.0573 173.7505,403.0096 z" stroke="#00FF00" stroke-width="0.24" fill-opacity="0" />
  <path d="M231.6687,456.714 C232.0347,442.944 225.7855,426.3784 214.3781,414.971 C202.9707,403.5636 186.4051,397.3144 172.6352,397.6805 C158.8652,397.3144 142.2996,403.5636 130.8922,414.971 C119.4848,426.3784 113.2356,442.944 113.6017,456.714 C113.2356,470.4839 119.4848,487.0495 130.8922,498.4569 C142.2996,509.8643 158.8652,516.1135 172.6352,515.7474 C186.4051,516.1135 202.9707,509.8643 214.3781,498.4569 C225.7855,487.0495 232.0347,470.4839 231.6687,456.714 z" stroke="#000000" stroke-width="0.24" fill-opacity="0" />
</svg>