<?xml version="1.0" encoding="UTF-8" standalone="no"?>
<!DOCTYPE svg PUBLIC "-//W3C//DTD SVG 1.1//EN" "http://www.w3.org/Graphics/SVG/1.1/DTD/svg11.dtd">
<svg width="612pt" height="792pt" viewBox="0 0 612 792" overflow="visible" version="1.1" xmlns="http://www.w3.org/2000/svg">
  <path d="M227.6854,500.7759 C222.1063,500.2103 215.7816,506.535 216.3472,512.1141 C215.7816,517.6933 222.1063,524.0179 227.6854,523.4523 C233.2646,524.0179 239.5892,517.6933 239.0236,512.1141 C239.5892,506.535 233.2646,500.2103 227.6854,500.7759 z" stroke="#000000" stroke-width="0.24" fill-opacity="0" />
  <path d="M216.352,450.5432 C214.758,450.3816 212.951,452.1886 213.1125,453.7827 C212.951,455.3767 214.758,457.1837 216.352,457.0221 C217.9461,457.1837 219.7531,455.3767 219.5915,453.7827 C219.7531,452.1886 217.9461,450.3816 216.352,450.5432 z" stroke="#000000" stroke-width="0.24" fill-opacity="0" />
  <path d="M239.0281,450.6357 C237.434,450.4741 235.627,452.2811 235.7886,453.8752 C235.627,455.4692 237.434,457.2762 239.0281,457.1147 C240.6221,457.2762 242.4291,455.4692 242.2675,453.8752 C242.4291,452.2811 240.6221,450.4741 239.0281,450.6357 z" stroke="#000000" stroke-width="0.24" fill-opacity="0" />
  <path d="M230.8359,339.4102 L224.5626,339.4097 L224.358,339.2916 L221.2218,333.8586 L221.2218,333.6222 L224.3588,328.1897 L224.5635,328.0715 L230.8367,328.072 L231.0414,328.1902 L234.1776,333.6232 L234.1776,333.8595 L231.0405,339.2921 z" stroke="#000000" stroke-width="0.24" fill-opacity="0" />
  <path d="M248.2562,512.1157 L248.2696,333.9239 C248.3876,328.6485 246.0988,322.9986 242.3424,319.2928 C238.6872,315.4872 233.0684,313.1229 227.792,313.1703 C222.5161,313.0756 216.8764,315.3893 213.1872,319.162 C209.3977,322.834 207.0582,328.4631 207.129,333.7393 L207.1155,511.9311 C206.9975,517.2065 209.2863,522.8564 213.0427,526.5622 C216.6979,530.3679 222.3167,532.7321 227.5932,532.6846 C232.869,532.7794 238.5087,530.4657 242.1979,526.693 C245.9874,523.0211 248.3269,517.3919 248.2562,512.1157 z" stroke="#000000" stroke-width="0.24" fill-opacity="0" />
  <path d="M227.695,384.1148 C222.1159,383.5492 215.7912,389.8739 216.3568,395.453 C215.7912,401.0322 222.1159,407.3568 227.695,406.7912 C233.2742,407.3568 239.5988,401.0322 239.0332,395.453 C239.5988,389.8739 233.2742,383.5492 227.695,384.1148 z" stroke="#000000" stroke-width="0.24" fill-opacity="0" />
</svg>